<?xml version="1.0" encoding="utf-8"?>
<!-- Generator: Adobe Illustrator 25.2.0, SVG Export Plug-In . SVG Version: 6.00 Build 0)  -->
<svg version="1.1" xmlns="http://www.w3.org/2000/svg" xmlns:xlink="http://www.w3.org/1999/xlink" x="0px" y="0px"
	 viewBox="0 0 591.3 720" style="enable-background:new 0 0 591.3 720;" xml:space="preserve">
<style type="text/css">
	.st0{clip-path:url(#SVGID_2_);}
	.st1{fill:#FFCD19;}
	.st2{fill:#25CED1;}
	.st3{fill:#CBEBF3;}
	.st4{fill:none;stroke:#028599;stroke-width:2.4025;stroke-miterlimit:10;}
	.st5{fill:#028599;}
	.st6{fill:none;stroke:#028599;stroke-width:3.3704;stroke-miterlimit:10;}
	.st7{fill:none;stroke:#FFCD19;stroke-width:2.6749;stroke-miterlimit:10;}
	.st8{fill:#FDF3F4;}
	.st9{fill:none;stroke:#028599;stroke-width:1.3375;stroke-miterlimit:10;}
	.st10{fill:none;stroke:#6FC8DE;stroke-width:2.6749;stroke-miterlimit:10;}
	.st11{fill:none;stroke:#028599;stroke-width:3.3644;stroke-miterlimit:10;}
	.st12{fill:none;stroke:#028599;stroke-width:2.3982;stroke-miterlimit:10;}
	.st13{fill:#6FC8DE;}
	.st14{fill:none;stroke:#028599;stroke-width:3.1746;stroke-miterlimit:10;}
	.st15{fill:none;stroke:#FFCD19;stroke-width:2.6702;stroke-miterlimit:10;}
	.st16{fill:#FFFFFF;}
	.st17{fill:none;stroke:#6FC8DE;stroke-width:2.6702;stroke-miterlimit:10;}
	.st18{fill:none;}
</style>
<g id="BACKGROUND">
</g>
<g id="OBJECTS">
	<g>
		<defs>
			<rect id="SVGID_1_" x="-688.7" width="1280.3" height="720"/>
		</defs>
		<clipPath id="SVGID_2_">
			<use xlink:href="#SVGID_1_"  style="overflow:visible;"/>
		</clipPath>
		<g class="st0">
			<g>
				<g>
					<path class="st1" d="M458.5,142.3v120.1l0,0c-33.2,0-60.1-26.9-60.1-60.1v0C398.5,169.2,425.4,142.3,458.5,142.3L458.5,142.3z"
						/>
					<path class="st2" d="M425.9,151.9l65.2,100.9v0c-27.9,18-65,10-83-17.9l0,0C390,207.1,398,169.9,425.9,151.9L425.9,151.9z"/>
					
						<ellipse transform="matrix(0.3827 -0.9239 0.9239 0.3827 96.108 548.533)" class="st3" cx="458.5" cy="202.3" rx="25.3" ry="25.3"/>
					
						<ellipse transform="matrix(0.9871 -0.1602 0.1602 0.9871 -26.4919 76.0599)" class="st4" cx="458.5" cy="202.3" rx="14.1" ry="14.1"/>
				</g>
			</g>
			<g>
				<g>
					<path class="st2" d="M446.3,460.2h110.2v0c0-30.4-24.7-55.1-55.1-55.1h0C470.9,405.1,446.3,429.8,446.3,460.2L446.3,460.2z"/>
					<path class="st3" d="M556.2,465.9H446.1l0,0c0,30.4,24.7,55.1,55.1,55.1h0C531.6,521,556.2,496.3,556.2,465.9L556.2,465.9z"/>
					<g>
						<path class="st5" d="M556.5,408.5c27.4,0,49.9,21.4,51.6,48.4H504.9C506.6,429.9,529.1,408.5,556.5,408.5 M556.5,405.1
							L556.5,405.1c-30.4,0-55.1,24.7-55.1,55.1v0h110.2v0C611.6,429.8,586.9,405.1,556.5,405.1L556.5,405.1z"/>
					</g>
				</g>
			</g>
			<path class="st3" d="M591.6,168.5v-207H488.2V68.1c0,55.4,44.9,100.3,100.3,100.3H591.6z"/>
			<path class="st3" d="M428.1,720h163.5V616.5h-63.2c-55.4,0-100.3,44.9-100.3,100.3V720z"/>
			<path class="st1" d="M591.6,389.2v-207h0c-57.2,0-103.5,46.3-103.5,103.5v0C488.2,342.9,534.5,389.2,591.6,389.2L591.6,389.2z"/>
			<path class="st2" d="M591.6,97.4V-6.2l0,0c-28.6,0-51.8,23.2-51.8,51.8v0C539.9,74.2,563.1,97.4,591.6,97.4L591.6,97.4z"/>
			
				<ellipse transform="matrix(0.7071 -0.7071 0.7071 0.7071 78.2193 333.0658)" class="st3" cx="441.2" cy="72.1" rx="26.5" ry="26.5"/>
			<path class="st6" d="M594.2,331.8c-16.7-7.1-35-11-54.3-11c-77,0-139.4,62.4-139.4,139.4"/>
			<circle class="st1" cx="405.3" cy="487.5" r="16.9"/>
			<g>
				<g>
					<path class="st1" d="M337.5,632.6l77.1-77.1v0c21.3,21.3,21.3,55.8,0,77.1v0C393.3,653.9,358.8,653.9,337.5,632.6L337.5,632.6z
						"/>
					<path class="st2" d="M364.6,647.4l22.9-106.6h0c29.4,6.3,48.2,35.3,41.9,64.8v0C423.1,635,394,653.8,364.6,647.4L364.6,647.4z"
						/>
					<circle class="st4" cx="376" cy="594.1" r="23"/>
					<circle class="st4" cx="376" cy="594.1" r="12.8"/>
				</g>
			</g>
			<path class="st7" d="M480.9,590.3h58c9.6,0,17.4-7.8,17.4-17.4v0c0-9.6-7.8-17.4-17.4-17.4h-58c-9.6,0-17.4,7.8-17.4,17.4v0
				C463.5,582.5,471.3,590.3,480.9,590.3z"/>
			
				<ellipse transform="matrix(0.7071 -0.7071 0.7071 0.7071 -263.9113 508.6454)" class="st2" cx="482" cy="572.9" rx="12.3" ry="12.3"/>
			<g>
				<circle class="st8" cx="565.8" cy="295.4" r="2.2"/>
				<path class="st8" d="M557.3,295.4c0-1.2-1-2.2-2.2-2.2c-1.2,0-2.2,1-2.2,2.2s1,2.2,2.2,2.2C556.3,297.6,557.3,296.6,557.3,295.4
					z"/>
				<circle class="st8" cx="544.4" cy="295.4" r="2.2"/>
				<circle class="st8" cx="533.7" cy="295.4" r="2.2"/>
				<circle class="st8" cx="523.1" cy="295.4" r="2.2"/>
			</g>
			<g>
				<path class="st8" d="M511.1,654.7c0-1.2-1-2.2-2.2-2.2s-2.2,1-2.2,2.2c0,1.2,1,2.2,2.2,2.2S511.1,656,511.1,654.7z"/>
				<path class="st8" d="M522.1,654.7c0-1.2-1-2.2-2.2-2.2c-1.2,0-2.2,1-2.2,2.2c0,1.2,1,2.2,2.2,2.2
					C521.1,657,522.1,656,522.1,654.7z"/>
				<path class="st8" d="M533,654.7c0-1.2-1-2.2-2.2-2.2c-1.2,0-2.2,1-2.2,2.2c0,1.2,1,2.2,2.2,2.2C532,657,533,656,533,654.7z"/>
				<path class="st8" d="M543.9,654.7c0-1.2-1-2.2-2.2-2.2c-1.2,0-2.2,1-2.2,2.2c0,1.2,1,2.2,2.2,2.2
					C542.9,657,543.9,656,543.9,654.7z"/>
				<path class="st8" d="M554.8,654.7c0-1.2-1-2.2-2.2-2.2c-1.2,0-2.2,1-2.2,2.2c0,1.2,1,2.2,2.2,2.2
					C553.8,657,554.8,656,554.8,654.7z"/>
				<path class="st8" d="M565.8,654.7c0-1.2-1-2.2-2.2-2.2c-1.2,0-2.2,1-2.2,2.2c0,1.2,1,2.2,2.2,2.2
					C564.8,657,565.8,656,565.8,654.7z"/>
				<path class="st8" d="M576.7,654.7c0-1.2-1-2.2-2.2-2.2c-1.2,0-2.2,1-2.2,2.2c0,1.2,1,2.2,2.2,2.2
					C575.7,657,576.7,656,576.7,654.7z"/>
				<path class="st8" d="M500.5,654.7c0-1.2-1-2.2-2.2-2.2c-1.2,0-2.2,1-2.2,2.2c0,1.2,1,2.2,2.2,2.2
					C499.5,657,500.5,656,500.5,654.7z"/>
				<path class="st8" d="M489.8,654.7c0-1.2-1-2.2-2.2-2.2c-1.2,0-2.2,1-2.2,2.2c0,1.2,1,2.2,2.2,2.2
					C488.8,657,489.8,656,489.8,654.7z"/>
				<path class="st8" d="M479.1,654.7c0-1.2-1-2.2-2.2-2.2s-2.2,1-2.2,2.2c0,1.2,1,2.2,2.2,2.2S479.1,656,479.1,654.7z"/>
				<path class="st8" d="M468.4,654.7c0-1.2-1-2.2-2.2-2.2s-2.2,1-2.2,2.2c0,1.2,1,2.2,2.2,2.2S468.4,656,468.4,654.7z"/>
			</g>
			<g>
				<path class="st2" d="M183.9,654.7c0-1.2-1-2.2-2.2-2.2c-1.2,0-2.2,1-2.2,2.2c0,1.2,1,2.2,2.2,2.2
					C182.9,657,183.9,656,183.9,654.7z"/>
				<path class="st2" d="M194.8,654.7c0-1.2-1-2.2-2.2-2.2c-1.2,0-2.2,1-2.2,2.2c0,1.2,1,2.2,2.2,2.2
					C193.8,657,194.8,656,194.8,654.7z"/>
				<path class="st2" d="M205.7,654.7c0-1.2-1-2.2-2.2-2.2c-1.2,0-2.2,1-2.2,2.2c0,1.2,1,2.2,2.2,2.2
					C204.7,657,205.7,656,205.7,654.7z"/>
				<path class="st2" d="M216.7,654.7c0-1.2-1-2.2-2.2-2.2c-1.2,0-2.2,1-2.2,2.2c0,1.2,1,2.2,2.2,2.2
					C215.7,657,216.7,656,216.7,654.7z"/>
				<path class="st2" d="M227.6,654.7c0-1.2-1-2.2-2.2-2.2c-1.2,0-2.2,1-2.2,2.2c0,1.2,1,2.2,2.2,2.2
					C226.6,657,227.6,656,227.6,654.7z"/>
				<path class="st2" d="M238.5,654.7c0-1.2-1-2.2-2.2-2.2c-1.2,0-2.2,1-2.2,2.2c0,1.2,1,2.2,2.2,2.2
					C237.5,657,238.5,656,238.5,654.7z"/>
				<path class="st2" d="M249.4,654.7c0-1.2-1-2.2-2.2-2.2c-1.2,0-2.2,1-2.2,2.2c0,1.2,1,2.2,2.2,2.2
					C248.4,657,249.4,656,249.4,654.7z"/>
				<path class="st2" d="M173.2,654.7c0-1.2-1-2.2-2.2-2.2c-1.2,0-2.2,1-2.2,2.2c0,1.2,1,2.2,2.2,2.2
					C172.2,657,173.2,656,173.2,654.7z"/>
				<path class="st2" d="M162.5,654.7c0-1.2-1-2.2-2.2-2.2c-1.2,0-2.2,1-2.2,2.2c0,1.2,1,2.2,2.2,2.2
					C161.5,657,162.5,656,162.5,654.7z"/>
				<path class="st2" d="M151.8,654.7c0-1.2-1-2.2-2.2-2.2c-1.2,0-2.2,1-2.2,2.2c0,1.2,1,2.2,2.2,2.2
					C150.8,657,151.8,656,151.8,654.7z"/>
				<path class="st2" d="M141.2,654.7c0-1.2-1-2.2-2.2-2.2c-1.2,0-2.2,1-2.2,2.2c0,1.2,1,2.2,2.2,2.2
					C140.2,657,141.2,656,141.2,654.7z"/>
			</g>
			<g>
				<circle class="st1" cx="442.2" cy="72.1" r="2.2"/>
				<circle class="st1" cx="431.5" cy="72.1" r="2.2"/>
				<circle class="st1" cx="420.8" cy="72.1" r="2.2"/>
				<circle class="st1" cx="410.1" cy="72.1" r="2.2"/>
				<path class="st1" d="M401.7,72.1c0-1.2-1-2.2-2.2-2.2c-1.2,0-2.2,1-2.2,2.2s1,2.2,2.2,2.2C400.7,74.4,401.7,73.4,401.7,72.1z"/>
			</g>
			<path class="st9" d="M591.6,345c-15.8-7.1-33.3-11.1-51.8-11.1c-69.8,0-126.3,56.6-126.3,126.3"/>
			<g>
				<circle class="st3" cx="354.4" cy="113.8" r="29.3"/>
				<path class="st3" d="M211.7-1c19.9,34.8,57.3,58.3,100.3,58.3h0c42.9,0,80.4-23.5,100.3-58.3H211.7z"/>
				
					<ellipse transform="matrix(0.8469 -0.5317 0.5317 0.8469 17.1466 163.4986)" class="st1" cx="292.5" cy="52" rx="13.2" ry="13.2"/>
				<g>
					<line class="st10" x1="316.5" y1="77.7" x2="392.3" y2="153.5"/>
					<line class="st10" x1="319.8" y1="74.2" x2="362.3" y2="116.7"/>
				</g>
			</g>
			<g>
				<g>
					<g>
						<path class="st3" d="M331.9,520.8H212l0,0c0,33.1,26.8,60,60,60h0C305.1,580.8,331.9,553.9,331.9,520.8L331.9,520.8z"/>
						<path class="st1" d="M322.3,553.4l-100.7-65.1v0c-18,27.8-10,64.9,17.8,82.9l0,0C267.2,589.2,304.4,581.2,322.3,553.4
							L322.3,553.4z"/>
						
							<ellipse transform="matrix(0.1589 -0.9873 0.9873 0.1589 -285.4638 706.5663)" class="st2" cx="272" cy="520.8" rx="25.3" ry="25.3"/>
						
							<ellipse transform="matrix(0.9225 -0.386 0.386 0.9225 -179.9587 145.3412)" class="st11" cx="272" cy="520.8" rx="14.1" ry="14.1"/>
					</g>
				</g>
				<g>
					<g>
						<path class="st1" d="M257,252.4h110l0,0c0,30.4-24.6,55-55,55h0C281.6,307.4,257,282.8,257,252.4L257,252.4z"/>
						<path class="st1" d="M56.7-0.4h110v0c0,30.4-24.6,55-55,55h0C81.4,54.6,56.7,29.9,56.7-0.4L56.7-0.4z"/>
						<path class="st3" d="M366.8,246.7h-110v0c0-30.4,24.6-55,55-55h0C342.1,191.7,366.8,216.3,366.8,246.7L366.8,246.7z"/>
						<g>
							<path class="st5" d="M418.5,255.8c-1.7,26.9-24.2,48.3-51.5,48.3c-27.3,0-49.8-21.4-51.5-48.3H418.5 M422,252.4H312l0,0
								c0,30.4,24.6,55,55,55h0C397.4,307.4,422,282.8,422,252.4L422,252.4L422,252.4z"/>
						</g>
					</g>
				</g>
				<path class="st1" d="M125.5,297v206.6h0c-57.1,0-103.3-46.2-103.3-103.3v0C22.2,343.2,68.4,297,125.5,297L125.5,297z"/>
				<circle class="st3" cx="283.3" cy="712.6" r="26.4"/>
				
					<ellipse transform="matrix(0.2281 -0.9736 0.9736 0.2281 -61.1998 391.1353)" class="st2" cx="216.1" cy="234.2" rx="16.9" ry="16.9"/>
				<circle class="st2" cx="170.8" cy="365.1" r="16.9"/>
				<circle class="st2" cx="225.5" cy="416.6" r="12.3"/>
				<g>
					<g>
						<path class="st1" d="M179,85l77,77v0c21.3-21.3,21.3-55.7,0-77v0C234.7,63.8,200.2,63.8,179,85L179,85z"/>
						<path class="st2" d="M206.1,70.3L229,176.7l0,0c29.4-6.3,48.1-35.3,41.8-64.7v0C264.4,82.7,235.5,64,206.1,70.3L206.1,70.3z"
							/>
						<path class="st12" d="M233.7,139.8c-9,9-23.5,9-32.5,0c-9-9-9-23.5,0-32.5c9-9,23.5-9,32.5,0
							C242.7,116.3,242.7,130.8,233.7,139.8z"/>
						<circle class="st12" cx="217.5" cy="123.5" r="12.8"/>
					</g>
				</g>
				<g>
					<g>
						<g>
							<path class="st1" d="M64.6,456.9C64.6,456.9,64.6,456.9,64.6,456.9C64.6,456.9,64.6,456.9,64.6,456.9z"/>
							<path class="st1" d="M196,449.6c-0.1,0.3-0.3,0.7-0.4,1C195.8,450.3,195.9,449.9,196,449.6z"/>
							<path class="st1" d="M63,453.7c0-0.1-0.1-0.1-0.1-0.2C63,453.6,63,453.7,63,453.7z"/>
							<path class="st1" d="M194.6,453.1c0,0.1-0.1,0.1-0.1,0.2C194.5,453.3,194.5,453.2,194.6,453.1z"/>
							<path class="st1" d="M61.6,450.4c0,0,0-0.1-0.1-0.1C61.6,450.3,61.6,450.4,61.6,450.4z"/>
							<path class="st13" d="M195.6,450.6c-0.3,0.8-0.7,1.7-1.1,2.5C194.9,452.3,195.3,451.5,195.6,450.6z"/>
							<path class="st13" d="M196.4,448.7L196.4,448.7c-0.1,0.3-0.2,0.6-0.3,0.9C196.1,449.3,196.3,449,196.4,448.7z"/>
						</g>
						
							<ellipse transform="matrix(0.9879 -0.1552 0.1552 0.9879 -64.2422 25.1123)" class="st14" cx="128.7" cy="423.9" rx="30.4" ry="30.4"/>
						
							<ellipse transform="matrix(0.5202 -0.8541 0.8541 0.5202 -300.3094 313.317)" class="st14" cx="128.7" cy="423.9" rx="16.9" ry="16.9"/>
					</g>
				</g>
				<path class="st15" d="M242.8,359.8v57.9c0,9.6-7.8,17.4-17.4,17.4l0,0c-9.6,0-17.4-7.8-17.4-17.4v-57.9
					c0-9.6,7.8-17.4,17.4-17.4l0,0C235,342.5,242.8,350.2,242.8,359.8z"/>
				<g>
					<path class="st1" d="M205.4,647.7c0-1.2,1-2.2,2.2-2.2c1.2,0,2.2,1,2.2,2.2s-1,2.2-2.2,2.2C206.4,650,205.4,649,205.4,647.7z"
						/>
					<path class="st1" d="M216.1,647.7c0-1.2,1-2.2,2.2-2.2c1.2,0,2.2,1,2.2,2.2s-1,2.2-2.2,2.2C217.1,650,216.1,649,216.1,647.7z"
						/>
					<path class="st1" d="M226.7,647.7c0-1.2,1-2.2,2.2-2.2c1.2,0,2.2,1,2.2,2.2s-1,2.2-2.2,2.2C227.7,650,226.7,649,226.7,647.7z"
						/>
					<path class="st1" d="M237.4,647.7c0-1.2,1-2.2,2.2-2.2s2.2,1,2.2,2.2s-1,2.2-2.2,2.2S237.4,649,237.4,647.7z"/>
					<path class="st1" d="M248.1,647.7c0-1.2,1-2.2,2.2-2.2c1.2,0,2.2,1,2.2,2.2s-1,2.2-2.2,2.2C249.1,650,248.1,649,248.1,647.7z"
						/>
				</g>
				<g>
					<circle class="st5" cx="167.3" cy="540.8" r="3.5"/>
					<circle class="st5" cx="167.3" cy="523.9" r="3.5"/>
					<circle class="st5" cx="167.3" cy="507" r="3.5"/>
					<path class="st5" d="M167.3,493.6c-2,0-3.5-1.6-3.5-3.5c0-2,1.6-3.5,3.5-3.5c2,0,3.5,1.6,3.5,3.5
						C170.8,492.1,169.2,493.6,167.3,493.6z"/>
					<path class="st5" d="M167.3,476.7c-2,0-3.5-1.6-3.5-3.5c0-2,1.6-3.5,3.5-3.5c2,0,3.5,1.6,3.5,3.5
						C170.8,475.2,169.2,476.7,167.3,476.7z"/>
				</g>
				<g>
					<path class="st16" d="M333.2,70.7c0-1.2,1-2.2,2.2-2.2s2.2,1,2.2,2.2c0,1.2-1,2.2-2.2,2.2S333.2,71.9,333.2,70.7z"/>
					<circle class="st16" cx="324.5" cy="70.7" r="2.2"/>
					<circle class="st16" cx="313.6" cy="70.7" r="2.2"/>
					<path class="st16" d="M300.5,70.7c0-1.2,1-2.2,2.2-2.2s2.2,1,2.2,2.2c0,1.2-1,2.2-2.2,2.2S300.5,71.9,300.5,70.7z"/>
					<circle class="st16" cx="291.8" cy="70.7" r="2.2"/>
					<circle class="st16" cx="280.9" cy="70.7" r="2.2"/>
					<path class="st16" d="M267.8,70.7c0-1.2,1-2.2,2.2-2.2c1.2,0,2.2,1,2.2,2.2c0,1.2-1,2.2-2.2,2.2
						C268.8,72.9,267.8,71.9,267.8,70.7z"/>
					<circle class="st16" cx="346.1" cy="70.7" r="2.2"/>
					<circle class="st16" cx="356.8" cy="70.7" r="2.2"/>
					<path class="st16" d="M365.2,70.7c0-1.2,1-2.2,2.2-2.2c1.2,0,2.2,1,2.2,2.2c0,1.2-1,2.2-2.2,2.2
						C366.2,72.9,365.2,71.9,365.2,70.7z"/>
					<circle class="st16" cx="378.1" cy="70.7" r="2.2"/>
				</g>
				<g>
					<circle class="st3" cx="78.4" cy="665.8" r="29.2"/>
					<circle class="st1" cx="173.2" cy="607.9" r="13.2"/>
					<g>
						<line class="st17" x1="40.6" y1="701.9" x2="116.3" y2="626.2"/>
						<line class="st17" x1="43.9" y1="705.4" x2="86.3" y2="663"/>
					</g>
				</g>
			</g>
			<g>
				<g>
					<g>
						<path class="st1" d="M18.1,220.2c0,0,33.4-51.7,74.6-51.7c41.2,0,74.6,51.7,74.6,51.7s-33.4,51.7-74.6,51.7
							C51.5,271.9,18.1,220.2,18.1,220.2z"/>
						<path class="st16" d="M18.1,220.2c0,0,33.4-37,74.6-37c41.2,0,74.6,37,74.6,37s-33.4,37-74.6,37
							C51.5,257.2,18.1,220.2,18.1,220.2z"/>
						<g>
							<g>
								
									<ellipse transform="matrix(0.9924 -0.1231 0.1231 0.9924 -26.4033 13.0823)" class="st2" cx="92.7" cy="220.2" rx="31.1" ry="31.1"/>
								<g>
									<path class="st5" d="M76.7,219.7c0.3-8.8,7.6-15.7,16.4-15.5c8.8,0.3,15.7,7.6,15.5,16.4c-0.3,8.8-7.6,15.7-16.4,15.5
										C83.4,235.9,76.5,228.5,76.7,219.7z"/>
								</g>
							</g>
							<g>
								<path class="st16" d="M76.4,208.4c0-4.5,3.6-8.1,8.1-8.1c4.5,0,8.1,3.6,8.1,8.1c0,4.5-3.6,8.1-8.1,8.1
									C80.1,216.5,76.4,212.8,76.4,208.4z"/>
								<path class="st16" d="M73.8,219.1c0-1.6,1.3-2.8,2.8-2.8c1.6,0,2.8,1.3,2.8,2.8c0,1.6-1.3,2.8-2.8,2.8
									C75.1,222,73.8,220.7,73.8,219.1z"/>
							</g>
						</g>
					</g>
				</g>
			</g>
			<g>
				<g>
					<g>
						<path class="st2" d="M266.5,391.5c0,0,23.9-37,53.4-37c29.5,0,53.4,37,53.4,37s-23.9,37-53.4,37
							C290.4,428.5,266.5,391.5,266.5,391.5z"/>
						<path class="st16" d="M266.5,391.5c0,0,23.9-26.5,53.4-26.5c29.5,0,53.4,26.5,53.4,26.5S349.4,418,319.9,418
							C290.4,418,266.5,391.5,266.5,391.5z"/>
						<g>
							<g>
								
									<ellipse transform="matrix(0.1487 -0.9889 0.9889 0.1487 -114.8487 649.6596)" class="st2" cx="319.9" cy="391.5" rx="22.3" ry="22.3"/>
								<g>
									<path class="st5" d="M308.5,391.2c0.2-6.3,5.4-11.3,11.7-11.1c6.3,0.2,11.3,5.4,11.1,11.7c-0.2,6.3-5.4,11.3-11.7,11.1
										C313.3,402.8,308.3,397.5,308.5,391.2z"/>
								</g>
							</g>
							<g>
								<path class="st16" d="M308.3,383.1c0-3.2,2.6-5.8,5.8-5.8c3.2,0,5.8,2.6,5.8,5.8c0,3.2-2.6,5.8-5.8,5.8
									C310.9,388.9,308.3,386.3,308.3,383.1z"/>
								<path class="st16" d="M306.4,390.8c0-1.1,0.9-2,2-2c1.1,0,2,0.9,2,2c0,1.1-0.9,2-2,2C307.3,392.8,306.4,391.9,306.4,390.8z"
									/>
							</g>
						</g>
					</g>
				</g>
			</g>
			<g>
				<g>
					<g>
						<path class="st13" d="M20.4,561.1c0,0,23.9-37,53.4-37c29.5,0,53.4,37,53.4,37s-23.9,37-53.4,37
							C44.3,598.1,20.4,561.1,20.4,561.1z"/>
						<path class="st16" d="M20.4,561.1c0,0,23.9-26.5,53.4-26.5c29.5,0,53.4,26.5,53.4,26.5s-23.9,26.5-53.4,26.5
							C44.3,587.5,20.4,561.1,20.4,561.1z"/>
						<g>
							<g>
								
									<ellipse transform="matrix(0.9869 -0.1613 0.1613 0.9869 -89.5342 19.2533)" class="st13" cx="73.8" cy="561.1" rx="22.3" ry="22.3"/>
								<g>
									<path class="st5" d="M62.4,560.7c0.2-6.3,5.4-11.3,11.7-11.1c6.3,0.2,11.3,5.4,11.1,11.7c-0.2,6.3-5.4,11.3-11.7,11.1
										C67.2,572.3,62.2,567,62.4,560.7z"/>
								</g>
							</g>
							<g>
								<path class="st16" d="M62.2,552.6c0-3.2,2.6-5.8,5.8-5.8c3.2,0,5.8,2.6,5.8,5.8c0,3.2-2.6,5.8-5.8,5.8
									C64.8,558.4,62.2,555.8,62.2,552.6z"/>
								<path class="st16" d="M60.3,560.3c0-1.1,0.9-2,2-2c1.1,0,2,0.9,2,2c0,1.1-0.9,2-2,2C61.2,562.3,60.3,561.4,60.3,560.3z"/>
							</g>
						</g>
					</g>
				</g>
			</g>
			<g>
				<path class="st3" d="M401.8,450.6c-10.9-0.1-20.2,8-21.9,18.6c-0.9-0.3-1.9-0.4-2.9-0.4c-1,0-2.1,0.1-3.1,0.4
					c-1.8-10.5-10.9-18.3-21.7-18.4c-12.2-0.1-22.1,9.8-22.2,22c-0.1,12.2,9.8,22.1,22,22.2c11.9,0.1,21.7-9.4,22.2-21.3
					c0.9-0.3,1.9-0.5,2.8-0.5c1.2,0,2.1,0.3,2.7,0.5c0.6,11.6,10.3,20.9,21.9,20.9c12.2,0.1,22.1-9.8,22.2-22
					C423.8,460.7,413.9,450.7,401.8,450.6z"/>
				<g>
					<path class="st18" d="M401.6,490.4c9.7,0,17.7-7.8,17.7-17.5c0-9.7-7.8-17.7-17.5-17.7c-9.7,0-17.7,7.8-17.7,17.5
						C384,482.4,391.9,490.3,401.6,490.4z"/>
					<path class="st18" d="M352,490.6c9.7,0,17.7-7.8,17.7-17.5c0-0.4,0-0.7,0-1.1l-0.5-0.9l0.4-0.2c-1-8.7-8.5-15.5-17.4-15.5
						c-9.7,0-17.7,7.8-17.7,17.5C334.4,482.6,342.3,490.6,352,490.6z"/>
					<path class="st5" d="M401.8,450.6c-10.9-0.1-20.2,8-21.9,18.6c-0.9-0.3-1.9-0.4-2.9-0.4c-1,0-2.1,0.1-3.1,0.4
						c-1.8-10.5-10.9-18.3-21.7-18.4c-12.2-0.1-22.1,9.8-22.2,22c-0.1,12.2,9.8,22.1,22,22.2c11.9,0.1,21.7-9.4,22.2-21.3
						c0.9-0.3,1.9-0.5,2.8-0.5c1.2,0,2.1,0.3,2.7,0.5c0.6,11.6,10.3,20.9,21.9,20.9c12.2,0.1,22.1-9.8,22.2-22
						C423.8,460.7,413.9,450.7,401.8,450.6z M401.7,455.1c9.7,0,17.6,8,17.5,17.7c0,9.7-8,17.6-17.7,17.5c-9.7,0-17.6-8-17.5-17.7
						C384.1,462.9,392,455.1,401.7,455.1z M352.2,455.4c8.9,0,16.4,6.8,17.4,15.5c0.7,5.8-1.6,11.7-6.1,15.5
						c-3.2,2.7-7.3,4.2-11.5,4.2c-9.7,0-17.6-8-17.5-17.7C334.5,463.2,342.4,455.3,352.2,455.4z"/>
				</g>
			</g>
			<g>
				<path class="st3" d="M220,284.8c-10.9-0.1-20.2,8-21.9,18.6c-0.9-0.3-1.9-0.4-2.9-0.4c-1,0-2.1,0.1-3.1,0.4
					c-1.8-10.5-10.9-18.3-21.7-18.4c-12.2-0.1-22.1,9.8-22.2,22c-0.1,12.2,9.8,22.1,22,22.2c11.9,0.1,21.7-9.4,22.2-21.3
					c0.9-0.3,1.9-0.5,2.8-0.5c1.2,0,2.1,0.3,2.7,0.5c0.6,11.6,10.3,20.9,21.9,20.9c12.2,0.1,22.1-9.8,22.2-22
					C242,294.8,232.2,284.8,220,284.8z"/>
				<g>
					<path class="st18" d="M219.8,324.5c9.7,0,17.7-7.8,17.7-17.5c0-9.7-7.8-17.7-17.5-17.7c-9.7,0-17.7,7.8-17.7,17.5
						C202.2,316.5,210.1,324.5,219.8,324.5z"/>
					<path class="st18" d="M170.2,324.7c9.7,0,17.7-7.8,17.7-17.5c0-0.4,0-0.7,0-1.1l-0.5-0.9l0.4-0.2c-1-8.7-8.5-15.5-17.4-15.5
						c-9.7,0-17.7,7.8-17.7,17.5C152.6,316.8,160.5,324.7,170.2,324.7z"/>
					<path class="st5" d="M220,284.8c-10.9-0.1-20.2,8-21.9,18.6c-0.9-0.3-1.9-0.4-2.9-0.4c-1,0-2.1,0.1-3.1,0.4
						c-1.8-10.5-10.9-18.3-21.7-18.4c-12.2-0.1-22.1,9.8-22.2,22c-0.1,12.2,9.8,22.1,22,22.2c11.9,0.1,21.7-9.4,22.2-21.3
						c0.9-0.3,1.9-0.5,2.8-0.5c1.2,0,2.1,0.3,2.7,0.5c0.6,11.6,10.3,20.9,21.9,20.9c12.2,0.1,22.1-9.8,22.2-22
						C242,294.8,232.2,284.8,220,284.8z M220,289.3c9.7,0,17.6,8,17.5,17.7c0,9.7-8,17.6-17.7,17.5c-9.7,0-17.6-8-17.5-17.7
						C202.3,297.1,210.2,289.2,220,289.3z M170.4,289.5c8.9,0,16.4,6.8,17.4,15.5c0.7,5.8-1.6,11.7-6.1,15.5
						c-3.2,2.7-7.3,4.2-11.5,4.2c-9.7,0-17.6-8-17.5-17.7C152.7,297.3,160.7,289.5,170.4,289.5z"/>
				</g>
			</g>
			<g>
				<path class="st3" d="M104.4,98.7c-10.9-0.1-20.2,8-21.9,18.6c-0.9-0.3-1.9-0.4-2.9-0.4c-1,0-2.1,0.1-3.1,0.4
					C74.7,106.8,65.6,99,54.8,98.9c-12.2-0.1-22.1,9.8-22.2,22c-0.1,12.2,9.8,22.1,22,22.2c11.9,0.1,21.7-9.4,22.2-21.3
					c0.9-0.3,1.9-0.5,2.8-0.5c1.2,0,2.1,0.3,2.7,0.5c0.6,11.6,10.3,20.9,21.9,20.9c12.2,0.1,22.1-9.8,22.2-22
					C126.4,108.7,116.6,98.7,104.4,98.7z"/>
				<g>
					<path class="st18" d="M104.2,138.4c9.7,0,17.7-7.8,17.7-17.5c0-9.7-7.8-17.7-17.5-17.7c-9.7,0-17.7,7.8-17.7,17.5
						C86.6,130.4,94.5,138.4,104.2,138.4z"/>
					<path class="st18" d="M54.6,138.6c9.7,0,17.7-7.8,17.7-17.5c0-0.4,0-0.7,0-1.1l-0.5-0.9l0.4-0.2c-1-8.7-8.5-15.5-17.4-15.5
						c-9.7,0-17.7,7.8-17.7,17.5C37,130.7,44.9,138.6,54.6,138.6z"/>
					<path class="st5" d="M104.4,98.7c-10.9-0.1-20.2,8-21.9,18.6c-0.9-0.3-1.9-0.4-2.9-0.4c-1,0-2.1,0.1-3.1,0.4
						C74.7,106.8,65.6,99,54.8,98.9c-12.2-0.1-22.1,9.8-22.2,22c-0.1,12.2,9.8,22.1,22,22.2c11.9,0.1,21.7-9.4,22.2-21.3
						c0.9-0.3,1.9-0.5,2.8-0.5c1.2,0,2.1,0.3,2.7,0.5c0.6,11.6,10.3,20.9,21.9,20.9c12.2,0.1,22.1-9.8,22.2-22
						C126.4,108.7,116.6,98.7,104.4,98.7z M104.4,103.2c9.7,0,17.6,8,17.5,17.7c0,9.7-8,17.6-17.7,17.5c-9.7,0-17.6-8-17.5-17.7
						C86.7,111,94.7,103.1,104.4,103.2z M54.8,103.4c8.9,0,16.4,6.8,17.4,15.5c0.7,5.8-1.6,11.7-6.1,15.5c-3.2,2.7-7.3,4.2-11.5,4.2
						c-9.7,0-17.6-8-17.5-17.7C37.1,111.2,45.1,103.4,54.8,103.4z"/>
				</g>
			</g>
		</g>
	</g>
</g>
<g id="TEXTS">
</g>
</svg>
