<?xml version="1.0" encoding="utf-8"?>
<!-- Generator: Adobe Illustrator 25.2.0, SVG Export Plug-In . SVG Version: 6.00 Build 0)  -->
<svg version="1.1" id="Layer_1" xmlns="http://www.w3.org/2000/svg" xmlns:xlink="http://www.w3.org/1999/xlink" x="0px" y="0px"
	 viewBox="0 0 32 32" style="enable-background:new 0 0 32 32;" xml:space="preserve">
<style type="text/css">
	.st0{fill:#60327C;}
</style>
<g id="Layer_58">
	<path class="st0" d="M16,26c-1.1,0-2-0.9-2-2s0.9-2,2-2s2,0.9,2,2S17.1,26,16,26z"/>
	<path class="st0" d="M16,20c-0.6,0-1-0.4-1-1v-8c0-0.6,0.4-1,1-1c0.6,0,1,0.4,1,1v8C17,19.6,16.6,20,16,20z"/>
	<path class="st0" d="M27.8,30H4.2c-1.1,0-2.2-0.6-2.8-1.6c-0.6-1-0.6-2.2-0.1-3.1L13.2,3.7C14,2.1,16,1.5,17.6,2.4
		c0.5,0.3,1,0.7,1.3,1.3l11.8,21.6c0.5,1,0.5,2.2-0.1,3.1C30,29.4,28.9,30,27.8,30z M16,4c-0.4,0-0.9,0.2-1.1,0.6L3.2,26.2
		c-0.2,0.4-0.2,0.8,0,1.2c0.2,0.4,0.6,0.6,1,0.6h23.6c0.4,0,0.8-0.2,1-0.6c0.2-0.4,0.2-0.8,0-1.2L17.1,4.6C16.9,4.2,16.4,4,16,4z"/>
</g>
</svg>
