<svg width="302" height="302" viewBox="0 0 302 302" fill="none" xmlns="http://www.w3.org/2000/svg">
<g clip-path="url(#clip0_1052_616)">
<path d="M83.4856 50.476C85.5342 56.4054 91.056 60.392 97.227 60.392H134.631C140.802 60.392 146.324 56.4054 148.372 50.476C150.325 44.8083 156.461 32.1289 161.223 28.1021C165.396 24.5635 167.354 19.082 166.327 13.7969C165.32 8.59724 161.691 4.48991 156.622 2.81375C141.517 -2.19458 128.118 -0.508361 117.874 7.68115C116.037 9.15093 113.571 9.15093 111.734 7.68115C101.49 -0.503328 88.1013 -2.18955 72.9857 2.81878C67.917 4.49494 64.2828 8.59724 63.2761 13.8019C62.2492 19.0871 64.2073 24.5685 68.38 28.1071C73.7709 32.6674 82.0259 46.2478 83.4856 50.476ZM73.1619 15.7196C73.3431 14.7784 73.9773 13.0972 76.1518 12.3774C80.8329 10.8271 85.197 10.057 89.2338 10.057C95.4452 10.057 100.871 11.8892 105.447 15.5485C110.958 19.9629 118.66 19.9528 124.161 15.5485C131.717 9.50831 141.567 8.44121 153.456 12.3774C155.631 13.0972 156.26 14.7834 156.441 15.7196C156.778 17.4663 156.134 19.223 154.715 20.426C147.023 26.9393 140.148 43.4593 138.859 47.1992C138.215 49.0716 136.514 50.33 134.636 50.33H97.2321C95.3495 50.33 93.6533 49.0716 93.009 47.1992C90.91 41.1187 81.5728 26.0887 74.8934 20.426C73.4689 19.2179 72.8196 17.4612 73.1619 15.7196Z" fill="#60327C"/>
<path d="M158.716 70.4589C158.716 67.6804 156.461 65.4254 153.683 65.4254C152.747 65.4254 151.916 65.7526 151.166 66.1955C150.416 65.7476 149.586 65.4254 148.649 65.4254H88.2474C85.4689 65.4254 83.2139 67.6804 83.2139 70.4589C83.2139 73.2374 85.4689 75.4924 88.2474 75.4924H148.649V80.5259H93.2809C90.5024 80.5259 88.2474 82.7809 88.2474 85.5594C88.2474 88.3379 90.5024 90.5929 93.2809 90.5929H153.305C157.815 94.3479 163.372 96.4972 169.307 96.4972C176.027 96.4972 182.349 93.8748 187.105 89.1181C189.073 87.15 189.073 83.9688 187.105 82.0007C185.137 80.0326 181.956 80.0326 179.988 82.0007C174.3 87.6886 164.445 87.7037 158.716 82.0712V70.4589Z" fill="#60327C"/>
<path d="M108.381 130.861C76.1114 130.861 37.9121 171.788 37.9121 206.363C37.9121 209.142 40.1671 211.397 42.9456 211.397C45.7241 211.397 47.9791 209.142 47.9791 206.363C47.9791 177.622 81.8495 140.928 108.381 140.928C111.16 140.928 113.415 138.673 113.415 135.894C113.415 133.116 111.16 130.861 108.381 130.861Z" fill="#60327C"/>
<path d="M249.319 161.062C244.13 161.062 237.949 161.364 231.717 162.074C224.937 149.661 215.998 138.985 204.712 130.343L168.461 105.704C162.466 101.103 153.018 95.6265 142.055 95.6265H102.91C93.2254 95.6265 83.702 98.9234 76.2323 104.798L40.6052 130.755C3.47302 159.95 -8.2802 211.11 12.6642 252.405C20.2849 267.43 33.0146 285.586 50.4205 286.764C51.7846 286.854 53.1637 286.905 54.553 286.905H152.5C159.889 296.096 171.199 302.005 183.884 302.005C198.471 302.005 211.236 294.178 218.303 282.53C227.298 285.324 238.326 286.905 249.319 286.905C273.525 286.905 299.654 279.208 299.654 266.771V239.086H299.257C299.498 238.271 299.654 237.435 299.654 236.57V206.369V178.684C299.654 164.772 268.014 161.062 249.319 161.062ZM289.205 178.634C289.099 178.74 289.013 178.845 288.868 178.961C288.671 179.117 288.435 179.283 288.168 179.454C287.836 179.666 287.433 179.887 286.995 180.109C286.638 180.29 286.265 180.476 285.837 180.662C285.309 180.899 284.685 181.136 284.045 181.377C283.532 181.568 283.014 181.76 282.43 181.956C281.695 182.198 280.849 182.439 279.998 182.676C279.334 182.862 278.68 183.053 277.945 183.235C276.988 183.471 275.911 183.688 274.839 183.904C274.029 184.07 273.259 184.241 272.383 184.397C271.175 184.609 269.826 184.79 268.492 184.971C267.581 185.097 266.73 185.238 265.759 185.349C264.173 185.53 262.427 185.656 260.685 185.782C259.799 185.847 258.994 185.938 258.068 185.993C255.319 186.144 252.41 186.235 249.304 186.235C246.199 186.235 243.289 186.144 240.541 185.993C239.615 185.943 238.809 185.852 237.923 185.782C236.182 185.651 234.435 185.525 232.85 185.349C231.878 185.238 231.028 185.097 230.116 184.971C228.783 184.79 227.434 184.609 226.226 184.397C225.35 184.241 224.58 184.07 223.769 183.904C222.697 183.683 221.62 183.466 220.664 183.235C219.929 183.053 219.279 182.867 218.61 182.676C217.759 182.439 216.919 182.198 216.179 181.956C215.595 181.765 215.076 181.568 214.563 181.377C213.924 181.136 213.3 180.899 212.771 180.662C212.343 180.476 211.971 180.29 211.613 180.109C211.175 179.882 210.773 179.661 210.441 179.454C210.174 179.283 209.937 179.122 209.741 178.961C209.605 178.855 209.529 178.76 209.429 178.659C209.489 178.609 209.529 178.558 209.6 178.503C209.786 178.347 210.053 178.171 210.315 178C210.722 177.733 211.231 177.451 211.83 177.149C212.157 176.983 212.479 176.822 212.862 176.656C213.259 176.48 213.717 176.303 214.175 176.122C214.719 175.911 215.313 175.699 215.942 175.488C216.395 175.337 216.833 175.181 217.336 175.03C218.464 174.688 219.697 174.35 221.051 174.023C221.675 173.872 222.4 173.736 223.08 173.595C223.9 173.419 224.741 173.248 225.632 173.087C226.613 172.911 227.655 172.745 228.732 172.584C234.405 171.728 241.195 171.134 249.294 171.134C273.082 171.129 286.386 176.037 289.205 178.634ZM212.449 220.045C212.902 220.236 213.37 220.417 213.843 220.603C214.719 220.946 215.615 221.268 216.541 221.585C217.029 221.751 217.508 221.912 218.006 222.068C219.068 222.4 220.16 222.707 221.278 223.004C221.67 223.11 222.048 223.226 222.445 223.321C223.971 223.704 225.531 224.056 227.132 224.368C227.464 224.434 227.811 224.484 228.148 224.55C229.432 224.791 230.731 225.013 232.049 225.209C232.613 225.294 233.182 225.365 233.751 225.44C234.883 225.591 236.021 225.727 237.173 225.848C237.777 225.909 238.381 225.969 238.986 226.024C240.173 226.13 241.366 226.211 242.564 226.281C243.098 226.311 243.631 226.352 244.165 226.377C245.886 226.452 247.603 226.503 249.314 226.503C251.026 226.503 252.742 226.452 254.464 226.377C255.007 226.352 255.551 226.311 256.094 226.281C257.277 226.211 258.46 226.13 259.638 226.029C260.257 225.974 260.876 225.914 261.49 225.848C262.623 225.732 263.745 225.597 264.863 225.446C265.447 225.37 266.031 225.294 266.609 225.209C267.908 225.018 269.187 224.796 270.45 224.56C270.807 224.494 271.17 224.439 271.527 224.368C273.118 224.051 274.673 223.704 276.188 223.326C276.611 223.221 277.014 223.1 277.431 222.989C278.524 222.697 279.596 222.395 280.633 222.068C281.141 221.907 281.629 221.741 282.123 221.575C283.044 221.263 283.94 220.935 284.811 220.598C285.279 220.417 285.747 220.231 286.2 220.04C287.106 219.657 287.967 219.254 288.797 218.842C289.059 218.711 289.356 218.6 289.607 218.469L289.638 236.207C288.455 239.071 275.448 245.454 254.927 246.475C253.084 246.541 251.302 246.632 249.314 246.632C238.225 246.632 227.273 244.93 218.907 241.94C218.877 241.89 218.841 241.84 218.811 241.789C218.217 240.752 217.588 239.741 216.909 238.764C216.808 238.618 216.692 238.482 216.586 238.336C215.957 237.455 215.308 236.595 214.608 235.769C214.397 235.523 214.17 235.296 213.954 235.049C213.335 234.35 212.711 233.66 212.046 233.006C211.704 232.669 211.336 232.367 210.984 232.039C210.4 231.506 209.826 230.972 209.217 230.474C209.157 230.424 209.107 230.368 209.046 230.323C209.046 228.355 209.051 223.981 209.056 218.479C209.313 218.615 209.62 218.731 209.882 218.862C210.712 219.269 211.558 219.667 212.449 220.045ZM145.951 276.833H54.553C53.3903 276.833 52.2325 276.792 51.0899 276.717C41.1991 276.047 30.7395 265.794 21.6389 247.85C2.85893 210.823 13.4545 164.903 46.6756 138.779L82.3027 112.821C88.1516 108.225 95.4703 105.693 102.905 105.693H142.05C150.19 105.693 157.569 110.042 162.567 113.863L198.818 138.497C207.823 145.403 215.328 153.849 221.192 163.669C214.82 164.983 208.659 166.986 204.425 169.926C204.31 170.007 204.194 170.087 204.078 170.168C203.439 170.631 202.855 171.119 202.321 171.632C202.095 171.849 201.894 172.07 201.687 172.297C201.29 172.735 200.907 173.178 200.595 173.651C200.333 174.038 200.142 174.456 199.941 174.869C199.764 175.241 199.553 175.599 199.427 175.991C199.15 176.842 198.979 177.733 198.979 178.679V206.363V224.429C197.283 223.739 195.526 223.185 193.724 222.732C193.488 222.672 193.251 222.607 193.015 222.551C191.253 222.138 189.456 221.826 187.619 221.655C187.412 221.635 187.206 221.64 187 221.625C185.968 221.545 184.931 221.469 183.879 221.469C183.325 221.469 182.792 221.529 182.243 221.55C181.815 221.565 181.387 221.585 180.959 221.615C179.167 221.746 177.396 221.952 175.674 222.31C175.639 222.315 175.609 222.315 175.573 222.325C175.438 222.355 175.312 222.41 175.176 222.441C173.6 222.788 172.065 223.246 170.565 223.779C170.022 223.971 169.478 224.162 168.944 224.373C167.449 224.972 165.99 225.637 164.585 226.407C164.057 226.694 163.564 227.026 163.05 227.338C162.069 227.937 161.112 228.566 160.191 229.246C159.647 229.643 159.099 230.031 158.575 230.454C157.392 231.41 156.265 232.432 155.198 233.519C154.73 233.992 154.302 234.496 153.859 234.994C153.104 235.84 152.384 236.721 151.705 237.627C151.337 238.12 150.95 238.588 150.602 239.096C149.716 240.39 148.926 241.749 148.196 243.143C147.914 243.687 147.658 244.241 147.396 244.799C146.822 246.033 146.309 247.291 145.861 248.59C145.73 248.967 145.569 249.324 145.453 249.707C144.935 251.358 144.557 253.069 144.255 254.801C144.215 255.022 144.134 255.234 144.099 255.455C144.059 255.727 144.059 256.019 144.023 256.291C143.862 257.474 143.762 258.672 143.706 259.885C143.686 260.318 143.646 260.745 143.641 261.183C143.641 261.37 143.611 261.551 143.611 261.737C143.611 262.537 143.686 263.318 143.732 264.103C143.928 268.452 144.638 272.821 145.951 276.833ZM183.884 291.933C167.349 291.933 153.894 278.574 153.703 262.089C153.703 261.697 153.713 261.309 153.728 260.917C153.743 260.363 153.768 259.814 153.814 259.266C153.849 258.803 153.904 258.344 153.96 257.886C154.02 257.418 154.09 256.955 154.171 256.497C154.398 255.188 154.689 253.895 155.087 252.642C155.127 252.506 155.188 252.38 155.233 252.249C155.656 250.985 156.164 249.752 156.753 248.559C156.809 248.444 156.864 248.328 156.919 248.217C159.632 242.892 163.916 238.392 169.105 235.427C169.126 235.417 169.141 235.402 169.161 235.392C170.339 234.722 171.577 234.158 172.835 233.655C173.162 233.524 173.495 233.408 173.822 233.293C174.939 232.895 176.077 232.548 177.25 232.291C177.411 232.256 177.562 232.2 177.723 232.17C179.177 231.873 180.637 231.712 182.092 231.627C182.369 231.612 182.646 231.591 182.927 231.586C184.412 231.541 185.892 231.581 187.352 231.752C187.437 231.763 187.518 231.778 187.598 231.793C189.139 231.984 190.664 232.291 192.164 232.724C192.184 232.729 192.209 232.734 192.229 232.739C193.775 233.187 195.29 233.766 196.77 234.466C198.129 235.11 199.452 235.83 200.691 236.66L200.892 236.801C201.068 236.922 201.229 237.058 201.4 237.179C202.236 237.778 203.036 238.412 203.806 239.091C203.993 239.252 204.174 239.424 204.355 239.59C205.125 240.304 205.86 241.049 206.55 241.835C206.62 241.915 206.691 241.986 206.761 242.066C208.362 243.929 209.741 245.987 210.848 248.197C211.105 248.7 211.362 249.209 211.588 249.727C211.971 250.608 212.303 251.499 212.6 252.4C212.62 252.465 212.65 252.531 212.67 252.596C212.962 253.507 213.199 254.433 213.4 255.365C213.415 255.44 213.441 255.511 213.456 255.581C213.647 256.507 213.788 257.443 213.894 258.385C213.904 258.47 213.924 258.546 213.934 258.631C214.039 259.658 214.095 260.69 214.095 261.732C214.095 262.799 214.034 263.861 213.924 264.918C213.909 265.074 213.873 265.22 213.853 265.376C213.743 266.287 213.607 267.193 213.41 268.084C213.39 268.185 213.355 268.281 213.335 268.381C213.118 269.338 212.862 270.284 212.55 271.22C212.534 271.26 212.519 271.301 212.504 271.341C212.172 272.317 211.79 273.279 211.357 274.23C206.58 284.655 196.075 291.933 183.884 291.933ZM249.319 276.833C239.766 276.833 230.257 275.559 222.445 273.279C222.45 273.269 222.45 273.259 222.45 273.249C222.939 271.618 223.296 269.937 223.578 268.225C223.643 267.818 223.709 267.415 223.764 267.002C223.991 265.271 224.152 263.524 224.152 261.732C224.152 260.428 224.081 259.135 223.955 257.851C223.91 257.388 223.83 256.94 223.769 256.482C223.684 255.833 223.623 255.178 223.507 254.539C231.143 255.949 240.012 256.699 249.319 256.699C261.349 256.699 278.74 255.163 289.607 250.361L289.638 266.408C288.349 269.524 273.072 276.833 249.319 276.833ZM249.319 216.431C225.647 216.431 210.405 209.177 209.076 206.394C209.081 200.656 209.087 194.832 209.087 189.979C209.212 190.035 209.363 190.08 209.494 190.135C210.697 190.649 211.956 191.132 213.295 191.575C213.365 191.6 213.435 191.625 213.511 191.646C214.88 192.088 216.325 192.486 217.8 192.854C218.283 192.974 218.781 193.085 219.274 193.196C220.351 193.442 221.439 193.679 222.551 193.89C223.09 193.996 223.623 194.097 224.167 194.192C225.39 194.409 226.618 194.6 227.861 194.781C228.254 194.837 228.642 194.902 229.034 194.958C230.66 195.174 232.286 195.365 233.902 195.521C234.309 195.562 234.707 195.592 235.115 195.627C236.358 195.738 237.586 195.838 238.804 195.919C239.333 195.954 239.846 195.984 240.365 196.015C241.492 196.08 242.589 196.13 243.677 196.171C244.135 196.186 244.593 196.206 245.041 196.221C246.516 196.261 247.955 196.286 249.314 196.286C250.668 196.286 252.108 196.261 253.583 196.221C254.041 196.206 254.504 196.186 254.967 196.171C256.044 196.13 257.136 196.08 258.259 196.015C258.787 195.984 259.306 195.954 259.839 195.919C261.057 195.838 262.291 195.738 263.534 195.622C263.937 195.587 264.329 195.557 264.732 195.516C266.353 195.355 267.978 195.169 269.604 194.948C270.002 194.892 270.395 194.827 270.792 194.771C272.03 194.595 273.259 194.399 274.477 194.182C275.025 194.087 275.559 193.981 276.098 193.88C277.21 193.664 278.302 193.432 279.384 193.181C279.878 193.065 280.371 192.959 280.854 192.838C282.359 192.461 283.829 192.058 285.223 191.605C285.294 191.58 285.354 191.555 285.425 191.535C286.738 191.102 287.982 190.624 289.164 190.12C289.305 190.06 289.472 190.01 289.612 189.949L289.643 205.996C288.349 209.122 273.072 216.431 249.319 216.431Z" fill="#60327C"/>
</g>
<defs>
<clipPath id="clip0_1052_616">
<rect width="302" height="302" fill="white"/>
</clipPath>
</defs>
</svg>
