<svg width="302" height="302" viewBox="0 0 302 302" fill="none" xmlns="http://www.w3.org/2000/svg">
<path fill-rule="evenodd" clip-rule="evenodd" d="M100.667 155.924C54.739 155.924 17.5073 193.156 17.5073 239.083V251.667C17.5073 254.386 15.3027 256.591 12.5833 256.591C9.86393 256.591 7.65942 254.386 7.65942 251.667V239.083C7.65942 187.717 49.3002 146.076 100.667 146.076C152.033 146.076 193.674 187.717 193.674 239.083V251.667C193.674 254.386 191.469 256.591 188.75 256.591C186.031 256.591 183.826 254.386 183.826 251.667V239.083C183.826 193.156 146.594 155.924 100.667 155.924Z" fill="#60327C"/>
<path fill-rule="evenodd" clip-rule="evenodd" d="M226.5 118.174C194.472 118.174 168.507 144.138 168.507 176.167C168.507 178.886 166.303 181.091 163.583 181.091C160.864 181.091 158.659 178.886 158.659 176.167C158.659 138.7 189.033 108.326 226.5 108.326C263.967 108.326 294.341 138.7 294.341 176.167V182.458C294.341 185.178 292.136 187.382 289.417 187.382C286.697 187.382 284.493 185.178 284.493 182.458V176.167C284.493 144.138 258.528 118.174 226.5 118.174Z" fill="#60327C"/>
<path fill-rule="evenodd" clip-rule="evenodd" d="M45.4094 100.667C45.4094 70.1489 70.1489 45.4094 100.667 45.4094C131.184 45.4094 155.924 70.1489 155.924 100.667C155.924 131.184 131.184 155.924 100.667 155.924C70.1489 155.924 45.4094 131.184 45.4094 100.667ZM100.667 55.2572C75.5877 55.2572 55.2572 75.5877 55.2572 100.667C55.2572 125.745 75.5878 146.076 100.667 146.076C125.745 146.076 146.076 125.745 146.076 100.667C146.076 75.5878 125.745 55.2572 100.667 55.2572Z" fill="#60327C"/>
<path fill-rule="evenodd" clip-rule="evenodd" d="M183.826 75.5C183.826 51.9319 202.931 32.826 226.5 32.826C250.069 32.826 269.174 51.9319 269.174 75.5C269.174 99.068 250.069 118.174 226.5 118.174C202.931 118.174 183.826 99.068 183.826 75.5ZM226.5 42.6739C208.37 42.6739 193.674 57.3706 193.674 75.5C193.674 93.6293 208.37 108.326 226.5 108.326C244.63 108.326 259.326 93.6293 259.326 75.5C259.326 57.3706 244.63 42.6739 226.5 42.6739Z" fill="#60327C"/>
</svg>
