<svg width="322" height="270" viewBox="0 0 322 270" fill="none" xmlns="http://www.w3.org/2000/svg">
<path d="M322 223.659H0V223.788H322V223.659Z" fill="#F4F1FD"/>
<path d="M289.736 234.021H268.419V234.15H289.736V234.021Z" fill="#F4F1FD"/>
<path d="M213.293 235.759H207.69V235.888H213.293V235.759Z" fill="#F4F1FD"/>
<path d="M267.775 228.036H255.41V228.164H267.775V228.036Z" fill="#F4F1FD"/>
<path d="M61.6308 229.13H33.81V229.259H61.6308V229.13Z" fill="#F4F1FD"/>
<path d="M71.4196 229.13H67.3624V229.259H71.4196V229.13Z" fill="#F4F1FD"/>
<path d="M145.029 231.833H84.686V231.962H145.029V231.833Z" fill="#F4F1FD"/>
<path d="M152.628 194.954H28.2716C26.2752 194.954 24.6008 193.28 24.6008 191.285V16.5412C24.6008 14.546 26.2752 12.8726 28.2716 12.8726H152.628C154.624 12.8726 156.299 14.546 156.299 16.5412V191.221C156.299 193.28 154.689 194.954 152.628 194.954ZM28.2716 13.0656C26.3396 13.0656 24.7296 14.6103 24.7296 16.6056V191.285C24.7296 193.216 26.2752 194.825 28.2716 194.825H152.628C154.56 194.825 156.17 193.28 156.17 191.285V16.5412C156.17 14.6103 154.624 13.0013 152.628 13.0013H28.2716V13.0656Z" fill="#F4F1FD"/>
<path d="M291.925 194.954H167.569C165.572 194.954 163.898 193.28 163.898 191.285V16.5412C163.898 14.546 165.572 12.8726 167.569 12.8726H291.925C293.922 12.8726 295.596 14.546 295.596 16.5412V191.221C295.596 193.28 293.986 194.954 291.925 194.954ZM167.569 13.0656C165.637 13.0656 164.027 14.6103 164.027 16.6056V191.285C164.027 193.216 165.572 194.825 167.569 194.825H291.925C293.857 194.825 295.467 193.28 295.467 191.285V16.5412C295.467 14.6103 293.922 13.0013 291.925 13.0013H167.569V13.0656Z" fill="#F4F1FD"/>
<path d="M259.596 112.763L162.739 124.219L239.375 63.9119L222.116 46.6628L161.708 123.19L173.172 26.3887H148.828L160.292 123.19L99.8844 46.6628L82.6252 63.9119L159.261 124.219L62.4036 112.763V137.156L159.261 125.7L82.6252 186.007L99.8844 203.256L160.292 126.665L148.828 223.531H173.172L161.708 126.665L222.116 203.256L239.375 186.007L162.739 125.7L259.596 137.156V112.763Z" fill="#F4F1FD"/>
<path d="M159.97 51.2969L182.96 97.8952L234.352 105.361L197.193 141.597L205.951 192.83L159.97 168.629L113.924 192.83L122.746 141.597L85.5232 105.361L136.979 97.8952L159.97 51.2969Z" fill="#F4F1FD"/>
<path d="M235.446 52.9702L242.402 57.5399L250.13 54.3862L247.94 62.4315L253.35 68.739L244.978 69.1252L240.598 76.205L237.636 68.4172L229.586 66.4863L236.09 61.273L235.446 52.9702Z" fill="#F4F1FD"/>
<path d="M241.564 175.581L248.52 180.15L256.248 176.997L254.058 184.977L259.468 191.349L251.096 191.736L246.716 198.815L243.754 191.028L235.704 189.032L242.208 183.883L241.564 175.581Z" fill="#F4F1FD"/>
<path d="M160.034 210.916L166.989 215.485L174.717 212.331L172.528 220.377L177.873 226.749L169.565 227.135L165.186 234.215L162.224 226.427L154.174 224.432L160.614 219.218L160.034 210.916Z" fill="#F4F1FD"/>
<path d="M62.3392 192.443L69.2944 197.013L77.0224 193.859L74.8328 201.905L80.178 208.212L71.8704 208.598L67.4912 215.678L64.5288 207.89L56.4144 205.959L62.9188 200.746L62.3392 192.443Z" fill="#F4F1FD"/>
<path d="M49.0728 124.863L52.6148 127.18L56.5432 125.571L55.4484 129.69L58.2176 132.908L53.9672 133.166L51.7132 136.77L50.1676 132.779L46.046 131.75L49.3948 129.111L49.0728 124.863Z" fill="#F4F1FD"/>
<path d="M266.809 118.105L270.351 120.422L274.344 118.813L273.185 122.932L275.954 126.215L271.704 126.408L269.45 130.012L267.968 126.022L263.782 124.992L267.131 122.353L266.809 118.105Z" fill="#F4F1FD"/>
<path d="M226.559 136.255L231.454 139.473L236.928 137.22L235.382 142.884L239.182 147.39L233.257 147.647L230.166 152.667L228.105 147.196L222.373 145.781L226.946 142.112L226.559 136.255Z" fill="#F4F1FD"/>
<path d="M218.187 209.178L221.729 211.559L225.722 209.95L224.563 214.069L227.332 217.287L223.082 217.48L220.828 221.149L219.282 217.159L215.16 216.129L218.509 213.426L218.187 209.178Z" fill="#F4F1FD"/>
<path d="M193.78 197.721L196.034 199.266L198.545 198.236L197.837 200.811L199.576 202.935L196.871 203.063L195.454 205.38L194.488 202.806L191.848 202.162L193.973 200.489L193.78 197.721Z" fill="#F4F1FD"/>
<path d="M140.778 195.018L143.097 196.498L145.608 195.469L144.9 198.107L146.639 200.167L143.934 200.296L142.517 202.613L141.551 200.103L138.911 199.459L141.036 197.721L140.778 195.018Z" fill="#F4F1FD"/>
<path d="M70.9688 94.4197L70.3248 97.0585L72.1924 99.0537L69.4876 99.3112L68.1996 101.693L67.1048 99.2468L64.4 98.7319L66.4608 96.8654L66.1388 94.2266L68.4572 95.5782L70.9688 94.4197Z" fill="#F4F1FD"/>
<path d="M205.565 40.9343L204.985 43.6375L206.853 45.5684L204.148 45.8902L202.796 48.2072L201.765 45.7615L199.06 45.2466L201.121 43.4444L200.799 40.7412L203.118 42.0928L205.565 40.9343Z" fill="#F4F1FD"/>
<path d="M89.516 149.835L93.058 152.152L97.0508 150.543L95.8916 154.663L98.6608 157.945L94.4104 158.138L92.1564 161.742L90.6108 157.752L86.4892 156.787L89.838 154.083L89.516 149.835Z" fill="#F4F1FD"/>
<path d="M115.791 218.832L119.333 221.213L123.262 219.604L122.167 223.724L124.936 226.942L120.686 227.135L118.432 230.803L116.886 226.813L112.764 225.783L116.049 223.08L115.791 218.832Z" fill="#F4F1FD"/>
<path d="M113.859 67.7734L117.466 70.0905L121.394 68.4814L120.299 72.6006L123.004 75.8187L118.754 76.0762L116.5 79.6805L115.018 75.69L110.897 74.6602L114.181 72.0214L113.859 67.7734Z" fill="#F4F1FD"/>
<path d="M176.907 48.1431L180.449 50.4601L184.442 48.8511L183.282 52.9702L186.052 56.2527L181.801 56.4458L179.547 60.0501L178.002 56.0596L173.88 55.0298L177.229 52.391L176.907 48.1431Z" fill="#F4F1FD"/>
<path d="M72.1924 47.2417L79.1476 51.8114L86.8756 48.6577L84.686 56.703L90.0312 63.0748L81.7236 63.461L77.3444 70.5409L74.382 62.753L66.2676 60.7578L72.772 55.5444L72.1924 47.2417Z" fill="#F4F1FD"/>
<path d="M136.657 32.1812L140.585 34.7556L144.964 32.9535L143.741 37.5232L146.768 41.1275L142.066 41.3206L139.619 45.3111L137.945 40.9344L133.308 39.7759L137.043 36.8796L136.657 32.1812Z" fill="#F4F1FD"/>
<path d="M161 252.687C229.965 252.687 285.872 249.43 285.872 245.414C285.872 241.397 229.965 238.141 161 238.141C92.0353 238.141 36.1284 241.397 36.1284 245.414C36.1284 249.43 92.0353 252.687 161 252.687Z" fill="#F4F1FD"/>
<path d="M261.743 112.882L200.538 101.057L185.589 178.339L246.794 190.164L261.743 112.882Z" fill="#423062"/>
<path d="M228.624 149.538L217.496 147.387L215.344 158.509L226.472 160.66L228.624 149.538Z" fill="white"/>
<path d="M226.881 154.984C226.366 157.688 223.79 159.425 221.085 158.911C218.38 158.396 216.642 155.821 217.157 153.118C217.672 150.415 220.248 148.677 222.953 149.192C225.658 149.707 227.396 152.346 226.881 154.984Z" fill="#263238"/>
<path d="M209.695 121.775L198.567 119.625L196.416 130.747L207.544 132.897L209.695 121.775Z" fill="white"/>
<path d="M204.341 123.704L203.311 128.918L202.345 128.725L203.182 124.284L202.087 124.091L202.216 123.254L204.341 123.704Z" fill="#263238"/>
<path d="M221.418 124.029L210.289 121.879L208.138 133.001L219.266 135.151L221.418 124.029Z" fill="white"/>
<path d="M213.872 125.571L212.842 130.784L211.876 130.591L212.713 126.15L211.618 125.957L211.747 125.121L213.872 125.571Z" fill="#263238"/>
<path d="M217.93 130.141C217.736 131.042 216.964 131.686 215.547 131.364C214.838 131.235 214.13 130.849 213.679 130.398L214.259 129.755C214.581 130.141 215.096 130.463 215.676 130.592C216.384 130.72 216.835 130.527 216.964 130.012C217.028 129.562 216.77 129.176 215.998 129.047L215.547 128.982L215.676 128.339L217.157 127.18L214.774 126.73L214.903 125.893L218.445 126.601L218.316 127.245L216.77 128.532C217.672 128.661 218.058 129.369 217.93 130.141Z" fill="#263238"/>
<path d="M233.129 126.305L222.001 124.154L219.848 135.275L230.976 137.427L233.129 126.305Z" fill="white"/>
<path d="M226.559 132.2L225.658 132.007L225.4 133.23L224.434 133.037L224.692 131.878L221.794 131.299L221.922 130.656L225.142 127.759L226.173 127.952L223.146 130.72L224.885 131.042L225.078 130.012L225.98 130.205L225.786 131.235L226.688 131.428L226.559 132.2Z" fill="#263238"/>
<path d="M230.681 132.586C230.488 133.487 229.715 134.131 228.298 133.809C227.59 133.68 226.881 133.294 226.43 132.844L227.01 132.2C227.332 132.586 227.847 132.908 228.427 133.037C229.135 133.166 229.586 132.972 229.715 132.458C229.779 132.007 229.522 131.621 228.749 131.492L228.298 131.428L228.427 130.784L229.908 129.626L227.525 129.175L227.654 128.338L231.196 129.046L231.067 129.69L229.522 130.977C230.488 131.106 230.874 131.814 230.681 132.586Z" fill="#263238"/>
<path d="M244.851 128.559L233.723 126.408L231.571 137.53L242.699 139.681L244.851 128.559Z" fill="white"/>
<path d="M237.765 134.002C237.572 134.903 236.799 135.547 235.382 135.225C234.674 135.096 233.965 134.71 233.514 134.26L234.094 133.616C234.416 134.002 234.931 134.324 235.511 134.453C236.219 134.582 236.67 134.388 236.799 133.874C236.863 133.423 236.606 133.037 235.833 132.908L235.382 132.844L235.511 132.2L236.992 131.042L234.609 130.591L234.738 129.754L238.28 130.462L238.151 131.106L236.606 132.393C237.507 132.522 237.894 133.166 237.765 134.002Z" fill="#263238"/>
<path d="M242.144 134.775C241.951 135.676 241.178 136.32 239.761 136.062C239.053 135.933 238.344 135.547 237.894 135.097L238.473 134.453C238.795 134.839 239.31 135.161 239.89 135.29C240.598 135.418 241.049 135.225 241.178 134.711C241.242 134.196 240.985 133.809 239.954 133.616L238.666 133.359L239.504 130.591L242.595 131.171L242.466 132.007L240.212 131.557L239.89 132.715L240.405 132.844C241.822 133.037 242.337 133.874 242.144 134.775Z" fill="#263238"/>
<path d="M256.586 130.79L245.458 128.64L243.306 139.761L254.434 141.911L256.586 130.79Z" fill="white"/>
<path d="M249.486 135.032C249.164 136.834 247.876 137.607 246.394 137.285C245.879 137.156 245.364 136.963 245.106 136.706L245.622 136.062C245.879 136.32 246.201 136.448 246.588 136.513C247.554 136.706 248.326 136.191 248.52 135.032C248.133 135.354 247.618 135.418 247.038 135.29C246.008 135.097 245.364 134.324 245.557 133.359C245.75 132.329 246.716 131.814 247.811 132.007C249.164 132.329 249.808 133.359 249.486 135.032ZM248.52 133.874C248.584 133.359 248.326 132.908 247.618 132.78C247.038 132.651 246.523 132.908 246.394 133.488C246.266 134.003 246.652 134.453 247.296 134.582C247.94 134.711 248.455 134.389 248.52 133.874Z" fill="#263238"/>
<path d="M250.13 135.29C250.452 133.552 251.611 132.78 252.834 133.037C254.058 133.295 254.831 134.453 254.509 136.127C254.187 137.864 253.028 138.637 251.804 138.379C250.516 138.122 249.808 136.963 250.13 135.29ZM253.478 135.933C253.736 134.646 253.35 134.003 252.641 133.874C251.933 133.745 251.353 134.196 251.096 135.483C250.838 136.77 251.224 137.414 251.933 137.543C252.641 137.671 253.285 137.221 253.478 135.933Z" fill="#263238"/>
<path d="M207.45 133.361L196.322 131.211L194.17 142.333L205.298 144.483L207.45 133.361Z" fill="white"/>
<path d="M201.186 138.958C200.992 139.86 200.22 140.503 198.803 140.246C198.094 140.117 197.386 139.731 196.935 139.28L197.515 138.637C197.837 139.023 198.352 139.345 198.932 139.473C199.64 139.602 200.091 139.409 200.22 138.894C200.284 138.379 200.026 137.993 198.996 137.8L197.708 137.542L198.545 134.775L201.636 135.354L201.508 136.191L199.254 135.74L198.932 136.899L199.447 136.963C200.864 137.221 201.379 137.993 201.186 138.958Z" fill="#263238"/>
<path d="M204.277 135.741L203.246 140.954L202.28 140.761L203.118 136.32L202.023 136.127L202.152 135.29L204.277 135.741Z" fill="#263238"/>
<path d="M219.172 135.614L208.044 133.464L205.893 144.586L217.021 146.736L219.172 135.614Z" fill="white"/>
<path d="M213.035 141.34C212.842 142.305 211.876 142.756 210.588 142.498C209.3 142.241 208.592 141.469 208.785 140.503C208.914 139.924 209.3 139.538 209.88 139.409C209.493 139.087 209.364 138.701 209.429 138.186C209.622 137.285 210.524 136.899 211.683 137.092C212.842 137.349 213.55 138.057 213.357 138.894C213.293 139.409 212.971 139.731 212.456 139.86C212.971 140.246 213.164 140.761 213.035 141.34ZM212.069 141.082C212.198 140.568 211.812 140.181 211.039 140.053C210.33 139.924 209.815 140.181 209.751 140.696C209.622 141.211 210.008 141.597 210.717 141.79C211.49 141.855 212.005 141.662 212.069 141.082ZM210.395 138.444C210.33 138.894 210.652 139.216 211.232 139.345C211.876 139.473 212.262 139.28 212.391 138.83C212.456 138.379 212.134 137.993 211.554 137.929C210.91 137.736 210.459 137.929 210.395 138.444Z" fill="#263238"/>
<path d="M216.191 138.057L215.16 143.271L214.194 143.078L215.032 138.637L213.937 138.444L214.066 137.607L216.191 138.057Z" fill="#263238"/>
<path d="M230.87 137.953L219.742 135.802L217.59 146.924L228.718 149.075L230.87 137.953Z" fill="white"/>
<path d="M224.434 144.236L224.305 145.073L220.441 144.3L220.57 143.657L223.017 142.112C223.597 141.726 223.79 141.404 223.854 141.146C223.919 140.696 223.661 140.31 223.017 140.181C222.502 140.052 222.051 140.181 221.665 140.503L221.085 139.859C221.6 139.409 222.373 139.216 223.21 139.344C224.37 139.537 224.949 140.31 224.756 141.211C224.627 141.726 224.434 142.176 223.597 142.691L221.922 143.721L224.434 144.236Z" fill="#263238"/>
<path d="M227.654 140.31L226.624 145.523L225.658 145.33L226.495 140.889L225.4 140.696L225.529 139.859L227.654 140.31Z" fill="#263238"/>
<path d="M242.606 140.185L231.477 138.035L229.326 149.156L240.454 151.306L242.606 140.185Z" fill="white"/>
<path d="M234.931 141.726L233.901 146.939L232.935 146.746L233.772 142.305L232.677 142.112L232.806 141.275L234.931 141.726Z" fill="#263238"/>
<path d="M239.954 142.627L239.826 143.271L236.928 147.454L235.897 147.261L238.731 143.206L236.67 142.82L236.477 143.721L235.575 143.528L235.897 141.791L239.954 142.627Z" fill="#263238"/>
<path d="M254.328 142.439L243.2 140.289L241.049 151.41L252.177 153.56L254.328 142.439Z" fill="white"/>
<path d="M247.36 148.291L246.459 148.098L246.201 149.256L245.235 149.063L245.493 147.905L242.595 147.326L242.724 146.682L245.944 143.786L246.974 143.979L243.947 146.746L245.686 147.068L245.879 146.038L246.781 146.231L246.588 147.261L247.489 147.454L247.36 148.291Z" fill="#263238"/>
<path d="M252.448 149.256L251.546 149.063L251.289 150.222L250.323 150.029L250.58 148.87L247.682 148.291L247.811 147.647L251.031 144.751L252.062 144.944L249.035 147.712L250.774 148.033L250.967 147.004L251.868 147.197L251.675 148.227L252.577 148.42L252.448 149.256Z" fill="#263238"/>
<path d="M205.193 145.009L194.065 142.859L191.913 153.98L203.041 156.131L205.193 145.009Z" fill="white"/>
<path d="M198.352 150.544C198.159 151.509 197.193 151.96 195.905 151.702C194.617 151.445 193.908 150.672 194.102 149.707C194.23 149.128 194.617 148.741 195.196 148.613C194.81 148.291 194.681 147.905 194.746 147.39C194.939 146.489 195.84 146.103 197 146.296C198.159 146.489 198.867 147.261 198.674 148.098C198.61 148.613 198.288 148.935 197.772 149.063C198.223 149.514 198.481 149.964 198.352 150.544ZM197.386 150.35C197.515 149.836 197.128 149.449 196.356 149.321C195.647 149.192 195.132 149.449 195.068 149.964C194.939 150.479 195.325 150.865 196.034 151.058C196.742 151.058 197.257 150.865 197.386 150.35ZM195.647 147.647C195.583 148.098 195.905 148.42 196.484 148.548C197.128 148.677 197.515 148.484 197.644 148.033C197.708 147.583 197.386 147.197 196.806 147.132C196.162 147.004 195.776 147.197 195.647 147.647Z" fill="#263238"/>
<path d="M202.796 151.316C202.602 152.217 201.83 152.861 200.413 152.603C199.704 152.474 198.996 152.088 198.545 151.638L199.125 150.994C199.447 151.38 199.962 151.702 200.542 151.831C201.25 151.959 201.701 151.766 201.83 151.252C201.958 150.737 201.636 150.35 200.606 150.157L199.318 149.9L200.155 147.132L203.246 147.712L203.118 148.548L200.864 148.098L200.542 149.256L201.057 149.385C202.474 149.578 202.989 150.35 202.796 151.316Z" fill="#263238"/>
<path d="M216.915 147.263L205.787 145.113L203.636 156.234L214.764 158.384L216.915 147.263Z" fill="white"/>
<path d="M212.069 153.118C211.876 154.019 211.103 154.663 209.686 154.405C208.978 154.277 208.27 153.89 207.819 153.44L208.398 152.796C208.72 153.182 209.236 153.504 209.815 153.633C210.524 153.762 210.974 153.569 211.103 153.054C211.232 152.539 210.91 152.153 209.88 151.96L208.592 151.702L209.429 148.935L212.52 149.514L212.391 150.351L210.137 149.9L209.815 151.059L210.33 151.187C211.747 151.38 212.262 152.153 212.069 153.118Z" fill="#263238"/>
<path d="M240.348 151.833L229.22 149.683L227.069 160.805L238.197 162.955L240.348 151.833Z" fill="white"/>
<path d="M234.094 153.569L233.965 154.212L231.067 158.396L230.037 158.203L232.87 154.148L230.81 153.762L230.616 154.663L229.715 154.47L230.037 152.732L234.094 153.569Z" fill="#263238"/>
<path d="M237.636 158.074C237.443 158.975 236.67 159.619 235.253 159.297C234.545 159.168 233.836 158.782 233.386 158.332L233.965 157.688C234.287 158.074 234.802 158.396 235.382 158.525C236.09 158.653 236.541 158.46 236.67 157.945C236.734 157.495 236.477 157.109 235.704 156.98L235.253 156.916L235.382 156.272L236.863 155.113L234.48 154.663L234.609 153.826L238.151 154.534L238.022 155.178L236.477 156.465C237.443 156.594 237.829 157.302 237.636 158.074Z" fill="#263238"/>
<path d="M252.071 154.087L240.943 151.937L238.792 163.059L249.92 165.209L252.071 154.087Z" fill="white"/>
<path d="M244.527 160.198L244.398 161.035L240.534 160.262L240.663 159.619L243.11 158.074C243.69 157.688 243.883 157.431 243.947 157.109C244.012 156.658 243.754 156.272 243.11 156.143C242.595 156.015 242.144 156.143 241.758 156.465L241.178 155.821C241.693 155.371 242.466 155.178 243.303 155.371C244.462 155.564 245.042 156.336 244.849 157.237C244.72 157.752 244.527 158.203 243.69 158.718L242.015 159.748L244.527 160.198Z" fill="#263238"/>
<path d="M245.428 158.525C245.75 156.787 246.91 156.015 248.133 156.272C249.357 156.529 250.13 157.688 249.808 159.361C249.486 161.099 248.326 161.872 247.103 161.614C245.879 161.357 245.106 160.198 245.428 158.525ZM248.842 159.168C249.099 157.881 248.713 157.237 248.004 157.109C247.296 156.98 246.716 157.431 246.459 158.718C246.201 160.005 246.588 160.649 247.296 160.777C248.004 160.906 248.584 160.391 248.842 159.168Z" fill="#263238"/>
<path d="M202.935 156.657L191.807 154.507L189.656 165.629L200.784 167.779L202.935 156.657Z" fill="white"/>
<path d="M198.288 162.579C198.094 163.545 197.128 163.995 195.84 163.738C194.552 163.48 193.844 162.708 194.037 161.742C194.166 161.163 194.552 160.777 195.132 160.648C194.746 160.327 194.617 159.94 194.681 159.425C194.874 158.524 195.776 158.138 196.935 158.331C198.094 158.524 198.803 159.297 198.61 160.133C198.545 160.648 198.223 160.97 197.708 161.099C198.159 161.549 198.416 162 198.288 162.579ZM197.322 162.386C197.45 161.871 197.064 161.485 196.291 161.356C195.583 161.228 195.068 161.485 195.003 162C194.874 162.515 195.261 162.901 195.969 163.094C196.678 163.158 197.193 162.901 197.322 162.386ZM195.583 159.683C195.518 160.133 195.84 160.455 196.42 160.584C197.064 160.713 197.45 160.52 197.579 160.069C197.644 159.619 197.322 159.232 196.742 159.168C196.098 159.039 195.712 159.232 195.583 159.683Z" fill="#263238"/>
<path d="M214.643 158.931L203.515 156.78L201.363 167.902L212.491 170.053L214.643 158.931Z" fill="white"/>
<path d="M207.883 160.584L206.853 165.798L205.887 165.605L206.724 161.164L205.629 160.971L205.758 160.134L207.883 160.584Z" fill="#263238"/>
<path d="M210.717 161.163L209.686 166.377L208.72 166.184L209.558 161.743L208.463 161.55L208.592 160.713L210.717 161.163Z" fill="#263238"/>
<path d="M226.366 161.186L215.238 159.035L213.085 170.157L224.214 172.308L226.366 161.186Z" fill="white"/>
<path d="M220.828 163.094L220.699 163.738L217.801 167.921L216.77 167.728L219.604 163.673L217.543 163.287L217.35 164.188L216.448 163.995L216.77 162.257L220.828 163.094Z" fill="#263238"/>
<path d="M223.339 163.545L222.309 168.758L221.343 168.565L222.18 164.124L221.085 163.931L221.214 163.094L223.339 163.545Z" fill="#263238"/>
<path d="M238.104 163.418L226.975 161.268L224.824 172.39L235.952 174.54L238.104 163.418Z" fill="white"/>
<path d="M233.064 170.045L232.935 170.882L229.071 170.11L229.2 169.466L231.647 167.921C232.226 167.535 232.42 167.213 232.484 166.956C232.548 166.505 232.291 166.119 231.647 165.99C231.132 165.862 230.681 165.99 230.294 166.312L229.715 165.669C230.23 165.218 231.003 165.025 231.84 165.218C232.999 165.411 233.579 166.184 233.386 167.085C233.257 167.6 233.064 168.05 232.226 168.565L230.552 169.595L233.064 170.045Z" fill="#263238"/>
<path d="M249.826 165.672L238.698 163.522L236.547 174.644L247.675 176.794L249.826 165.672Z" fill="white"/>
<path d="M242.144 167.213L241.114 172.427L240.148 172.233L240.985 167.792L239.89 167.599L240.019 166.763L242.144 167.213Z" fill="#263238"/>
<path d="M247.167 168.178L247.038 168.822L244.14 173.006L243.11 172.813L245.944 168.758L243.883 168.372L243.69 169.273L242.788 169.08L243.11 167.342L247.167 168.178Z" fill="#263238"/>
<path d="M200.753 168.255L189.625 166.105L187.474 177.227L198.602 179.377L200.753 168.255Z" fill="white"/>
<path d="M195.132 170.174L195.003 170.818L192.105 175.001L191.075 174.808L193.908 170.753L191.848 170.367L191.654 171.268L190.753 171.075L191.075 169.337L195.132 170.174Z" fill="#263238"/>
<path d="M197.644 170.689L196.613 175.902L195.647 175.709L196.484 171.268L195.39 171.075L195.518 170.238L197.644 170.689Z" fill="#263238"/>
<path d="M212.385 170.58L201.257 168.429L199.104 179.55L210.233 181.701L212.385 170.58Z" fill="white"/>
<path d="M205.114 175.902C204.921 176.803 204.148 177.447 202.731 177.125C202.023 176.996 201.314 176.61 200.864 176.16L201.443 175.516C201.765 175.902 202.28 176.224 202.86 176.353C203.568 176.481 204.019 176.288 204.148 175.773C204.212 175.323 203.955 174.937 203.182 174.808L202.731 174.744L202.86 174.1L204.341 172.942L201.958 172.491L202.087 171.654L205.629 172.362L205.5 173.006L203.955 174.293C204.921 174.422 205.307 175.13 205.114 175.902Z" fill="#263238"/>
<path d="M210.008 175.709C209.686 177.511 208.398 178.284 206.917 177.962C206.402 177.833 205.887 177.64 205.629 177.383L206.144 176.739C206.402 176.996 206.724 177.125 207.11 177.189C208.076 177.382 208.849 176.868 209.042 175.709C208.656 176.031 208.141 176.095 207.561 175.967C206.531 175.773 205.887 175.001 206.08 174.036C206.273 173.006 207.239 172.491 208.334 172.684C209.686 172.941 210.33 174.036 210.008 175.709ZM209.107 174.486C209.171 173.971 208.914 173.521 208.205 173.392C207.626 173.263 207.11 173.521 206.982 174.1C206.853 174.615 207.239 175.065 207.883 175.194C208.463 175.323 208.978 175.001 209.107 174.486Z" fill="#263238"/>
<path d="M224.123 172.813L212.995 170.663L210.844 181.785L221.972 183.935L224.123 172.813Z" fill="white"/>
<path d="M216.577 174.358L215.547 179.571L214.581 179.378L215.418 174.937L214.323 174.744L214.452 173.907L216.577 174.358Z" fill="#263238"/>
<path d="M220.699 178.863C220.506 179.764 219.733 180.408 218.316 180.15C217.608 180.022 216.899 179.636 216.448 179.185L217.028 178.541C217.35 178.928 217.865 179.249 218.445 179.378C219.153 179.507 219.604 179.314 219.733 178.799C219.862 178.284 219.54 177.898 218.509 177.705L217.221 177.447L218.058 174.68L221.15 175.259L221.021 176.096L218.767 175.645L218.445 176.804L218.96 176.932C220.377 177.19 220.892 177.962 220.699 178.863Z" fill="#263238"/>
<path d="M235.846 175.067L224.718 172.917L222.567 184.038L233.695 186.188L235.846 175.067Z" fill="white"/>
<path d="M228.749 180.472C228.556 181.373 227.783 182.017 226.366 181.695C225.658 181.566 224.949 181.18 224.498 180.729L225.078 180.086C225.4 180.472 225.915 180.794 226.495 180.923C227.203 181.051 227.654 180.858 227.783 180.343C227.847 179.893 227.59 179.507 226.817 179.378L226.366 179.314L226.495 178.67L227.976 177.511L225.593 177.061L225.722 176.224L229.264 176.932L229.135 177.576L227.59 178.863C228.491 178.992 228.878 179.7 228.749 180.472Z" fill="#263238"/>
<path d="M232.999 182.081L232.87 182.918L229.006 182.145L229.135 181.502L231.582 179.957C232.162 179.571 232.355 179.313 232.42 178.992C232.484 178.541 232.226 178.155 231.582 178.026C231.067 177.897 230.616 178.026 230.23 178.348L229.65 177.704C230.166 177.254 230.938 177.061 231.776 177.254C232.935 177.447 233.514 178.219 233.321 179.12C233.192 179.635 232.999 180.086 232.162 180.601L230.488 181.63L232.999 182.081Z" fill="#263238"/>
<path d="M247.569 177.32L236.441 175.17L234.29 186.292L245.418 188.442L247.569 177.32Z" fill="white"/>
<path d="M239.697 178.799L238.666 184.012L237.7 183.819L238.538 179.378L237.443 179.185L237.572 178.348L239.697 178.799Z" fill="#263238"/>
<path d="M240.212 181.631C240.534 179.893 241.693 179.121 242.917 179.378C244.14 179.635 244.913 180.794 244.591 182.467C244.269 184.205 243.11 184.978 241.886 184.72C240.598 184.463 239.89 183.304 240.212 181.631ZM243.561 182.274C243.818 180.987 243.432 180.343 242.724 180.215C242.015 180.086 241.436 180.537 241.178 181.824C240.92 183.111 241.307 183.755 242.015 183.883C242.724 184.012 243.368 183.562 243.561 182.274Z" fill="#263238"/>
<path d="M222.631 150.865L223.21 152.925L225.207 153.633L223.404 154.791V156.915L221.729 155.564L219.668 156.207L220.441 154.212L219.218 152.474L221.343 152.539L222.631 150.865Z" fill="#9475D1"/>
<path opacity="0.2" d="M261.743 112.882L200.538 101.057L185.589 178.339L246.794 190.164L261.743 112.882Z" fill="white"/>
<path opacity="0.2" d="M242.659 108.772C242.659 108.772 218.509 161.936 185.601 178.348L200.542 101.049L242.659 108.772Z" fill="black"/>
<path d="M271.124 163.416C271.124 164.188 271.06 164.961 270.931 165.669C269.836 172.427 263.976 177.64 256.892 177.64C249.035 177.64 242.659 171.268 242.659 163.416C242.659 155.564 249.035 149.192 256.892 149.192C259.468 149.192 261.85 149.836 263.911 151.058C265.392 151.895 266.68 152.989 267.711 154.212C269.256 156.079 270.416 158.331 270.866 160.777C271.06 161.678 271.124 162.515 271.124 163.416Z" fill="#9475D1"/>
<g opacity="0.8">
<path d="M270.866 160.777C270.931 161.163 270.931 161.485 270.931 161.871C270.931 167.857 266.036 172.748 260.047 172.748C254.058 172.748 249.164 167.857 249.164 161.871C249.164 155.885 254.058 150.994 260.047 150.994C263.074 150.994 265.779 152.217 267.775 154.212C266.68 152.925 265.392 151.895 263.976 151.058C262.752 150.608 261.464 150.415 260.112 150.415C253.736 150.415 248.584 155.564 248.584 161.935C248.584 168.307 253.736 173.456 260.112 173.456C265.135 173.456 269.45 170.174 270.995 165.668C271.124 164.96 271.188 164.188 271.188 163.416C271.124 162.515 271.06 161.678 270.866 160.777Z" fill="white"/>
</g>
<path opacity="0.8" d="M260.691 170.56C265.635 170.56 269.643 166.555 269.643 161.614C269.643 156.673 265.635 152.667 260.691 152.667C255.747 152.667 251.74 156.673 251.74 161.614C251.74 166.555 255.747 170.56 260.691 170.56Z" fill="white"/>
<path d="M265.843 160.005C266.745 163.223 265.392 165.476 262.688 166.248C261.786 166.506 260.82 166.57 260.047 166.312L260.305 164.832C260.884 165.025 261.528 164.961 262.172 164.768C263.911 164.253 264.748 162.901 264.104 160.777C263.718 161.614 262.945 162.129 261.915 162.451C260.112 162.966 258.373 162.258 257.922 160.52C257.407 158.653 258.566 157.109 260.498 156.529C263.074 155.757 265.006 156.98 265.843 160.005ZM263.396 158.846C263.138 157.945 262.237 157.495 261.013 157.817C259.918 158.138 259.339 158.911 259.661 159.876C259.918 160.842 260.82 161.228 261.979 160.906C263.01 160.649 263.654 159.747 263.396 158.846Z" fill="#423062"/>
<path opacity="0.2" d="M271.124 163.416C271.124 164.188 271.06 164.961 270.931 165.669C269.836 172.427 263.976 177.64 256.892 177.64C249.614 177.64 243.625 172.169 242.788 165.089C245.171 169.659 249.936 172.813 255.41 172.813C262.494 172.813 268.419 167.6 269.45 160.842C269.578 160.134 269.643 159.361 269.643 158.589C269.643 158.01 269.578 157.43 269.514 156.851C270.158 158.074 270.609 159.361 270.866 160.777C271.06 161.678 271.124 162.515 271.124 163.416Z" fill="black"/>
<path opacity="0.2" d="M252.448 160.262C254.902 160.262 256.892 158.274 256.892 155.821C256.892 153.369 254.902 151.38 252.448 151.38C249.994 151.38 248.004 153.369 248.004 155.821C248.004 158.274 249.994 160.262 252.448 160.262Z" fill="white"/>
<path opacity="0.2" d="M246.523 162.258C247.626 162.258 248.52 161.364 248.52 160.262C248.52 159.16 247.626 158.267 246.523 158.267C245.421 158.267 244.527 159.16 244.527 160.262C244.527 161.364 245.421 162.258 246.523 162.258Z" fill="white"/>
<path d="M113.602 46.341C113.215 46.9846 112.829 47.6282 112.507 48.3362C109.738 54.6437 111.863 62.1741 117.788 66.0358C124.356 70.2837 133.179 68.4172 137.43 61.7879C141.68 55.1586 139.812 46.4053 133.179 42.1574C131.054 40.7414 128.671 40.0334 126.288 39.9047C124.614 39.776 122.94 40.0334 121.33 40.484C119.011 41.192 116.822 42.4792 115.147 44.2814C114.632 44.925 114.117 45.633 113.602 46.341Z" fill="#423062"/>
<path d="M113.602 46.341C113.215 46.9846 112.829 47.6282 112.507 48.3362C109.738 54.6437 111.863 62.1741 117.788 66.0358C124.356 70.2837 133.179 68.4172 137.43 61.7879C141.68 55.1586 139.812 46.4053 133.179 42.1574C131.054 40.7414 128.671 40.0334 126.288 39.9047C124.614 39.776 122.94 40.0334 121.33 40.484C119.011 41.192 116.822 42.4792 115.147 44.2814C114.632 44.925 114.117 45.633 113.602 46.341Z" fill="#9475D1"/>
<g opacity="0.8">
<path d="M113.602 46.3409C113.215 46.9845 112.829 47.6281 112.507 48.3361C111.348 52.9702 113.215 58.0548 117.466 60.758C122.811 64.2336 129.959 62.6889 133.437 57.3468C136.914 52.0047 135.369 44.8605 130.024 41.385C128.864 40.677 127.641 40.1621 126.417 39.8403C124.743 39.7115 123.068 39.969 121.458 40.4195C124.163 39.8403 127.126 40.2908 129.637 41.8999C134.66 45.1823 136.142 51.9404 132.857 56.9606C129.573 61.9809 122.811 63.4612 117.788 60.1788C112.764 56.8963 111.283 50.2026 114.568 45.118C114.761 44.7962 114.954 44.5387 115.212 44.2169C114.632 44.9249 114.117 45.6329 113.602 46.3409Z" fill="white"/>
</g>
<path opacity="0.8" d="M115.856 45.6327C113.151 49.8162 114.374 55.3514 118.496 57.9902C122.682 60.6934 128.22 59.4706 130.861 55.3514C133.566 51.1678 132.342 45.6327 128.22 42.9938C124.034 40.2906 118.496 41.5135 115.856 45.6327Z" fill="white"/>
<path d="M127.963 49.4301L127.126 50.2668L118.496 53.678L117.144 52.3264L125.387 49.0439L122.682 46.405L121.523 47.5635L120.299 46.405L122.489 44.1523L127.963 49.4301Z" fill="#423062"/>
<path opacity="0.2" d="M113.602 46.341C113.215 46.9847 112.829 47.6283 112.507 48.3363C109.738 54.6438 111.863 62.1742 117.788 66.0359C123.906 69.962 131.891 68.6104 136.464 63.1396C132.02 65.7141 126.288 65.7785 121.652 62.7534C115.662 58.8917 113.537 51.3613 116.371 45.0538C116.693 44.4102 117.015 43.7022 117.466 43.0586C117.788 42.5437 118.11 42.0931 118.496 41.6426C117.337 42.3506 116.178 43.1873 115.212 44.2171C114.632 44.9251 114.117 45.633 113.602 46.341Z" fill="black"/>
<path opacity="0.2" d="M129.637 47.6279C128.285 49.6875 128.864 52.4551 130.99 53.8067C133.05 55.1583 135.82 54.5791 137.172 52.4551C138.524 50.3955 137.945 47.6279 135.82 46.2763C133.759 44.9891 130.99 45.5683 129.637 47.6279Z" fill="white"/>
<path opacity="0.2" d="M134.338 55.9954C133.759 56.8965 134.016 58.1837 134.918 58.763C135.82 59.3423 137.108 59.0848 137.687 58.1837C138.267 57.2827 138.009 55.9954 137.108 55.4162C136.142 54.7725 134.918 55.03 134.338 55.9954Z" fill="white"/>
<path d="M133.179 223.273C133.179 234.858 123.906 244.255 112.378 244.448C112.249 244.448 112.12 244.448 111.992 244.448C110.446 244.448 108.965 244.319 107.484 243.998C103.877 243.225 100.657 241.552 97.9524 239.235C96.7288 238.141 95.634 236.918 94.668 235.566C92.2208 232.091 90.7396 227.843 90.7396 223.273C90.7396 211.559 100.206 202.098 111.927 202.098C123.648 202.098 133.179 211.559 133.179 223.273Z" fill="#423062"/>
<g opacity="0.8">
<path d="M109.287 212.267C100.335 212.267 93.058 219.54 93.058 228.486C93.058 230.997 93.6376 233.378 94.668 235.502C95.634 236.854 96.7288 238.076 97.9524 239.171C95.312 236.403 93.702 232.606 93.702 228.486C93.702 219.862 100.722 212.911 109.287 212.911C117.916 212.911 124.872 219.926 124.872 228.486C124.872 237.111 117.852 244.062 109.287 244.062C108.643 244.062 108.063 243.998 107.484 243.933C108.9 244.255 110.446 244.384 111.992 244.384C112.12 244.384 112.249 244.384 112.378 244.384C119.913 242.968 125.58 236.339 125.58 228.422C125.58 219.604 118.238 212.267 109.287 212.267Z" fill="white"/>
</g>
<path opacity="0.8" d="M108.643 242.517C116.005 242.517 121.974 236.552 121.974 229.194C121.974 221.836 116.005 215.871 108.643 215.871C101.28 215.871 95.312 221.836 95.312 229.194C95.312 236.552 101.28 242.517 108.643 242.517Z" fill="white"/>
<path d="M107.355 236.274C107.29 236.918 107.226 237.497 107.097 238.141C104.135 237.755 101.237 237.111 98.4032 236.21C98.4676 235.695 98.532 235.244 98.5964 234.73C100.335 233.7 102.074 232.606 103.813 231.447C105.101 230.61 105.423 229.902 105.487 229.259C105.616 228.165 104.972 227.392 103.491 227.07C102.332 226.813 101.366 226.942 100.593 227.65C100.142 227.135 99.6912 226.556 99.2404 226.041C100.271 225.075 102.01 224.818 103.942 225.268C106.518 225.848 107.999 227.328 107.741 229.452C107.612 230.61 107.162 231.64 105.294 232.863C104.135 233.7 102.911 234.472 101.752 235.18C103.62 235.695 105.487 236.017 107.355 236.274Z" fill="#423062"/>
<path d="M118.882 226.684C118.818 227.199 118.754 227.649 118.689 228.164C116.693 231.704 114.696 235.244 112.7 238.655C111.927 238.591 111.09 238.591 110.317 238.527C112.249 235.309 114.181 232.026 116.113 228.615C114.568 228.615 112.958 228.551 111.412 228.422C111.348 229.13 111.219 229.773 111.154 230.417C110.446 230.353 109.802 230.288 109.094 230.224C109.287 228.937 109.416 227.649 109.609 226.298C112.7 226.748 115.791 226.877 118.882 226.684Z" fill="#423062"/>
<path opacity="0.2" d="M133.179 223.273C133.179 234.858 123.906 244.255 112.378 244.448C112.249 244.448 112.12 244.448 111.992 244.448C110.446 244.448 108.965 244.319 107.484 243.998C103.877 243.225 100.657 241.552 97.9524 239.235C96.7288 238.141 95.634 236.918 94.668 235.566C92.2208 232.091 90.7396 227.843 90.7396 223.273C90.7396 221.728 90.9328 220.184 91.2548 218.768C91.448 222.951 92.8648 226.813 95.1188 230.031C96.0848 231.383 97.1796 232.605 98.4032 233.7C101.044 236.017 104.328 237.69 107.934 238.462C109.351 238.784 110.897 238.913 112.442 238.913C112.571 238.913 112.7 238.913 112.829 238.913C122.811 238.72 131.118 231.64 133.179 222.243C133.179 222.565 133.179 222.951 133.179 223.273Z" fill="black"/>
<path opacity="0.2" d="M114.906 215.164C117.32 212.751 117.32 208.839 114.906 206.426C112.492 204.013 108.577 204.013 106.163 206.426C103.748 208.839 103.748 212.751 106.163 215.164C108.577 217.577 112.492 217.577 114.906 215.164Z" fill="white"/>
<path opacity="0.2" d="M120.364 214.391C121.537 214.391 122.489 213.44 122.489 212.267C122.489 211.094 121.537 210.143 120.364 210.143C119.19 210.143 118.238 211.094 118.238 212.267C118.238 213.44 119.19 214.391 120.364 214.391Z" fill="white"/>
<path d="M73.6092 158.718C73.8024 159.297 73.9312 159.876 74.06 160.391C75.4124 167.342 71.3552 174.358 64.4644 176.61C56.994 178.992 48.944 174.937 46.5612 167.407C44.1784 159.94 48.2356 151.895 55.7704 149.514C57.638 148.935 59.57 148.741 61.4376 148.87C62.8544 148.999 64.2068 149.321 65.4948 149.836C68.586 151.058 71.162 153.376 72.772 156.465C73.0296 157.173 73.3516 157.945 73.6092 158.718Z" fill="#9475D1"/>
<g opacity="0.8">
<path d="M72.7076 156.465C72.772 156.658 72.8364 156.787 72.9008 156.98C74.7684 162.708 71.6128 168.822 65.8812 170.689C60.1496 172.555 54.0316 169.402 52.164 163.673C50.2964 157.945 53.452 151.831 59.1836 149.964C61.3088 149.256 63.434 149.256 65.4304 149.836C64.1424 149.321 62.79 148.999 61.3732 148.87C60.6004 148.934 59.7632 149.128 58.9904 149.385C52.9368 151.316 49.588 157.816 51.52 163.867C53.452 169.917 59.9564 173.263 66.01 171.333C70.9044 169.788 73.9956 165.218 73.9956 160.391C73.8668 159.812 73.738 159.232 73.5448 158.718C73.3516 157.945 73.0296 157.173 72.7076 156.465Z" fill="white"/>
</g>
<path opacity="0.8" d="M71.115 164.272C73.3703 159.875 71.6322 154.483 67.2327 152.229C62.8331 149.975 57.4383 151.712 55.1829 156.109C52.9275 160.506 54.6657 165.898 59.0652 168.152C63.4647 170.406 68.8596 168.669 71.115 164.272Z" fill="white"/>
<path d="M66.01 160.584C66.654 162.193 65.8812 164.059 63.4984 165.153C62.2748 165.733 60.9224 165.861 59.892 165.604C59.9564 165.025 60.0852 164.51 60.1496 163.931C60.9868 164.188 62.0172 164.124 63.0476 163.673C64.2068 163.158 64.722 162.257 64.4 161.42C64.078 160.584 63.3052 160.262 61.4376 161.099C60.7292 161.42 60.0208 161.742 59.3124 162.064C58.7328 160.391 58.0244 158.782 57.1872 157.237C58.926 156.465 60.6004 155.628 62.3392 154.855C62.5968 155.242 62.9188 155.692 63.1764 156.143C61.8884 156.722 60.6648 157.301 59.3768 157.88C59.6988 158.524 60.0208 159.232 60.2784 159.94C60.536 159.811 60.858 159.683 61.1156 159.554C63.756 158.331 65.366 158.975 66.01 160.584Z" fill="#423062"/>
<path d="M66.8472 152.796C68.6504 155.435 70.0028 158.46 70.84 161.549C70.3248 161.807 69.7452 162.064 69.23 162.322C68.5216 159.683 67.4268 157.173 66.01 154.791C65.366 155.049 64.7864 155.37 64.1424 155.628C63.8848 155.177 63.6272 154.791 63.3052 154.341C64.5288 153.89 65.688 153.311 66.8472 152.796Z" fill="#423062"/>
<path opacity="0.2" d="M74.1244 161.034C75.0904 167.792 71.0976 174.422 64.4 176.61C56.9296 178.991 48.8796 174.936 46.4968 167.406C45.5952 164.703 45.5952 161.871 46.3036 159.296C46.4324 160.069 46.6256 160.841 46.8188 161.678C49.2016 169.144 57.2516 173.263 64.722 170.882C69.552 169.337 72.9652 165.54 74.1244 161.034Z" fill="black"/>
<path opacity="0.2" d="M62.6612 152.217C63.3052 154.212 61.502 156.594 58.604 157.495C55.706 158.396 52.8724 157.559 52.2284 155.564C51.5844 153.569 53.3876 151.187 56.2856 150.286C59.1836 149.321 62.0172 150.222 62.6612 152.217Z" fill="white"/>
<path opacity="0.2" d="M56.1568 160.841C56.0924 161.678 54.9976 162.321 53.774 162.193C52.5504 162.064 51.5844 161.292 51.6488 160.455C51.7132 159.618 52.808 158.975 54.0316 159.103C55.2552 159.168 56.2212 160.004 56.1568 160.841Z" fill="white"/>
<path d="M233.345 233.811C239.809 227.351 239.809 216.878 233.345 210.419C226.882 203.959 216.403 203.959 209.939 210.419C203.476 216.878 203.476 227.351 209.939 233.811C216.403 240.271 226.882 240.271 233.345 233.811Z" fill="#423062"/>
<path opacity="0.4" d="M238.216 222.114C238.216 222.243 238.216 222.436 238.216 222.565C237.958 231.511 230.681 238.655 221.665 238.655C212.52 238.655 205.114 231.254 205.114 222.114C205.114 212.975 212.52 205.573 221.665 205.573C225.142 205.573 228.362 206.667 231.003 208.47C232.806 209.692 234.352 211.302 235.575 213.168C236.155 214.069 236.67 215.099 237.056 216.129C237.829 217.995 238.216 219.99 238.216 222.114Z" fill="black"/>
<g opacity="0.8">
<path d="M237.056 216.129C237.507 217.416 237.765 218.767 237.765 220.248C237.765 227.07 232.226 232.605 225.4 232.605C218.574 232.605 213.035 227.07 213.035 220.248C213.035 213.425 218.574 207.89 225.4 207.89C229.586 207.89 233.321 210.014 235.575 213.232C234.352 211.366 232.806 209.757 231.003 208.534C229.328 207.697 227.396 207.247 225.4 207.247C218.252 207.247 212.391 213.104 212.391 220.248C212.391 227.392 218.252 233.249 225.4 233.249C231.776 233.249 237.056 228.679 238.151 222.629C238.151 222.5 238.151 222.307 238.151 222.179C238.216 219.99 237.829 217.995 237.056 216.129Z" fill="white"/>
</g>
<path opacity="0.8" d="M226.044 230.481C231.806 230.481 236.477 225.813 236.477 220.055C236.477 214.296 231.806 209.628 226.044 209.628C220.282 209.628 215.611 214.296 215.611 220.055C215.611 225.813 220.282 230.481 226.044 230.481Z" fill="white"/>
<path d="M232.613 220.441C233.128 222.372 232.226 224.302 229.328 225.139C227.783 225.59 226.108 225.525 224.885 225.01L225.271 223.208C226.237 223.659 227.525 223.723 228.749 223.401C230.166 223.015 230.874 222.114 230.552 221.084C230.294 220.055 229.393 219.604 227.203 220.183L224.563 220.891L223.468 214.841L229.844 213.039L230.294 214.712L225.658 216L226.108 218.574L227.139 218.317C230.359 217.48 232.033 218.51 232.613 220.441Z" fill="#9475D1"/>
<path opacity="0.2" d="M215.125 220.72C217.556 219.714 218.711 216.927 217.704 214.497C216.696 212.067 213.909 210.913 211.477 211.919C209.045 212.926 207.891 215.712 208.898 218.143C209.905 220.573 212.693 221.727 215.125 220.72Z" fill="white"/>
<path opacity="0.2" d="M217.221 223.273C217.221 224.109 216.513 224.817 215.676 224.817C214.838 224.817 214.13 224.109 214.13 223.273C214.13 222.436 214.838 221.728 215.676 221.728C216.513 221.728 217.221 222.436 217.221 223.273Z" fill="white"/>
<path opacity="0.2" d="M238.216 222.114C238.216 222.243 238.216 222.436 238.216 222.565C237.958 231.511 230.681 238.655 221.665 238.655C213.357 238.655 206.466 232.541 205.307 224.56C207.948 230.224 213.679 234.15 220.312 234.15C229.264 234.15 236.606 227.006 236.863 218.059C236.863 217.931 236.863 217.737 236.863 217.609C236.863 216.772 236.799 215.935 236.67 215.099C236.799 215.42 236.928 215.742 237.056 216.064C237.829 217.995 238.216 219.99 238.216 222.114Z" fill="black"/>
<path d="M254.702 87.018C254.702 94.8702 248.326 101.242 240.47 101.242C232.613 101.242 226.237 94.8702 226.237 87.018C226.237 85.6664 226.43 84.3792 226.752 83.2206C227.074 81.9978 227.59 80.9036 228.169 79.8738C230.166 76.4626 233.514 73.9525 237.507 73.1158C238.473 72.9227 239.439 72.7939 240.47 72.7939C240.727 72.7939 240.985 72.7939 241.242 72.7939C248.713 73.1801 254.702 79.4233 254.702 87.018Z" fill="#9475D1"/>
<g opacity="0.8">
<path d="M241.242 72.7939C240.985 72.7939 240.727 72.7939 240.47 72.7939C239.439 72.7939 238.473 72.9227 237.507 73.1158C237.765 73.1158 238.022 73.1158 238.216 73.1158C244.205 73.1158 249.099 78.0073 249.099 83.993C249.099 89.9787 244.205 94.8702 238.216 94.8702C232.226 94.8702 227.332 89.9787 227.332 83.993C227.332 82.5127 227.654 81.161 228.169 79.8738C227.525 80.9036 227.074 82.0621 226.752 83.2206C226.752 83.4781 226.752 83.7355 226.752 83.993C226.752 90.3649 231.904 95.5138 238.28 95.5138C244.656 95.5138 249.808 90.3649 249.808 83.993C249.808 78.5866 246.137 74.0812 241.242 72.7939Z" fill="white"/>
</g>
<path opacity="0.8" d="M237.636 92.36C242.58 92.36 246.588 88.3546 246.588 83.4137C246.588 78.4727 242.58 74.4673 237.636 74.4673C232.692 74.4673 228.684 78.4727 228.684 83.4137C228.684 88.3546 232.692 92.36 237.636 92.36Z" fill="white"/>
<path d="M238.28 76.7203C235.704 79.4235 233.772 82.5129 232.548 85.6666C232.033 85.4735 231.454 85.2805 230.938 85.023C231.969 82.3198 233.514 79.7453 235.575 77.3639C234.996 77.1064 234.352 76.9133 233.772 76.6559C234.158 76.2054 234.545 75.8192 234.931 75.3687C235.962 75.8836 237.121 76.3341 238.28 76.7203Z" fill="#263238"/>
<path d="M242.917 78.5225C240.341 81.2257 238.409 84.3151 237.25 87.4689C236.734 87.2758 236.155 87.0827 235.64 86.8252C236.67 84.122 238.216 81.5475 240.212 79.1661C239.632 78.9087 238.988 78.7156 238.409 78.4581C238.795 78.0076 239.182 77.5571 239.568 77.1709C240.663 77.6858 241.758 78.072 242.917 78.5225Z" fill="#263238"/>
<path opacity="0.2" d="M254.702 87.0182C254.702 94.8704 248.326 101.242 240.47 101.242C233.257 101.242 227.268 95.8359 226.366 88.8847C228.813 93.3257 233.45 96.2864 238.86 96.2864C246.716 96.2864 253.092 89.9145 253.092 82.0623C253.092 81.4187 253.028 80.8394 252.963 80.1958C254.058 82.191 254.702 84.5081 254.702 87.0182Z" fill="black"/>
<path opacity="0.2" d="M249.357 79.2299C249.357 81.547 247.489 83.4135 245.171 83.4135C242.852 83.4135 240.985 81.547 240.985 79.2299C240.985 76.9129 242.852 75.0464 245.171 75.0464C247.489 75.0464 249.357 76.9129 249.357 79.2299Z" fill="white"/>
<path opacity="0.2" d="M251.096 85.2157C251.096 86.1811 250.323 87.0179 249.292 87.0179C248.326 87.0179 247.489 86.2455 247.489 85.2157C247.489 84.1859 248.262 83.4136 249.292 83.4136C250.323 83.4136 251.096 84.1859 251.096 85.2157Z" fill="white"/>
<path d="M168.277 50.4121L57.283 72.0781L84.69 212.319L195.684 190.653L168.277 50.4121Z" fill="#9475D1"/>
<path d="M137.589 134.607L117.363 138.556L121.313 158.771L141.54 154.822L137.589 134.607Z" fill="white"/>
<path d="M136.863 151.684C139.624 147.585 138.537 142.026 134.436 139.267C130.335 136.508 124.773 137.594 122.012 141.692C119.252 145.791 120.338 151.35 124.439 154.109C128.54 156.868 134.102 155.782 136.863 151.684Z" fill="#423062"/>
<path d="M86.8362 100.687L66.6095 104.635L70.56 124.85L90.7868 120.901L86.8362 100.687Z" fill="white"/>
<path d="M78.89 115.981L79.212 117.461L72.2568 118.813L71.9992 117.654L75.0904 113.342C75.8632 112.312 75.8632 111.669 75.7988 111.154C75.6056 110.317 74.9616 109.931 73.8024 110.124C72.9008 110.317 72.1924 110.768 71.806 111.54L70.3892 110.832C70.9044 109.673 72.128 108.837 73.6736 108.579C75.7344 108.193 77.28 108.965 77.602 110.639C77.7952 111.54 77.6664 112.441 76.636 113.921L74.5752 116.818L78.89 115.981Z" fill="#263238"/>
<path d="M86.7468 114.436L87.0688 115.916L80.1136 117.268L79.856 116.109L82.9472 111.797C83.72 110.767 83.72 110.124 83.6556 109.609C83.4624 108.772 82.8184 108.386 81.6592 108.579C80.7576 108.772 80.0492 109.223 79.6628 109.995L78.246 109.287C78.7612 108.128 79.9848 107.292 81.5304 107.034C83.5912 106.648 85.1368 107.42 85.4588 109.094C85.652 109.995 85.5232 110.896 84.4928 112.376L82.432 115.273L86.7468 114.436Z" fill="#263238"/>
<path d="M108.095 96.5664L87.8682 100.515L91.8187 120.73L112.045 116.781L108.095 96.5664Z" fill="white"/>
<path d="M96.3424 104.267L98.21 113.728L96.4712 114.05L94.9256 106.069L92.9292 106.455L92.6716 104.975L96.3424 104.267Z" fill="#263238"/>
<path d="M106.26 109.223C106.582 110.832 105.616 112.441 103.104 112.956C101.752 113.213 100.335 113.084 99.3048 112.57L99.82 111.025C100.593 111.475 101.688 111.604 102.782 111.411C104.07 111.154 104.65 110.446 104.521 109.609C104.328 108.772 103.62 108.322 102.203 108.579L101.366 108.772L101.108 107.549L102.782 104.589L98.4676 105.425L98.21 103.945L104.65 102.658L104.908 103.816L103.169 106.97C104.843 106.906 106.002 107.807 106.26 109.223Z" fill="#263238"/>
<path d="M129.341 92.3833L109.115 96.3315L113.065 116.546L133.292 112.598L129.341 92.3833Z" fill="white"/>
<path d="M121.136 106.262C121.458 107.935 120.557 109.544 117.981 110.059C116.628 110.317 115.212 110.188 114.181 109.673L114.632 108.193C115.405 108.643 116.564 108.772 117.594 108.579C118.882 108.322 119.462 107.614 119.333 106.712C119.14 105.811 118.432 105.361 116.5 105.747L114.181 106.198L113.666 100.92L119.204 99.8257L119.462 101.306L115.405 102.078L115.662 104.331L116.564 104.138C119.462 103.559 120.814 104.588 121.136 106.262Z" fill="#263238"/>
<path d="M128.993 104.717C129.315 106.39 128.414 107.999 125.838 108.514C124.485 108.772 123.068 108.643 122.038 108.128L122.489 106.648C123.262 107.098 124.421 107.227 125.451 107.034C126.739 106.777 127.319 106.069 127.19 105.168C126.997 104.266 126.288 103.816 124.356 104.202L122.038 104.653L121.523 99.3749L127.061 98.2808L127.319 99.7611L123.262 100.533L123.519 102.786L124.421 102.593C127.319 102.014 128.671 103.044 128.993 104.717Z" fill="#263238"/>
<path d="M150.6 88.2637L130.373 92.2119L134.324 112.427L154.551 108.479L150.6 88.2637Z" fill="white"/>
<path d="M142.646 103.494L142.968 104.974L136.013 106.326L135.755 105.167L138.846 100.855C139.619 99.8254 139.619 99.1818 139.555 98.6669C139.362 97.8302 138.718 97.444 137.558 97.6371C136.657 97.8302 135.948 98.2807 135.562 99.0531L134.145 98.3451C134.66 97.1866 135.884 96.3498 137.43 96.0924C139.49 95.7062 141.036 96.4786 141.358 98.152C141.551 99.0531 141.422 99.9541 140.392 101.434L138.331 104.331L142.646 103.494Z" fill="#263238"/>
<path d="M150.245 100.533C150.567 102.207 149.666 103.816 147.09 104.331C145.737 104.588 144.32 104.46 143.29 103.945L143.741 102.464C144.514 102.915 145.673 103.044 146.703 102.85C147.991 102.593 148.571 101.885 148.442 100.984C148.249 100.083 147.54 99.6323 145.608 100.019L143.29 100.469L142.775 95.1913L148.313 94.0972L148.571 95.5775L144.514 96.3498L144.771 98.6025L145.673 98.4094C148.571 97.8945 149.923 98.86 150.245 100.533Z" fill="#263238"/>
<path d="M171.846 84.0811L151.619 88.0293L155.57 108.244L175.797 104.296L171.846 84.0811Z" fill="white"/>
<path d="M166.216 98.2168L164.542 98.5386L164.993 100.663L163.318 100.984L162.868 98.8604L157.651 99.8902L157.394 98.6673L160.871 91.6518L162.739 91.2656L159.454 97.9593L162.546 97.38L162.159 95.4492L163.834 95.1274L164.22 97.0582L165.894 96.7364L166.216 98.2168Z" fill="#263238"/>
<path d="M168.47 90.1714L170.338 99.6326L168.599 99.9545L167.054 91.9735L165.057 92.3597L164.8 90.8794L168.47 90.1714Z" fill="#263238"/>
<path d="M90.9604 121.798L70.7336 125.747L74.6842 145.962L94.9109 142.013L90.9604 121.798Z" fill="white"/>
<path d="M80.5644 129.239L82.432 138.701L80.6932 139.022L79.1476 131.041L77.1512 131.428L76.8936 129.947L80.5644 129.239Z" fill="#263238"/>
<path d="M85.7164 128.209L87.584 137.735L85.8452 138.057L84.2996 130.076L82.3032 130.462L82.0456 128.982L85.7164 128.209Z" fill="#263238"/>
<path d="M112.207 117.615L91.9799 121.563L95.9304 141.778L116.157 137.83L112.207 117.615Z" fill="white"/>
<path d="M105.101 132.071L103.426 132.393L103.877 134.517L102.203 134.839L101.752 132.715L96.5356 133.745L96.278 132.522L99.7556 125.506L101.623 125.12L98.3388 131.814L101.43 131.235L101.044 129.304L102.718 128.982L103.104 130.913L104.779 130.591L105.101 132.071Z" fill="#263238"/>
<path d="M112.314 129.947C112.636 131.556 111.67 133.165 109.158 133.68C107.806 133.938 106.389 133.809 105.358 133.294L105.874 131.749C106.646 132.2 107.741 132.329 108.836 132.136C110.124 131.878 110.704 131.17 110.575 130.333C110.382 129.497 109.673 129.046 108.256 129.304L107.419 129.497L107.162 128.274L108.836 125.313L104.521 126.15L104.264 124.67L110.704 123.382L110.961 124.541L109.222 127.695C110.961 127.63 112.056 128.531 112.314 129.947Z" fill="#263238"/>
<path d="M133.465 113.496L113.238 117.444L117.189 137.659L137.416 133.711L133.465 113.496Z" fill="white"/>
<path d="M125.709 128.016L124.034 128.338L124.485 130.462L122.811 130.784L122.36 128.66L117.144 129.689L116.886 128.467L120.364 121.451L122.231 121.065L118.947 127.759L122.038 127.179L121.652 125.248L123.326 124.927L123.712 126.858L125.387 126.536L125.709 128.016Z" fill="#263238"/>
<path d="M125.966 125.313C125.387 122.224 126.739 120.1 128.993 119.649C131.247 119.199 133.308 120.615 133.888 123.768C134.467 126.858 133.115 128.982 130.861 129.432C128.607 129.883 126.546 128.402 125.966 125.313ZM132.084 124.09C131.634 121.773 130.539 120.936 129.251 121.194C127.963 121.451 127.254 122.674 127.705 124.991C128.156 127.308 129.251 128.145 130.539 127.888C131.827 127.63 132.535 126.407 132.084 124.09Z" fill="#263238"/>
<path d="M154.724 109.376L134.497 113.324L138.448 133.539L158.674 129.591L154.724 109.376Z" fill="white"/>
<path d="M142.646 117.139L144.514 126.6L142.775 126.922L141.229 118.941L139.233 119.327L138.975 117.847L142.646 117.139Z" fill="#263238"/>
<path d="M152.757 119.907C153.401 123.125 151.855 125.313 149.086 125.828C148.12 126.021 147.218 125.957 146.446 125.699L146.832 124.219C147.412 124.477 148.056 124.477 148.7 124.348C150.503 124.026 151.404 122.674 150.954 120.486C150.503 121.258 149.666 121.773 148.635 121.966C146.768 122.353 145.158 121.452 144.771 119.714C144.385 117.847 145.673 116.367 147.669 115.981C150.31 115.466 152.177 116.882 152.757 119.907ZM150.374 118.555C150.181 117.654 149.344 117.075 148.12 117.332C147.025 117.525 146.381 118.298 146.574 119.328C146.768 120.293 147.605 120.808 148.764 120.55C149.923 120.357 150.567 119.521 150.374 118.555Z" fill="#263238"/>
<path d="M175.97 105.192L155.744 109.141L159.694 129.356L179.921 125.407L175.97 105.192Z" fill="white"/>
<path d="M167.504 119.07C167.891 120.936 166.603 122.417 164.606 122.803C162.03 123.318 160.163 121.966 159.583 118.877C158.939 115.659 160.485 113.47 163.254 112.956C164.22 112.762 165.122 112.827 165.894 113.084L165.508 114.565C164.928 114.307 164.284 114.307 163.64 114.436C161.837 114.758 160.936 116.109 161.386 118.298C161.837 117.525 162.674 117.01 163.705 116.817C165.572 116.431 167.182 117.268 167.504 119.07ZM165.83 119.456C165.637 118.491 164.8 117.976 163.64 118.233C162.481 118.426 161.837 119.327 162.03 120.228C162.224 121.13 163.061 121.709 164.284 121.451C165.379 121.258 166.023 120.486 165.83 119.456Z" fill="#263238"/>
<path d="M168.084 117.075C167.504 113.985 168.857 111.861 171.111 111.411C173.365 110.96 175.426 112.376 176.005 115.53C176.585 118.619 175.232 120.743 172.978 121.194C170.724 121.645 168.728 120.164 168.084 117.075ZM174.266 115.852C173.816 113.535 172.721 112.698 171.433 112.956C170.145 113.213 169.436 114.436 169.887 116.753C170.338 119.07 171.433 119.907 172.721 119.649C174.009 119.392 174.717 118.169 174.266 115.852Z" fill="#263238"/>
<path d="M95.0845 142.91L74.8578 146.858L78.8083 167.073L99.0351 163.125L95.0845 142.91Z" fill="white"/>
<path d="M85.7808 150.157L86.0384 151.316L83.9776 160.326L82.11 160.713L84.1064 152.024L80.3712 152.732L80.6932 154.341L79.0832 154.663L78.5036 151.573L85.7808 150.157Z" fill="#263238"/>
<path d="M94.7968 155.177C95.1188 156.851 94.2172 158.46 91.6412 158.975C90.2888 159.232 88.872 159.104 87.8416 158.589L88.2924 157.108C89.0652 157.559 90.2244 157.688 91.2548 157.494C92.5428 157.237 93.1224 156.529 92.9936 155.628C92.8004 154.727 92.092 154.276 90.16 154.663L87.8416 155.113L87.3264 149.835L92.8648 148.741L93.1224 150.222L89.0652 150.994L89.3228 153.247L90.2244 153.053C93.1224 152.539 94.4748 153.504 94.7968 155.177Z" fill="#263238"/>
<path d="M116.331 138.728L96.104 142.676L100.055 162.891L120.281 158.942L116.331 138.728Z" fill="white"/>
<path d="M112.314 153.247L112.636 154.727L105.68 156.078L105.423 154.92L108.514 150.608C109.287 149.578 109.287 148.934 109.222 148.419C109.029 147.583 108.385 147.196 107.226 147.39C106.324 147.583 105.616 148.033 105.23 148.806L103.813 148.098C104.328 146.939 105.552 146.102 107.097 145.845C109.158 145.459 110.704 146.231 111.026 147.904C111.219 148.806 111.09 149.707 110.06 151.187L107.999 154.083L112.314 153.247Z" fill="#263238"/>
<path d="M158.836 130.425L138.609 134.373L142.559 154.588L162.786 150.64L158.836 130.425Z" fill="white"/>
<path d="M151.018 144.172C151.404 146.038 150.116 147.518 148.12 147.905C145.544 148.419 143.676 147.068 143.097 143.978C142.453 140.76 143.998 138.572 146.768 138.057C147.734 137.864 148.635 137.928 149.408 138.186L149.022 139.666C148.442 139.409 147.798 139.409 147.154 139.537C145.351 139.859 144.449 141.211 144.9 143.399C145.351 142.627 146.188 142.112 147.218 141.919C149.022 141.533 150.632 142.434 151.018 144.172ZM149.344 144.622C149.15 143.657 148.313 143.142 147.154 143.399C145.995 143.592 145.351 144.493 145.544 145.394C145.737 146.295 146.574 146.875 147.798 146.617C148.893 146.36 149.537 145.587 149.344 144.622Z" fill="#263238"/>
<path d="M158.682 142.82C159.004 144.429 158.038 146.038 155.526 146.553C154.174 146.81 152.757 146.682 151.726 146.167L152.242 144.622C153.014 145.073 154.109 145.201 155.204 145.008C156.492 144.751 157.072 144.043 156.943 143.206C156.75 142.369 156.041 141.919 154.624 142.176L153.787 142.369L153.53 141.146L155.204 138.186L150.889 139.022L150.632 137.542L157.072 136.255L157.329 137.413L155.59 140.567C157.265 140.503 158.424 141.34 158.682 142.82Z" fill="#263238"/>
<path d="M180.094 126.305L159.868 130.253L163.818 150.468L184.045 146.52L180.094 126.305Z" fill="white"/>
<path d="M171.562 141.661L171.884 143.141L164.928 144.493L164.671 143.334L167.762 139.022C168.535 137.992 168.535 137.349 168.47 136.834C168.277 135.997 167.633 135.611 166.474 135.804C165.572 135.997 164.864 136.448 164.478 137.22L163.061 136.512C163.576 135.354 164.8 134.517 166.345 134.259C168.406 133.873 169.952 134.646 170.274 136.319C170.467 137.22 170.338 138.121 169.308 139.601L167.247 142.498L171.562 141.661Z" fill="#263238"/>
<path d="M171.884 138.25C171.304 135.161 172.656 133.037 174.91 132.586C177.164 132.136 179.225 133.552 179.805 136.705C180.384 139.795 179.032 141.919 176.778 142.369C174.524 142.755 172.528 141.339 171.884 138.25ZM178.066 137.027C177.615 134.71 176.52 133.873 175.232 134.131C173.944 134.388 173.236 135.611 173.687 137.928C174.138 140.245 175.232 141.082 176.52 140.825C177.808 140.567 178.517 139.344 178.066 137.027Z" fill="#263238"/>
<path d="M99.2085 164.022L78.9818 167.97L82.9323 188.185L103.159 184.237L99.2085 164.022Z" fill="white"/>
<path d="M95.312 177.189C95.634 178.927 94.346 180.343 91.9632 180.794C89.5804 181.244 87.906 180.472 87.5196 178.67C87.3264 177.64 87.7128 176.739 88.6144 176.095C87.7772 175.838 87.1976 175.258 87.0688 174.357C86.7468 172.748 87.9704 171.461 90.0956 171.011C92.2208 170.624 93.8308 171.332 94.1528 172.941C94.346 173.842 94.024 174.615 93.3156 175.194C94.4104 175.516 95.1188 176.16 95.312 177.189ZM88.8076 174.164C88.9364 175.001 89.7736 175.387 90.8684 175.13C91.9632 174.937 92.6072 174.293 92.414 173.456C92.2208 172.62 91.448 172.233 90.3532 172.491C89.2584 172.684 88.6788 173.263 88.8076 174.164ZM93.5088 177.511C93.3156 176.546 92.414 176.16 91.126 176.417C89.838 176.674 89.1296 177.382 89.3228 178.348C89.516 179.313 90.4176 179.699 91.7056 179.442C92.9936 179.185 93.702 178.477 93.5088 177.511Z" fill="#263238"/>
<path d="M120.455 159.839L100.228 163.788L104.179 184.003L124.405 180.054L120.455 159.839Z" fill="white"/>
<path d="M111.927 173.778C112.249 175.451 111.348 177.061 108.772 177.575C107.419 177.833 106.002 177.704 104.972 177.189L105.423 175.709C106.196 176.159 107.355 176.288 108.385 176.095C109.673 175.838 110.253 175.13 110.124 174.229C109.931 173.328 109.222 172.877 107.29 173.263L104.972 173.714L104.457 168.436L109.995 167.342L110.253 168.822L106.196 169.594L106.453 171.847L107.355 171.654C110.253 171.075 111.605 172.04 111.927 173.778Z" fill="#263238"/>
<path d="M119.848 170.109C120.492 173.328 118.947 175.516 116.178 176.031C115.212 176.224 114.31 176.16 113.537 175.902L113.924 174.422C114.503 174.679 115.147 174.679 115.791 174.55C117.594 174.229 118.496 172.877 118.045 170.689C117.594 171.461 116.757 171.976 115.727 172.169C113.859 172.555 112.249 171.654 111.863 169.916C111.476 168.05 112.764 166.57 114.761 166.183C117.401 165.733 119.269 167.084 119.848 170.109ZM117.466 168.822C117.272 167.921 116.435 167.342 115.212 167.599C114.117 167.792 113.473 168.565 113.666 169.595C113.859 170.56 114.696 171.075 115.856 170.817C117.015 170.56 117.659 169.723 117.466 168.822Z" fill="#263238"/>
<path d="M141.713 155.72L121.487 159.668L125.437 179.883L145.664 175.935L141.713 155.72Z" fill="white"/>
<path d="M133.63 162.708L133.888 163.866L131.827 172.877L129.959 173.263L131.956 164.574L128.22 165.282L128.542 166.891L126.932 167.213L126.224 164.123L133.63 162.708Z" fill="#263238"/>
<path d="M138.074 161.807L139.941 171.268L138.202 171.59L136.657 163.609L134.66 163.995L134.403 162.515L138.074 161.807Z" fill="#263238"/>
<path d="M162.96 151.537L142.733 155.485L146.684 175.7L166.91 171.752L162.96 151.537Z" fill="white"/>
<path d="M154.753 165.411C155.075 167.084 154.174 168.693 151.598 169.208C150.245 169.466 148.828 169.337 147.798 168.822L148.249 167.342C149.022 167.792 150.181 167.921 151.211 167.728C152.499 167.47 153.079 166.762 152.95 165.861C152.757 164.96 152.048 164.51 150.116 164.896L147.798 165.346L147.283 160.069L152.821 158.975L153.079 160.455L149.022 161.227L149.279 163.48L150.181 163.287C153.079 162.708 154.431 163.737 154.753 165.411Z" fill="#263238"/>
<path d="M162.61 163.866C162.932 165.539 162.03 167.148 159.454 167.663C158.102 167.921 156.685 167.792 155.655 167.277L156.106 165.797C156.878 166.247 158.038 166.376 159.068 166.183C160.356 165.926 160.936 165.218 160.807 164.316C160.614 163.415 159.905 162.965 157.973 163.351L155.655 163.802L155.14 158.524L160.678 157.43L160.936 158.91L156.878 159.682L157.136 161.935L158.038 161.742C160.936 161.163 162.288 162.193 162.61 163.866Z" fill="#263238"/>
<path d="M184.218 147.417L163.992 151.365L167.942 171.58L188.169 167.632L184.218 147.417Z" fill="white"/>
<path d="M176.456 154.34L178.324 163.802L176.585 164.123L175.039 156.142L173.043 156.529L172.785 155.048L176.456 154.34Z" fill="#263238"/>
<path d="M103.321 185.07L83.0941 189.019L87.0447 209.233L107.271 205.285L103.321 185.07Z" fill="white"/>
<path d="M91.5768 192.829L93.4444 202.29L91.7056 202.612L90.16 194.631L88.1636 195.017L87.906 193.537L91.5768 192.829Z" fill="#263238"/>
<path d="M101.623 197.656C101.945 199.33 101.044 200.939 98.4676 201.454C97.1152 201.711 95.6984 201.583 94.668 201.068L95.1188 199.587C95.8916 200.038 97.0508 200.167 98.0812 199.973C99.3692 199.716 99.9488 199.008 99.82 198.107C99.6268 197.206 98.9184 196.755 96.9864 197.142L94.668 197.592L94.1528 192.314L99.6912 191.22L99.9488 192.701L95.8916 193.473L96.0848 195.726L96.9864 195.532C99.9488 195.018 101.301 195.983 101.623 197.656Z" fill="#263238"/>
<path d="M124.579 180.951L104.352 184.899L108.303 205.114L128.529 201.166L124.579 180.951Z" fill="white"/>
<path d="M116.306 194.889C116.628 196.498 115.662 198.107 113.151 198.622C111.798 198.879 110.382 198.75 109.351 198.236L109.866 196.691C110.639 197.141 111.734 197.27 112.829 197.077C114.117 196.82 114.696 196.112 114.568 195.275C114.374 194.438 113.666 193.988 112.249 194.245L111.412 194.438L111.154 193.215L112.829 190.255L108.514 191.091L108.256 189.611L114.696 188.324L114.954 189.482L113.215 192.636C114.89 192.572 115.984 193.473 116.306 194.889Z" fill="#263238"/>
<path d="M124.163 193.279C124.485 194.953 123.584 196.562 121.008 197.077C119.655 197.334 118.238 197.206 117.208 196.691L117.659 195.21C118.432 195.661 119.591 195.79 120.621 195.597C121.909 195.339 122.489 194.631 122.36 193.73C122.167 192.829 121.458 192.378 119.526 192.765L117.208 193.215L116.693 187.937L122.231 186.843L122.489 188.324L118.432 189.096L118.689 191.349L119.591 191.156C122.489 190.576 123.841 191.606 124.163 193.279Z" fill="#263238"/>
<path d="M145.825 176.768L125.598 180.716L129.549 200.931L149.776 196.983L145.825 176.768Z" fill="white"/>
<path d="M133.952 184.526L135.82 193.988L134.081 194.309L132.535 186.329L130.539 186.715L130.281 185.234L133.952 184.526Z" fill="#263238"/>
<path d="M142.968 182.789L143.226 183.947L141.165 192.958L139.297 193.344L141.294 184.655L137.558 185.363L137.88 186.972L136.27 187.294L135.691 184.205L142.968 182.789Z" fill="#263238"/>
<path d="M167.084 172.648L146.857 176.597L150.808 196.812L171.034 192.863L167.084 172.648Z" fill="white"/>
<path d="M158.746 186.586C159.068 188.195 158.102 189.804 155.59 190.319C154.238 190.576 152.821 190.448 151.791 189.933L152.306 188.388C153.079 188.839 154.174 188.967 155.268 188.774C156.556 188.517 157.136 187.809 157.007 186.972C156.814 186.135 156.106 185.685 154.689 185.942L153.852 186.135L153.594 184.913L155.268 181.952L150.954 182.789L150.696 181.308L157.136 180.021L157.394 181.18L155.655 184.333C157.394 184.269 158.488 185.17 158.746 186.586Z" fill="#263238"/>
<path d="M166.989 186.393L167.311 187.873L160.356 189.225L160.098 188.066L163.19 183.754C163.962 182.724 163.962 182.081 163.898 181.566C163.705 180.729 163.061 180.343 161.902 180.536C161 180.729 160.292 181.18 159.905 181.952L158.488 181.244C159.004 180.085 160.227 179.249 161.773 178.991C163.834 178.605 165.379 179.377 165.701 181.051C165.894 181.952 165.766 182.853 164.735 184.333L162.674 187.23L166.989 186.393Z" fill="#263238"/>
<path d="M188.342 168.529L168.116 172.477L172.066 192.692L192.293 188.744L188.342 168.529Z" fill="white"/>
<path d="M183.798 179.57C184.442 182.789 182.896 184.977 180.127 185.492C179.161 185.685 178.259 185.62 177.486 185.363L177.873 183.883C178.452 184.14 179.096 184.14 179.74 184.011C181.544 183.69 182.445 182.338 181.994 180.15C181.544 180.922 180.706 181.437 179.676 181.63C177.808 182.016 176.198 181.115 175.812 179.377C175.426 177.511 176.714 176.03 178.71 175.644C181.35 175.129 183.218 176.545 183.798 179.57ZM181.415 178.219C181.222 177.318 180.384 176.738 179.161 176.996C178.066 177.189 177.422 177.961 177.615 178.991C177.808 179.957 178.646 180.471 179.805 180.214C180.964 180.021 181.608 179.184 181.415 178.219Z" fill="#263238"/>
<path d="M128.349 140.889L130.668 143.978L134.532 143.785L132.342 146.939L133.694 150.543L130.024 149.449L126.997 151.83L126.868 148.033L123.648 145.909L127.319 144.622L128.349 140.889Z" fill="white"/>
<path d="M152.886 60.6294C146.574 61.8522 142.775 67.1943 143.934 73.2444C145.093 79.2944 150.632 82.8344 156.943 81.5471C163.254 80.3242 167.054 74.9822 165.894 68.9321C164.735 62.882 159.197 59.4065 152.886 60.6294Z" fill="white"/>
<path d="M153.465 63.8477L156.492 67.7738L161.451 67.5163L158.617 71.6355L160.42 76.2696L155.655 74.8536L151.791 77.943L151.662 72.9871L147.54 70.2839L152.177 68.6105L153.465 63.8477Z" fill="#9475D1"/>
<path opacity="0.1" d="M168.277 50.3955C168.277 50.3955 171.111 171.268 94.4104 210.4L195.712 190.641L168.277 50.3955Z" fill="black"/>
<path d="M82.8828 79.8091L81.4016 93.7114L78.6324 94.2262L74.5752 86.5671C74.5108 86.4384 74.4464 86.3097 74.382 86.1809C74.3176 86.0522 74.2532 85.8591 74.1888 85.7304C74.1888 85.9235 74.1888 86.0522 74.1888 86.2453C74.1888 86.4384 74.1888 86.5671 74.1244 86.6959L73.2228 95.3204L70.4536 95.8353L63.756 83.5421L66.332 83.0272C66.5896 82.9628 66.8472 82.9628 67.0404 83.0916C67.2336 83.1559 67.3624 83.2846 67.4912 83.4777L70.6468 89.9783C70.7112 90.1714 70.84 90.4289 70.9688 90.622C71.0976 90.8794 71.162 91.1369 71.2908 91.3943C71.2908 90.815 71.2908 90.3001 71.4196 89.7852L72.1924 82.5123C72.1924 82.3192 72.3212 82.1905 72.45 81.9974C72.5788 81.8043 72.772 81.74 73.0296 81.6756L73.9312 81.4825C74.1888 81.4181 74.4464 81.4825 74.6396 81.5469C74.8328 81.6112 74.9616 81.74 75.0904 81.933L78.568 88.3693C78.8256 88.7554 79.0188 89.206 79.2764 89.7209C79.2764 89.4634 79.2764 89.206 79.2764 88.9485C79.2764 88.6911 79.2764 88.498 79.2764 88.2406L79.7272 81.032C79.7272 80.8389 79.856 80.6458 79.9848 80.5171C80.1136 80.324 80.3712 80.2596 80.5644 80.1953L82.8828 79.8091Z" fill="#F4F1FD"/>
<path d="M90.4176 91.9737L87.3264 92.5529L84.7504 79.423L87.8416 78.8438L90.4176 91.9737Z" fill="#F4F1FD"/>
<path d="M102.396 76.0117L104.972 89.1416L103.362 89.4634C103.104 89.5278 102.911 89.5278 102.718 89.4634C102.525 89.3991 102.332 89.3347 102.138 89.1416L94.4104 82.5123C94.4748 82.7698 94.5392 82.9629 94.6036 83.1559C94.668 83.349 94.668 83.6065 94.7324 83.7996L96.0848 90.8151L93.38 91.33L90.804 78.2L92.414 77.8782C92.5428 77.8782 92.6716 77.8139 92.736 77.8139C92.8004 77.8139 92.9292 77.8139 92.9936 77.8139C93.058 77.8139 93.1224 77.8782 93.2512 77.9426C93.3156 78.007 93.4444 78.0713 93.5088 78.1357L101.301 84.8294C101.237 84.5719 101.172 84.3145 101.108 84.1214C101.044 83.8639 100.979 83.6708 100.979 83.4777L99.6268 76.5266L102.396 76.0117Z" fill="#F4F1FD"/>
<path d="M116.95 73.1797L119.526 86.3096L117.916 86.6314C117.659 86.6958 117.466 86.6958 117.272 86.6314C117.079 86.5671 116.886 86.5027 116.693 86.3096L108.965 79.6803C109.029 79.9377 109.094 80.1308 109.158 80.3239C109.222 80.517 109.222 80.7744 109.287 80.9675L110.639 87.983L107.934 88.4979L105.358 75.368L106.968 75.0462C107.097 75.0462 107.226 74.9818 107.29 74.9818C107.355 74.9818 107.484 74.9818 107.548 74.9818C107.612 74.9818 107.677 75.0462 107.806 75.1106C107.87 75.1749 107.999 75.2393 108.063 75.3036L115.856 81.9973C115.791 81.7399 115.727 81.4824 115.662 81.2893C115.598 81.0319 115.534 80.8388 115.534 80.6457L114.181 73.6946L116.95 73.1797Z" fill="#F4F1FD"/>
<path d="M123.584 74.3385L124.163 77.4279L128.285 76.5912L128.736 78.8439L124.614 79.6806L125.194 82.8344L130.603 81.8046L131.054 84.1216L122.618 85.795L120.042 72.6651L128.478 70.9917L128.929 73.3087L123.584 74.3385Z" fill="#F4F1FD"/>
<path d="M144.256 81.4826L141.487 81.9975C140.972 82.1262 140.585 81.9975 140.263 81.6113L137.365 78.2001C137.236 78.0714 137.108 77.9426 136.979 77.9426C136.85 77.8783 136.657 77.8783 136.399 77.9426L135.626 78.0714L136.592 82.8985L133.566 83.4778L130.99 70.3479L135.24 69.5112C136.206 69.3181 137.043 69.2537 137.752 69.3181C138.46 69.3824 139.04 69.5755 139.555 69.833C140.07 70.0904 140.456 70.4766 140.714 70.8628C140.972 71.3133 141.165 71.8282 141.294 72.3431C141.358 72.7936 141.422 73.1798 141.358 73.566C141.294 73.9522 141.229 74.3383 141.036 74.7245C140.907 75.1107 140.65 75.4325 140.392 75.7543C140.134 76.0761 139.748 76.3336 139.362 76.591C139.555 76.6554 139.812 76.7198 140.006 76.8485C140.199 76.9772 140.392 77.1059 140.585 77.299L144.256 81.4826ZM136.399 75.7543C136.786 75.69 137.172 75.5612 137.43 75.3681C137.687 75.1751 137.88 74.982 138.074 74.7889C138.202 74.5958 138.331 74.3383 138.331 74.0809C138.396 73.8234 138.331 73.566 138.331 73.2442C138.202 72.6649 137.945 72.2788 137.494 72.0213C137.043 71.7639 136.464 71.6995 135.626 71.8926L134.403 72.15L135.176 76.0761L136.399 75.7543Z" fill="#F4F1FD"/>
<path d="M201.508 62.6244C199.125 62.6888 195.454 63.2037 193.007 69.0607C191.59 72.4719 183.862 75.0463 182.51 72.0857C182.51 72.0857 182.188 75.3038 183.347 76.8485C184.506 78.3932 186.889 78.2001 186.889 78.2001C186.889 78.2001 183.991 79.2943 183.347 78.7794C183.347 78.7794 183.476 81.2251 185.858 82.6411C188.306 84.0571 192.814 81.74 192.814 81.74C192.814 81.74 188.821 85.4087 187.018 85.4087C187.018 85.4087 191.526 84.8938 193.973 83.0273C193.973 83.0273 190.946 86.7603 189.465 87.1465C189.465 87.1465 198.545 93.0678 205.951 92.5529C213.357 92.1024 216.77 90.1071 216.77 90.1071C216.77 90.1071 212.778 86.181 211.94 83.156C211.94 83.156 215.032 87.2752 218.509 88.6912C218.509 88.6912 214.71 84.7651 213.357 82.5767C213.357 82.5767 217.157 85.6661 220.57 86.6316C220.57 86.6316 223.79 84.8294 225.078 79.7448C225.078 79.7448 217.414 78.3932 215.869 75.3682C214.323 72.3431 215.804 67.0011 210.846 64.684C207.175 63.1393 203.053 62.5601 201.508 62.6244Z" fill="#263238"/>
<path d="M184.12 91.6518C183.604 90.8795 183.154 90.2358 182.767 89.5922C182.316 88.8842 181.93 88.1762 181.544 87.5326C180.771 86.1166 179.998 84.7007 179.354 83.2203C178.002 80.2597 176.842 77.2346 176.07 74.0165L175.941 73.4373L175.876 73.1155L175.812 72.7293C175.748 72.4718 175.748 72.2144 175.683 71.9569C175.619 71.6995 175.619 71.442 175.619 71.2489C175.554 70.2835 175.619 69.3824 175.683 68.5457C175.812 66.8079 176.134 65.1989 176.456 63.6542C177.229 60.5004 178.195 57.5398 179.483 54.5791L182.51 55.5445C181.994 58.5052 181.544 61.5302 181.286 64.4265C181.157 65.9069 181.093 67.3228 181.093 68.7388C181.093 69.4468 181.157 70.0904 181.286 70.6697C181.286 70.7984 181.35 70.9915 181.35 71.1202C181.35 71.2489 181.415 71.3777 181.415 71.5064L181.479 71.6995L181.544 71.9569L181.737 72.4718C182.188 73.8234 182.703 75.175 183.282 76.5267C183.862 77.8783 184.442 79.1655 185.15 80.5171C185.794 81.8044 186.502 83.0916 187.211 84.3789C187.597 85.0225 187.919 85.6661 188.306 86.2454C188.692 86.8246 189.078 87.5326 189.4 88.0475L184.12 91.6518Z" fill="#FFB573"/>
<path d="M192.363 89.0774C188.692 86.7604 185.408 80.2598 185.408 80.2598L178.324 85.0869C178.324 85.0869 182.059 92.553 183.025 97.4445C183.54 100.405 192.363 89.0774 192.363 89.0774Z" fill="#9475D1"/>
<path d="M192.363 89.0774C192.363 89.0774 189.207 93.1322 186.502 95.7711C184.699 97.5089 183.154 98.6674 182.896 97.4445C182.703 96.6078 182.51 95.6424 182.188 94.7413C180.771 90.1716 178.259 85.0869 178.259 85.0869L185.343 80.2598C185.408 80.2598 188.692 86.7604 192.363 89.0774Z" fill="#9475D1"/>
<path d="M186.567 95.7711C184.764 97.5089 183.218 98.6674 182.96 97.4446C182.767 96.6078 182.574 95.6424 182.252 94.7413C183.862 92.7461 185.923 91.7163 185.923 91.7163C186.374 93.261 186.567 94.6126 186.567 95.7711Z" fill="#423062"/>
<path d="M192.105 241.616L186.824 241.488L185.021 229.194L190.302 229.323L192.105 241.616Z" fill="#FFB573"/>
<path d="M186.438 240.844L192.363 241.037C192.556 241.037 192.749 241.166 192.749 241.423L193.264 246.121C193.329 246.636 192.878 247.087 192.363 247.023C190.302 246.958 189.336 246.765 186.696 246.701C185.086 246.636 180.513 246.701 178.259 246.636C176.07 246.572 176.005 244.384 176.907 244.191C181.093 243.418 183.991 242.26 185.408 241.166C185.794 240.908 186.116 240.844 186.438 240.844Z" fill="#423062"/>
<g opacity="0.2">
<path d="M185.021 229.194L185.923 235.502L191.204 235.695L190.302 229.323L185.021 229.194Z" fill="black"/>
</g>
<path d="M187.597 89.7852C187.597 89.7852 180.642 99.3108 181.286 122.031C189.594 123.704 198.223 123.897 202.28 124.67C203.697 116.045 204.663 110.767 212.327 94.0975C212.327 94.0975 208.205 92.2953 203.697 91.1368C200.22 90.2357 197.322 89.5277 194.166 89.2059C189.98 88.8198 187.597 89.7852 187.597 89.7852Z" fill="#FFB573"/>
<path d="M204.921 80.2598C203.697 83.2204 201.958 88.6912 203.697 91.2014C203.697 91.2014 202.216 94.162 196.549 93.0035C190.302 91.7163 194.166 89.2705 194.166 89.2705C197.772 89.1418 198.159 86.5673 198.094 84.1215L204.921 80.2598Z" fill="#FFB573"/>
<path d="M203.697 91.2013C200.22 90.3002 197.322 89.5922 194.166 89.2704C193.973 89.2704 193.715 89.2061 193.522 89.2061C192.492 90.4933 191.848 92.6816 193.007 96.2859C193.007 96.2859 202.023 94.6125 204.921 91.5231C204.534 91.3944 204.148 91.33 203.697 91.2013Z" fill="#FFB573"/>
<path opacity="0.2" d="M202.152 81.8042L198.094 84.0569C198.094 84.6361 198.094 85.2154 198.03 85.7947C199.382 85.859 201.443 84.8292 201.894 83.4776C202.087 82.834 202.216 82.1904 202.152 81.8042Z" fill="black"/>
<path d="M181.093 122.61C181.093 122.61 175.747 163.094 175.619 179.12C175.49 195.855 184.828 234.215 184.828 234.215L191.976 234.408C191.976 234.408 187.661 197.142 188.756 180.73C189.98 162.837 196.806 122.997 196.806 122.997L181.093 122.61Z" fill="#423062"/>
<path opacity="0.2" d="M181.093 122.61C181.093 122.61 175.747 163.094 175.619 179.12C175.49 195.855 184.828 234.215 184.828 234.215L191.976 234.408C191.976 234.408 187.661 197.142 188.756 180.73C189.98 162.837 196.806 122.997 196.806 122.997L181.093 122.61Z" fill="white"/>
<path d="M192.556 234.729L184.184 234.536L183.669 231.833L193.007 231.769L192.556 234.729Z" fill="#423062"/>
<path opacity="0.2" d="M190.044 132.972C184.506 143.399 188.112 162.772 189.787 170.045C191.075 159.296 193.007 146.167 194.552 136.512C193.908 131.041 192.62 128.145 190.044 132.972Z" fill="black"/>
<path d="M239.375 195.79L237.443 200.746L225.336 198.107L227.268 193.151L239.375 195.79Z" fill="#FFB573"/>
<path d="M236.026 200.875L236.606 194.953C236.606 194.76 236.799 194.567 236.992 194.503L241.758 193.666C242.273 193.602 242.659 193.988 242.595 194.503C242.337 196.563 242.144 197.528 241.886 200.167C241.758 201.776 241.436 206.346 241.242 208.534C241.049 210.658 238.795 210.915 238.666 210.014C238.151 205.959 237.25 203.063 236.219 201.711C236.026 201.454 235.962 201.132 236.026 200.875Z" fill="#423062"/>
<g opacity="0.2">
<path d="M225.4 198.107L231.582 199.459L233.514 194.567L227.268 193.151L225.4 198.107Z" fill="black"/>
</g>
<path d="M187.018 122.803C187.018 122.803 191.654 164.832 195.196 180.729C198.867 197.206 229.522 199.523 229.522 199.523L232.806 193.216C232.806 193.216 214.967 187.938 207.561 176.932C204.728 159.168 202.667 123.318 202.667 123.318L187.018 122.803Z" fill="#423062"/>
<path opacity="0.2" d="M187.018 122.803C187.018 122.803 191.654 164.832 195.196 180.729C198.867 197.206 229.522 199.523 229.522 199.523L232.806 193.216C232.806 193.216 214.967 187.938 207.561 176.932C204.728 159.168 202.667 123.318 202.667 123.318L187.018 122.803Z" fill="white"/>
<path d="M233.192 192.572L230.23 200.424L227.396 200.36L230.423 191.542L233.192 192.572Z" fill="#423062"/>
<path d="M236.734 201.132C236.734 201.068 236.67 201.068 236.67 201.068C236.606 201.068 236.541 201.068 236.541 201.132C236.412 201.39 235.124 203.514 235.382 204.157C235.446 204.286 235.575 204.35 235.704 204.35C235.962 204.35 236.155 204.286 236.348 204.093C236.606 203.835 236.734 203.321 236.799 202.806C236.799 202.226 236.734 201.583 236.734 201.132ZM236.477 201.583C236.541 202.741 236.412 203.578 236.09 203.9C235.962 204.029 235.833 204.093 235.704 204.029C235.64 204.029 235.575 204.029 235.575 203.964C235.575 203.9 235.575 203.835 235.575 203.707C235.575 203.256 236.09 202.291 236.477 201.583Z" fill="#9475D1"/>
<path d="M236.67 201.068C236.67 201.003 236.606 201.003 236.541 201.003C236.477 201.003 235.06 201.197 234.416 201.84C234.223 202.033 234.158 202.291 234.158 202.548C234.158 202.87 234.352 202.999 234.48 202.999C235.06 203.063 236.348 201.776 236.67 201.197V201.132C236.734 201.132 236.734 201.132 236.67 201.068ZM234.609 202.033C234.996 201.583 235.897 201.39 236.284 201.325C235.833 201.969 234.867 202.87 234.48 202.806C234.48 202.806 234.352 202.806 234.352 202.548V202.484C234.48 202.291 234.545 202.162 234.609 202.033Z" fill="#9475D1"/>
<path d="M186.052 241.552C186.116 241.552 186.116 241.488 186.18 241.423C186.18 241.359 186.18 241.294 186.116 241.294C185.858 241.166 183.798 240.007 183.154 240.393C183.025 240.458 182.96 240.586 182.96 240.715C182.96 240.973 183.025 241.166 183.154 241.359C183.411 241.616 183.926 241.681 184.442 241.745C185.021 241.745 185.601 241.616 186.052 241.552ZM185.665 241.359C184.506 241.488 183.604 241.423 183.282 241.166C183.154 241.037 183.154 240.908 183.154 240.78C183.154 240.715 183.218 240.651 183.218 240.651C183.282 240.651 183.347 240.586 183.476 240.586C183.991 240.586 184.957 240.973 185.665 241.359Z" fill="#9475D1"/>
<path d="M186.116 241.552C186.18 241.552 186.18 241.487 186.18 241.423C186.18 241.359 186.116 239.943 185.472 239.363C185.279 239.17 185.021 239.106 184.764 239.106C184.442 239.106 184.313 239.299 184.313 239.428C184.184 240.007 185.408 241.166 186.052 241.487H186.116C186.052 241.552 186.116 241.552 186.116 241.552ZM185.279 239.557C185.73 239.943 185.858 240.779 185.923 241.23C185.279 240.844 184.506 239.878 184.57 239.557C184.57 239.557 184.57 239.428 184.828 239.428H184.892C185.021 239.363 185.15 239.428 185.279 239.557Z" fill="#9475D1"/>
<path d="M203.118 122.031L203.375 123.898C203.44 124.026 203.246 124.155 202.989 124.155L180.964 123.512C180.771 123.512 180.642 123.383 180.642 123.318L180.706 121.452C180.706 121.323 180.9 121.194 181.093 121.259L202.796 121.902C202.924 121.902 203.053 121.967 203.118 122.031Z" fill="#423062"/>
<path opacity="0.7" d="M203.118 122.031L203.375 123.898C203.44 124.026 203.246 124.155 202.989 124.155L180.964 123.512C180.771 123.512 180.642 123.383 180.642 123.318L180.706 121.452C180.706 121.323 180.9 121.194 181.093 121.259L202.796 121.902C202.924 121.902 203.053 121.967 203.118 122.031Z" fill="white"/>
<path d="M201.314 124.284H201.894C202.023 124.284 202.087 124.22 202.087 124.155L202.152 121.774C202.152 121.709 202.087 121.645 201.958 121.645H201.379C201.25 121.645 201.186 121.709 201.186 121.774L201.121 124.155C201.121 124.22 201.25 124.284 201.314 124.284Z" fill="#423062"/>
<g opacity="0.2">
<path d="M201.314 124.284H201.894C202.023 124.284 202.087 124.22 202.087 124.155L202.152 121.774C202.152 121.709 202.087 121.645 201.958 121.645H201.379C201.25 121.645 201.186 121.709 201.186 121.774L201.121 124.155C201.121 124.22 201.25 124.284 201.314 124.284Z" fill="#423062"/>
</g>
<path d="M184.055 123.769H184.635C184.764 123.769 184.828 123.704 184.828 123.64L184.892 121.259C184.892 121.194 184.828 121.13 184.699 121.13H184.12C183.991 121.13 183.926 121.194 183.926 121.259L183.862 123.64C183.862 123.704 183.926 123.769 184.055 123.769Z" fill="#423062"/>
<path opacity="0.2" d="M184.055 123.769H184.635C184.764 123.769 184.828 123.704 184.828 123.64L184.892 121.259C184.892 121.194 184.828 121.13 184.699 121.13H184.12C183.991 121.13 183.926 121.194 183.926 121.259L183.862 123.64C183.862 123.704 183.926 123.769 184.055 123.769Z" fill="#423062"/>
<path d="M192.685 124.026H193.264C193.393 124.026 193.458 123.962 193.458 123.897L193.522 121.516C193.522 121.452 193.458 121.387 193.329 121.387H192.749C192.62 121.387 192.556 121.452 192.556 121.516L192.492 123.897C192.492 123.962 192.556 124.026 192.685 124.026Z" fill="#423062"/>
<path opacity="0.2" d="M192.685 124.026H193.264C193.393 124.026 193.458 123.962 193.458 123.897L193.522 121.516C193.522 121.452 193.458 121.387 193.329 121.387H192.749C192.62 121.387 192.556 121.452 192.556 121.516L192.492 123.897C192.492 123.962 192.556 124.026 192.685 124.026Z" fill="#423062"/>
<path d="M228.556 96.286L230.745 91.0083L225.658 92.6174C225.658 92.6174 225.014 95.9642 226.688 97.3158L228.556 96.286Z" fill="#FFB573"/>
<path d="M229.586 86.7603L225.4 88.3049L225.658 92.6172L230.745 91.0082L229.586 86.7603Z" fill="#FFB573"/>
<path d="M209.364 75.6259C207.175 80.3887 206.338 82.4483 202.924 83.993C197.772 86.31 192.427 82.577 193.136 77.2993C193.78 72.5365 197.257 65.5853 202.796 65.4566C208.205 65.3923 211.554 70.8631 209.364 75.6259Z" fill="#FFB573"/>
<path d="M208.205 70.7343C206.144 71.7641 205.887 76.9131 207.819 78.9083C211.49 78.7796 214.452 67.7093 208.205 70.7343Z" fill="#263238"/>
<path d="M197.708 73.4375C197.708 73.4375 196.356 74.8535 195.325 75.4327C195.647 76.1407 196.613 76.2694 196.613 76.2694L197.708 73.4375Z" fill="#ED893E"/>
<path d="M208.914 80.6459C208.205 81.4826 207.175 81.8687 206.273 81.9331C204.921 81.9975 204.534 80.7102 205.178 79.616C205.758 78.5863 207.11 77.3634 208.334 77.8139C209.558 78.2644 209.751 79.6804 208.914 80.6459Z" fill="#FFB573"/>
<path d="M203.246 73.695C203.118 73.695 203.053 73.5663 203.053 73.502C202.924 72.3434 201.636 71.6354 201.636 71.5711C201.508 71.5067 201.443 71.378 201.572 71.2493C201.636 71.1205 201.765 71.0562 201.894 71.1849C201.958 71.2493 203.44 72.086 203.568 73.502C203.568 73.6307 203.504 73.7594 203.375 73.7594C203.246 73.695 203.246 73.695 203.246 73.695Z" fill="#263238"/>
<path d="M196.034 69.5756C195.969 69.5756 195.905 69.5113 195.84 69.3825C195.776 69.2538 195.84 69.1251 195.969 69.0607C197.257 68.6102 198.159 69.3182 198.223 69.3825C198.352 69.4469 198.352 69.64 198.288 69.7044C198.223 69.8331 198.03 69.8331 197.966 69.7687C197.966 69.7687 197.193 69.1895 196.162 69.5756C196.162 69.5756 196.098 69.5756 196.034 69.5756Z" fill="#263238"/>
<path d="M195.969 77.4922C196.227 78.2645 196.42 79.7448 196.42 79.7448C196.549 79.7448 196.678 79.7448 196.806 79.7448C198.61 79.8092 199.511 79.2299 199.898 78.522C200.091 78.1358 200.22 77.7496 200.22 77.4278C200.22 77.0416 200.155 76.7842 200.155 76.7842C199.189 77.3634 197.45 77.4278 196.549 77.4278C196.227 77.5565 195.969 77.4922 195.969 77.4922Z" fill="#263238"/>
<path d="M196.613 77.4923L196.742 78.1359C198.481 78.2002 199.704 77.9428 200.22 77.4923C200.22 77.1061 200.155 76.8486 200.155 76.8486C199.254 77.4279 197.515 77.4923 196.613 77.4923Z" fill="white"/>
<path d="M196.871 79.7449C198.674 79.8092 199.576 79.23 199.962 78.522C199.318 78.522 198.61 78.5863 197.901 78.8438C197.386 79.1012 197.064 79.423 196.871 79.7449Z" fill="#DE5753"/>
<path d="M200.155 73.309L199.64 72.9229C199.64 72.9229 199.769 73.6308 200.284 73.6308C201.25 73.3734 201.572 74.2745 201.572 74.2745C201.508 72.9872 200.542 73.1803 200.155 73.309Z" fill="#263238"/>
<path d="M195.969 71.6996L195.454 71.3135C195.454 71.3135 195.583 72.0215 196.098 72.0215C197.064 71.764 197.386 72.6651 197.386 72.6651C197.322 71.3778 196.291 71.5709 195.969 71.6996Z" fill="#263238"/>
<path d="M206.724 74.5317C206.724 74.5317 204.921 71.3135 206.273 68.3529C206.273 68.3529 205.178 69.3827 204.921 71.7641C204.921 71.7641 203.826 70.4768 202.538 69.5758C202.538 69.5758 202.796 67.5805 203.568 66.422C203.568 66.422 202.28 67.2587 201.958 69.3827C201.958 69.3827 201.701 67.7736 202.538 66.422C202.538 66.422 201.121 67.3874 200.799 68.9321L198.996 68.3529C198.996 68.3529 199.318 66.6795 200.155 66.2289C200.155 66.2289 198.867 67.0013 198.094 68.0311C198.094 68.0311 196.42 67.9667 196.034 68.4816C196.034 68.4816 196.742 66.1646 199.64 65.1991C199.64 65.1991 197.128 65.5209 195.647 66.8082C195.647 66.8082 197.708 63.0108 203.955 64.2981C210.137 65.5853 211.618 69.9619 211.812 71.7641C211.94 73.6306 206.724 74.5317 206.724 74.5317Z" fill="#263238"/>
<path d="M193.007 89.0775C193.007 89.0775 191.204 92.8106 194.037 93.8404C198.223 95.385 204.985 91.0084 204.985 91.0084C204.985 91.0084 210.717 92.8106 212.391 94.1622C214.066 95.4494 207.239 106.134 203.762 119.199C203.762 119.199 184.377 114.243 178.903 112.634C178.903 112.634 182.574 94.6127 187.082 88.8201C188.434 86.9536 189.787 86.7605 193.007 89.0775Z" fill="#9475D1"/>
<path opacity="0.4" d="M210.073 102.014C209.236 103.945 208.27 106.198 207.304 108.643C206.016 111.861 204.728 115.466 203.697 119.263C203.697 119.263 184.313 114.307 178.839 112.698C178.839 112.698 182.51 94.6767 187.018 88.8841C188.434 87.0819 189.787 86.8245 193.007 89.2059C193.007 89.2059 191.204 92.9389 194.037 93.9687C198.223 95.5134 204.985 91.1368 204.985 91.1368C204.985 91.1368 210.717 92.9389 212.391 94.2905C213.1 94.8054 211.876 97.7017 210.073 102.014Z" fill="white"/>
<path d="M183.154 54.772L185.343 50.9746L180.062 51.6826C180.062 51.6826 178.839 54.8364 180.256 56.5098L180.771 56.4454C181.737 56.2523 182.638 55.6731 183.154 54.772Z" fill="#FFB573"/>
<path d="M185.408 47.0487L180.9 46.9844L179.998 51.6828L185.343 50.9748L185.408 47.0487Z" fill="#FFB573"/>
<path d="M210.073 102.014C209.236 103.945 208.27 106.198 207.304 108.644C205.5 105.104 206.531 100.984 206.531 100.984C207.819 100.791 208.978 101.178 210.073 102.014Z" fill="#423062"/>
<path d="M213.744 95.1273C214.001 95.6422 214.388 96.3502 214.774 96.9295C215.16 97.5731 215.482 98.1523 215.933 98.7316C216.706 99.9545 217.543 101.113 218.38 102.207C220.119 104.395 222.051 106.391 224.176 107.549L224.563 107.742L224.498 107.678C224.434 107.678 224.37 107.614 224.305 107.614C224.176 107.614 223.983 107.549 223.854 107.549C223.726 107.549 223.532 107.549 223.339 107.549C223.21 107.549 223.017 107.614 222.888 107.678C222.373 107.871 222.244 108.128 222.18 108.128C222.116 108.193 222.18 108.193 222.18 108.128C222.373 107.871 222.631 107.227 222.824 106.648C223.275 105.361 223.597 103.945 223.983 102.529C224.627 99.6327 225.207 96.6076 225.786 93.647L228.942 93.8401C229.071 96.9938 229.006 100.083 228.749 103.237C228.62 104.846 228.427 106.391 228.04 108.064C227.912 108.515 227.847 108.901 227.654 109.351C227.525 109.802 227.332 110.252 227.074 110.832C226.946 111.089 226.752 111.411 226.43 111.797C226.108 112.119 225.722 112.634 224.82 112.956C224.563 113.02 224.37 113.084 224.112 113.149C223.854 113.213 223.597 113.213 223.339 113.213C223.082 113.213 222.824 113.149 222.631 113.084C222.502 113.084 222.438 113.02 222.309 112.956L222.116 112.891L221.472 112.634C219.797 111.862 218.316 110.832 216.964 109.738C215.611 108.643 214.452 107.421 213.357 106.133C212.262 104.846 211.296 103.559 210.395 102.143C209.944 101.435 209.493 100.791 209.107 100.083C208.656 99.3752 208.334 98.6672 207.883 97.8305L213.744 95.1273Z" fill="#FFB573"/>
<path d="M211.812 93.9688C213.937 94.6124 217.93 100.212 217.93 100.212L211.554 108.193C211.554 108.193 206.402 103.816 206.466 100.92C206.595 97.8949 209.364 93.1964 211.812 93.9688Z" fill="#9475D1"/>
<g opacity="0.4">
<path d="M211.812 93.9688C213.937 94.6124 217.93 100.212 217.93 100.212L211.554 108.193C211.554 108.193 206.402 103.816 206.466 100.92C206.595 97.8949 209.364 93.1964 211.812 93.9688Z" fill="white"/>
</g>
<path d="M192.942 97.7661L193.78 101.563L197.386 102.915L194.102 104.975L193.908 108.772L190.946 106.262L187.211 107.227L188.756 103.687L186.631 100.469L190.495 100.791L192.942 97.7661Z" fill="#E5DFFD"/>
</svg>
