<svg xmlns="http://www.w3.org/2000/svg" viewBox="0 0 1568.35 1405.57"><defs><style>.cls-1{fill:#f7f0e3;}.cls-2{fill:#fff;}.cls-3{fill:#e9ddca;}.cls-4{fill:#e49b31;}.cls-5{fill:#fbc343;}.cls-11,.cls-6,.cls-7{fill:#60327c;}.cls-6{opacity:0.25;}.cls-7{opacity:0.26;}.cls-8{fill:#102048;}.cls-9{fill:#f9b384;}.cls-10{fill:#e28b6d;}.cls-12{opacity:0.8;}.cls-13{fill:#eb5d60;opacity:0.4;}.cls-14{fill:#d3dfff;}.cls-15{fill:#1f3c88;}</style></defs><g id="OBJECTS"><path class="cls-1" d="M1476.92,1001.6c-24.1-54.82-70.39-100.56-126-123.08-57.91-23.45-124.41-14.92-185.41-22.77-53-6.82-91.2-30.48-122.84-72.53-30.31-40.29-57.48-84.91-107-103.54C896.48,665,852,669,813,684.38c-71.71,28.27-125.88,88.4-171.5,148.29-41.65,54.69-75.62,114.57-152.66,116.53s-150.48-42-228.09-30.37c-102.59,15.4-188,100.8-205.92,202.46-16.78,95.29,25.32,187.7,97.65,242H1395.74C1486.88,1266.6,1534.71,1133,1476.92,1001.6Z"/><path class="cls-2" d="M353.07,1363.29h3.42a262.23,262.23,0,0,0,54.18-93c19.14-56.91,18.34-116.63-2.27-168.18-10.41-26-25.45-50.32-40-73.79-14.75-23.81-30-48.43-40.35-74.81A167,167,0,0,1,318.71,919c-.86-.12-1.72-.21-2.58-.31a169.14,169.14,0,0,0,9.59,35.79c10.44,26.59,25.75,51.31,40.56,75.21,14.48,23.39,29.47,47.57,39.8,73.41,20.39,51,21.18,110.11,2.22,166.46A259.47,259.47,0,0,1,353.07,1363.29Z"/><path class="cls-2" d="M1389.74,1254.86c25.61,5.46,50.3,10.36,74.17,13.44.41-.79.81-1.58,1.21-2.38-24.07-3.05-49-8-74.86-13.5-39.4-8.4-82-17.48-124.34-17.48-26.19,0-52.24,3.48-77.3,12.77a157.42,157.42,0,0,0-27.36,13.3c-22.63-9.65-45.37-20.18-67.91-31.73,16.35-12.32,32.87-24.39,49.58-36,124-86.57,238.39-135.65,348.93-149.58-.22-.81-.45-1.62-.68-2.43-110.84,14-225.5,63.25-349.68,150-17.06,11.91-33.93,24.24-50.62,36.82a837.9,837.9,0,0,1-74.62-43.36c-44-28.8-96.24-69.91-141.9-124.53,176.95-19.85,357.1-44.87,504.22-143.19,5.59-3.74,11.77-8.14,18.18-13.13-.71-.51-1.42-1-2.14-1.5-6.14,4.76-12.07,9-17.43,12.55-147.08,98.3-327.57,123.12-504.74,143-32.27-39-61.1-84.87-81.13-137.95-31.21-82.66-29.57-163.79,4.52-222.57,1.48-2.55,3-5.07,4.65-7.55-1.42.65-2.83,1.33-4.24,2q-1.32,2.13-2.58,4.29C759.21,755.47,757.5,837.37,789,920.75c19.92,52.78,48.49,98.44,80.5,137.39q-15.39,1.71-30.74,3.4c-36.9,4.08-75,8.29-112.1,13.06-13.52,1.74-27.27,3.77-40.95,6.31-29.34-61.9-61.56-122.3-103.21-174.09-.59.59-1.2,1.17-1.8,1.75C622,960,654,1019.92,683.15,1081.39c-59.68,11.38-117.64,32.78-148.58,82.58-28.9,46.51-28.87,110.8.08,191.09q1.5,4.15,3.08,8.23h2.68c-1.15-3-2.29-6-3.41-9.08-28.68-79.53-28.78-143.09-.3-188.92,30.57-49.21,88.2-70.32,147.55-81.57,10.36,21.91,20.36,44,30.3,65.94l1.08,2.39c34.53,76.22,70.24,149.77,117,211.24h3.12c-47.18-61.58-83.1-135.58-117.84-212.27l-1.08-2.39c-9.86-21.76-19.78-43.66-30-65.38,13.42-2.48,26.91-4.47,40.17-6.17,37-4.77,75.17-9,112-13q16.15-1.79,32.37-3.59c46.1,55.48,99,97.16,143.51,126.29a840,840,0,0,0,73.78,43c-42.53,32.16-83.9,66-124.28,99q-21,17.16-42.39,34.56h4q20.17-16.36,40-32.63c40.67-33.27,82.33-67.36,125.16-99.71,22.41,11.53,45,22,67.54,31.67-30.79,19.58-55.89,49.91-71.06,86.73-1.9,4.61-3.56,9.26-5.09,13.94h2.63c1.45-4.35,3-8.69,4.77-13,15.22-36.92,40.52-67.22,71.55-86.49,62.92,26.73,124.75,46.57,177.89,62.29l2,.6c22.39,6.62,45.29,13.4,65.55,24.3l1.69-1.94c-20.58-11.17-43.82-18-66.54-24.76l-2-.59c-52.6-15.56-113.72-35.16-176-61.5a155.65,155.65,0,0,1,25.39-12.16C1254.35,1226,1326.28,1241.34,1389.74,1254.86Z"/><path class="cls-2" d="M158.79,1092.93c11,45.19,6.11,94-13.52,133.92C132.41,1253,113.84,1276.66,91,1297c.45.71.92,1.41,1.38,2.11,23.25-20.59,42.11-44.6,55.17-71.14,19.88-40.43,24.88-89.86,13.7-135.62-8.74-35.75-26.3-66-50.56-87.94-.54.63-1.08,1.27-1.61,1.92C132.9,1027.88,150.18,1057.7,158.79,1092.93Z"/><path class="cls-1" d="M724.61,520.37c21.78,22.25,31.54,59.74,19.53,94.31-11.63,33.47-37.11,61.2-67.74,79-24.64,14.34-56.78,22.25-81,7.23-18.11-11.22-27.5-33.24-28-54.53s6.64-42,15.49-61.43c12.48-27.32,29.27-53.8,54.29-70.41C671.64,491.66,703.67,499,724.61,520.37Z"/><path class="cls-3" d="M435.92,130.17H255.58V49.61H435.92Zm-176.59-3.75H432.17V53.35H259.33Z"/><path class="cls-3" d="M318.6,207.21H138.26V126.65H318.6ZM142,203.46H314.85V130.4H142Z"/><path class="cls-4" d="M1462,293.06Q1444.5,234.82,1400.4,186t-120.54-80.78q-76.35-31.92-194-31.92-93.87,0-191.32,25.32T725.24,171l62.28,171-33.38,27,48.41,14.22q71.67-37.51,130.6-54.48t125.09-16.88q66.19,0,100.24,31.92c22.7,21.34,34,47,34,77.05q0,54.48-34.91,96.73T1080.28,603q-29.37,30-57,61.94a444.74,444.74,0,0,0-48.74,68.61,373.53,373.53,0,0,0-34,78.88q-12.93,42.28-12.87,94.84c0,11.31.24,24.76.9,40.42.11,2.89.26,5.7.43,8.48H883.21L933.15,990H1176a161,161,0,0,1-1.86-26.29V941.1A163.15,163.15,0,0,1,1187,878.18,326.31,326.31,0,0,1,1219.2,819a437.14,437.14,0,0,1,43.23-53.5q23.89-25.41,46-47.94,29.37-30,60.66-63.84a501.68,501.68,0,0,0,55.21-71.36,400.76,400.76,0,0,0,39.52-81.76q15.63-44.11,15.69-96.73T1462,293.06Z"/><path class="cls-5" d="M1006.83,299.9q-65.51,0-123.62,16.34T754.14,369l-76.4-205.41q70.93-45.45,167.3-70t189.07-24.5q116.3,0,191.74,30.89T1345,178.12q43.57,47.31,60.89,103.62T1423.15,389q0,51-15.5,93.62a384.91,384.91,0,0,1-39.06,79.12A487.59,487.59,0,0,1,1314,630.77q-30.9,32.76-60,61.78-21.84,21.84-45.45,46.4a425.16,425.16,0,0,0-42.73,51.78A312.81,312.81,0,0,0,1134.07,848a154.91,154.91,0,0,0-12.73,60.9v21.83a152.18,152.18,0,0,0,1.84,25.45h-240a253.59,253.59,0,0,1-4.56-40.89c-.65-15.15-.88-28.17-.88-39.12q0-50.86,12.72-91.78a357.07,357.07,0,0,1,33.61-76.34,430.75,430.75,0,0,1,48.17-66.4q27.26-30.9,56.34-59.95,41.81-41.81,76.4-82.73,34.44-40.92,34.5-93.62c0-29.12-11.18-53.91-33.61-74.56S1050.45,299.9,1006.83,299.9Z"/><path class="cls-4" d="M1192.58,1225.66q0,65.65-42.51,101.38t-96.15,35.77q-53.73,0-96.19-35.77t-42.47-101.38q0-65.6,42.47-101.39c43.63-36.82,108.17-45,159.26-19.18C1162.31,1128,1192.58,1174.58,1192.58,1225.66Z"/><path class="cls-5" d="M1145.08,1225.66q0,65.65-42.51,101.38t-96.15,35.77q-53.73,0-96.19-35.77t-42.47-101.38q0-65.6,42.47-101.39t96.19-35.77q53.66,0,96.15,35.77T1145.08,1225.66Z"/><circle class="cls-6" cx="400.53" cy="600.22" r="26.15" transform="translate(-263.2 883.32) rotate(-79.38)"/><ellipse class="cls-6" cx="424.17" cy="651.42" rx="14.71" ry="14.81" transform="translate(-294.24 948.35) rotate(-79.39)"/><circle class="cls-7" cx="336" cy="468.55" r="102.96" transform="translate(-232.9 374.83) rotate(-45)"/><circle class="cls-2" cx="296.47" cy="468.55" r="12.97"/><circle class="cls-2" cx="336" cy="468.55" r="12.97"/><circle class="cls-2" cx="375.54" cy="468.55" r="12.97"/><path class="cls-8" d="M262.25,1311.27l9.62,37.09a21.24,21.24,0,0,0,22.2,15.5c31.55-2.14,97.08-9.87,134.7-37.59l-10.69-53.45c-51.72-2.92-100.09,0-142,14C265.63,1290.4,259.56,1300.91,262.25,1311.27Z"/><path class="cls-2" d="M322.53,1340.79a1.26,1.26,0,0,1-1.21-.91l-12.91-46.25a1.25,1.25,0,1,1,2.4-.67l12.92,46.25a1.23,1.23,0,0,1-1.2,1.58Z"/><path class="cls-2" d="M350.44,1334.54a1.25,1.25,0,0,1-1.2-.91l-12.92-46.25a1.26,1.26,0,0,1,.87-1.54,1.24,1.24,0,0,1,1.54.87L351.65,1333a1.26,1.26,0,0,1-.87,1.54A1.32,1.32,0,0,1,350.44,1334.54Z"/><polygon class="cls-5" points="382.87 1110.79 262.66 1146.47 351.93 1268.78 480.09 1278.97 656.86 1204.23 589.68 1103.15 382.87 1110.79"/><path class="cls-5" d="M531.06,1127.78c264-78.14,306.4,155.16-105.48,197.63C411,1309,394,1280.63,387.28,1256.89l217.51-100.51Z"/><path class="cls-9" d="M542.27,1295c-12.35-4-24.18-11.77-24.18-11.77l-42.42,13.31,9.72,46.15,44.07,9C542.89,1327.08,543.67,1306.92,542.27,1295Z"/><path class="cls-4" d="M388.23,1258.51l-1.89-3.24c45.38-26.37,161.6-89.72,260.63-108.41l.7,3.69C549.21,1169.12,433.43,1232.24,388.23,1258.51Z"/><path class="cls-5" d="M382.86,1110.79c-245.71-46.71-309.34,189.42,102.53,231.89a149.54,149.54,0,0,0,32.7-59.46c-63.26-42.33-134-82.57-211.53-120.9Z"/><path class="cls-4" d="M517.09,1284.8c-11.69-7.43-23.87-15.3-36.76-23.62C415.6,1219.38,342.24,1172,279.91,1145l1.49-3.44c62.61,27.13,136.11,74.59,201,116.46,12.89,8.32,25.06,16.18,36.74,23.61Z"/><path class="cls-4" d="M202.59,1227.87l-3.28-1.81c9.22-16.69,24-28,43.9-33.47l1,3.61C225.05,1201.51,211.43,1211.87,202.59,1227.87Z"/><path class="cls-4" d="M715.42,1213.66c-8.84-16-22.45-26.36-41.62-31.67l1-3.62c19.91,5.52,34.68,16.78,43.9,33.48Z"/><path class="cls-4" d="M462.38,1340.61l-2.74-2.56c19.66-21,31.73-43.28,36.91-67.94l3.67.77C494.89,1296.23,482.52,1319,462.38,1340.61Z"/><path class="cls-8" d="M664.81,1281.24c-31.48-19.45-92.51,14.16-107.83,15.86-4.46.49-9.63-.49-14.71-2.11,1.4,11.93.62,32.09-12.81,56.65l7.49,1.52s51.75,19,106.65,7.92C694.27,1350.89,689.56,1296.53,664.81,1281.24Z"/><path class="cls-2" d="M621.9,1344.86a1.31,1.31,0,0,1-.38-.06,1.25,1.25,0,0,1-.81-1.57c3.74-11.84,5.37-35.14-5.46-50.79a1.25,1.25,0,1,1,2-1.42c11.35,16.39,9.68,40.65,5.79,53A1.25,1.25,0,0,1,621.9,1344.86Z"/><path class="cls-2" d="M597.21,1349.54a1.18,1.18,0,0,1-.37,0,1.25,1.25,0,0,1-.82-1.57c3.74-11.84,5.37-35.14-5.46-50.79a1.25,1.25,0,1,1,2.06-1.42c11.34,16.38,9.67,40.65,5.79,53A1.26,1.26,0,0,1,597.21,1349.54Z"/><path class="cls-9" d="M339.39,806.33s61.89-52.62,59.59-62.62c-1.63-7.15-19.16,3.33-19.16,3.33s24.58-29.16,23.33-32.7c-2.23-6.33-19.23,5.46-19.23,5.46s11.49-16.54,6-19.23-17.47,7.5-17.47,7.5,7-9.19,3.71-11.6-17.47,7.5-17.47,7.5,5.09-11.58-5.72-7.19-86.64,74-86.64,74Z"/><path class="cls-10" d="M364.71,743.92a1.24,1.24,0,0,1-.84-.33c-10.62-9.7-15.3-12.06-27-15.66a1.27,1.27,0,0,1-.83-1.57,1.24,1.24,0,0,1,1.56-.82c12.14,3.73,17,6.17,28,16.21a1.25,1.25,0,0,1,.08,1.76A1.27,1.27,0,0,1,364.71,743.92Z"/><path class="cls-10" d="M346.07,772.46h-.18a1.25,1.25,0,0,1-1.06-1.41c1.22-8.7,3.95-14.14,8.37-16.62,3.78-2.13,8.7-1.91,14.61.64a1.25,1.25,0,1,1-1,2.3c-5.16-2.23-9.33-2.49-12.39-.77-3.64,2-6,7-7.12,14.79A1.26,1.26,0,0,1,346.07,772.46Z"/><path class="cls-10" d="M343.15,719.86a1.27,1.27,0,0,1-.91-.4,1.25,1.25,0,0,1,.05-1.76l15.53-14.64a1.25,1.25,0,1,1,1.72,1.82L344,719.52A1.28,1.28,0,0,1,343.15,719.86Z"/><path class="cls-10" d="M357.53,724.86a1.26,1.26,0,0,1-.91-2.12l14.92-15.54a1.25,1.25,0,0,1,1.8,1.73l-14.91,15.54A1.25,1.25,0,0,1,357.53,724.86Z"/><path class="cls-10" d="M372.21,733.61a1.23,1.23,0,0,1-.85-.34,1.26,1.26,0,0,1-.06-1.77L383,719a1.25,1.25,0,1,1,1.83,1.71l-11.7,12.55A1.27,1.27,0,0,1,372.21,733.61Z"/><path class="cls-11" d="M573.15,1158.29,346.9,1167l-25-206.25s75.74-71.84,104.88-98.3L476,860C628.61,929.34,603.62,1016,573.15,1158.29Z"/><path class="cls-11" d="M476,860S650.6,874.9,705.65,994.54c53.87,117.06-167.5,158.75-167.5,158.75Z"/><path class="cls-11" d="M276.38,885.6l72.16-87.81L281.06,756.9c-28.15,19.57-82.58,63.9-128.71,114.1-10.18,11.08-18.14,24-22.14,38.27a82.38,82.38,0,0,0-2.12,35.94h0c5,30.65,29.12,54.31,61.31,58.08,27.49,3.22,132.5-5,217.5-30l25-96.49C419.05,869.51,323.58,868.24,276.38,885.6Z"/><g class="cls-12"><path class="cls-2" d="M621.71,907.44l1.12-.25c-.78-.47-1.58-.93-2.37-1.38-12.79,2.94-26,6-39,7.52-7.83.95-34,2.67-41.6-14.74-3.8-8.66-.92-18.3,3.38-25.06l-1.88-.54c-4.4,7.17-7.22,17.22-3.21,26.35,8.15,18.6,35.38,16.84,43.53,15.85C595.06,913.58,608.61,910.46,621.71,907.44Z"/><path class="cls-2" d="M703.2,1042.38c-8.34-3.23-17-6.56-26-5.7-15.89,1.5-29.49,17.21-30.32,35-.56,12.14,4.08,24.87,12.93,36.07l1.59-1c-8.65-10.88-13.19-23.24-12.65-35,.79-16.92,13.63-31.84,28.62-33.26,8.62-.8,16.66,2.3,25.17,5.58,3,1.18,6.13,2.36,9.27,3.37.16-.61.32-1.21.46-1.82C709.2,1044.68,706.17,1043.53,703.2,1042.38Z"/><path class="cls-2" d="M262.45,982.74c-10.9-9-27.84-11.42-46.47-6.61-16.6,4.3-30.84,12.8-40.62,24.06.64.2,1.27.44,1.92.63,9.52-10.68,23.23-18.75,39.17-22.87,18-4.67,34.37-2.39,44.81,6.24a40.74,40.74,0,0,1,11,15.17l1.94-.22A43,43,0,0,0,262.45,982.74Z"/><path class="cls-2" d="M163.89,858.74c20.43-5.08,40.37-12.21,58.75-22.8,7-4,14.79-9.1,20.31-16.59,5.87-8,7.82-17.46,5.22-25.39a19.89,19.89,0,0,0-5.09-8l-1.44,1.18a18.13,18.13,0,0,1,4.75,7.43c2.41,7.35.56,16.2-4.95,23.68-5.31,7.22-12.95,12.18-19.73,16.08-17.35,10-36.1,16.9-55.37,21.89Z"/></g><path class="cls-9" d="M492,814.11l0,3.2L491.42,867l-.06,5.39a31,31,0,0,1-61.93,0l-.61-61.46Z"/><path class="cls-8" d="M491.93,817.31,491.42,867c-27.64-11.25-39-41.17-39-41.17Z"/><path class="cls-9" d="M502.86,730.53c9.91,11.89,38.83,79.24,9.51,102.22-33,25.86-83.2-16.64-83.2-16.64l-6.73-78.45L466,726.17Z"/><path class="cls-8" d="M400.23,726.21S303.57,776.63,382.39,922c10.12,18.66,32.54,26.81,51.73,17.7h0a39.21,39.21,0,0,0,17.19-54.75c-12.89-22.91-25.34-52.4-20-74.35Z"/><circle class="cls-5" cx="409.36" cy="750.08" r="26.15" transform="translate(-410.48 509.16) rotate(-45)"/><path class="cls-8" d="M441.53,781.5c-2.82-16.32-4.55-27.51,11.94-35.91,0,0,58.11,10.56,69.2-11.36s-5.81-56.52-41.2-32.49c-90.6-17.7-102.75,67.09-75.28,95.35l27.12-4.16A9.87,9.87,0,0,0,441.53,781.5Z"/><circle class="cls-8" cx="486.52" cy="781.54" r="3.86"/><circle class="cls-8" cx="512.67" cy="768.66" r="3.86"/><path class="cls-8" d="M510,793.43a1.09,1.09,0,0,1-.8-1.85c1.55-1.63,3.25-3.92,2.54-5.58s-3.88-2.47-5.31-2.47c-3.08,0-4.56-5.49-4.83-6.59a1.1,1.1,0,1,1,2.13-.51c.56,2.32,1.84,4.91,2.7,4.91,1.47,0,6,.7,7.32,3.79,1,2.22,0,4.89-3,8A1.09,1.09,0,0,1,510,793.43Z"/><path class="cls-8" d="M510.19,808.09a1.07,1.07,0,0,1-.61-.19c-7.27-4.91-14.61-.79-14.69-.75a1.09,1.09,0,1,1-1.09-1.89c.35-.2,8.61-4.84,17,.83a1.09,1.09,0,0,1-.62,2Z"/><path class="cls-8" d="M484.83,764.81c2.2,4.14-1.63,5-6.12,7.35s-9.08,3.26-10.13,1.28,1.74-5.5,6.23-7.88S483.13,761.61,484.83,764.81Z"/><path class="cls-8" d="M501.19,757.34c1,3.7,3.72,2.08,7.73,1s7.24-3.06,6.78-4.82-4.09-2.34-8.09-1.29S500.44,754.49,501.19,757.34Z"/><circle class="cls-13" cx="468.69" cy="799.57" r="11.39" transform="translate(-417.92 529.58) rotate(-42.69)"/><ellipse class="cls-9" cx="425.44" cy="799.61" rx="15.43" ry="17.53" transform="translate(-467.51 647.9) rotate(-52.34)"/><path class="cls-8" d="M432.21,805.33a1.09,1.09,0,0,1-1.09-1.1,9.56,9.56,0,0,0-4.21-8,7.7,7.7,0,0,0-7.19-1,1.09,1.09,0,0,1-.82-2,9.9,9.9,0,0,1,9.23,1.17,11.77,11.77,0,0,1,5.18,9.8A1.1,1.1,0,0,1,432.21,805.33Z"/><rect class="cls-8" x="227.57" y="905.7" width="58.14" height="2.5" transform="translate(-583.55 479.74) rotate(-47.25)"/><path class="cls-8" d="M553.52,1068.24l-.73-2.39c28.73-8.76,56.61-19.24,81.88-50.84l2,1.56C610.91,1048.73,582.64,1059.36,553.52,1068.24Z"/><path class="cls-14" d="M571,971.43H326.57c-8.79,0-15.92,7.71-15.92,17.22v174.5c0,9.51,7.13,17.22,15.92,17.22H571c8.79,0,15.91-7.71,15.91-17.22V988.65C586.9,979.14,579.78,971.43,571,971.43Z"/><path class="cls-15" d="M461.68,1064.87a1.75,1.75,0,0,1,1.68,1.82v18.42a1.75,1.75,0,0,1-1.68,1.82H435.87a1.76,1.76,0,0,1-1.68-1.82v-18.42a1.76,1.76,0,0,1,1.68-1.82h25.81m0-5H435.87a6.76,6.76,0,0,0-6.68,6.82v18.42a6.76,6.76,0,0,0,6.68,6.82h25.81a6.76,6.76,0,0,0,6.68-6.82v-18.42a6.76,6.76,0,0,0-6.68-6.82Z"/><rect class="cls-8" x="45.91" y="1360.79" width="1473.68" height="5"/></g></svg>