<svg width="110" height="37" viewBox="0 0 110 37" fill="none" xmlns="http://www.w3.org/2000/svg">
<g clip-path="url(#clip0_42_322)">
<path d="M14.5 4.45312C6.74193 4.45312 0.453125 10.7419 0.453125 18.5C0.453125 26.2581 6.74193 32.5469 14.5 32.5469C22.2581 32.5469 28.5469 26.2581 28.5469 18.5C28.5469 10.7419 22.2581 4.45312 14.5 4.45312ZM14.5 28.9219C8.74021 28.9219 4.07812 24.2609 4.07812 18.5C4.07812 12.7402 8.73908 8.07812 14.5 8.07812C20.2598 8.07812 24.9219 12.7391 24.9219 18.5C24.9219 24.2598 20.2609 28.9219 14.5 28.9219ZM14.5 11.25C10.4961 11.25 7.25 14.4961 7.25 18.5C7.25 22.5039 10.4961 25.75 14.5 25.75C18.5039 25.75 21.75 22.5039 21.75 18.5C21.75 14.4961 18.5039 11.25 14.5 11.25ZM14.5 22.125C12.5012 22.125 10.875 20.4988 10.875 18.5C10.875 16.5012 12.5012 14.875 14.5 14.875C16.4988 14.875 18.125 16.5012 18.125 18.5C18.125 20.4988 16.4988 22.125 14.5 22.125Z" fill="#2CD889"/>
</g>
<path d="M32.612 24V5.8H37.656V19.58H46.47V24H32.612ZM56.7445 24.364C51.1285 24.364 46.9685 20.178 46.9685 14.952V14.9C46.9685 9.674 51.1805 5.436 56.7965 5.436C62.4125 5.436 66.5725 9.622 66.5725 14.848V14.9C66.5725 20.126 62.3605 24.364 56.7445 24.364ZM56.7965 19.814C59.5785 19.814 61.4245 17.578 61.4245 14.952V14.9C61.4245 12.274 59.5265 9.986 56.7445 9.986C53.9885 9.986 52.1425 12.222 52.1425 14.848V14.9C52.1425 17.526 54.0405 19.814 56.7965 19.814ZM78.4819 24.364C72.8139 24.364 68.5759 20.464 68.5759 14.952V14.9C68.5759 9.596 72.7359 5.436 78.3779 5.436C81.5759 5.436 83.8379 6.424 85.7619 8.088L82.7979 11.65C81.4979 10.558 80.1979 9.934 78.4039 9.934C75.7779 9.934 73.7499 12.144 73.7499 14.926V14.978C73.7499 17.916 75.8039 20.022 78.6899 20.022C79.9119 20.022 80.8479 19.762 81.6019 19.268V17.058H78.0139V13.366H86.3859V21.556C84.4619 23.142 81.7839 24.364 78.4819 24.364ZM98.3343 24.364C92.7183 24.364 88.5583 20.178 88.5583 14.952V14.9C88.5583 9.674 92.7703 5.436 98.3863 5.436C104.002 5.436 108.162 9.622 108.162 14.848V14.9C108.162 20.126 103.95 24.364 98.3343 24.364ZM98.3863 19.814C101.168 19.814 103.014 17.578 103.014 14.952V14.9C103.014 12.274 101.116 9.986 98.3343 9.986C95.5783 9.986 93.7323 12.222 93.7323 14.848V14.9C93.7323 17.526 95.6303 19.814 98.3863 19.814Z" fill="white"/>
<path d="M35.64 28.73V35H34.84V28.73H32.49V28H37.99V28.73H35.64ZM39.9448 30.44C39.6382 30.44 39.3582 30.4767 39.1048 30.55C38.8582 30.6167 38.6148 30.7067 38.3748 30.82L38.1448 30.19C38.4315 30.0567 38.7215 29.9533 39.0148 29.88C39.3082 29.8 39.6448 29.76 40.0248 29.76C40.7315 29.76 41.2748 29.9367 41.6548 30.29C42.0348 30.6367 42.2248 31.1533 42.2248 31.84V35H41.4848V34.22C41.3048 34.4533 41.0615 34.66 40.7548 34.84C40.4548 35.02 40.0748 35.11 39.6148 35.11C39.3748 35.11 39.1382 35.0767 38.9048 35.01C38.6782 34.9433 38.4715 34.8433 38.2848 34.71C38.1048 34.57 37.9582 34.4 37.8448 34.2C37.7382 34 37.6848 33.7633 37.6848 33.49C37.6848 33.2167 37.7382 32.9767 37.8448 32.77C37.9515 32.5567 38.1015 32.38 38.2948 32.24C38.4948 32.1 38.7282 31.9933 38.9948 31.92C39.2682 31.8467 39.5682 31.81 39.8948 31.81C40.2282 31.81 40.5182 31.83 40.7648 31.87C41.0115 31.91 41.2515 31.9633 41.4848 32.03V31.85C41.4848 31.3833 41.3482 31.0333 41.0748 30.8C40.8082 30.56 40.4315 30.44 39.9448 30.44ZM39.9748 32.38C39.4882 32.38 39.1148 32.4767 38.8548 32.67C38.5948 32.8633 38.4648 33.1267 38.4648 33.46C38.4648 33.6267 38.4982 33.7733 38.5648 33.9C38.6382 34.0267 38.7348 34.1367 38.8548 34.23C38.9748 34.3167 39.1115 34.3833 39.2648 34.43C39.4248 34.4767 39.5915 34.5 39.7648 34.5C40.0048 34.5 40.2282 34.4667 40.4348 34.4C40.6482 34.3267 40.8315 34.23 40.9848 34.11C41.1448 33.9833 41.2682 33.8367 41.3548 33.67C41.4482 33.4967 41.4948 33.3067 41.4948 33.1V32.6C41.3015 32.5467 41.0782 32.4967 40.8248 32.45C40.5782 32.4033 40.2948 32.38 39.9748 32.38ZM48.7859 34.1C48.7859 34.52 48.7225 34.8867 48.5959 35.2C48.4759 35.5133 48.2992 35.7733 48.0659 35.98C47.8392 36.1933 47.5625 36.3533 47.2359 36.46C46.9159 36.5667 46.5559 36.62 46.1559 36.62C45.7225 36.62 45.3092 36.56 44.9159 36.44C44.5225 36.32 44.1525 36.14 43.8059 35.9L44.1559 35.3C44.4559 35.5133 44.7692 35.6767 45.0959 35.79C45.4225 35.9033 45.7725 35.96 46.1459 35.96C46.7192 35.96 47.1759 35.8033 47.5159 35.49C47.8559 35.1833 48.0259 34.7267 48.0259 34.12V33.51C47.7992 33.81 47.5225 34.0667 47.1959 34.28C46.8692 34.4933 46.4692 34.6 45.9959 34.6C45.6825 34.6 45.3792 34.5467 45.0859 34.44C44.7992 34.3267 44.5425 34.1667 44.3159 33.96C44.0892 33.7467 43.9059 33.49 43.7659 33.19C43.6325 32.89 43.5659 32.55 43.5659 32.17C43.5659 31.79 43.6325 31.45 43.7659 31.15C43.9059 30.8433 44.0892 30.5867 44.3159 30.38C44.5425 30.1667 44.8025 30.0033 45.0959 29.89C45.3892 29.7767 45.6892 29.72 45.9959 29.72C46.2359 29.72 46.4559 29.75 46.6559 29.81C46.8625 29.8633 47.0459 29.9367 47.2059 30.03C47.3725 30.1233 47.5225 30.2333 47.6559 30.36C47.7892 30.4867 47.9092 30.62 48.0159 30.76V29.83H48.7859V34.1ZM48.0459 32.16C48.0459 31.8933 47.9925 31.6533 47.8859 31.44C47.7792 31.22 47.6359 31.0333 47.4559 30.88C47.2825 30.7267 47.0825 30.61 46.8559 30.53C46.6292 30.4433 46.3925 30.4 46.1459 30.4C45.8992 30.4 45.6659 30.44 45.4459 30.52C45.2325 30.6 45.0425 30.7167 44.8759 30.87C44.7159 31.0233 44.5892 31.21 44.4959 31.43C44.4025 31.6433 44.3559 31.8833 44.3559 32.15C44.3559 32.4167 44.4025 32.66 44.4959 32.88C44.5959 33.0933 44.7259 33.28 44.8859 33.44C45.0525 33.5933 45.2425 33.7133 45.4559 33.8C45.6759 33.88 45.9059 33.92 46.1459 33.92C46.3925 33.92 46.6292 33.88 46.8559 33.8C47.0825 33.7133 47.2825 33.5933 47.4559 33.44C47.6359 33.2867 47.7792 33.1033 47.8859 32.89C47.9925 32.67 48.0459 32.4267 48.0459 32.16ZM51.3465 35H50.5765V27.7H51.3465V35ZM54.0334 28.7H53.1534V27.85H54.0334V28.7ZM53.9734 35H53.2034V29.83H53.9734V35ZM56.5304 32.04V35H55.7604V29.83H56.5304V30.73C56.7037 30.45 56.9304 30.2133 57.2104 30.02C57.4904 29.82 57.8537 29.72 58.3004 29.72C58.6137 29.72 58.8904 29.77 59.1304 29.87C59.3771 29.97 59.5837 30.1133 59.7504 30.3C59.9237 30.48 60.0537 30.6967 60.1404 30.95C60.2337 31.2033 60.2804 31.4833 60.2804 31.79V35H59.5104V31.98C59.5104 31.5 59.3871 31.12 59.1404 30.84C58.8937 30.56 58.5404 30.42 58.0804 30.42C57.8604 30.42 57.6537 30.46 57.4604 30.54C57.2737 30.6133 57.1104 30.7233 56.9704 30.87C56.8304 31.01 56.7204 31.18 56.6404 31.38C56.5671 31.58 56.5304 31.8 56.5304 32.04ZM62.3825 32.7C62.4092 32.98 62.4758 33.23 62.5825 33.45C62.6892 33.6633 62.8258 33.8467 62.9925 34C63.1592 34.1467 63.3458 34.26 63.5525 34.34C63.7592 34.4133 63.9758 34.45 64.2025 34.45C64.5625 34.45 64.8692 34.3833 65.1225 34.25C65.3825 34.1167 65.6192 33.94 65.8325 33.72L66.3125 34.15C66.0525 34.4433 65.7558 34.68 65.4225 34.86C65.0892 35.0333 64.6758 35.12 64.1825 35.12C63.8292 35.12 63.4958 35.0567 63.1825 34.93C62.8692 34.7967 62.5958 34.6133 62.3625 34.38C62.1292 34.14 61.9425 33.8533 61.8025 33.52C61.6692 33.1867 61.6025 32.82 61.6025 32.42C61.6025 32.0467 61.6625 31.6967 61.7825 31.37C61.9092 31.0367 62.0825 30.75 62.3025 30.51C62.5225 30.2633 62.7825 30.07 63.0825 29.93C63.3892 29.79 63.7225 29.72 64.0825 29.72C64.4625 29.72 64.8025 29.7933 65.1025 29.94C65.4025 30.08 65.6558 30.2733 65.8625 30.52C66.0692 30.7667 66.2258 31.0567 66.3325 31.39C66.4392 31.7233 66.4925 32.08 66.4925 32.46C66.4925 32.4933 66.4925 32.53 66.4925 32.57C66.4925 32.61 66.4892 32.6533 66.4825 32.7H62.3825ZM62.3825 32.13H65.7125C65.6925 31.8967 65.6425 31.6733 65.5625 31.46C65.4892 31.2467 65.3825 31.06 65.2425 30.9C65.1092 30.74 64.9425 30.6133 64.7425 30.52C64.5492 30.42 64.3225 30.37 64.0625 30.37C63.8358 30.37 63.6258 30.4167 63.4325 30.51C63.2392 30.5967 63.0692 30.72 62.9225 30.88C62.7758 31.0333 62.6558 31.2167 62.5625 31.43C62.4692 31.6433 62.4092 31.8767 62.3825 32.13ZM75.7985 31.85H71.7585V35H70.9685V28H71.7585V31.11H75.7985V28H76.5885V35H75.7985V31.85ZM78.8962 32.7C78.9228 32.98 78.9895 33.23 79.0962 33.45C79.2028 33.6633 79.3395 33.8467 79.5062 34C79.6728 34.1467 79.8595 34.26 80.0662 34.34C80.2728 34.4133 80.4895 34.45 80.7162 34.45C81.0762 34.45 81.3828 34.3833 81.6362 34.25C81.8962 34.1167 82.1328 33.94 82.3462 33.72L82.8262 34.15C82.5662 34.4433 82.2695 34.68 81.9362 34.86C81.6028 35.0333 81.1895 35.12 80.6962 35.12C80.3428 35.12 80.0095 35.0567 79.6962 34.93C79.3828 34.7967 79.1095 34.6133 78.8762 34.38C78.6428 34.14 78.4562 33.8533 78.3162 33.52C78.1828 33.1867 78.1162 32.82 78.1162 32.42C78.1162 32.0467 78.1762 31.6967 78.2962 31.37C78.4228 31.0367 78.5962 30.75 78.8162 30.51C79.0362 30.2633 79.2962 30.07 79.5962 29.93C79.9028 29.79 80.2362 29.72 80.5962 29.72C80.9762 29.72 81.3162 29.7933 81.6162 29.94C81.9162 30.08 82.1695 30.2733 82.3762 30.52C82.5828 30.7667 82.7395 31.0567 82.8462 31.39C82.9528 31.7233 83.0062 32.08 83.0062 32.46C83.0062 32.4933 83.0062 32.53 83.0062 32.57C83.0062 32.61 83.0028 32.6533 82.9962 32.7H78.8962ZM78.8962 32.13H82.2262C82.2062 31.8967 82.1562 31.6733 82.0762 31.46C82.0028 31.2467 81.8962 31.06 81.7562 30.9C81.6228 30.74 81.4562 30.6133 81.2562 30.52C81.0628 30.42 80.8362 30.37 80.5762 30.37C80.3495 30.37 80.1395 30.4167 79.9462 30.51C79.7528 30.5967 79.5828 30.72 79.4362 30.88C79.2895 31.0333 79.1695 31.2167 79.0762 31.43C78.9828 31.6433 78.9228 31.8767 78.8962 32.13ZM85.1241 32.94V35H84.3541V29.83H85.1241V31.18C85.2175 30.9667 85.3341 30.77 85.4741 30.59C85.6141 30.41 85.7741 30.2567 85.9541 30.13C86.1341 29.9967 86.3308 29.8967 86.5441 29.83C86.7575 29.7633 86.9875 29.7333 87.2341 29.74V30.57H87.1741C86.8941 30.57 86.6275 30.62 86.3741 30.72C86.1275 30.82 85.9108 30.97 85.7241 31.17C85.5375 31.37 85.3908 31.62 85.2841 31.92C85.1775 32.2133 85.1241 32.5533 85.1241 32.94ZM88.6423 32.7C88.6689 32.98 88.7356 33.23 88.8423 33.45C88.9489 33.6633 89.0856 33.8467 89.2523 34C89.4189 34.1467 89.6056 34.26 89.8123 34.34C90.0189 34.4133 90.2356 34.45 90.4623 34.45C90.8223 34.45 91.1289 34.3833 91.3823 34.25C91.6423 34.1167 91.8789 33.94 92.0923 33.72L92.5723 34.15C92.3123 34.4433 92.0156 34.68 91.6823 34.86C91.3489 35.0333 90.9356 35.12 90.4423 35.12C90.0889 35.12 89.7556 35.0567 89.4423 34.93C89.1289 34.7967 88.8556 34.6133 88.6223 34.38C88.3889 34.14 88.2023 33.8533 88.0623 33.52C87.9289 33.1867 87.8623 32.82 87.8623 32.42C87.8623 32.0467 87.9223 31.6967 88.0423 31.37C88.1689 31.0367 88.3423 30.75 88.5623 30.51C88.7823 30.2633 89.0423 30.07 89.3423 29.93C89.6489 29.79 89.9823 29.72 90.3423 29.72C90.7223 29.72 91.0623 29.7933 91.3623 29.94C91.6623 30.08 91.9156 30.2733 92.1223 30.52C92.3289 30.7667 92.4856 31.0567 92.5923 31.39C92.6989 31.7233 92.7523 32.08 92.7523 32.46C92.7523 32.4933 92.7523 32.53 92.7523 32.57C92.7523 32.61 92.7489 32.6533 92.7423 32.7H88.6423ZM88.6423 32.13H91.9723C91.9523 31.8967 91.9023 31.6733 91.8223 31.46C91.7489 31.2467 91.6423 31.06 91.5023 30.9C91.3689 30.74 91.2023 30.6133 91.0023 30.52C90.8089 30.42 90.5823 30.37 90.3223 30.37C90.0956 30.37 89.8856 30.4167 89.6923 30.51C89.4989 30.5967 89.3289 30.72 89.1823 30.88C89.0356 31.0333 88.9156 31.2167 88.8223 31.43C88.7289 31.6433 88.6689 31.8767 88.6423 32.13Z" fill="white"/>
<defs>
<clipPath id="clip0_42_322">
<rect width="29" height="29" fill="white" transform="translate(0 4)"/>
</clipPath>
</defs>
</svg>
