<svg width="470" height="314" viewBox="0 0 470 314" fill="none" xmlns="http://www.w3.org/2000/svg">
<path d="M311.955 124.281L241.705 128.677L236.128 38.2451L288.267 34.9795L307.443 51.1191L311.955 124.281Z" fill="#F6F2FF"/>
<path d="M288.267 34.9795L307.443 51.1191L289.332 52.2495L288.267 34.9795Z" fill="#E9E1FF"/>
<path d="M268.84 95.8327L268.589 93.8231C267.9 89.6155 269.028 84.8427 272.725 79.9443C276.047 75.5483 277.801 72.4083 277.613 68.8287C277.363 64.8095 274.731 62.2975 269.78 62.4859C266.96 62.6743 263.889 63.7419 261.947 65.3747L259.753 60.5391C262.26 58.5295 266.647 57.0223 270.845 56.7711C279.869 56.2687 284.256 61.6067 284.632 67.6355C284.945 72.9735 282.188 76.9927 278.616 81.7027C275.357 85.9731 274.292 89.5527 274.793 93.5091L274.981 95.5815L268.84 95.8327ZM267.712 106.948C267.524 104.06 269.404 101.862 272.161 101.736C274.919 101.61 276.924 103.494 277.049 106.446C277.175 109.209 275.545 111.407 272.6 111.596C269.843 111.721 267.837 109.712 267.712 106.948Z" fill="#E9E1FF"/>
<path d="M373.305 141.237L337.961 127.421L355.633 81.9539L381.891 92.2531L387.593 104.436L373.305 141.237Z" fill="#F6F2FF"/>
<path d="M381.891 92.2532L387.594 104.436L378.507 100.92L381.891 92.2532Z" fill="#E9E1FF"/>
<path d="M358.641 117.561L358.955 116.494C359.581 114.296 361.211 112.223 364.093 110.653C366.725 109.272 368.292 108.141 368.981 106.32C369.796 104.311 369.044 102.489 366.6 101.422C365.159 100.857 363.404 100.731 362.151 101.045L362.213 98.1562C363.905 97.7166 366.412 97.9678 368.48 98.847C372.992 100.668 373.932 104.248 372.741 107.262C371.676 109.963 369.42 111.281 366.6 112.789C364.031 114.17 362.715 115.615 362.025 117.687L361.649 118.755L358.641 117.561ZM355.571 122.711C356.135 121.267 357.513 120.639 358.892 121.141C360.271 121.706 360.835 123.088 360.208 124.532C359.644 125.914 358.328 126.605 356.887 126.039C355.508 125.537 355.007 124.093 355.571 122.711Z" fill="#E9E1FF"/>
<path d="M93.0601 80.4467L85.9787 77.2439L84.9761 79.4419C84.6628 80.0699 84.0361 80.5095 83.3467 80.5095C82.9707 80.5095 82.5947 80.5723 82.2187 80.6351C81.5294 80.7607 80.8401 80.4467 80.4641 79.8815L79.0854 77.9347L72.7561 82.4563L74.1347 84.4031C74.5107 84.9683 74.5734 85.7219 74.2601 86.3499C74.0721 86.7267 73.9467 87.0407 73.7587 87.4175C73.5081 88.0455 72.9441 88.5479 72.2547 88.6107L69.8734 88.8619L70.6254 96.5863L73.0067 96.3351C73.6961 96.2723 74.3854 96.5863 74.7614 97.2143C74.8867 97.4027 74.9494 97.5283 75.0747 97.7167C75.2001 97.8423 75.3254 98.0307 75.4507 98.1563C75.8894 98.7215 76.0147 99.4123 75.7014 100.04L74.6987 102.238L81.7801 105.441L82.7828 103.243C83.0961 102.615 83.7227 102.175 84.4121 102.175C84.7881 102.175 85.1641 102.113 85.5401 102.05C86.2294 101.924 86.9187 102.238 87.2947 102.803L88.6734 104.75L95.0028 100.229L93.6241 98.2819C93.2481 97.7167 93.1854 96.9631 93.4987 96.3351C93.6867 96.0211 93.8121 95.6443 94.0001 95.2675C94.2507 94.6395 94.8147 94.1371 95.5041 94.0743L97.8854 93.8231L97.1334 86.0987L94.7521 86.3499C94.0627 86.4127 93.3734 86.0987 92.9974 85.4707C92.8721 85.2823 92.8094 85.1567 92.6841 84.9683C92.5587 84.8427 92.4334 84.6543 92.3081 84.5287C91.8694 83.9635 91.7441 83.2727 92.0574 82.5819L93.0601 80.4467ZM89.0494 87.6059C91.1174 90.4947 90.4281 94.4511 87.6081 96.5235C84.7254 98.5959 80.7774 97.9051 78.7094 95.0791C76.6414 92.1903 77.3307 88.2339 80.1507 86.1615C83.0334 84.0891 86.9814 84.7799 89.0494 87.6059Z" fill="#F6F2FF"/>
<path d="M412.597 183.188L407.897 185.888L408.712 187.332C408.963 187.772 408.963 188.274 408.649 188.714C408.524 188.965 408.336 189.153 408.273 189.405C408.023 189.844 407.584 190.095 407.145 190.095H405.453V195.559H407.145C407.647 195.559 408.085 195.81 408.273 196.25C408.399 196.501 408.524 196.752 408.649 196.941C408.9 197.38 408.963 197.883 408.712 198.322L407.897 199.767L412.597 202.467L413.412 201.023C413.663 200.583 414.101 200.332 414.603 200.395C414.728 200.395 414.853 200.395 414.979 200.395C415.104 200.395 415.229 200.395 415.355 200.395C415.856 200.395 416.295 200.583 416.545 201.023L417.36 202.467L422.06 199.767L421.245 198.322C420.995 197.883 420.995 197.38 421.308 196.941C421.433 196.689 421.621 196.501 421.684 196.25C421.935 195.81 422.373 195.559 422.812 195.559H424.504V190.095H422.812C422.311 190.095 421.872 189.844 421.684 189.405C421.559 189.153 421.433 188.902 421.308 188.714C421.057 188.274 420.995 187.772 421.245 187.332L422.06 185.888L417.36 183.188L416.545 184.632C416.295 185.071 415.856 185.26 415.355 185.26C415.229 185.26 415.104 185.26 414.979 185.26C414.853 185.26 414.728 185.26 414.603 185.26C414.101 185.26 413.663 185.071 413.412 184.632L412.597 183.188ZM415.041 188.4C417.485 188.4 419.491 190.409 419.491 192.859C419.491 195.308 417.485 197.318 415.041 197.318C412.597 197.318 410.592 195.308 410.592 192.859C410.592 190.409 412.535 188.4 415.041 188.4Z" fill="#E9E1FF"/>
<path d="M107.348 57.2735L103.024 60.6019L104.027 61.9207C104.34 62.2975 104.34 62.8627 104.152 63.3023C104.027 63.5535 103.901 63.8047 103.839 64.0559C103.651 64.4955 103.275 64.8723 102.773 64.9351L101.144 65.1235L101.833 70.5243L103.463 70.3359C103.964 70.2731 104.403 70.5243 104.716 70.9011C104.841 71.1523 105.029 71.3407 105.217 71.5291C105.531 71.9059 105.656 72.4083 105.468 72.8479L104.841 74.4179L109.855 76.4903L110.481 74.9203C110.669 74.4807 111.108 74.1667 111.609 74.1667C111.735 74.1667 111.86 74.1667 111.985 74.1039C112.111 74.1039 112.236 74.0411 112.361 74.0411C112.863 73.9783 113.301 74.1039 113.615 74.5435L114.617 75.8623L118.941 72.5339L117.939 71.2151C117.625 70.8383 117.625 70.2731 117.813 69.8335C117.939 69.5823 118.064 69.3311 118.127 69.0799C118.315 68.6403 118.691 68.2635 119.192 68.2007L120.821 68.0123L120.132 62.6115L118.503 62.7999C118.001 62.8627 117.563 62.6115 117.249 62.2347C117.124 61.9835 116.936 61.7951 116.748 61.6067C116.435 61.2299 116.309 60.7275 116.497 60.2879L117.124 58.7179L112.111 56.6455L111.484 58.2155C111.296 58.6551 110.857 58.9691 110.356 58.9691C110.231 58.9691 110.105 58.9691 109.98 59.0319C109.855 59.0319 109.729 59.0947 109.604 59.0947C109.103 59.1575 108.601 59.0319 108.351 58.5923L107.348 57.2735ZM110.419 62.1091C112.863 61.7951 115.119 63.4907 115.432 65.9399C115.745 68.3891 114.053 70.6499 111.609 70.9639C109.165 71.2779 106.909 69.5823 106.596 67.1331C106.283 64.6839 107.975 62.4231 110.419 62.1091Z" fill="#F6F2FF"/>
<path d="M75.0747 198.95C75.3253 192.859 75.2 186.767 74.824 180.738C74.0093 168.241 71.9413 155.807 69.1213 143.561C67.5547 136.715 65.5493 129.933 63.544 123.151C63.4813 122.962 63.168 123.025 63.2307 123.213C69.56 147.015 74.6986 171.569 74.3853 196.313C74.26 203.221 73.508 210.066 72.8186 216.911C72.8186 217.099 73.132 217.162 73.132 216.974C74.448 211.133 74.824 204.979 75.0747 198.95Z" fill="#E9E1FF"/>
<path d="M63.2306 123.213C63.2306 123.213 53.7053 147.517 55.836 153.232C57.9666 158.947 62.416 160.14 62.416 160.14C62.416 160.14 56.588 168.492 60.6613 176.342C64.7346 184.192 73.8213 183.815 74.448 192.733C74.3853 192.733 74.8866 155.555 63.2306 123.213Z" fill="#E9E1FF"/>
<path d="M73.3199 177.41C73.3199 177.347 73.3199 177.347 73.3199 177.284C72.0039 160.768 69.0586 144.314 64.0453 128.426C64.0453 128.363 63.9826 128.363 63.9826 128.426C65.8626 135.522 67.5546 142.681 68.9959 149.841C67.7426 148.585 66.1133 147.831 64.4213 147.266C64.3586 147.266 64.3586 147.329 64.4213 147.329C66.1759 148.082 67.8679 148.961 69.1213 150.469C69.3719 151.85 69.6853 153.295 69.9359 154.676C67.8053 152.29 64.8599 151.097 61.8519 149.966C61.7893 149.966 61.7893 150.029 61.8519 150.029C64.9226 151.285 67.9933 152.918 70.1239 155.555C70.8759 159.575 71.5026 163.657 72.0666 167.676C70.4999 166.043 68.5573 164.913 66.3639 164.41C66.3013 164.41 66.2386 164.473 66.3013 164.536C68.5573 165.164 70.4999 166.483 72.0666 168.241C72.0666 168.241 72.0666 168.241 72.1293 168.241C72.3173 169.685 72.5053 171.13 72.6933 172.511C71.5026 171.507 70.1866 170.69 68.6826 170.125C68.6199 170.125 68.6199 170.188 68.6826 170.188C70.1866 170.816 71.5026 171.758 72.6933 172.825H72.7559C72.9439 174.207 73.0693 175.526 73.1946 176.907C71.0013 174.27 68.3066 172.323 65.1106 171.13C65.0479 171.13 64.9853 171.193 65.0479 171.255C68.1813 172.637 70.9386 174.772 73.0066 177.41C73.0693 177.473 73.1319 177.473 73.1946 177.473C73.3826 179.545 73.5706 181.68 73.7586 183.753C73.7586 183.753 73.8213 183.815 73.8213 183.753C73.6333 181.68 73.5079 179.545 73.3199 177.41Z" fill="white"/>
<path d="M65.6746 144.879C64.0453 143.749 61.9146 143.247 59.9093 143.058C59.8466 143.058 59.8466 143.121 59.9093 143.121C61.9773 143.435 63.6693 144.188 65.612 145.005C65.6746 145.068 65.7373 144.942 65.6746 144.879Z" fill="white"/>
<path d="M66.8026 170.627C65.4866 169.811 63.9826 169.371 62.4786 169.12C62.416 169.12 62.416 169.183 62.4786 169.183C63.9826 169.434 65.3613 169.999 66.74 170.69C66.8026 170.753 66.8653 170.627 66.8026 170.627Z" fill="white"/>
<path d="M100.204 153.671C96.1933 156.497 92.3707 159.7 89.1747 163.343C85.728 167.236 83.1587 171.632 81.404 176.531C77.7693 186.579 75.8267 197.38 75.6387 208.056C75.5133 214.022 76.0773 219.925 77.3307 225.766C77.3933 225.954 77.7067 225.891 77.644 225.703C76.0773 215.467 76.14 204.979 77.832 194.743C79.4613 184.695 82.0307 173.767 88.4227 165.603C91.8693 161.145 96.1933 157.628 100.517 154.048C100.705 153.797 100.455 153.483 100.204 153.671Z" fill="#EBEBEB"/>
<path d="M77.0173 200.771C77.0173 200.771 80.276 195.245 85.1013 190.472C89.864 185.699 93.9373 182.308 94.5013 179.105C95.128 175.965 89.7387 173.579 89.7387 173.579C89.7387 173.579 96.3813 174.772 98.136 172.009C99.9533 169.246 100.831 153.106 100.831 153.106C100.831 153.106 88.7987 161.71 83.2213 173.767C77.5813 185.888 77.0173 200.771 77.0173 200.771Z" fill="#E9E1FF"/>
<path d="M96.632 157.251C91.556 162.212 86.48 167.55 83.472 174.081C82.4694 176.342 81.592 178.666 80.84 181.052C80.7147 181.554 80.5267 181.994 80.4014 182.496V182.559C78.8974 187.458 77.8947 192.482 76.9547 197.443C76.9547 197.506 77.0174 197.506 77.0174 197.443C77.5187 194.931 78.0827 192.419 78.772 189.844H78.8347C79.8374 189.404 80.9027 189.153 81.968 189.028C82.0307 189.028 82.0307 188.902 81.968 188.902C80.9027 188.965 79.8374 189.153 78.8347 189.467C79.3987 187.207 80.0254 184.883 80.7774 182.685C83.096 182.12 85.54 181.806 87.9214 181.743V181.68C85.54 181.554 83.2214 181.806 80.9027 182.308C81.028 181.931 81.1534 181.554 81.2787 181.178C82.8454 180.801 84.412 180.55 86.0414 180.361V180.298C84.4747 180.361 82.908 180.487 81.404 180.864C82.0307 178.917 82.7827 177.033 83.5347 175.149C84.1614 173.579 84.976 172.134 85.7907 170.753C87.1067 170.439 88.2974 170.188 89.6134 170.062C89.676 170.062 89.676 169.999 89.6134 169.999C88.4227 169.937 87.1694 169.999 86.0414 170.376C86.668 169.371 87.3574 168.366 88.0467 167.362C90.7414 166.734 93.4987 166.231 96.256 166.734C96.3187 166.734 96.3187 166.671 96.256 166.671C93.624 165.98 90.992 166.357 88.4227 166.922C88.736 166.545 88.9867 166.168 89.3 165.792C90.9294 165.289 92.6214 165.038 94.3134 164.975C94.376 164.975 94.376 164.912 94.3134 164.912C92.7467 164.787 91.1174 164.912 89.6134 165.352C91.8694 162.589 94.3134 159.951 96.7574 157.376C96.8827 157.188 96.7574 157.125 96.632 157.251Z" fill="#E9E1FF"/>
<path d="M96.5067 168.241C95.692 168.178 94.94 168.053 94.1253 168.178C94 168.178 94.0627 168.367 94.1253 168.367C94.94 168.367 95.692 168.304 96.5067 168.367C96.5693 168.367 96.5693 168.241 96.5067 168.241Z" fill="white"/>
<path d="M87.8587 183.878C86.6054 183.878 85.352 184.192 84.1614 184.632V184.695C85.4147 184.381 86.6054 184.255 87.8587 184.067C87.984 184.067 87.984 183.878 87.8587 183.878Z" fill="white"/>
<path d="M85.2893 178.477C84.788 178.477 84.224 178.54 83.7227 178.603C83.66 178.603 83.66 178.666 83.7227 178.666C84.224 178.666 84.788 178.666 85.2893 178.603C85.352 178.603 85.352 178.477 85.2893 178.477Z" fill="white"/>
<path d="M41.736 170.753C45.6213 172.072 49.444 173.83 52.8907 176.028C56.588 178.352 59.6587 181.366 62.228 184.883C67.492 192.168 71.5654 200.457 74.1974 209.061C75.6387 213.896 76.5787 218.795 76.892 223.819C76.892 224.007 76.6414 224.007 76.6414 223.819C75.5134 215.152 73.0693 206.674 69.372 198.762C65.7374 191.037 61.1 182.748 54.0814 177.598C50.2587 174.772 45.9347 172.951 41.6107 171.067C41.36 171.004 41.548 170.69 41.736 170.753Z" fill="#E9E1FF"/>
<path d="M71.3774 203.535C71.3774 203.535 67.4294 199.829 62.4787 197.066C57.528 194.303 53.4547 192.482 52.2014 190.033C50.948 187.583 54.8334 184.443 54.8334 184.443C54.8334 184.443 49.7574 186.955 47.6267 185.134C45.496 183.313 41.1094 170.439 41.1094 170.439C41.1094 170.439 52.828 174.647 60.16 183.062C67.492 191.603 71.3774 203.535 71.3774 203.535Z" fill="#F6F2FF"/>
<path d="M70.7507 200.897C64.8601 189.844 57.0894 179.859 46.3734 173.328C49.1934 175.149 51.8254 177.221 54.2067 179.482C52.0134 179.419 49.8201 179.796 47.8774 180.801C47.8147 180.801 47.8774 180.864 47.9401 180.864C50.0707 180.11 52.1387 179.671 54.3947 179.796C54.4574 179.796 54.4574 179.796 54.4574 179.796C54.8334 180.173 55.2094 180.55 55.5854 180.927C54.4574 180.989 53.3294 181.115 52.2014 181.366V181.429C53.3921 181.178 54.5827 181.115 55.7734 181.115C57.7161 183.062 59.5961 185.197 61.2881 187.395C60.5361 187.269 59.6587 187.332 58.9067 187.583C58.8441 187.583 58.8441 187.709 58.9067 187.646C59.7841 187.521 60.5987 187.583 61.4134 187.583C61.7267 188.023 62.0401 188.4 62.3534 188.839C59.9721 188.714 57.5907 188.902 55.2094 189.53C55.1467 189.53 55.2094 189.593 55.2094 189.593C57.6534 189.091 60.0347 188.965 62.5414 189.091C62.8547 189.467 63.1054 189.907 63.4187 190.284C61.9774 190.221 60.5987 190.409 59.1574 190.786C59.0947 190.786 59.0947 190.912 59.1574 190.849C60.5987 190.535 62.0401 190.409 63.5441 190.535C64.7974 192.293 65.9881 194.052 67.1787 195.873C66.5521 195.747 65.9254 195.81 65.2987 195.999C65.2361 195.999 65.2987 196.061 65.2987 196.061C65.9881 195.999 66.6147 196.061 67.3041 196.187C68.3694 197.82 69.3721 199.453 70.3121 201.085C70.6254 201.148 70.8761 201.023 70.7507 200.897Z" fill="white"/>
<path d="M61.664 191.728C60.536 191.603 59.3454 191.791 58.28 192.168V192.231C59.408 192.042 60.536 191.917 61.664 191.854C61.7267 191.854 61.7267 191.728 61.664 191.728Z" fill="white"/>
<path d="M51.4494 178.289C50.948 178.226 50.384 178.289 49.8827 178.352C49.82 178.352 49.82 178.477 49.8827 178.415C50.384 178.352 50.8854 178.352 51.4494 178.352C51.512 178.415 51.512 178.289 51.4494 178.289Z" fill="white"/>
<path d="M86.48 240.021H60.0347L63.7947 212.327L64.7973 205.23H81.78L82.72 212.327L86.48 240.021Z" fill="#E9E1FF"/>
<path d="M82.72 212.327H63.7947L64.7973 205.23H81.78L82.72 212.327Z" fill="#F6F2FF"/>
<path d="M84.2239 202.718H62.3533V208.747H84.2239V202.718Z" fill="#E9E1FF"/>
<path d="M43.24 240.021H424.253" stroke="#E9E1FF" stroke-miterlimit="10"/>
<path d="M235 286.808C334.226 286.808 414.665 277.979 414.665 267.088C414.665 256.198 334.226 247.369 235 247.369C135.774 247.369 55.3347 256.198 55.3347 267.088C55.3347 277.979 135.774 286.808 235 286.808Z" fill="#F6F2FF"/>
<path d="M361.148 271.359H170.203L197.839 114.422H386.089C387.468 114.422 388.533 115.678 388.283 117.059L361.148 271.359Z" fill="#462C64"/>
<path d="M253.299 98.1565H209.808C204.544 98.1565 200.032 101.924 199.092 107.137L197.839 114.359H264.704L264.077 107.953C263.576 102.427 258.876 98.1565 253.299 98.1565Z" fill="#462C64"/>
<g opacity="0.1">
<path d="M361.148 271.359H170.203L197.839 114.422H386.089C387.468 114.422 388.533 115.678 388.283 117.059L361.148 271.359Z" fill="#462C64"/>
<path d="M253.612 98.1565H209.495C204.419 98.1565 200.032 101.799 199.155 106.823L197.839 114.359H264.704L264.077 107.639C263.576 102.301 259.064 98.1565 253.612 98.1565Z" fill="#462C64"/>
</g>
<path d="M193.953 104.813C193.703 103.871 193.64 102.992 193.64 102.05C193.64 101.108 193.703 100.229 193.953 99.2869C194.204 100.229 194.267 101.108 194.267 102.05C194.267 102.992 194.204 103.871 193.953 104.813Z" fill="#263238"/>
<path d="M188.376 106.383C187.687 105.693 187.185 104.939 186.747 104.185C186.308 103.369 185.869 102.553 185.681 101.673C186.371 102.364 186.872 103.118 187.311 103.871C187.749 104.688 188.188 105.504 188.376 106.383Z" fill="#263238"/>
<path d="M184.365 110.591C183.425 110.34 182.611 109.963 181.859 109.523C181.107 109.084 180.292 108.581 179.665 107.89C180.605 108.142 181.42 108.518 182.172 108.958C182.987 109.398 183.739 109.9 184.365 110.591Z" fill="#263238"/>
<path d="M182.987 116.18C182.047 116.431 181.169 116.494 180.229 116.494C179.289 116.494 178.412 116.431 177.472 116.18C178.412 115.929 179.289 115.866 180.229 115.866C181.169 115.929 182.109 115.992 182.987 116.18Z" fill="#263238"/>
<path d="M184.616 121.769C183.927 122.46 183.175 122.962 182.423 123.402C181.608 123.842 180.793 124.281 179.916 124.47C180.605 123.779 181.357 123.276 182.109 122.837C182.861 122.397 183.676 122.02 184.616 121.769Z" fill="#263238"/>
<path d="M188.752 125.789C188.501 126.731 188.125 127.547 187.687 128.301C187.248 129.054 186.747 129.871 186.057 130.499C186.308 129.557 186.684 128.74 187.123 127.987C187.624 127.233 188.125 126.479 188.752 125.789Z" fill="#263238"/>
<path d="M194.392 127.17C194.643 128.112 194.705 128.991 194.705 129.933C194.705 130.875 194.643 131.755 194.392 132.697C194.141 131.755 194.079 130.875 194.079 129.933C194.079 128.991 194.141 128.112 194.392 127.17Z" fill="#263238"/>
<path d="M199.969 125.537C200.659 126.228 201.16 126.982 201.599 127.735C202.037 128.552 202.476 129.368 202.664 130.247C201.975 129.557 201.473 128.803 201.035 128.049C200.596 127.296 200.157 126.479 199.969 125.537Z" fill="#263238"/>
<path d="M203.98 121.393C204.92 121.644 205.735 122.021 206.487 122.46C207.239 122.9 208.053 123.402 208.68 124.093C207.74 123.842 206.925 123.465 206.173 123.025C205.359 122.586 204.607 122.083 203.98 121.393Z" fill="#263238"/>
<path d="M205.359 115.741C206.299 115.489 207.176 115.427 208.116 115.427C209.056 115.427 209.933 115.489 210.873 115.741C209.933 115.992 209.056 116.055 208.116 116.055C207.176 116.055 206.236 115.992 205.359 115.741Z" fill="#263238"/>
<path d="M203.729 110.214C204.419 109.523 205.171 109.021 205.923 108.581C206.737 108.142 207.552 107.702 208.429 107.514C207.74 108.204 206.988 108.707 206.236 109.146C205.484 109.586 204.669 109.963 203.729 110.214Z" fill="#263238"/>
<path d="M199.593 106.195C199.844 105.253 200.22 104.436 200.659 103.683C201.097 102.929 201.599 102.113 202.288 101.485C202.037 102.427 201.661 103.243 201.223 103.997C200.721 104.75 200.22 105.504 199.593 106.195Z" fill="#263238"/>
<path d="M360.897 271.359H169.513L144.447 132.006C143.319 125.851 148.081 120.199 154.285 120.199H317.281C326.744 120.199 334.891 126.982 336.583 136.339L360.897 271.359Z" fill="#A176D6"/>
<path d="M348.176 203.66C348.615 203.597 348.991 203.472 349.367 203.346" stroke="#A176D6" stroke-miterlimit="10"/>
<path d="M351.811 202.656C361.399 199.39 369.42 191.854 370.172 182.999C371.864 163.531 348.176 152.792 350.62 130.31C352.939 108.832 375.436 107.325 384.397 110.277C394.361 113.542 390.915 123.151 381.953 121.895C366.349 119.76 356.511 102.741 363.968 83.4612C369.483 69.0172 383.332 63.6164 388.909 61.9836" stroke="#A176D6" stroke-miterlimit="10" stroke-dasharray="4 4"/>
<path d="M390.1 61.6067C390.852 61.4183 391.291 61.2927 391.291 61.2927" stroke="#A176D6" stroke-miterlimit="10"/>
<path d="M401.255 57.9016C399.625 52.9404 388.972 54.6988 391.04 61.23C393.171 67.6984 402.884 62.8628 401.255 57.9016Z" fill="#E9E1FF"/>
<path d="M385.212 55.892C385.275 53.694 388.283 52.0612 392.607 52.8148C396.868 53.5684 400.879 56.4572 400.879 56.4572C400.879 56.4572 396.68 59.032 392.356 59.5344C388.032 59.974 385.149 58.09 385.212 55.892Z" fill="#F6F2FF"/>
<path d="M400.879 56.4572C398.685 56.4572 396.429 56.3944 394.236 56.3316C392.043 56.206 389.787 56.1432 387.593 55.9548C389.787 55.9548 392.043 56.0176 394.236 56.0804C396.492 56.206 398.685 56.2688 400.879 56.4572Z" fill="#E9E1FF"/>
<path d="M389.536 53.9453C390.163 54.2593 390.789 54.5733 391.353 54.9501C391.917 55.3269 392.544 55.7037 393.045 56.1433C392.419 55.8293 391.792 55.5153 391.228 55.1385C390.664 54.7617 390.037 54.3849 389.536 53.9453Z" fill="#E9E1FF"/>
<path d="M395.301 56.2688C394.737 56.7712 394.111 57.148 393.547 57.5248C392.92 57.9016 392.293 58.2784 391.667 58.5924C392.231 58.09 392.857 57.7132 393.421 57.3364C394.048 56.9596 394.674 56.5828 395.301 56.2688Z" fill="#E9E1FF"/>
<path d="M395.991 55.0129C396.304 55.1385 396.617 55.3897 396.868 55.5781C397.119 55.8293 397.369 56.0177 397.62 56.3317C397.307 56.2061 396.993 55.9549 396.743 55.7665C396.429 55.5153 396.179 55.3269 395.991 55.0129Z" fill="#E9E1FF"/>
<path d="M389.285 68.7659C390.601 70.4615 394.048 70.0847 397.056 66.9447C400.064 63.8047 401.631 59.0947 401.631 59.0947C401.631 59.0947 396.68 59.4715 392.92 61.6067C389.223 63.8675 387.969 67.0703 389.285 68.7659Z" fill="#F6F2FF"/>
<path d="M401.693 59.1575C399.876 60.4763 398.121 61.7951 396.367 63.1767C394.612 64.5583 392.857 65.9399 391.165 67.3843C392.983 66.1283 394.737 64.7467 396.492 63.3651C398.247 61.9835 400.001 60.6019 401.693 59.1575Z" fill="#E9E1FF"/>
<path d="M393.923 67.8238C394.299 67.1958 394.549 66.5678 394.8 65.9398C395.051 65.3118 395.301 64.621 395.489 63.9302C395.113 64.5582 394.863 65.1862 394.612 65.8142C394.361 66.505 394.111 67.133 393.923 67.8238Z" fill="#E9E1FF"/>
<path d="M397.307 62.5487C396.555 62.4859 395.865 62.5487 395.113 62.5487C394.361 62.6115 393.672 62.6743 392.92 62.7999C393.672 62.8627 394.361 62.7999 395.113 62.7999C395.803 62.7371 396.555 62.7371 397.307 62.5487Z" fill="#E9E1FF"/>
<path d="M398.497 63.1766C398.685 62.8626 398.811 62.5486 398.873 62.1718C398.936 61.8578 399.061 61.481 399.061 61.1042C398.873 61.4182 398.748 61.7322 398.685 62.109C398.623 62.4858 398.497 62.8626 398.497 63.1766Z" fill="#E9E1FF"/>
<path d="M401.254 57.9017C400.252 58.2157 399.186 57.6505 398.873 56.7085C398.56 55.7037 399.124 54.6361 400.064 54.3221C401.004 54.0081 402.132 54.5733 402.445 55.5153C402.821 56.5201 402.257 57.5877 401.254 57.9017Z" fill="#E9E1FF"/>
<path d="M402.445 61.4813C401.442 61.7953 400.377 61.2301 400.064 60.2881C399.751 59.2833 400.314 58.2157 401.254 57.9017C402.257 57.5877 403.322 58.1529 403.636 59.0949C403.949 60.0997 403.385 61.1673 402.445 61.4813Z" fill="#E9E1FF"/>
<path d="M132.728 97.4656C133.605 106.069 141.313 112.286 149.899 111.407C153.345 111.03 156.416 109.586 158.86 107.388L166.693 108.518L162.808 101.736C163.748 99.4124 164.187 96.8376 163.873 94.2C162.996 85.5964 155.288 79.3792 146.703 80.2584C138.055 81.2004 131.788 88.862 132.728 97.4656Z" fill="white"/>
<path d="M137.365 84.5288C139.057 82.896 141.125 81.5772 143.381 80.8236C145.637 80.07 148.081 79.8816 150.463 80.1956C152.844 80.5096 155.163 81.3888 157.105 82.7076C159.111 84.0264 160.803 85.8476 161.993 87.92C164.437 92.0648 164.876 97.4028 162.933 101.862V101.61L166.819 108.393L167.132 108.895L166.568 108.832L158.735 107.639L158.923 107.576C156.729 109.523 154.035 110.905 151.215 111.407C150.525 111.533 149.773 111.596 149.084 111.658C148.332 111.721 147.643 111.658 146.891 111.596C145.449 111.407 144.008 111.156 142.692 110.591C141.376 110.088 140.06 109.398 138.932 108.518C138.305 108.142 137.804 107.576 137.303 107.137C136.801 106.572 136.3 106.069 135.861 105.504C134.107 103.243 133.041 100.417 132.728 97.5912C132.227 92.7556 133.919 87.8572 137.365 84.5288ZM135.924 105.378C136.363 105.944 136.864 106.446 137.365 107.011C137.929 107.451 138.431 108.016 138.995 108.393C140.123 109.272 141.439 109.9 142.755 110.402C144.071 110.968 145.512 111.156 146.953 111.344C147.643 111.344 148.395 111.407 149.084 111.344C149.773 111.344 150.525 111.219 151.215 111.093C154.035 110.528 156.604 109.146 158.672 107.262L158.735 107.2H158.86L166.693 108.267L166.443 108.707L162.495 101.924L162.432 101.799L162.495 101.673C163.372 99.538 163.748 97.1516 163.623 94.828C163.435 92.5044 162.808 90.2436 161.617 88.234C160.427 86.2244 158.86 84.466 156.917 83.1472C155.037 81.8284 152.781 80.9492 150.463 80.5724C148.144 80.1956 145.763 80.384 143.507 81.0748C141.251 81.7656 139.183 83.0216 137.491 84.6544C134.044 87.92 132.289 92.8184 132.728 97.5284C133.041 100.354 134.107 103.118 135.924 105.378Z" fill="#462C64"/>
<path d="M154.348 104.75C153.408 104.75 152.844 104.06 152.844 103.118C152.844 102.176 153.471 101.485 154.348 101.485C155.225 101.485 155.852 102.176 155.852 103.118C155.852 104.06 155.225 104.75 154.348 104.75ZM153.471 99.4124L153.095 86.978H155.601L155.225 99.4124H153.471Z" fill="#A176D6"/>
<path d="M148.395 104.75C147.455 104.75 146.891 104.06 146.891 103.118C146.891 102.176 147.517 101.485 148.395 101.485C149.272 101.485 149.899 102.176 149.899 103.118C149.899 104.06 149.272 104.75 148.395 104.75ZM147.517 99.4124L147.141 86.978H149.648L149.272 99.4124H147.517Z" fill="#A176D6"/>
<path d="M142.441 104.75C141.501 104.75 140.937 104.06 140.937 103.118C140.937 102.176 141.564 101.485 142.441 101.485C143.319 101.485 143.945 102.176 143.945 103.118C143.945 104.06 143.319 104.75 142.441 104.75ZM141.564 99.4124L141.188 86.978H143.695L143.319 99.4124H141.564Z" fill="#A176D6"/>
</svg>
