<?xml version="1.0" encoding="utf-8"?>
<!-- Generator: Adobe Illustrator 25.2.0, SVG Export Plug-In . SVG Version: 6.00 Build 0)  -->
<svg version="1.1" xmlns="http://www.w3.org/2000/svg" xmlns:xlink="http://www.w3.org/1999/xlink" x="0px" y="0px"
	 viewBox="0 0 500 435.5" style="enable-background:new 0 0 500 435.5;" xml:space="preserve">
<style type="text/css">
	.st0{fill:#E7CCFF;}
	.st1{fill:#F2E6FF;}
	.st2{fill:#3B3E7D;}
	.st3{fill:#18285D;}
	.st4{fill:#FFFFFF;}
	.st5{fill:#60327C;}
	.st6{fill:#B177DB;}
	.st7{fill:#E9E2E8;}
	.st8{display:none;fill:#E9E2E8;}
	.st9{display:none;}
	.st10{display:inline;}
	.st11{fill:#007CE6;}
	.st12{fill:#005EC9;}
	.st13{opacity:0.2;fill:#FFFFFF;}
	.st14{opacity:0.3;fill:#B177DB;}
	.st15{opacity:0.2;fill:#B177DB;}
	.st16{opacity:0.3;fill:#FFFFFF;}
	.st17{fill:#4C2866;}
</style>
<g id="BACKGROUND">
</g>
<g id="OBJECTS">
	<g>
		<path class="st0" d="M317.1,68.6c0,1.4-0.6,2.7-1.5,3.6c-0.9,0.9-2.2,1.5-3.6,1.5H201.8c-2.8,0-5.1-2.3-5.1-5.2
			c0-1.4,0.6-2.7,1.5-3.6c0.9-0.9,2.2-1.5,3.6-1.5h5.2c2.1-4.8,6.8-8.1,12.3-8.1c3.7,0,7.1,1.5,9.5,4c3.2-5.5,9.2-9.2,16.1-9.2
			c1.9,0,3.7,0.3,5.4,0.8c3.6-6.7,10.7-11.3,18.8-11.3c9.8,0,18.1,6.6,20.5,15.6c1.8-0.9,3.8-1.4,6-1.4c6.1,0,11.3,4.1,12.9,9.7h3.3
			C314.8,63.5,317.1,65.8,317.1,68.6z"/>
		<path class="st0" d="M163.7,49.1c0,1-0.4,2-1.1,2.7c-0.7,0.7-1.6,1.1-2.7,1.1h-81c-2.1,0-3.8-1.7-3.8-3.8c0-1,0.4-2,1.1-2.7
			c0.7-0.7,1.6-1.1,2.7-1.1h3.8c1.5-3.5,5-6,9.1-6c2.7,0,5.2,1.1,7,2.9c2.4-4,6.8-6.8,11.8-6.8c1.4,0,2.7,0.2,4,0.6
			c2.6-5,7.8-8.3,13.8-8.3c7.2,0,13.3,4.9,15.1,11.5c1.3-0.7,2.8-1,4.4-1c4.5,0,8.3,3,9.5,7.1h2.4C161.9,45.3,163.7,47.1,163.7,49.1
			z"/>
		<path class="st0" d="M437.9,44.6c0,1-0.4,2-1.1,2.7c-0.7,0.7-1.6,1.1-2.7,1.1h-81c-2.1,0-3.8-1.7-3.8-3.8c0-1,0.4-2,1.1-2.7
			c0.7-0.7,1.6-1.1,2.7-1.1h3.8c1.5-3.5,5-6,9.1-6c2.7,0,5.2,1.1,7,2.9c2.4-4,6.8-6.8,11.8-6.8c1.4,0,2.7,0.2,4,0.6
			c2.6-5,7.8-8.3,13.8-8.3c7.2,0,13.3,4.9,15.1,11.5c1.3-0.7,2.8-1,4.4-1c4.5,0,8.3,3,9.5,7.1h2.4C436.2,40.8,437.9,42.5,437.9,44.6
			z"/>
		<path class="st0" d="M453.9,212.7c-1.4,0.3-2.7,0.7-4,1.4l-4.2-4.7l-5.1,4.6l4,4.5c-0.9,1.2-1.7,2.6-2.2,4l-7-0.4L435,229l6.5,0.3
			c0.2,1.9,0.7,3.8,1.6,5.6l-4.7,4.2l4.6,5.1l4.5-4c1.5,1.1,3.1,1.9,4.8,2.4l-0.3,5.8l6.9,0.4l0.3-5.6c2-0.3,4-1,5.8-2.1l4,4.5
			l5.1-4.6l-4.2-4.7c0.8-1.2,1.4-2.5,1.8-3.8l6.6,0.3l0.4-6.9l-6.4-0.3c-0.3-2-1-4-2.1-5.8l4.5-4l-4.6-5.1l-4.7,4.2
			c-1.4-0.9-3-1.6-4.6-2l0.3-6.4l-6.9-0.4L453.9,212.7z M461.6,223.7c2.3,2.6,2.1,6.6-0.5,8.9c-2.6,2.3-6.6,2.1-8.9-0.5
			c-2.3-2.6-2.1-6.6,0.5-8.9C455.3,220.9,459.3,221.1,461.6,223.7z"/>
		<path class="st0" d="M69.7,127.2c-1.4,0.3-2.7,0.7-4,1.4l-4.2-4.7l-5.1,4.6l4,4.5c-0.9,1.2-1.7,2.6-2.2,4l-7-0.4l-0.4,6.9l6.5,0.3
			c0.2,1.9,0.7,3.8,1.6,5.6l-4.7,4.2l4.6,5.1l4.5-4c1.5,1.1,3.1,1.9,4.8,2.4l-0.3,5.8l6.9,0.4l0.3-5.6c2-0.3,4-1,5.8-2.1l4,4.5
			l5.1-4.6l-4.2-4.7c0.8-1.2,1.4-2.5,1.8-3.8l6.6,0.3l0.4-6.9l-6.4-0.3c-0.3-2-1-4-2.1-5.8l4.5-4l-4.6-5.1l-4.7,4.2
			c-1.4-0.9-3-1.6-4.6-2l0.3-6.4l-6.9-0.4L69.7,127.2z M77.4,138.2c2.3,2.6,2.1,6.6-0.5,8.9c-2.6,2.3-6.6,2.1-8.9-0.5
			c-2.3-2.6-2.1-6.6,0.5-8.9C71.1,135.4,75.1,135.6,77.4,138.2z"/>
		<path class="st0" d="M446.5,182.9c-0.7,0.1-1.5,0.4-2.2,0.8l-2.3-2.5l-2.8,2.5l2.2,2.4c-0.5,0.7-0.9,1.4-1.2,2.2l-3.8-0.2
			l-0.2,3.8l3.5,0.2c0.1,1.1,0.4,2.1,0.9,3.1l-2.6,2.3l2.5,2.8l2.4-2.2c0.8,0.6,1.7,1.1,2.6,1.3l-0.2,3.2l3.8,0.2l0.2-3.1
			c1.1-0.2,2.2-0.5,3.2-1.1l2.2,2.4l2.8-2.5l-2.3-2.6c0.4-0.7,0.7-1.3,1-2.1l3.6,0.2l0.2-3.8l-3.5-0.2c-0.2-1.1-0.5-2.2-1.1-3.2
			l2.4-2.2l-2.5-2.8l-2.5,2.3c-0.8-0.5-1.6-0.9-2.5-1.1l0.2-3.5l-3.8-0.2L446.5,182.9z M450.7,188.9c1.3,1.4,1.2,3.6-0.3,4.9
			c-1.4,1.3-3.6,1.2-4.9-0.3c-1.3-1.4-1.2-3.6,0.3-4.9C447.2,187.4,449.4,187.5,450.7,188.9z"/>
		<path class="st0" d="M44.3,172.5c-0.7,0.1-1.5,0.4-2.2,0.8l-2.3-2.5l-2.8,2.5l2.2,2.4c-0.5,0.7-0.9,1.4-1.2,2.2l-3.8-0.2l-0.2,3.8
			l3.5,0.2c0.1,1.1,0.4,2.1,0.9,3.1l-2.5,2.3l2.5,2.8l2.4-2.2c0.8,0.6,1.7,1.1,2.6,1.3l-0.2,3.2l3.8,0.2l0.2-3.1
			c1.1-0.2,2.2-0.5,3.2-1.1l2.2,2.4l2.8-2.5l-2.3-2.6c0.4-0.7,0.7-1.3,1-2.1l3.6,0.2l0.2-3.8l-3.5-0.2c-0.2-1.1-0.5-2.2-1.1-3.2
			l2.4-2.2l-2.5-2.8l-2.5,2.3c-0.8-0.5-1.6-0.9-2.5-1.1l0.2-3.5l-3.8-0.2L44.3,172.5z M48.5,178.4c1.3,1.4,1.2,3.6-0.3,4.9
			c-1.4,1.3-3.6,1.2-4.9-0.3c-1.3-1.4-1.2-3.6,0.3-4.9C45.1,176.9,47.3,177,48.5,178.4z"/>
	</g>
	<ellipse class="st1" cx="240.3" cy="402.5" rx="219.4" ry="16.3"/>
	<g>
		<g>
			<g>
				<path class="st0" d="M386.9,182.4c0,3.3-2.7,5.9-5.9,5.9c-3.3,0-5.9-2.7-5.9-5.9s2.7-5.9,5.9-5.9
					C384.2,176.5,386.9,179.1,386.9,182.4z M385,182.4c0-2.2-1.8-4.1-4.1-4.1c-2.2,0-4.1,1.8-4.1,4.1c0,2.2,1.8,4.1,4.1,4.1
					C383.2,186.5,385,184.6,385,182.4z"/>
			</g>
			<g>
				<g>
					<path class="st0" d="M413,165.1c0,3.3-2.7,5.9-5.9,5.9c-3.3,0-5.9-2.7-5.9-5.9s2.7-5.9,5.9-5.9
						C410.3,159.2,413,161.9,413,165.1z M411.1,165.1c0-2.2-1.8-4.1-4.1-4.1c-2.2,0-4.1,1.8-4.1,4.1c0,2.2,1.8,4.1,4.1,4.1
						C409.3,169.2,411.1,167.4,411.1,165.1z"/>
				</g>
			</g>
			<g>
				<g>
					<g>
						<path class="st0" d="M409.6,142.8c-0.5,0-0.9,0.4-0.9,0.9v4.1c0,0.5,0.4,0.9,0.9,0.9s0.9-0.4,0.9-0.9v-4.1
							C410.6,143.2,410.2,142.8,409.6,142.8z"/>
					</g>
					<g>
						<path class="st0" d="M409.6,135.6c-0.5,0-0.9,0.4-0.9,0.9v4.1c0,0.5,0.4,0.9,0.9,0.9s0.9-0.4,0.9-0.9v-4.1
							C410.6,136,410.2,135.6,409.6,135.6z"/>
					</g>
				</g>
				<g>
					<g>
						<path class="st0" d="M415.4,141.2h-3.7c-0.5,0-0.9,0.4-0.9,0.9c0,0.5,0.4,0.9,0.9,0.9h3.7c0.5,0,0.9-0.4,0.9-0.9
							C416.3,141.7,415.9,141.2,415.4,141.2z"/>
					</g>
					<g>
						<path class="st0" d="M407.6,141.2h-3.7c-0.5,0-0.9,0.4-0.9,0.9c0,0.5,0.4,0.9,0.9,0.9h3.7c0.5,0,0.9-0.4,0.9-0.9
							C408.5,141.7,408.1,141.2,407.6,141.2z"/>
					</g>
				</g>
			</g>
			<g>
				<g>
					<g>
						<g>
							<path class="st0" d="M377.6,158.2c-0.5,0-0.9,0.4-0.9,0.9v4.1c0,0.5,0.4,0.9,0.9,0.9c0.5,0,0.9-0.4,0.9-0.9v-4.1
								C378.5,158.7,378.1,158.2,377.6,158.2z"/>
						</g>
						<g>
							<path class="st0" d="M377.6,151.1c-0.5,0-0.9,0.4-0.9,0.9v4.1c0,0.5,0.4,0.9,0.9,0.9c0.5,0,0.9-0.4,0.9-0.9V152
								C378.5,151.5,378.1,151.1,377.6,151.1z"/>
						</g>
					</g>
					<g>
						<g>
							<path class="st0" d="M383.3,156.7h-3.7c-0.5,0-0.9,0.4-0.9,0.9c0,0.5,0.4,0.9,0.9,0.9h3.7c0.5,0,0.9-0.4,0.9-0.9
								C384.3,157.1,383.8,156.7,383.3,156.7z"/>
						</g>
						<g>
							<path class="st0" d="M375.5,156.7h-3.7c-0.5,0-0.9,0.4-0.9,0.9c0,0.5,0.4,0.9,0.9,0.9h3.7c0.5,0,0.9-0.4,0.9-0.9
								C376.4,157.1,376,156.7,375.5,156.7z"/>
						</g>
					</g>
				</g>
			</g>
		</g>
		<g>
			<g>
				<g>
					<path class="st0" d="M120.4,79.7c-3.3,0-5.9-2.7-5.9-5.9c0-3.3,2.7-5.9,5.9-5.9c3.3,0,5.9,2.7,5.9,5.9
						C126.3,77.1,123.7,79.7,120.4,79.7z M120.4,77.9c2.2,0,4.1-1.8,4.1-4.1c0-2.2-1.8-4.1-4.1-4.1c-2.2,0-4.1,1.8-4.1,4.1
						C116.4,76,118.2,77.9,120.4,77.9z"/>
				</g>
			</g>
			<g>
				<g>
					<path class="st0" d="M137.3,99.3c-3.3,0-5.9-2.7-5.9-5.9c0-3.3,2.7-5.9,5.9-5.9c3.3,0,5.9,2.7,5.9,5.9
						C143.3,96.6,140.6,99.3,137.3,99.3z M137.3,97.4c2.2,0,4.1-1.8,4.1-4.1c0-2.2-1.8-4.1-4.1-4.1c-2.2,0-4.1,1.8-4.1,4.1
						C133.3,95.6,135.1,97.4,137.3,97.4z"/>
				</g>
			</g>
			<g>
				<g>
					<g>
						<path class="st0" d="M152.4,69.5c0-0.5-0.4-0.9-0.9-0.9h-4.1c-0.5,0-0.9,0.4-0.9,0.9c0,0.5,0.4,0.9,0.9,0.9h4.1
							C152,70.4,152.4,70,152.4,69.5z"/>
					</g>
					<g>
						<path class="st0" d="M159.6,69.5c0-0.5-0.4-0.9-0.9-0.9h-4.1c-0.5,0-0.9,0.4-0.9,0.9c0,0.5,0.4,0.9,0.9,0.9h4.1
							C159.2,70.4,159.6,70,159.6,69.5z"/>
					</g>
				</g>
				<g>
					<g>
						<path class="st0" d="M153.9,75.3v-3.7c0-0.5-0.4-0.9-0.9-0.9c-0.5,0-0.9,0.4-0.9,0.9v3.7c0,0.5,0.4,0.9,0.9,0.9
							C153.5,76.2,153.9,75.8,153.9,75.3z"/>
					</g>
					<g>
						<path class="st0" d="M153.9,67.4v-3.7c0-0.5-0.4-0.9-0.9-0.9c-0.5,0-0.9,0.4-0.9,0.9v3.7c0,0.5,0.4,0.9,0.9,0.9
							C153.5,68.4,153.9,67.9,153.9,67.4z"/>
					</g>
				</g>
			</g>
			<g>
				<g>
					<g>
						<g>
							<path class="st0" d="M105.9,104.1c0-0.5-0.4-0.9-0.9-0.9h-4.1c-0.5,0-0.9,0.4-0.9,0.9c0,0.5,0.4,0.9,0.9,0.9h4.1
								C105.5,105,105.9,104.6,105.9,104.1z"/>
						</g>
						<g>
							<g>
								<path class="st0" d="M113.1,104.1c0-0.5-0.4-0.9-0.9-0.9h-4.1c-0.5,0-0.9,0.4-0.9,0.9c0,0.5,0.4,0.9,0.9,0.9h4.1
									C112.7,105,113.1,104.6,113.1,104.1z"/>
							</g>
						</g>
					</g>
					<g>
						<g>
							<path class="st0" d="M107.4,109.8v-3.7c0-0.5-0.4-0.9-0.9-0.9c-0.5,0-0.9,0.4-0.9,0.9v3.7c0,0.5,0.4,0.9,0.9,0.9
								C107,110.8,107.4,110.4,107.4,109.8z"/>
						</g>
						<g>
							<path class="st0" d="M107.4,102v-3.7c0-0.5-0.4-0.9-0.9-0.9c-0.5,0-0.9,0.4-0.9,0.9v3.7c0,0.5,0.4,0.9,0.9,0.9
								C107,103,107.4,102.5,107.4,102z"/>
						</g>
					</g>
				</g>
			</g>
		</g>
	</g>
	<g>
		<g>
			<g>
				<path class="st0" d="M327.1,125.7l2.4,1.4l1.3,0.7l3.6,2.1c0,0,67.2-33.6,58.6-64.3c-2.6-9.5-16.4-11.9-30.2,14.7
					C349.8,105,327.1,125.7,327.1,125.7z"/>
				<g>
					<path class="st0" d="M329.4,127.1l1.3,0.7c14.1-9.5,26.1-21.9,33.9-30.9c9.3-10.7,14.9-19.2,15-19.3c0.2-0.3,0.1-0.7-0.2-0.9
						c-0.3-0.2-0.7-0.1-0.9,0.2c-0.1,0.1-5.6,8.5-14.9,19.2C355.7,105.2,343.6,117.6,329.4,127.1z"/>
				</g>
			</g>
			<g>
				<path class="st0" d="M314.8,133.7l2.2,3.1l1.2,1.6l3.4,4.6c0,0,103.6-6,109.5-49.6c1.8-13.4-14.3-24.1-46.4,2.2
					C354.9,119.8,314.8,133.7,314.8,133.7z"/>
				<g>
					<path class="st0" d="M317,136.7l1.2,1.6c23.1-4.4,45.1-13.5,59.9-20.7c17.6-8.5,29.4-16.3,29.5-16.3c0.4-0.3,0.5-0.8,0.3-1.3
						c-0.3-0.4-0.8-0.5-1.3-0.3c-0.1,0.1-11.8,7.8-29.4,16.2C362.3,123.3,340.2,132.4,317,136.7z"/>
				</g>
			</g>
		</g>
		<g>
			<g>
				<path class="st0" d="M189.3,352.2l-2.4,1.4l-1.3,0.7l-3.6,2.1c0,0-67-34-58.2-64.7c2.7-9.4,16.4-11.8,30.1,14.9
					C166.7,331.3,189.3,352.2,189.3,352.2z"/>
				<g>
					<path class="st0" d="M186.9,353.6l-1.3,0.7c-14.1-9.6-26-22-33.7-31.1c-9.2-10.8-14.8-19.3-14.9-19.4c-0.2-0.3-0.1-0.7,0.2-0.9
						c0.3-0.2,0.7-0.1,0.9,0.2c0.1,0.1,5.6,8.6,14.8,19.3C160.8,331.5,172.8,344,186.9,353.6z"/>
				</g>
			</g>
			<g>
				<path class="st0" d="M201.6,360.2l-2.3,3.1l-1.2,1.6l-3.4,4.6c0,0-103.6-6.6-109.2-50.3c-1.7-13.4,14.4-24,46.4,2.5
					C161.5,346.1,201.6,360.2,201.6,360.2z"/>
				<g>
					<path class="st0" d="M199.3,363.3l-1.2,1.6c-23.1-4.6-45-13.8-59.8-21c-17.6-8.6-29.3-16.4-29.4-16.5c-0.4-0.3-0.5-0.8-0.3-1.3
						c0.3-0.4,0.8-0.5,1.3-0.3c0.1,0.1,11.8,7.8,29.3,16.4C154,349.5,176.1,358.8,199.3,363.3z"/>
				</g>
			</g>
		</g>
		<g>
			<g>
				<path class="st0" d="M328.3,309.6c13.1-16.9,25.8-35.2,32.8-48.4c9.1-17.2,12.8-31,10.8-41c-0.1-0.7-0.8-1.1-1.4-1
					c-0.7,0.1-1.1,0.8-1,1.4c3.3,17.5-11.9,48-44,88.5L328.3,309.6z"/>
			</g>
			<path class="st0" d="M367.8,245.2c0,0,8.5,5.7,17.9-9.6C385.7,235.6,370.3,230.6,367.8,245.2z"/>
			<path class="st0" d="M363.4,253.3c0,0,6.2-8.1-8.6-18.4C354.8,234.9,348.9,250,363.4,253.3z"/>
			<path class="st0" d="M371,228.1c0,0,8.5-5.6-1.9-20.2C369,207.9,358.4,220.2,371,228.1z"/>
			<path class="st0" d="M354.9,269.9c0,0,6,8.2,20.1-3C375,267,362.2,257,354.9,269.9z"/>
			<path class="st0" d="M349.1,277.5c0,0,7.5-7-5.3-19.6C343.9,257.9,335.5,271.8,349.1,277.5z"/>
			<path class="st0" d="M342.2,288.7c0,0,5.9,8.3,20.1-2.6C362.4,286.1,349.8,275.9,342.2,288.7z"/>
		</g>
		<g>
			<g>
				<path class="st0" d="M182.8,204.6c-17.3-12.5-34.7-26.5-45.1-37.2c-13.6-13.9-21-26.1-22-36.2c-0.1-0.7,0.4-1.3,1.1-1.3
					c0.7-0.1,1.3,0.4,1.3,1.1c1.7,17.7,25,42.7,67.2,72.5L182.8,204.6z"/>
			</g>
			<path class="st0" d="M126.6,154c0,0-6.5,7.9-19.9-4.1C106.7,149.9,120.1,140.7,126.6,154z"/>
			<path class="st0" d="M133.1,160.5c0,0-8.2-6.1,3-20.1C136.2,140.4,146.1,153.3,133.1,160.5z"/>
			<path class="st0" d="M118.7,138.5c0,0-9.8-3-3.8-19.9C114.9,118.6,128.5,127.4,118.7,138.5z"/>
			<path class="st0" d="M146,174.1c0,0-3.5,9.6-20.1,2.8C125.9,176.9,135.3,163.7,146,174.1z"/>
			<path class="st0" d="M153.7,179.7c0,0-9.1-4.6-0.5-20.3C153.2,159.4,165.2,170.4,153.7,179.7z"/>
			<path class="st0" d="M163.4,188.5c0,0-3.3,9.7-20,3.2C143.4,191.7,152.6,178.4,163.4,188.5z"/>
		</g>
	</g>
	<g>
		<g>
			<g>
				<g>
					<g>
						<path class="st2" d="M348.2,100v285.3c0,8.9-7.2,16.2-16.2,16.2H189.9c-4.5,0-8.6-1.8-11.5-4.8c-2.9-2.9-4.7-7-4.7-11.4V100
							c0-8.9,7.2-16.2,16.2-16.2H332c2.6,0,5.1,0.6,7.3,1.8C344.6,88.3,348.2,93.7,348.2,100z"/>
					</g>
				</g>
				<g>
					<g>
						<path class="st3" d="M342.2,100v285.3c0,8.9-7.2,16.2-16.2,16.2H183.9c-4.5,0-8.6-1.8-11.5-4.8c-2.9-2.9-4.7-7-4.7-11.4V100
							c0-8.9,7.2-16.2,16.2-16.2H326c2.6,0,5.1,0.6,7.3,1.8C338.6,88.3,342.2,93.7,342.2,100z"/>
					</g>
				</g>
				<g>
					<g>
						<path class="st3" d="M345.2,154h2.2c2.1,0,3.8-1.7,3.8-3.8V132c0-2.1-1.7-3.8-3.8-3.8h-2.2V154z"/>
					</g>
				</g>
				<g>
					<g>
						<path class="st3" d="M167.7,154h-1.8c-1.6,0-3-1.3-3-3v-19.8c0-1.6,1.3-3,3-3h1.8V154z"/>
					</g>
				</g>
				<g>
					<g>
						<path class="st3" d="M167.7,187.8h-1.8c-1.6,0-3-1.3-3-3V165c0-1.6,1.3-3,3-3h1.8V187.8z"/>
					</g>
				</g>
				<g>
					<path class="st4" d="M334.1,99v287.3c0,3.9-3.2,7.1-7.1,7.1h-144c-2.9,0-5.5-1.8-6.6-4.3c-0.4-0.9-0.6-1.8-0.6-2.8V99
						c0-3.9,3.2-7.1,7.1-7.1h144c0.5,0,0.9,0,1.4,0.1c0.5,0.1,1,0.2,1.4,0.4c2.2,1,3.8,3,4.2,5.4C334.1,98.2,334.1,98.6,334.1,99z"
						/>
				</g>
				<g>
					<path class="st5" d="M298.4,340.6v25.8c0,1.7-1.5,3.2-3.4,3.2h-76.3c-1.9,0-3.4-1.4-3.4-3.2v-25.8c0-1.7,1.5-3.2,3.4-3.2H295
						C296.9,337.4,298.4,338.9,298.4,340.6z"/>
					<g>
						<g>
							<path class="st6" d="M248.6,351.4c0,3.8-2.9,6.1-7.4,6.1h-2.3v4h-5.5v-16.3h7.8C245.8,345.3,248.6,347.7,248.6,351.4z
								 M243.1,351.4c0-1.2-0.7-1.9-2.2-1.9h-2v3.8h2C242.4,353.3,243.1,352.6,243.1,351.4z"/>
							<path class="st6" d="M260.7,358.7h-6.2l-1.1,2.8h-5.6l7.1-16.3h5.4l7.1,16.3h-5.7L260.7,358.7z M259.2,354.8l-1.6-4.1
								l-1.6,4.1H259.2z"/>
							<path class="st6" d="M277,355.6v5.9h-5.5v-6l-6.1-10.3h5.8l3.3,5.6l3.3-5.6h5.3L277,355.6z"/>
						</g>
						<g>
							<path class="st4" d="M247.1,351.4c0,3.8-2.9,6.1-7.4,6.1h-2.3v4h-5.5v-16.3h7.8C244.2,345.3,247.1,347.7,247.1,351.4z
								 M241.6,351.4c0-1.2-0.7-1.9-2.2-1.9h-2v3.8h2C240.9,353.3,241.6,352.6,241.6,351.4z"/>
							<path class="st4" d="M259.2,358.7H253l-1.1,2.8h-5.6l7.1-16.3h5.4l7.1,16.3h-5.7L259.2,358.7z M257.7,354.8l-1.6-4.1
								l-1.6,4.1H257.7z"/>
							<path class="st4" d="M275.4,355.6v5.9H270v-6l-6.1-10.3h5.8l3.3,5.6l3.3-5.6h5.3L275.4,355.6z"/>
						</g>
					</g>
				</g>
			</g>
			<g>
				<rect x="176.2" y="180.5" class="st7" width="72.1" height="127.5"/>
			</g>
			<g>
				<g>
					<path class="st3" d="M270.8,170.6v132.5c0,6.1-4,11.3-9.5,13.2c-1.4,0.5-2.9,0.7-4.4,0.7c-7.6,0-13.9-6.3-13.9-13.9V170.6
						c0-7.6,6.3-13.9,13.9-13.9c1.5,0,3,0.3,4.4,0.7c2.1,0.7,3.9,1.9,5.4,3.4C269.2,163.3,270.8,166.8,270.8,170.6z"/>
				</g>
				<g>
					<path class="st2" d="M270.8,170.6v132.5c0,6.1-4,11.3-9.5,13.2c-5.5-1.8-9.5-7.1-9.5-13.2V170.6c0-6.1,4-11.3,9.5-13.2
						c2.1,0.7,3.9,1.9,5.4,3.4C269.2,163.3,270.8,166.8,270.8,170.6z"/>
				</g>
			</g>
			<path class="st8" d="M334.1,99v29.5H175.8V99c0-3.9,3.2-7.1,7.1-7.1h144c0.5,0,0.9,0,1.4,0.1c0.5,0.1,1,0.2,1.4,0.4
				c2.2,1,3.8,3,4.2,5.4C334.1,98.2,334.1,98.6,334.1,99z"/>
			<g class="st9">
				<g class="st10">
					<path class="st11" d="M171.7,129.6L171.7,129.6l0,9.9c0,4.1-1.7,7.8-4.3,10.5c-2.7,2.7-6.4,4.3-10.5,4.3
						c-7.6,0-13.9-5.8-14.8-13.2c-0.1-0.5-0.1-1.1-0.1-1.7v-9.7l36.2-36.2c1.1-1.1,2.5-1.7,4-1.7h26.5L171.7,129.6z"/>
					<path class="st12" d="M171.7,129.6l0,9.9c0,4.1-1.7,7.8-4.3,10.5c-2.7,2.7-6.4,4.3-10.5,4.3c-7.6,0-13.9-5.8-14.8-13.2
						l-0.1-11.3L171.7,129.6L171.7,129.6z"/>
				</g>
				<g class="st10">
					<path class="st11" d="M268.2,91.9L231.1,129v10.5c0,4.1-1.7,7.8-4.3,10.5c-2.7,2.7-6.4,4.3-10.5,4.3c-8.2,0-14.8-6.6-14.8-14.8
						l0-10.2l37.1-37.4H268.2z"/>
					<path class="st12" d="M231.1,129.1v10.4c0,4.1-1.7,7.8-4.3,10.5c-2.7,2.7-6.4,4.3-10.5,4.3c-8.2,0-14.8-6.6-14.8-14.8l0-10.2
						L231.1,129.1z"/>
				</g>
				<g class="st10">
					<path class="st11" d="M291.4,128.6l0,10.9c0,4.1-1.7,7.8-4.3,10.5c-2.7,2.7-6.4,4.3-10.5,4.3c-8.2,0-15.8-6.6-15.8-14.8
						l0.1-10.5l0.2-0.2l36.9-36.9h30.6L291.4,128.6z"/>
					<path class="st12" d="M291.4,139.5c0,4.1-1.7,7.8-4.3,10.5c-2.7,2.7-6.4,4.3-10.5,4.3c-8.2,0-15.8-6.6-15.8-14.8l0.1-10.5
						l0.2-0.2l30.4-0.3L291.4,139.5z"/>
				</g>
				<g class="st10">
					<path class="st4" d="M321.1,128.3L321.1,128.3l0,11.2c0,4.1-1.7,7.8-4.4,10.5c-2.7,2.7-6.4,4.3-10.5,4.3
						c-8.2,0-14.8-6.6-14.8-14.8v-10.9l37-36.5c0.5,0.1,1,0.2,1.4,0.4c2.2,1,3.8,3,4.2,5.4c0.1,0.4,0.1,0.8,0.1,1.2v16.5
						L321.1,128.3z"/>
				</g>
				<g class="st10">
					<path class="st7" d="M321.1,139.5c0,4.1-1.7,7.8-4.3,10.5c-2.7,2.7-6.4,4.3-10.5,4.3c-8.2,0-14.8-6.6-14.8-14.8v-10.9l29.7-0.2
						L321.1,139.5z"/>
				</g>
				<g class="st10">
					<path class="st4" d="M238.5,91.9l-37.1,37.4v10.2c0,4.1-1.7,7.8-4.3,10.5c-2.7,2.7-6.4,4.3-10.5,4.3c-8.2,0-14.8-6.6-14.8-14.8
						v-9.9l0-0.1l37-37.7H238.5z"/>
					<g>
						<path class="st7" d="M201.4,129.3v10.2c0,4.1-1.7,7.8-4.3,10.5c-2.7,2.7-6.4,4.3-10.5,4.3c-8.2,0-14.8-6.6-14.8-14.8v-9.9
							l0-0.1L201.4,129.3z"/>
					</g>
				</g>
				<g class="st10">
					<path class="st4" d="M297.9,91.9L260.8,129v10.5c0,4.1-1.7,7.8-4.3,10.5c-2.7,2.7-6.4,4.3-10.5,4.3c-8.2,0-14.8-6.6-14.8-14.8
						V129l37.1-37.1H297.9z"/>
					<g>
						<path class="st7" d="M260.9,128.8l-0.2,0.2v10.5c0,4.1-1.7,7.8-4.3,10.5c-2.7,2.7-6.4,4.3-10.5,4.3c-8.2,0-14.8-6.6-14.8-14.8
							v-10.4L260.9,128.8z"/>
					</g>
				</g>
			</g>
		</g>
	</g>
	<g>
		<g>
			<path class="st5" d="M265,182.1v109.7c0,4.9-4,8.9-8.9,8.9H69.8c-2.2,0-4.3-0.8-5.8-2.2c-1.9-1.6-3.1-4.1-3.1-6.8V182.1
				c0-4.9,4-8.9,8.9-8.9H256C261,173.2,265,177.2,265,182.1z"/>
			<g>
				<rect x="60.8" y="195.7" class="st2" width="204.1" height="24.3"/>
			</g>
			<path class="st6" d="M246,284.2h-39.5c-2.3,0-4.2-1.9-4.2-4.2v-8.3c0-2.3,1.9-4.2,4.2-4.2H246c2.3,0,4.2,1.9,4.2,4.2v8.3
				C250.2,282.3,248.3,284.2,246,284.2z"/>
			<g>
				<path class="st6" d="M87.2,248.9H73.8c-0.6,0-1.1-0.5-1.1-1.1v-7c0-0.6,0.5-1.1,1.1-1.1h13.5c0.6,0,1.1,0.5,1.1,1.1v7
					C88.3,248.4,87.8,248.9,87.2,248.9z"/>
				<path class="st6" d="M114.7,248.9h-13.5c-0.6,0-1.1-0.5-1.1-1.1v-7c0-0.6,0.5-1.1,1.1-1.1h13.5c0.6,0,1.1,0.5,1.1,1.1v7
					C115.8,248.4,115.3,248.9,114.7,248.9z"/>
				<path class="st6" d="M142.2,248.9h-13.5c-0.6,0-1.1-0.5-1.1-1.1v-7c0-0.6,0.5-1.1,1.1-1.1h13.5c0.6,0,1.1,0.5,1.1,1.1v7
					C143.2,248.4,142.7,248.9,142.2,248.9z"/>
				<path class="st6" d="M169.6,248.9h-13.5c-0.6,0-1.1-0.5-1.1-1.1v-7c0-0.6,0.5-1.1,1.1-1.1h13.5c0.6,0,1.1,0.5,1.1,1.1v7
					C170.7,248.4,170.2,248.9,169.6,248.9z"/>
				<path class="st6" d="M197.1,248.9h-13.5c-0.6,0-1.1-0.5-1.1-1.1v-7c0-0.6,0.5-1.1,1.1-1.1h13.5c0.6,0,1.1,0.5,1.1,1.1v7
					C198.2,248.4,197.7,248.9,197.1,248.9z"/>
				<path class="st6" d="M224.6,248.9h-13.5c-0.6,0-1.1-0.5-1.1-1.1v-7c0-0.6,0.5-1.1,1.1-1.1h13.5c0.6,0,1.1,0.5,1.1,1.1v7
					C225.6,248.4,225.2,248.9,224.6,248.9z"/>
				<path class="st6" d="M252,248.9h-13.5c-0.6,0-1.1-0.5-1.1-1.1v-7c0-0.6,0.5-1.1,1.1-1.1H252c0.6,0,1.1,0.5,1.1,1.1v7
					C253.1,248.4,252.6,248.9,252,248.9z"/>
			</g>
			<rect x="60.8" y="182.8" class="st6" width="204.1" height="4.7"/>
			<path class="st6" d="M93.2,286.6H79.6c-3.8,0-6.9-3.1-6.9-6.9v-13.6c0-3.8,3.1-6.9,6.9-6.9h13.6c3.8,0,6.9,3.1,6.9,6.9v13.6
				C100.2,283.5,97.1,286.6,93.2,286.6z"/>
			<path class="st6" d="M193.3,279.6h-84.2c-1.3,0-2.4-1.1-2.4-2.4v-2.8c0-1.3,1.1-2.4,2.4-2.4h84.2c1.3,0,2.4,1.1,2.4,2.4v2.8
				C195.6,278.5,194.6,279.6,193.3,279.6z"/>
			<path class="st13" d="M189.3,173.2L64,298.5c-1.9-1.6-3.1-4.1-3.1-6.8v-38.5l80.1-80.1H189.3z"/>
			<polygon class="st13" points="255.6,173.2 128.1,300.7 104.4,300.7 232,173.2 			"/>
		</g>
	</g>
	<g>
		<g>
			<path class="st5" d="M417.1,404.2H399c-2.5,0-4.6-2.8-5.4-6.9l-7.7-41.6c-0.3-1.7,0.4-3.5,1.4-3.6c14-1.9,27.8-1.9,41.5,0
				c1,0.1,1.7,1.9,1.4,3.6l-7.7,41.6C421.7,401.4,419.6,404.2,417.1,404.2z"/>
			<g>
				<ellipse class="st3" cx="408.2" cy="354.2" rx="19.9" ry="2.2"/>
			</g>
			<path class="st6" d="M442.4,299c-10.9-2.9-27.5,19.7-32.5,41.7v-32.1c2.5-4.5,7.4-11.3,16.1-18.4c13.7-11.1,26.2-25.4,15.3-28.3
				c-10.2-2.7-25.5,17-31.5,37.7v-41.2c1.8-2.7,4.6-6.3,9.2-10.1c8.6-7,16.5-16,9.7-17.8c-6-1.6-14.6,9-18.9,20.9v-13.3
				c0.7-4.1,1.7-10,4.4-16c6.3-14,9.7-28.3,1.4-27.3c-8.4,1.1-13.8,25.9-9.2,45v6.9c-3.1-14-13.7-28.4-20.6-26.6
				c-6.9,1.8,1.1,10.8,9.7,17.8c6.5,5.3,9.6,10.3,10.9,13v32.4c-4.9-22.1-21.7-44.9-32.6-42.1c-10.9,2.9,1.7,17.1,15.3,28.3
				c10.3,8.4,15.2,16.3,17.3,20.6v38.9c-5.3-21.7-21.6-43.6-32.3-40.8c-10.9,2.9-1.6,13.3,13.8,25.9c10.4,8.6,16,17.6,18.5,22.5
				v18.3c1.2,0.3,2.4,0.3,3.4,0v-7.3c2.1-4.3,7-12.1,17.2-20.4C440.8,316.1,453.3,301.8,442.4,299z"/>
		</g>
	</g>
	<g>
		<g>
			<g>
				<g>
					<g>
						<path class="st5" d="M120.3,397.2c0,0,0,0.1,0,0.1c0,1.4-0.7,2.7-2.1,3.9c-0.3,0.3-0.7,0.6-1.1,0.9c-1.1,0.8-2.5,1.6-4.1,2.3
							c-0.4,0.2-0.7,0.3-1.1,0.5c-1.3,0.5-2.6,1-4.1,1.4c-0.4,0.1-0.7,0.2-1.1,0.3c-1.3,0.4-2.7,0.7-4.1,1c-0.4,0.1-0.7,0.1-1.1,0.2
							c-1.3,0.3-2.7,0.5-4.1,0.7c-0.4,0.1-0.7,0.1-1.1,0.1c-1.3,0.2-2.7,0.3-4.1,0.5c-0.4,0-0.7,0.1-1.1,0.1
							c-1.4,0.1-2.7,0.2-4.1,0.3c-0.4,0-0.7,0-1.1,0c-1.4,0.1-2.7,0.1-4.1,0.1c-0.2,0-0.5,0-0.7,0c-0.1,0-0.2,0-0.4,0
							c-1.4,0-2.8,0-4.1-0.1c-0.4,0-0.7,0-1.1,0c-1,0-2.1-0.1-3.1-0.2c-0.4,0-0.7-0.1-1.1-0.1c-0.4,0-0.7-0.1-1.1-0.1
							c-1.4-0.1-2.8-0.3-4.1-0.4c-0.4,0-0.7-0.1-1.1-0.1c-0.9-0.1-1.7-0.2-2.5-0.4c-0.5-0.1-1.1-0.2-1.6-0.3
							c-0.4-0.1-0.7-0.1-1.1-0.2c-1.4-0.3-2.8-0.6-4.1-0.9c-0.3-0.1-0.5-0.1-0.8-0.2c-0.1,0-0.2-0.1-0.3-0.1
							c-0.6-0.2-1.2-0.3-1.7-0.5c-0.8-0.3-1.7-0.5-2.4-0.8c-0.4-0.1-0.7-0.3-1.1-0.4c-1.4-0.6-2.6-1.2-3.7-1.9
							c-0.2-0.1-0.3-0.2-0.5-0.3c-0.2-0.1-0.4-0.3-0.5-0.4c-0.2-0.1-0.4-0.3-0.5-0.4c-1.6-1.3-2.4-2.7-2.4-4.2c0-0.1,0-0.2,0-0.3
							l0-8.4l2.4,0l1.1,0l4.1,0l1.1,0l3.2,0l0.9,0l1.1,0l4.1,0l1.1,0l4.1,0l1.1,0l4.1,0l1.1,0l4.1,0l1.1,0l4.1,0l1.1,0l4.1,0l1.1,0
							l4.1,0l1.1,0l4.1,0l1.1,0l4.1,0l1.1,0l4.1,0l1.1,0h0.3l3.9,0l1.1,0l4.1,0l1.1,0l2.1,0L120.3,397.2L120.3,397.2z"/>
						<g>
							<path class="st6" d="M44.9,388.6v13.8c-0.2-0.1-0.4-0.3-0.5-0.4c-0.2-0.1-0.4-0.3-0.5-0.4v-13L44.9,388.6z"/>
							<path class="st6" d="M50.2,388.6V405c-0.4-0.1-0.7-0.3-1.1-0.4v-16L50.2,388.6z"/>
							<path class="st6" d="M55.4,388.6v18.1c-0.3-0.1-0.5-0.1-0.8-0.2c-0.1,0-0.2-0.1-0.3-0.1v-17.8L55.4,388.6z"/>
							<path class="st6" d="M60.6,388.6v19.2c-0.4-0.1-0.7-0.1-1.1-0.2v-19L60.6,388.6z"/>
							<path class="st6" d="M65.9,388.6v20c-0.4,0-0.7-0.1-1.1-0.1v-19.9L65.9,388.6z"/>
							<path class="st6" d="M71.1,388.6v20.6c-0.4,0-0.7-0.1-1.1-0.1v-20.5L71.1,388.6z"/>
							<path class="st6" d="M76.3,388.6v20.9c-0.4,0-0.7,0-1.1,0v-20.8L76.3,388.6z"/>
							<path class="st6" d="M81.6,388.6v21c-0.2,0-0.5,0-0.7,0c-0.1,0-0.2,0-0.4,0v-21L81.6,388.6z"/>
							<path class="st6" d="M86.8,388.6v20.8c-0.4,0-0.7,0-1.1,0v-20.9L86.8,388.6z"/>
							<path class="st6" d="M92,388.5V409c-0.4,0-0.7,0.1-1.1,0.1v-20.6L92,388.5z"/>
							<path class="st6" d="M97.3,388.5v19.9c-0.4,0.1-0.7,0.1-1.1,0.1v-20L97.3,388.5z"/>
							<path class="st6" d="M102.5,388.5v19c-0.4,0.1-0.7,0.1-1.1,0.2v-19.2L102.5,388.5z"/>
							<path class="st6" d="M107.7,388.5v17.7c-0.4,0.1-0.7,0.2-1.1,0.3v-18L107.7,388.5z"/>
							<path class="st6" d="M113,388.5v15.9c-0.4,0.2-0.7,0.3-1.1,0.5v-16.3L113,388.5z"/>
							<path class="st6" d="M118.2,388.5v12.8c-0.3,0.3-0.7,0.6-1.1,0.9v-13.6L118.2,388.5z"/>
						</g>
					</g>
					<g>
						<g>
							<path class="st6" d="M120.3,388.6c0,6.2-17.6,11.2-39.4,11.2c-3,0-5.9-0.1-8.7-0.3c-3.5-0.2-6.8-0.6-9.9-1
								c-2.8-0.4-5.3-0.9-7.6-1.5c-0.7-0.2-1.4-0.4-2.1-0.6c-2.9-0.8-5.3-1.8-7.2-2.9c-0.4-0.2-0.7-0.4-1-0.6c-1.9-1.3-3-2.8-3-4.3
								c0-0.1,0-0.3,0-0.4c0.8-6,18.1-10.8,39.4-10.8c5.2,0,10.2,0.3,14.8,0.8c0.9,0.1,1.8,0.2,2.6,0.3c3.7,0.5,7.1,1.2,10,2
								c0.6,0.2,1.3,0.4,1.9,0.6c2.1,0.7,4,1.4,5.5,2.2c1.6,0.8,2.8,1.7,3.5,2.7c0.6,0.7,0.9,1.4,1,2.1
								C120.2,388.3,120.3,388.5,120.3,388.6z"/>
							<path class="st14" d="M119.2,386.1l-47,13.5c-3.5-0.2-6.8-0.6-9.9-1l53.4-15.1C117.2,384.2,118.4,385.1,119.2,386.1z"/>
							<path class="st14" d="M98.2,378.6l-52.8,15c-0.4-0.2-0.7-0.4-1-0.6l51.2-14.7C96.5,378.3,97.4,378.4,98.2,378.6z"/>
							<path class="st14" d="M110.1,381.1L54.6,397c-0.7-0.2-1.4-0.4-2.1-0.6l55.7-15.8C108.9,380.8,109.5,380.9,110.1,381.1z"/>
							<path class="st6" d="M112.3,388.6c0,0.1,0,0.3,0,0.4c-0.8,4.7-14.6,8.5-31.5,8.5c-16.9,0-30.7-3.8-31.5-8.5
								c0-0.1,0-0.3,0-0.4c0-4.9,14.1-8.9,31.5-8.9C98.2,379.7,112.3,383.7,112.3,388.6z"/>
							<path class="st6" d="M112.3,389c-0.8,4.7-14.6,8.5-31.5,8.5c-0.4,0-0.8,0-1.1,0c-3.8,0-7.4-0.3-10.7-0.6
								c-3.3-0.4-6.4-0.9-9-1.6c-0.7-0.2-1.3-0.3-1.9-0.5c-2.8-0.8-5.1-1.8-6.6-2.9c-0.4-0.3-0.7-0.5-1-0.8c-0.7-0.6-1-1.3-1.2-2
								c0.8-4.7,14.6-8.5,31.5-8.5c2.1,0,4.2,0.1,6.2,0.2c1,0.1,2,0.1,3,0.2c4.1,0.4,7.8,0.9,10.9,1.7c0.7,0.2,1.3,0.3,2,0.5
								c2.5,0.7,4.5,1.5,6.1,2.4c1.5,0.9,2.5,1.8,3,2.8C112.2,388.6,112.3,388.8,112.3,389z"/>
							<path class="st15" d="M112.1,388.4l-32.4,9.2c-3.8,0-7.4-0.3-10.7-0.6l40.1-11.4C110.7,386.4,111.7,387.3,112.1,388.4z"/>
							<path class="st15" d="M90.1,380.9l-38.6,11c-0.4-0.3-0.7-0.5-1-0.8l36.6-10.4C88.1,380.7,89.1,380.8,90.1,380.9z"/>
							<path class="st15" d="M103,383.1l-43,12.2c-0.7-0.2-1.3-0.3-1.9-0.5l43-12.2C101.7,382.7,102.4,382.9,103,383.1z"/>
							<g>
								<g>
									<g>
										<path class="st6" d="M85.2,393.7v1.5h-6.6v-1.4c-4.7-0.1-9.3-0.4-12.1-0.9l3.6-2.3c3.1,0.5,7.3,0.9,10.9,0.9
											c3.2,0,4.3-0.2,4.3-0.5c0-1.2-18.3-0.2-18.3-3.7c0-1.5,3.9-2.8,11.6-3.1v-1.5h6.6v1.4c3.5,0.1,6.9,0.3,9.6,0.8l-3.3,2.3
											c-3.3-0.5-6.3-0.7-9.2-0.7c-3.3,0-4.3,0.3-4.3,0.6c0,1.1,18.3,0.2,18.3,3.6C96.2,392.1,92.5,393.3,85.2,393.7z"/>
									</g>
								</g>
								<g>
									<path class="st6" d="M85,393.2v1.5h-6.6v-1.4c-4.7-0.1-9.3-0.4-12.1-0.9l3.6-2.3c3.1,0.5,7.3,0.9,10.9,0.9
										c3.2,0,4.3-0.2,4.3-0.5c0-1.2-18.3-0.2-18.3-3.7c0-1.5,3.9-2.8,11.6-3.1v-1.5H85v1.4c3.5,0.1,6.9,0.3,9.6,0.8l-3.3,2.3
										c-3.3-0.5-6.3-0.7-9.2-0.7c-3.3,0-4.3,0.3-4.3,0.6c0,1.1,18.3,0.2,18.3,3.6C96,391.6,92.3,392.8,85,393.2z"/>
								</g>
							</g>
						</g>
					</g>
				</g>
				<g>
					<g>
						<path class="st5" d="M122.7,383.4c0,0,0,0.1,0,0.1c0,1.4-0.7,2.7-2.1,3.9c-0.3,0.3-0.7,0.6-1.1,0.9c-1.1,0.8-2.5,1.6-4.1,2.3
							c-0.4,0.2-0.7,0.3-1.1,0.5c-1.3,0.5-2.6,1-4.1,1.4c-0.4,0.1-0.7,0.2-1.1,0.3c-1.3,0.4-2.7,0.7-4.1,1c-0.4,0.1-0.7,0.1-1.1,0.2
							c-1.3,0.3-2.7,0.5-4.1,0.7c-0.4,0.1-0.7,0.1-1.1,0.1c-1.3,0.2-2.7,0.3-4.1,0.5c-0.4,0-0.7,0.1-1.1,0.1
							c-1.4,0.1-2.7,0.2-4.1,0.3c-0.4,0-0.7,0-1.1,0c-1.4,0.1-2.7,0.1-4.1,0.1c-0.2,0-0.5,0-0.7,0c-0.1,0-0.2,0-0.4,0
							c-1.4,0-2.8,0-4.1-0.1c-0.4,0-0.7,0-1.1,0c-1,0-2.1-0.1-3.1-0.2c-0.4,0-0.7-0.1-1.1-0.1c-0.4,0-0.7-0.1-1.1-0.1
							c-1.4-0.1-2.8-0.3-4.1-0.4c-0.4,0-0.7-0.1-1.1-0.1c-0.9-0.1-1.7-0.2-2.5-0.4c-0.5-0.1-1.1-0.2-1.6-0.3
							c-0.4-0.1-0.7-0.1-1.1-0.2c-1.4-0.3-2.8-0.6-4.1-0.9c-0.3-0.1-0.5-0.1-0.8-0.2c-0.1,0-0.2-0.1-0.3-0.1
							c-0.6-0.2-1.2-0.3-1.7-0.5c-0.8-0.3-1.7-0.5-2.4-0.8c-0.4-0.1-0.7-0.3-1.1-0.4c-1.4-0.6-2.6-1.2-3.7-1.9
							c-0.2-0.1-0.3-0.2-0.5-0.3c-0.2-0.1-0.4-0.3-0.5-0.4c-0.2-0.1-0.4-0.3-0.5-0.4c-1.6-1.3-2.4-2.7-2.4-4.2c0-0.1,0-0.2,0-0.3
							l0-8.4l2.4,0l1.1,0l4.1,0l1.1,0l3.2,0l0.9,0l1.1,0l4.1,0l1.1,0l4.1,0l1.1,0l4.1,0l1.1,0l4.1,0l1.1,0l4.1,0l1.1,0l4.1,0l1.1,0
							l4.1,0l1.1,0l4.1,0l1.1,0l4.1,0l1.1,0l4.1,0l1.1,0h0.3l3.9,0l1.1,0l4.1,0l1.1,0l2.1,0L122.7,383.4L122.7,383.4z"/>
						<g>
							<path class="st6" d="M47.4,374.8v13.8c-0.2-0.1-0.4-0.3-0.5-0.4c-0.2-0.1-0.4-0.3-0.5-0.4v-13L47.4,374.8z"/>
							<path class="st6" d="M52.6,374.8v16.4c-0.4-0.1-0.7-0.3-1.1-0.4v-16L52.6,374.8z"/>
							<path class="st6" d="M57.9,374.8v18.1c-0.3-0.1-0.5-0.1-0.8-0.2c-0.1,0-0.2-0.1-0.3-0.1v-17.8L57.9,374.8z"/>
							<path class="st6" d="M63.1,374.8V394c-0.4-0.1-0.7-0.1-1.1-0.2v-19L63.1,374.8z"/>
							<path class="st6" d="M68.3,374.8v20c-0.4,0-0.7-0.1-1.1-0.1v-19.9L68.3,374.8z"/>
							<path class="st6" d="M73.6,374.8v20.6c-0.4,0-0.7-0.1-1.1-0.1v-20.5L73.6,374.8z"/>
							<path class="st6" d="M78.8,374.8v20.9c-0.4,0-0.7,0-1.1,0v-20.8L78.8,374.8z"/>
							<path class="st6" d="M84,374.8v21c-0.2,0-0.5,0-0.7,0c-0.1,0-0.2,0-0.4,0v-21L84,374.8z"/>
							<path class="st6" d="M89.3,374.7v20.8c-0.4,0-0.7,0-1.1,0v-20.9L89.3,374.7z"/>
							<path class="st6" d="M94.5,374.7v20.5c-0.4,0-0.7,0.1-1.1,0.1v-20.6L94.5,374.7z"/>
							<path class="st6" d="M99.7,374.7v19.9c-0.4,0.1-0.7,0.1-1.1,0.1v-20L99.7,374.7z"/>
							<path class="st6" d="M105,374.7v19c-0.4,0.1-0.7,0.1-1.1,0.2v-19.2L105,374.7z"/>
							<path class="st6" d="M110.2,374.7v17.7c-0.4,0.1-0.7,0.2-1.1,0.3v-18L110.2,374.7z"/>
							<path class="st6" d="M115.4,374.7v15.9c-0.4,0.2-0.7,0.3-1.1,0.5v-16.3L115.4,374.7z"/>
							<path class="st6" d="M120.7,374.7v12.8c-0.3,0.3-0.7,0.6-1.1,0.9v-13.6L120.7,374.7z"/>
						</g>
					</g>
					<g>
						<g>
							<path class="st6" d="M122.7,374.8c0,6.2-17.6,11.2-39.4,11.2c-3,0-5.9-0.1-8.7-0.3c-3.5-0.2-6.8-0.6-9.9-1
								c-2.8-0.4-5.3-0.9-7.6-1.5c-0.7-0.2-1.4-0.4-2.1-0.6c-2.9-0.8-5.3-1.8-7.2-2.9c-0.4-0.2-0.7-0.4-1-0.6c-1.9-1.3-3-2.8-3-4.3
								c0-0.1,0-0.3,0-0.4c0.8-6,18.1-10.8,39.4-10.8c5.2,0,10.2,0.3,14.8,0.8c0.9,0.1,1.8,0.2,2.6,0.3c3.7,0.5,7.1,1.2,10,2
								c0.6,0.2,1.3,0.4,1.9,0.6c2.1,0.7,4,1.4,5.5,2.2c1.6,0.8,2.8,1.7,3.5,2.7c0.6,0.7,0.9,1.4,1,2.1
								C122.7,374.5,122.7,374.7,122.7,374.8z"/>
							<path class="st14" d="M121.7,372.2l-47,13.5c-3.5-0.2-6.8-0.6-9.9-1l53.4-15.1C119.7,370.4,120.9,371.3,121.7,372.2z"/>
							<path class="st14" d="M100.7,364.8l-52.8,15c-0.4-0.2-0.7-0.4-1-0.6l51.2-14.7C99,364.5,99.9,364.6,100.7,364.8z"/>
							<path class="st14" d="M112.6,367.3l-55.5,15.9c-0.7-0.2-1.4-0.4-2.1-0.6l55.7-15.8C111.4,366.9,112,367.1,112.6,367.3z"/>
							<path class="st6" d="M114.8,374.8c0,0.1,0,0.3,0,0.4c-0.8,4.7-14.6,8.5-31.5,8.5c-16.9,0-30.7-3.8-31.5-8.5
								c0-0.1,0-0.3,0-0.4c0-4.9,14.1-8.9,31.5-8.9C100.7,365.9,114.8,369.9,114.8,374.8z"/>
							<path class="st6" d="M114.8,375.2c-0.8,4.7-14.6,8.5-31.5,8.5c-0.4,0-0.8,0-1.1,0c-3.8,0-7.4-0.3-10.7-0.6
								c-3.3-0.4-6.4-0.9-9-1.6c-0.7-0.2-1.3-0.3-1.9-0.5c-2.8-0.8-5.1-1.8-6.6-2.9c-0.4-0.3-0.7-0.5-1-0.8c-0.7-0.6-1-1.3-1.2-2
								c0.8-4.7,14.6-8.5,31.5-8.5c2.1,0,4.2,0.1,6.2,0.2c1,0.1,2,0.1,3,0.2c4.1,0.4,7.8,0.9,10.9,1.7c0.7,0.2,1.3,0.3,2,0.5
								c2.5,0.7,4.5,1.5,6.1,2.4c1.5,0.9,2.5,1.8,3,2.8C114.7,374.8,114.7,375,114.8,375.2z"/>
							<path class="st15" d="M114.6,374.5l-32.4,9.2c-3.8,0-7.4-0.3-10.7-0.6l40.1-11.4C113.1,372.6,114.2,373.5,114.6,374.5z"/>
							<path class="st15" d="M92.6,367.1l-38.6,11c-0.4-0.3-0.7-0.5-1-0.8l36.6-10.4C90.6,366.9,91.6,367,92.6,367.1z"/>
							<path class="st15" d="M105.5,369.3l-43,12.2c-0.7-0.2-1.3-0.3-1.9-0.5l43-12.2C104.2,368.9,104.9,369.1,105.5,369.3z"/>
							<g>
								<g>
									<g>
										<path class="st6" d="M87.7,379.9v1.5H81v-1.4c-4.7-0.1-9.3-0.4-12.1-0.9l3.6-2.3c3.1,0.5,7.3,0.9,10.9,0.9
											c3.2,0,4.3-0.2,4.3-0.5c0-1.2-18.3-0.2-18.3-3.7c0-1.5,3.9-2.8,11.6-3.1v-1.5h6.6v1.4c3.5,0.1,6.9,0.3,9.6,0.8l-3.3,2.3
											c-3.3-0.5-6.3-0.7-9.2-0.7c-3.3,0-4.3,0.3-4.3,0.6c0,1.1,18.3,0.2,18.3,3.6C98.7,378.3,95,379.5,87.7,379.9z"/>
									</g>
								</g>
								<g>
									<path class="st6" d="M87.5,379.4v1.5h-6.6v-1.4c-4.7-0.1-9.3-0.4-12.1-0.9l3.6-2.3c3.1,0.5,7.3,0.9,10.9,0.9
										c3.2,0,4.3-0.2,4.3-0.5c0-1.2-18.3-0.2-18.3-3.7c0-1.5,3.9-2.8,11.6-3.1v-1.5h6.6v1.4c3.5,0.1,6.9,0.3,9.6,0.8l-3.3,2.3
										c-3.3-0.5-6.3-0.7-9.2-0.7c-3.3,0-4.3,0.3-4.3,0.6c0,1.1,18.3,0.2,18.3,3.6C98.5,377.8,94.8,379,87.5,379.4z"/>
								</g>
							</g>
						</g>
					</g>
				</g>
				<g>
					<g>
						<path class="st5" d="M122.4,369.6c0,0,0,0.1,0,0.1c0,1.4-0.7,2.7-2.1,3.9c-0.3,0.3-0.7,0.6-1.1,0.9c-1.1,0.8-2.5,1.6-4.1,2.3
							c-0.4,0.2-0.7,0.3-1.1,0.5c-1.3,0.5-2.6,1-4.1,1.4c-0.4,0.1-0.7,0.2-1.1,0.3c-1.3,0.4-2.7,0.7-4.1,1c-0.4,0.1-0.7,0.1-1.1,0.2
							c-1.3,0.3-2.7,0.5-4.1,0.7c-0.4,0.1-0.7,0.1-1.1,0.1c-1.3,0.2-2.7,0.3-4.1,0.5c-0.4,0-0.7,0.1-1.1,0.1
							c-1.4,0.1-2.7,0.2-4.1,0.3c-0.4,0-0.7,0-1.1,0c-1.4,0.1-2.7,0.1-4.1,0.1c-0.2,0-0.5,0-0.7,0c-0.1,0-0.2,0-0.4,0
							c-1.4,0-2.8,0-4.1-0.1c-0.4,0-0.7,0-1.1,0c-1,0-2.1-0.1-3.1-0.2c-0.4,0-0.7-0.1-1.1-0.1c-0.4,0-0.7-0.1-1.1-0.1
							c-1.4-0.1-2.8-0.3-4.1-0.4c-0.4,0-0.7-0.1-1.1-0.1c-0.9-0.1-1.7-0.2-2.5-0.4c-0.5-0.1-1.1-0.2-1.6-0.3
							c-0.4-0.1-0.7-0.1-1.1-0.2c-1.4-0.3-2.8-0.6-4.1-0.9c-0.3-0.1-0.5-0.1-0.8-0.2c-0.1,0-0.2-0.1-0.3-0.1
							c-0.6-0.2-1.2-0.3-1.7-0.5c-0.8-0.3-1.7-0.5-2.4-0.8c-0.4-0.1-0.7-0.3-1.1-0.4c-1.4-0.6-2.6-1.2-3.7-1.9
							c-0.2-0.1-0.3-0.2-0.5-0.3c-0.2-0.1-0.4-0.3-0.5-0.4c-0.2-0.1-0.4-0.3-0.5-0.4c-1.6-1.3-2.4-2.7-2.4-4.2c0-0.1,0-0.2,0-0.3
							l0-8.4l2.4,0l1.1,0l4.1,0l1.1,0l3.2,0l0.9,0l1.1,0l4.1,0l1.1,0l4.1,0l1.1,0l4.1,0l1.1,0l4.1,0l1.1,0l4.1,0l1.1,0l4.1,0l1.1,0
							l4.1,0l1.1,0l4.1,0l1.1,0l4.1,0l1.1,0l4.1,0l1.1,0h0.3l3.9,0l1.1,0l4.1,0l1.1,0l2.1,0L122.4,369.6L122.4,369.6z"/>
						<g>
							<path class="st6" d="M47,361v13.8c-0.2-0.1-0.4-0.3-0.5-0.4c-0.2-0.1-0.4-0.3-0.5-0.4v-13L47,361z"/>
							<path class="st6" d="M52.3,361v16.4c-0.4-0.1-0.7-0.3-1.1-0.4v-16L52.3,361z"/>
							<path class="st6" d="M57.5,361V379c-0.3-0.1-0.5-0.1-0.8-0.2c-0.1,0-0.2-0.1-0.3-0.1V361L57.5,361z"/>
							<path class="st6" d="M62.7,361v19.2c-0.4-0.1-0.7-0.1-1.1-0.2v-19L62.7,361z"/>
							<path class="st6" d="M68,361v20c-0.4,0-0.7-0.1-1.1-0.1V361L68,361z"/>
							<path class="st6" d="M73.2,361v20.6c-0.4,0-0.7-0.1-1.1-0.1V361L73.2,361z"/>
							<path class="st6" d="M78.4,360.9v20.9c-0.4,0-0.7,0-1.1,0V361L78.4,360.9z"/>
							<path class="st6" d="M83.7,360.9v21c-0.2,0-0.5,0-0.7,0c-0.1,0-0.2,0-0.4,0v-21L83.7,360.9z"/>
							<path class="st6" d="M88.9,360.9v20.8c-0.4,0-0.7,0-1.1,0v-20.9L88.9,360.9z"/>
							<path class="st6" d="M94.1,360.9v20.5c-0.4,0-0.7,0.1-1.1,0.1v-20.6L94.1,360.9z"/>
							<path class="st6" d="M99.4,360.9v19.9c-0.4,0.1-0.7,0.1-1.1,0.1v-20L99.4,360.9z"/>
							<path class="st6" d="M104.6,360.9v19c-0.4,0.1-0.7,0.1-1.1,0.2v-19.2L104.6,360.9z"/>
							<path class="st6" d="M109.8,360.9v17.7c-0.4,0.1-0.7,0.2-1.1,0.3v-18L109.8,360.9z"/>
							<path class="st6" d="M115.1,360.9v15.9c-0.4,0.2-0.7,0.3-1.1,0.5v-16.3L115.1,360.9z"/>
							<path class="st6" d="M120.3,360.9v12.8c-0.3,0.3-0.7,0.6-1.1,0.9v-13.6L120.3,360.9z"/>
						</g>
					</g>
					<g>
						<g>
							<path class="st0" d="M122.4,361c0,6.2-17.6,11.2-39.4,11.2c-3,0-5.9-0.1-8.7-0.3c-3.5-0.2-6.8-0.6-9.9-1
								c-2.8-0.4-5.3-0.9-7.6-1.5c-0.7-0.2-1.4-0.4-2.1-0.6c-2.9-0.8-5.3-1.8-7.2-2.9c-0.4-0.2-0.7-0.4-1-0.6c-1.9-1.3-3-2.8-3-4.3
								c0-0.1,0-0.3,0-0.4c0.8-6,18.1-10.8,39.4-10.8c5.2,0,10.2,0.3,14.8,0.8c0.9,0.1,1.7,0.2,2.6,0.3c3.7,0.5,7.1,1.2,10,2
								c0.6,0.2,1.3,0.4,1.9,0.6c2.1,0.7,4,1.4,5.5,2.2c1.6,0.8,2.8,1.7,3.5,2.7c0.6,0.7,0.9,1.4,1,2.1
								C122.4,360.7,122.4,360.9,122.4,361z"/>
							<path class="st16" d="M121.3,358.4l-47,13.5c-3.5-0.2-6.8-0.6-9.9-1l53.4-15.1C119.4,356.6,120.6,357.5,121.3,358.4z"/>
							<path class="st16" d="M100.4,350.9l-52.8,15c-0.4-0.2-0.7-0.4-1-0.6l51.2-14.7C98.6,350.7,99.5,350.8,100.4,350.9z"/>
							<path class="st16" d="M112.3,353.5l-55.5,15.9c-0.7-0.2-1.4-0.4-2.1-0.6l55.7-15.8C111,353.1,111.7,353.3,112.3,353.5z"/>
							<path class="st6" d="M114.5,361c0,0.1,0,0.3,0,0.4c-0.8,4.7-14.6,8.5-31.5,8.5c-16.9,0-30.7-3.8-31.5-8.5c0-0.1,0-0.3,0-0.4
								c0-4.9,14.1-8.9,31.5-8.9S114.5,356.1,114.5,361z"/>
							<path class="st6" d="M114.4,361.4c-0.8,4.7-14.6,8.5-31.5,8.5c-0.4,0-0.8,0-1.1,0c-3.8,0-7.4-0.3-10.7-0.6
								c-3.3-0.4-6.4-0.9-9-1.6c-0.7-0.2-1.3-0.3-1.9-0.5c-2.8-0.8-5.1-1.8-6.6-2.9c-0.4-0.3-0.7-0.5-1-0.8c-0.7-0.6-1-1.3-1.2-2
								c0.8-4.7,14.6-8.5,31.5-8.5c2.1,0,4.2,0.1,6.2,0.2c1,0.1,2,0.1,3,0.2c4.1,0.4,7.8,0.9,10.9,1.7c0.7,0.2,1.3,0.3,2,0.5
								c2.5,0.7,4.5,1.5,6.1,2.4c1.5,0.9,2.5,1.8,3,2.8C114.3,361,114.4,361.2,114.4,361.4z"/>
							<path class="st13" d="M114.2,360.7l-32.4,9.2c-3.8,0-7.4-0.3-10.7-0.6l40.1-11.4C112.8,358.8,113.8,359.7,114.2,360.7z"/>
							<path class="st13" d="M92.2,353.3l-38.6,11c-0.4-0.3-0.7-0.5-1-0.8L89.2,353C90.2,353.1,91.2,353.2,92.2,353.3z"/>
							<path class="st13" d="M105.2,355.5l-43,12.2c-0.7-0.2-1.3-0.3-1.9-0.5l43-12.2C103.9,355.1,104.5,355.3,105.2,355.5z"/>
						</g>
					</g>
				</g>
				<g>
					<g>
						<path class="st5" d="M120.4,357.3c0,0,0,0.1,0,0.1c0,1.4-0.7,2.7-2.1,3.9c-0.3,0.3-0.7,0.6-1.1,0.9c-1.1,0.8-2.5,1.6-4.1,2.3
							c-0.4,0.2-0.7,0.3-1.1,0.5c-1.3,0.5-2.6,1-4.1,1.4c-0.4,0.1-0.7,0.2-1.1,0.3c-1.3,0.4-2.7,0.7-4.1,1c-0.4,0.1-0.7,0.1-1.1,0.2
							c-1.3,0.3-2.7,0.5-4.1,0.7c-0.4,0.1-0.7,0.1-1.1,0.1c-1.3,0.2-2.7,0.3-4.1,0.5c-0.4,0-0.7,0.1-1.1,0.1
							c-1.4,0.1-2.7,0.2-4.1,0.3c-0.4,0-0.7,0-1.1,0c-1.4,0.1-2.7,0.1-4.1,0.1c-0.2,0-0.5,0-0.7,0c-0.1,0-0.2,0-0.4,0
							c-1.4,0-2.8,0-4.1-0.1c-0.4,0-0.7,0-1.1,0c-1,0-2.1-0.1-3.1-0.2c-0.4,0-0.7-0.1-1.1-0.1c-0.4,0-0.7-0.1-1.1-0.1
							c-1.4-0.1-2.8-0.3-4.1-0.4c-0.4,0-0.7-0.1-1.1-0.1c-0.9-0.1-1.7-0.2-2.5-0.4c-0.5-0.1-1.1-0.2-1.6-0.3
							c-0.4-0.1-0.7-0.1-1.1-0.2c-1.4-0.3-2.8-0.6-4.1-0.9c-0.3-0.1-0.5-0.1-0.8-0.2c-0.1,0-0.2-0.1-0.3-0.1
							c-0.6-0.2-1.2-0.3-1.7-0.5c-0.8-0.3-1.7-0.5-2.4-0.8c-0.4-0.1-0.7-0.3-1.1-0.4c-1.4-0.6-2.6-1.2-3.7-1.9
							c-0.2-0.1-0.3-0.2-0.5-0.3c-0.2-0.1-0.4-0.3-0.5-0.4c-0.2-0.1-0.4-0.3-0.5-0.4c-1.6-1.3-2.4-2.7-2.4-4.2c0-0.1,0-0.2,0-0.3
							l0-8.4l2.4,0l1.1,0l4.1,0l1.1,0l3.2,0l0.9,0l1.1,0l4.1,0l1.1,0l4.1,0l1.1,0l4.1,0l1.1,0l4.1,0l1.1,0l4.1,0l1.1,0l4.1,0l1.1,0
							l4.1,0l1.1,0l4.1,0l1.1,0l4.1,0l1.1,0l4.1,0l1.1,0h0.3l3.9,0l1.1,0l4.1,0l1.1,0l2.1,0L120.4,357.3L120.4,357.3z"/>
						<g>
							<path class="st6" d="M45.1,348.6v13.8c-0.2-0.1-0.4-0.3-0.5-0.4c-0.2-0.1-0.4-0.3-0.5-0.4v-13L45.1,348.6z"/>
							<path class="st6" d="M50.3,348.6V365c-0.4-0.1-0.7-0.3-1.1-0.4v-16L50.3,348.6z"/>
							<path class="st6" d="M55.5,348.6v18.1c-0.3-0.1-0.5-0.1-0.8-0.2c-0.1,0-0.2-0.1-0.3-0.1v-17.8L55.5,348.6z"/>
							<path class="st6" d="M60.8,348.6v19.2c-0.4-0.1-0.7-0.1-1.1-0.2v-19L60.8,348.6z"/>
							<path class="st6" d="M66,348.6v20c-0.4,0-0.7-0.1-1.1-0.1v-19.9L66,348.6z"/>
							<path class="st6" d="M71.2,348.6v20.6c-0.4,0-0.7-0.1-1.1-0.1v-20.5L71.2,348.6z"/>
							<path class="st6" d="M76.5,348.6v20.9c-0.4,0-0.7,0-1.1,0v-20.8L76.5,348.6z"/>
							<path class="st6" d="M81.7,348.6v21c-0.2,0-0.5,0-0.7,0c-0.1,0-0.2,0-0.4,0v-21L81.7,348.6z"/>
							<path class="st6" d="M86.9,348.6v20.8c-0.4,0-0.7,0-1.1,0v-20.9L86.9,348.6z"/>
							<path class="st6" d="M92.2,348.6v20.5c-0.4,0-0.7,0.1-1.1,0.1v-20.6L92.2,348.6z"/>
							<path class="st6" d="M97.4,348.6v19.9c-0.4,0.1-0.7,0.1-1.1,0.1v-20L97.4,348.6z"/>
							<path class="st6" d="M102.6,348.6v19c-0.4,0.1-0.7,0.1-1.1,0.2v-19.2L102.6,348.6z"/>
							<path class="st6" d="M107.9,348.6v17.7c-0.4,0.1-0.7,0.2-1.1,0.3v-18L107.9,348.6z"/>
							<path class="st6" d="M113.1,348.5v15.9c-0.4,0.2-0.7,0.3-1.1,0.5v-16.3L113.1,348.5z"/>
							<path class="st6" d="M118.3,348.5v12.8c-0.3,0.3-0.7,0.6-1.1,0.9v-13.6L118.3,348.5z"/>
						</g>
					</g>
					<g>
						<g>
							<path class="st0" d="M120.4,348.6c0,6.2-17.6,11.2-39.4,11.2c-3,0-5.9-0.1-8.7-0.3c-3.5-0.2-6.8-0.6-9.9-1
								c-2.8-0.4-5.3-0.9-7.6-1.5c-0.7-0.2-1.4-0.4-2.1-0.6c-2.9-0.8-5.3-1.8-7.2-2.9c-0.4-0.2-0.7-0.4-1-0.6c-1.9-1.3-3-2.8-3-4.3
								c0-0.1,0-0.3,0-0.4c0.8-6,18.1-10.8,39.4-10.8c5.2,0,10.2,0.3,14.8,0.8c0.9,0.1,1.8,0.2,2.6,0.3c3.7,0.5,7.1,1.2,10,2
								c0.6,0.2,1.3,0.4,1.9,0.6c2.1,0.7,4,1.4,5.5,2.2c1.6,0.8,2.8,1.7,3.5,2.7c0.6,0.7,0.9,1.4,1,2.1
								C120.4,348.4,120.4,348.5,120.4,348.6z"/>
							<path class="st16" d="M119.4,346.1l-47,13.5c-3.5-0.2-6.8-0.6-9.9-1l53.4-15.1C117.4,344.2,118.6,345.1,119.4,346.1z"/>
							<path class="st16" d="M98.4,338.6l-52.8,15c-0.4-0.2-0.7-0.4-1-0.6l51.2-14.7C96.7,338.4,97.5,338.5,98.4,338.6z"/>
							<path class="st16" d="M110.3,341.2L54.8,357c-0.7-0.2-1.4-0.4-2.1-0.6l55.7-15.8C109.1,340.8,109.7,341,110.3,341.2z"/>
							<path class="st6" d="M112.5,348.6c0,0.1,0,0.3,0,0.4c-0.8,4.7-14.6,8.5-31.5,8.5c-16.9,0-30.7-3.8-31.5-8.5
								c0-0.1,0-0.3,0-0.4c0-4.9,14.1-8.9,31.5-8.9C98.4,339.7,112.5,343.7,112.5,348.6z"/>
							<path class="st6" d="M112.5,349.1c-0.8,4.7-14.6,8.5-31.5,8.5c-0.4,0-0.8,0-1.1,0c-3.8,0-7.4-0.3-10.7-0.6
								c-3.3-0.4-6.4-0.9-9-1.6c-0.7-0.2-1.3-0.3-1.9-0.5c-2.8-0.8-5.1-1.8-6.6-2.9c-0.4-0.3-0.7-0.5-1-0.8c-0.7-0.6-1-1.3-1.2-2
								c0.8-4.7,14.6-8.5,31.5-8.5c2.1,0,4.2,0.1,6.2,0.2c1,0.1,2,0.1,3,0.2c4.1,0.4,7.8,0.9,10.9,1.7c0.7,0.2,1.3,0.3,2,0.5
								c2.5,0.7,4.5,1.5,6.1,2.4c1.5,0.9,2.5,1.8,3,2.8C112.4,348.6,112.4,348.8,112.5,349.1z"/>
							<path class="st13" d="M112.3,348.4l-32.4,9.2c-3.8,0-7.4-0.3-10.7-0.6l40.1-11.4C110.8,346.4,111.8,347.4,112.3,348.4z"/>
							<path class="st13" d="M90.3,340.9l-38.6,11c-0.4-0.3-0.7-0.5-1-0.8l36.6-10.4C88.3,340.7,89.3,340.8,90.3,340.9z"/>
							<path class="st13" d="M103.2,343.1l-43,12.2c-0.7-0.2-1.3-0.3-1.9-0.5l43-12.2C101.9,342.8,102.6,342.9,103.2,343.1z"/>
						</g>
					</g>
				</g>
			</g>
		</g>
		<g>
			<g>
				<g>
					<g>
						<path class="st5" d="M189.9,397.2c0,0,0,0.1,0,0.1c0,1.4-0.7,2.7-2.1,3.9c-0.3,0.3-0.7,0.6-1.1,0.9c-1.1,0.8-2.5,1.6-4.1,2.3
							c-0.4,0.2-0.7,0.3-1.1,0.5c-1.3,0.5-2.6,1-4.1,1.4c-0.4,0.1-0.7,0.2-1.1,0.3c-1.3,0.4-2.7,0.7-4.1,1c-0.4,0.1-0.7,0.1-1.1,0.2
							c-1.3,0.3-2.7,0.5-4.1,0.7c-0.4,0.1-0.7,0.1-1.1,0.1c-1.3,0.2-2.7,0.3-4.1,0.5c-0.4,0-0.7,0.1-1.1,0.1
							c-1.4,0.1-2.7,0.2-4.1,0.3c-0.4,0-0.7,0-1.1,0c-1.4,0.1-2.7,0.1-4.1,0.1c-0.2,0-0.5,0-0.7,0c-0.1,0-0.2,0-0.4,0
							c-1.4,0-2.8,0-4.1-0.1c-0.4,0-0.7,0-1.1,0c-1,0-2.1-0.1-3.1-0.2c-0.4,0-0.7-0.1-1.1-0.1c-0.4,0-0.7-0.1-1.1-0.1
							c-1.4-0.1-2.8-0.3-4.1-0.4c-0.4,0-0.7-0.1-1.1-0.1c-0.9-0.1-1.7-0.2-2.5-0.4c-0.5-0.1-1.1-0.2-1.6-0.3
							c-0.4-0.1-0.7-0.1-1.1-0.2c-1.4-0.3-2.8-0.6-4.1-0.9c-0.3-0.1-0.5-0.1-0.8-0.2c-0.1,0-0.2-0.1-0.3-0.1
							c-0.6-0.2-1.2-0.3-1.7-0.5c-0.8-0.3-1.7-0.5-2.4-0.8c-0.4-0.1-0.7-0.3-1.1-0.4c-1.4-0.6-2.6-1.2-3.7-1.9
							c-0.2-0.1-0.3-0.2-0.5-0.3c-0.2-0.1-0.4-0.3-0.5-0.4c-0.2-0.1-0.4-0.3-0.5-0.4c-1.6-1.3-2.4-2.7-2.4-4.2c0-0.1,0-0.2,0-0.3
							l0-8.4l2.4,0l1.1,0l4.1,0l1.1,0l3.2,0l0.9,0l1.1,0l4.1,0l1.1,0l4.1,0l1.1,0l4.1,0l1.1,0l4.1,0l1.1,0l4.1,0l1.1,0l4.1,0l1.1,0
							l4.1,0l1.1,0l4.1,0l1.1,0l4.1,0l1.1,0l4.1,0l1.1,0h0.3l3.9,0l1.1,0l4.1,0l1.1,0l2.1,0L189.9,397.2L189.9,397.2z"/>
						<g>
							<path class="st6" d="M114.6,388.6v13.8c-0.2-0.1-0.4-0.3-0.5-0.4c-0.2-0.1-0.4-0.3-0.5-0.4v-13L114.6,388.6z"/>
							<path class="st6" d="M119.8,388.6V405c-0.4-0.1-0.7-0.3-1.1-0.4v-16L119.8,388.6z"/>
							<path class="st6" d="M125.1,388.6v18.1c-0.3-0.1-0.5-0.1-0.8-0.2c-0.1,0-0.2-0.1-0.3-0.1v-17.8L125.1,388.6z"/>
							<path class="st6" d="M130.3,388.6v19.2c-0.4-0.1-0.7-0.1-1.1-0.2v-19L130.3,388.6z"/>
							<path class="st6" d="M135.5,388.6v20c-0.4,0-0.7-0.1-1.1-0.1v-19.9L135.5,388.6z"/>
							<path class="st6" d="M140.8,388.6v20.6c-0.4,0-0.7-0.1-1.1-0.1v-20.5L140.8,388.6z"/>
							<path class="st6" d="M146,388.6v20.9c-0.4,0-0.7,0-1.1,0v-20.8L146,388.6z"/>
							<path class="st6" d="M151.2,388.6v21c-0.2,0-0.5,0-0.7,0c-0.1,0-0.2,0-0.4,0v-21L151.2,388.6z"/>
							<path class="st6" d="M156.5,388.6v20.8c-0.4,0-0.7,0-1.1,0v-20.9L156.5,388.6z"/>
							<path class="st6" d="M161.7,388.5V409c-0.4,0-0.7,0.1-1.1,0.1v-20.6L161.7,388.5z"/>
							<path class="st6" d="M166.9,388.5v19.9c-0.4,0.1-0.7,0.1-1.1,0.1v-20L166.9,388.5z"/>
							<path class="st6" d="M172.2,388.5v19c-0.4,0.1-0.7,0.1-1.1,0.2v-19.2L172.2,388.5z"/>
							<path class="st6" d="M177.4,388.5v17.7c-0.4,0.1-0.7,0.2-1.1,0.3v-18L177.4,388.5z"/>
							<path class="st6" d="M182.6,388.5v15.9c-0.4,0.2-0.7,0.3-1.1,0.5v-16.3L182.6,388.5z"/>
							<path class="st6" d="M187.9,388.5v12.8c-0.3,0.3-0.7,0.6-1.1,0.9v-13.6L187.9,388.5z"/>
						</g>
					</g>
					<g>
						<g>
							<path class="st0" d="M189.9,388.6c0,6.2-17.6,11.2-39.4,11.2c-3,0-5.9-0.1-8.7-0.3c-3.5-0.2-6.8-0.6-9.9-1
								c-2.8-0.4-5.3-0.9-7.6-1.5c-0.7-0.2-1.4-0.4-2.1-0.6c-2.9-0.8-5.3-1.8-7.2-2.9c-0.4-0.2-0.7-0.4-1-0.6c-1.9-1.3-3-2.8-3-4.3
								c0-0.1,0-0.3,0-0.4c0.8-6,18.1-10.8,39.4-10.8c5.2,0,10.2,0.3,14.8,0.8c0.9,0.1,1.8,0.2,2.6,0.3c3.7,0.5,7.1,1.2,10,2
								c0.6,0.2,1.3,0.4,1.9,0.6c2.1,0.7,4,1.4,5.5,2.2c1.6,0.8,2.8,1.7,3.5,2.7c0.6,0.7,0.9,1.4,1,2.1
								C189.9,388.3,189.9,388.5,189.9,388.6z"/>
							<path class="st16" d="M188.9,386.1l-47,13.5c-3.5-0.2-6.8-0.6-9.9-1l53.4-15.1C186.9,384.2,188.1,385.1,188.9,386.1z"/>
							<path class="st16" d="M167.9,378.6l-52.8,15c-0.4-0.2-0.7-0.4-1-0.6l51.2-14.7C166.2,378.3,167.1,378.4,167.9,378.6z"/>
							<path class="st16" d="M179.8,381.1L124.3,397c-0.7-0.2-1.4-0.4-2.1-0.6l55.7-15.8C178.6,380.8,179.2,380.9,179.8,381.1z"/>
							<path class="st6" d="M182,388.6c0,0.1,0,0.3,0,0.4c-0.8,4.7-14.6,8.5-31.5,8.5c-16.9,0-30.7-3.8-31.5-8.5c0-0.1,0-0.3,0-0.4
								c0-4.9,14.1-8.9,31.5-8.9C167.9,379.7,182,383.7,182,388.6z"/>
							<path class="st6" d="M182,389c-0.8,4.7-14.6,8.5-31.5,8.5c-0.4,0-0.8,0-1.1,0c-3.8,0-7.4-0.3-10.7-0.6
								c-3.3-0.4-6.4-0.9-9-1.6c-0.7-0.2-1.3-0.3-1.9-0.5c-2.8-0.8-5.1-1.8-6.6-2.9c-0.4-0.3-0.7-0.5-1-0.8c-0.7-0.6-1-1.3-1.2-2
								c0.8-4.7,14.6-8.5,31.5-8.5c2.1,0,4.2,0.1,6.2,0.2c1,0.1,2,0.1,3,0.2c4.1,0.4,7.8,0.9,10.9,1.7c0.7,0.2,1.3,0.3,2,0.5
								c2.5,0.7,4.5,1.5,6.1,2.4c1.5,0.9,2.5,1.8,3,2.8C181.9,388.6,182,388.8,182,389z"/>
							<path class="st13" d="M181.8,388.4l-32.4,9.2c-3.8,0-7.4-0.3-10.7-0.6l40.1-11.4C180.3,386.4,181.4,387.3,181.8,388.4z"/>
							<path class="st13" d="M159.8,380.9l-38.6,11c-0.4-0.3-0.7-0.5-1-0.8l36.6-10.4C157.8,380.7,158.8,380.8,159.8,380.9z"/>
							<path class="st13" d="M172.7,383.1l-43,12.2c-0.7-0.2-1.3-0.3-1.9-0.5l43-12.2C171.4,382.7,172.1,382.9,172.7,383.1z"/>
						</g>
					</g>
				</g>
				<g>
					<g>
						<path class="st5" d="M192.4,383.4c0,0,0,0.1,0,0.1c0,1.4-0.7,2.7-2.1,3.9c-0.3,0.3-0.7,0.6-1.1,0.9c-1.1,0.8-2.5,1.6-4.1,2.3
							c-0.4,0.2-0.7,0.3-1.1,0.5c-1.3,0.5-2.6,1-4.1,1.4c-0.4,0.1-0.7,0.2-1.1,0.3c-1.3,0.4-2.7,0.7-4.1,1c-0.4,0.1-0.7,0.1-1.1,0.2
							c-1.3,0.3-2.7,0.5-4.1,0.7c-0.4,0.1-0.7,0.1-1.1,0.1c-1.3,0.2-2.7,0.3-4.1,0.5c-0.4,0-0.7,0.1-1.1,0.1
							c-1.4,0.1-2.7,0.2-4.1,0.3c-0.4,0-0.7,0-1.1,0c-1.4,0.1-2.7,0.1-4.1,0.1c-0.2,0-0.5,0-0.7,0c-0.1,0-0.2,0-0.4,0
							c-1.4,0-2.8,0-4.1-0.1c-0.4,0-0.7,0-1.1,0c-1,0-2.1-0.1-3.1-0.2c-0.4,0-0.7-0.1-1.1-0.1c-0.4,0-0.7-0.1-1.1-0.1
							c-1.4-0.1-2.8-0.3-4.1-0.4c-0.4,0-0.7-0.1-1.1-0.1c-0.9-0.1-1.7-0.2-2.5-0.4c-0.5-0.1-1.1-0.2-1.6-0.3
							c-0.4-0.1-0.7-0.1-1.1-0.2c-1.4-0.3-2.8-0.6-4.1-0.9c-0.3-0.1-0.5-0.1-0.8-0.2c-0.1,0-0.2-0.1-0.3-0.1
							c-0.6-0.2-1.2-0.3-1.7-0.5c-0.8-0.3-1.7-0.5-2.4-0.8c-0.4-0.1-0.7-0.3-1.1-0.4c-1.4-0.6-2.6-1.2-3.7-1.9
							c-0.2-0.1-0.3-0.2-0.5-0.3c-0.2-0.1-0.4-0.3-0.5-0.4c-0.2-0.1-0.4-0.3-0.5-0.4c-1.6-1.3-2.4-2.7-2.4-4.2c0-0.1,0-0.2,0-0.3
							l0-8.4l2.4,0l1.1,0l4.1,0l1.1,0l3.2,0l0.9,0l1.1,0l4.1,0l1.1,0l4.1,0l1.1,0l4.1,0l1.1,0l4.1,0l1.1,0l4.1,0l1.1,0l4.1,0l1.1,0
							l4.1,0l1.1,0l4.1,0l1.1,0l4.1,0l1.1,0l4.1,0l1.1,0h0.3l3.9,0l1.1,0l4.1,0l1.1,0l2.1,0L192.4,383.4L192.4,383.4z"/>
						<g>
							<path class="st6" d="M117.1,374.8v13.8c-0.2-0.1-0.4-0.3-0.5-0.4c-0.2-0.1-0.4-0.3-0.5-0.4v-13L117.1,374.8z"/>
							<path class="st6" d="M122.3,374.8v16.4c-0.4-0.1-0.7-0.3-1.1-0.4v-16L122.3,374.8z"/>
							<path class="st6" d="M127.6,374.8v18.1c-0.3-0.1-0.5-0.1-0.8-0.2c-0.1,0-0.2-0.1-0.3-0.1v-17.8L127.6,374.8z"/>
							<path class="st6" d="M132.8,374.8V394c-0.4-0.1-0.7-0.1-1.1-0.2v-19L132.8,374.8z"/>
							<path class="st6" d="M138,374.8v20c-0.4,0-0.7-0.1-1.1-0.1v-19.9L138,374.8z"/>
							<path class="st6" d="M143.3,374.8v20.6c-0.4,0-0.7-0.1-1.1-0.1v-20.5L143.3,374.8z"/>
							<path class="st6" d="M148.5,374.8v20.9c-0.4,0-0.7,0-1.1,0v-20.8L148.5,374.8z"/>
							<path class="st6" d="M153.7,374.8v21c-0.2,0-0.5,0-0.7,0c-0.1,0-0.2,0-0.4,0v-21L153.7,374.8z"/>
							<path class="st6" d="M159,374.7v20.8c-0.4,0-0.7,0-1.1,0v-20.9L159,374.7z"/>
							<path class="st6" d="M164.2,374.7v20.5c-0.4,0-0.7,0.1-1.1,0.1v-20.6L164.2,374.7z"/>
							<path class="st6" d="M169.4,374.7v19.9c-0.4,0.1-0.7,0.1-1.1,0.1v-20L169.4,374.7z"/>
							<path class="st6" d="M174.7,374.7v19c-0.4,0.1-0.7,0.1-1.1,0.2v-19.2L174.7,374.7z"/>
							<path class="st6" d="M179.9,374.7v17.7c-0.4,0.1-0.7,0.2-1.1,0.3v-18L179.9,374.7z"/>
							<path class="st6" d="M185.1,374.7v15.9c-0.4,0.2-0.7,0.3-1.1,0.5v-16.3L185.1,374.7z"/>
							<path class="st6" d="M190.4,374.7v12.8c-0.3,0.3-0.7,0.6-1.1,0.9v-13.6L190.4,374.7z"/>
						</g>
					</g>
					<g>
						<g>
							<path class="st0" d="M192.4,374.8c0,6.2-17.6,11.2-39.4,11.2c-3,0-5.9-0.1-8.7-0.3c-3.5-0.2-6.8-0.6-9.9-1
								c-2.8-0.4-5.3-0.9-7.6-1.5c-0.7-0.2-1.4-0.4-2.1-0.6c-2.9-0.8-5.3-1.8-7.2-2.9c-0.4-0.2-0.7-0.4-1-0.6c-1.9-1.3-3-2.8-3-4.3
								c0-0.1,0-0.3,0-0.4c0.8-6,18.1-10.8,39.4-10.8c5.2,0,10.2,0.3,14.8,0.8c0.9,0.1,1.8,0.2,2.6,0.3c3.7,0.5,7.1,1.2,10,2
								c0.6,0.2,1.3,0.4,1.9,0.6c2.1,0.7,4,1.4,5.5,2.2c1.6,0.8,2.8,1.7,3.5,2.7c0.6,0.7,0.9,1.4,1,2.1
								C192.4,374.5,192.4,374.7,192.4,374.8z"/>
							<path class="st16" d="M191.4,372.2l-47,13.5c-3.5-0.2-6.8-0.6-9.9-1l53.4-15.1C189.4,370.4,190.6,371.3,191.4,372.2z"/>
							<path class="st16" d="M170.4,364.8l-52.8,15c-0.4-0.2-0.7-0.4-1-0.6l51.2-14.7C168.7,364.5,169.5,364.6,170.4,364.8z"/>
							<path class="st16" d="M182.3,367.3l-55.5,15.9c-0.7-0.2-1.4-0.4-2.1-0.6l55.7-15.8C181.1,366.9,181.7,367.1,182.3,367.3z"/>
							<path class="st6" d="M184.5,374.8c0,0.1,0,0.3,0,0.4c-0.8,4.7-14.6,8.5-31.5,8.5c-16.9,0-30.7-3.8-31.5-8.5
								c0-0.1,0-0.3,0-0.4c0-4.9,14.1-8.9,31.5-8.9C170.4,365.9,184.5,369.9,184.5,374.8z"/>
							<path class="st6" d="M184.5,375.2c-0.8,4.7-14.6,8.5-31.5,8.5c-0.4,0-0.8,0-1.1,0c-3.8,0-7.4-0.3-10.7-0.6
								c-3.3-0.4-6.4-0.9-9-1.6c-0.7-0.2-1.3-0.3-1.9-0.5c-2.8-0.8-5.1-1.8-6.6-2.9c-0.4-0.3-0.7-0.5-1-0.8c-0.7-0.6-1-1.3-1.2-2
								c0.8-4.7,14.6-8.5,31.5-8.5c2.1,0,4.2,0.1,6.2,0.2c1,0.1,2,0.1,3,0.2c4.1,0.4,7.8,0.9,10.9,1.7c0.7,0.2,1.3,0.3,2,0.5
								c2.5,0.7,4.5,1.5,6.1,2.4c1.5,0.9,2.5,1.8,3,2.8C184.4,374.8,184.4,375,184.5,375.2z"/>
							<path class="st13" d="M184.3,374.5l-32.4,9.2c-3.8,0-7.4-0.3-10.7-0.6l40.1-11.4C182.8,372.6,183.8,373.5,184.3,374.5z"/>
							<path class="st13" d="M162.3,367.1l-38.6,11c-0.4-0.3-0.7-0.5-1-0.8l36.6-10.4C160.3,366.9,161.3,367,162.3,367.1z"/>
							<path class="st13" d="M175.2,369.3l-43,12.2c-0.7-0.2-1.3-0.3-1.9-0.5l43-12.2C173.9,368.9,174.6,369.1,175.2,369.3z"/>
						</g>
					</g>
				</g>
			</g>
		</g>
	</g>
	<g>
		<g>
			<path class="st5" d="M359.7,186.8v29.7c0,1.9-1.5,3.4-3.4,3.4h-29.7c-1.7,0-4.4-1.2-5.6-3.9c-0.1-0.1-0.1-0.2-0.2-0.4
				c-0.1-0.2-0.1-0.4-0.2-0.5c0,0,0,0,0-0.1c0,0,0,0,0,0v-0.1l-0.1-23.4v-6.9c0-1.8,1.3-3.2,3.1-3.4c0.1,0,0.2,0,0.4,0l30.3,0.1
				c0.1,0,0.3,0,0.4,0c0,0,0,0,0,0C357.8,181.7,359.7,185,359.7,186.8z"/>
		</g>
		<g>
			<path class="st6" d="M357.2,184.6v29.7c0,1.9-1.5,3.4-3.4,3.4h-29.7c-1.3,0-2.4-0.7-3-1.8c-0.1-0.1-0.1-0.2-0.2-0.4
				c-0.1-0.2-0.1-0.4-0.2-0.5c0,0,0,0,0-0.1c0,0,0-0.1,0-0.1c0-0.2-0.1-0.4-0.1-0.6v-29.7c0-1.8,1.3-3.2,3.1-3.4c0.1,0,0.2,0,0.4,0
				h29.7c0.4,0,0.7,0,1,0.2c0,0,0,0,0,0C356.2,181.8,357.2,183.1,357.2,184.6z"/>
		</g>
		<g>
			<g>
				<path class="st4" d="M341.1,209.5l0,3l-3.8,0l0-2.8c-2.7-0.2-5.2-0.9-6.8-1.9l2.1-4.6c1.8,1.1,4.1,1.7,6.1,1.8
					c1.8,0,2.4-0.4,2.4-1c0-2.3-10.3-0.5-10.3-7.5c0-3,2.2-5.5,6.6-6.1l0-2.9l3.8,0l0,2.9c2,0.2,3.9,0.7,5.4,1.6l-1.9,4.5
					c-1.8-0.9-3.6-1.4-5.2-1.4c-1.8,0-2.4,0.5-2.4,1.2c0,2.2,10.3,0.5,10.3,7.3C347.3,206.3,345.2,208.8,341.1,209.5z"/>
			</g>
		</g>
	</g>
	<g>
		<g>
			<polygon class="st6" points="377.3,332.1 314.1,331.9 314.1,410.5 377.3,410.7 			"/>
			<g>
				<path class="st5" d="M330.3,341.8c0.6,0,1.2-0.4,1.2-1.1c0.4-4,2.1-17.2,8.6-21.9c1.8-1.3,3.7-1.8,6-1.6
					c11.4,1.1,13.1,19,13.4,23.7c0,0.6,0.6,1.1,1.2,1.1l0,0c0.7,0,1.2-0.6,1.2-1.3c-0.3-5.2-2.1-24.3-15.5-25.6
					c-2.9-0.3-5.5,0.4-7.8,2.1c-7.2,5.3-9,19-9.4,23.3C329.1,341.2,329.6,341.8,330.3,341.8L330.3,341.8z"/>
			</g>
			<polygon class="st17" points="371.8,332.1 308.6,331.9 308.6,410.5 371.8,410.7 			"/>
			<g>
				<path class="st0" d="M327.4,341.4c0,1.3-1,2.3-2.3,2.3c-1.3,0-2.3-1-2.3-2.3c0-1.3,1-2.3,2.3-2.3
					C326.4,339.2,327.4,340.2,327.4,341.4z"/>
				<path class="st0" d="M357.9,341.4c0,1.3-1,2.3-2.3,2.3c-1.3,0-2.3-1-2.3-2.3c0-1.3,1-2.3,2.3-2.3
					C356.9,339.2,357.9,340.2,357.9,341.4z"/>
			</g>
			<g>
				<path class="st5" d="M325.2,342c0.6,0,1.2-0.4,1.2-1.1c0.4-4,2.1-17.2,8.6-21.9c1.8-1.3,3.7-1.8,6-1.6
					c11.4,1.1,13.1,19,13.4,23.7c0,0.6,0.6,1.1,1.2,1.1l0,0c0.7,0,1.2-0.6,1.2-1.3c-0.3-5.2-2.1-24.3-15.5-25.6
					c-2.9-0.3-5.5,0.4-7.8,2.1c-7.2,5.3-9,19-9.4,23.3C324,341.4,324.5,342,325.2,342L325.2,342z"/>
			</g>
		</g>
	</g>
</g>
<g id="DESIGNED_BY_FREEPIK">
</g>
</svg>
