<svg width="302" height="302" viewBox="0 0 302 302" fill="none" xmlns="http://www.w3.org/2000/svg">
<path d="M281.945 151C281.95 176.902 274.273 202.224 259.885 223.763C245.497 245.302 225.044 262.089 201.114 272.002C177.184 281.916 150.851 284.509 125.447 279.454C100.042 274.399 76.7076 261.924 58.3945 243.605C46.1978 231.472 36.5291 217.039 29.9481 201.143C23.367 185.248 20.0043 168.204 20.0546 151H37.7028C37.7028 213.47 88.5296 264.297 151 264.297C213.47 264.297 264.297 213.47 264.297 151C264.297 88.5296 213.47 37.7028 151 37.7028C135.602 37.7026 120.367 40.8454 106.226 46.9389C92.086 53.0325 79.3383 61.9484 68.7639 73.1406H103.223V90.7887H41.289V28.9023H58.943V57.9816C77.3016 39.8061 100.628 27.469 125.984 22.5239C151.34 17.5789 177.593 20.247 201.435 30.1923C225.278 40.1376 245.645 56.9153 259.972 78.4128C274.298 99.9102 281.944 125.166 281.945 151ZM147.461 81.9883V165.156H220.012V147.461H165.156V81.9883H147.461Z" fill="#60327C"/>
</svg>
