<?xml version="1.0" encoding="utf-8"?>
<!-- Generator: Adobe Illustrator 25.2.0, SVG Export Plug-In . SVG Version: 6.00 Build 0)  -->
<svg version="1.1" id="Layer_1" xmlns="http://www.w3.org/2000/svg" xmlns:xlink="http://www.w3.org/1999/xlink" x="0px" y="0px"
	 viewBox="0 0 50 50" style="enable-background:new 0 0 50 50;" xml:space="preserve">
<style type="text/css">
	.st0{fill:#FFFFFF;fill-opacity:0.2;}
	.st1{fill:none;stroke:#CE2525;stroke-width:2;stroke-linecap:round;stroke-linejoin:round;}
</style>
<path class="st0" d="M5,0h40c2.8,0,5,2.2,5,5v40c0,2.8-2.2,5-5,5H5c-2.8,0-5-2.2-5-5V5C0,2.2,2.2,0,5,0z"/>
<path class="st1" d="M25,27.2c3.1,0,5.6-2.5,5.6-5.6S28.1,16,25,16s-5.6,2.5-5.6,5.6S21.9,27.2,25,27.2z"/>
<path class="st1" d="M32.9,38.5c0-2.1-0.8-4.1-2.3-5.6s-3.5-2.3-5.6-2.3s-4.1,0.8-5.6,2.3s-2.3,3.5-2.3,5.6H32.9z"/>
<path class="st1" d="M34,22.8c1,0,1.9-0.2,2.7-0.7s1.5-1.1,2-2c0.5-0.8,0.8-1.7,0.8-2.7s-0.2-1.9-0.6-2.8c-0.4-0.9-1.1-1.6-1.9-2.1
	c-0.8-0.5-1.7-0.9-2.7-1s-1.9,0.1-2.8,0.5c-0.9,0.4-1.6,1-2.2,1.8"/>
<path class="st1" d="M35.1,34h6.8c0-2.1-0.8-4.1-2.3-5.6s-3.5-2.3-5.6-2.3"/>
<path class="st1" d="M20.5,13.8c-0.6-0.8-1.3-1.4-2.2-1.8c-0.9-0.4-1.8-0.5-2.8-0.5c-1,0.1-1.9,0.4-2.7,1C12,13,11.4,13.8,11,14.6
	c-0.4,0.9-0.6,1.8-0.6,2.8s0.3,1.9,0.8,2.7c0.5,0.8,1.2,1.5,2,2s1.8,0.7,2.7,0.7"/>
<path class="st1" d="M16,26.1c-2.1,0-4.1,0.8-5.6,2.3C9,29.9,8.1,31.9,8.1,34h6.8"/>
</svg>
