<svg width="50" height="50" viewBox="0 0 50 50" fill="none" xmlns="http://www.w3.org/2000/svg">
<rect width="50" height="50" rx="5" fill="white" fill-opacity="0.4"/>
<g clip-path="url(#clip0_1704_1066)">
<path d="M25 7L24.2898 7.02812L23.5867 7.1125L22.8906 7.24961L22.2086 7.43945L21.5406 7.68555L20.8973 7.98086L20.2785 8.32539L19.6879 8.71914L19.1289 9.15508L18.6086 9.63672L18.127 10.157L17.6875 10.709L17.2937 11.2961L16.9457 11.9148L16.6469 12.5547L16.4043 13.2191L16.2109 13.9012L16.0703 14.5938L15.9895 15.2969L15.9613 16L15.9895 17.1039L16.0668 18.2043L16.2039 19.2977L16.3938 20.384L16.6363 21.4598L16.9316 22.525L17.2762 23.5691L17.6734 24.5992L18.1234 25.6047L18.6191 26.5926L18.9496 27.148L19.3258 27.6719L19.4383 27.8477L19.5051 28.041L19.5227 28.2484L19.4945 28.4559L19.4172 28.6457L19.3047 28.818L19.15 28.9551L18.9672 29.057L18.7703 29.1168L17.4731 29.3559L16.1899 29.6371L14.9137 29.9605L13.6516 30.3297L12.4035 30.7445L11.1695 31.2016L10.6668 31.4266L10.1922 31.7008L9.74571 32.0242L9.33438 32.3863L8.96524 32.7906L8.63829 33.2266L8.35704 33.6976L8.12148 34.1934L7.80156 35.0406L7.53086 35.902L7.30937 36.7773L7.13711 37.6633L7.01406 38.5562L7 38.9254L7.03516 39.2875L7.11953 39.6426L7.24961 39.9836L7.42539 40.3035L7.63984 40.5988L7.9 40.859L8.18477 41.084L8.50469 41.2668L8.84219 41.4109L9.19727 41.4988L11.282 41.875L13.3773 42.1949L15.4797 42.4621L17.5891 42.6766L19.702 42.8383L21.8219 42.9473L23.9418 43H25.8262L24.0262 41.2H23.9594L21.8887 41.1473L19.818 41.0418L17.7508 40.8871L15.6836 40.6762L13.6305 40.4125L11.5773 40.0996L9.53828 39.734L9.32734 39.6637L9.13398 39.5477L8.98281 39.3824L8.87383 39.1926L8.81406 38.9746L8.81055 38.7531L8.92305 37.9551L9.07422 37.1711L9.2711 36.3906L9.51016 35.6242L9.79493 34.8719L9.97774 34.4992L10.1992 34.1406L10.4594 33.8172L10.7582 33.5254L11.0887 33.2688L11.4473 33.0508L11.827 32.8785L13.0012 32.4426L14.1895 32.0488L15.3918 31.6973L16.6082 31.3879L17.8316 31.1207L19.0621 30.8922L19.4523 30.7973L19.825 30.6461L20.1731 30.4422L20.4824 30.1891L20.7496 29.8938L20.9781 29.5633L21.1469 29.2012L21.2629 28.818L21.3227 28.4242V28.0234L21.2594 27.6297L21.1434 27.2465L20.9711 26.8844L20.7461 26.5539L20.4613 26.1602L20.2152 25.7453L19.7547 24.8383L19.3434 23.9102L18.9777 22.9645L18.6613 22.0012L18.3906 21.0238L18.1656 20.0324L17.9934 19.034L17.8668 18.0285L17.793 17.016L17.7648 16.0035L17.7965 15.3742L17.8773 14.752L18.0145 14.1402L18.2043 13.5391L18.4469 12.959L18.7352 12.4L19.0762 11.8727L19.4594 11.3734L19.8848 10.9094L20.3523 10.484L20.8516 10.1043L21.3824 9.7668L21.9414 9.475L22.525 9.23594L23.1262 9.04609L23.7449 8.9125L24.3707 8.82812L24.9965 8.8L25.6293 8.82812L26.2551 8.9125L26.8703 9.04609L27.4715 9.23594L28.0551 9.475L28.6176 9.7668L29.1484 10.1043L29.6477 10.484L30.1152 10.9094L30.5371 11.3734L30.9238 11.8727L31.2648 12.4L31.5531 12.959L31.7957 13.5391L31.9855 14.1402L32.1227 14.752L32.2035 15.3742L32.2316 16.0035L32.207 17.016L32.1332 18.0285L32.0067 19.034L31.8309 20.0324L31.6094 21.0238L31.3387 22.0012L31.0223 22.9645L30.6531 23.9102L30.2418 24.8383L29.7848 25.7453L29.5387 26.1602L29.2539 26.5539L29.0254 26.8844L28.8567 27.2465L28.7371 27.6297L28.6738 28.0234V28.4242L28.7336 28.818L28.8496 29.2012L29.0219 29.5633L29.2469 29.8937L29.514 30.1891L29.8269 30.4422L30.175 30.6461L30.5476 30.7973L30.9344 30.8922L32.1683 31.1207L33.3918 31.3879L34.6047 31.6973L35.1637 31.8625L36.6086 30.4176L36.3484 30.3297L35.0863 29.9606L33.8137 29.6371L32.5305 29.3559L31.2332 29.1168L31.0328 29.057L30.85 28.9551L30.6988 28.818L30.5828 28.6457L30.509 28.4559L30.4773 28.2485L30.4984 28.041L30.5652 27.8477L30.6742 27.6719L31.0539 27.1481L31.3844 26.5926L31.8801 25.6047L32.3266 24.5992L32.7238 23.5691L33.0719 22.525L33.3672 21.4598L33.6098 20.384L33.7961 19.2977L33.9332 18.2043L34.0141 17.1039L34.0387 16L34.0141 15.2969L33.9297 14.5938L33.7891 13.9012L33.5992 13.2191L33.3531 12.5547L33.0543 11.9148L32.7098 11.2961L32.316 10.709L31.873 10.157L31.3949 9.63672L30.8746 9.15508L30.3156 8.71914L29.725 8.32539L29.1027 7.98086L28.4594 7.68555L27.7949 7.43945L27.1129 7.24961L26.4133 7.1125L25.7102 7.02812L25 7ZM42.0719 30.393C41.8383 30.3994 41.6164 30.4965 41.4531 30.6637L31.2895 40.8273L26.5258 36.0637C25.6775 35.1802 24.3697 36.4881 25.2531 37.3363L30.6531 42.7363C31.0046 43.0877 31.5743 43.0877 31.9258 42.7363L42.7258 31.9363C43.3113 31.3639 42.8904 30.3705 42.0719 30.393Z" fill="#515151"/>
</g>
<defs>
<clipPath id="clip0_1704_1066">
<rect width="36" height="36" fill="white" transform="translate(7 7)"/>
</clipPath>
</defs>
</svg>
