<svg width="386" height="359" viewBox="0 0 386 359" fill="none" xmlns="http://www.w3.org/2000/svg">
<rect x="0.5" y="0.5" width="385" height="358" rx="11.5" fill="white" stroke="#A5B4CB"/>
<path d="M193 241C276.395 241 344 203.84 344 158C344 112.16 276.395 75 193 75C109.605 75 42 112.16 42 158C42 203.84 109.605 241 193 241Z" fill="white" stroke="#B5B5B5" stroke-width="3" stroke-miterlimit="10"/>
<path d="M192.5 232C228.675 232 258 198.869 258 158C258 117.131 228.675 84 192.5 84C156.325 84 127 117.131 127 158C127 198.869 156.325 232 192.5 232Z" fill="white" stroke="#B5B5B5" stroke-width="3" stroke-miterlimit="10"/>
<path d="M191.656 36.384C191.656 37.1733 191.512 37.92 191.224 38.624C190.936 39.328 190.531 39.9467 190.008 40.48C189.485 41.0027 188.867 41.4187 188.152 41.728C187.437 42.0373 186.648 42.192 185.784 42.192C184.92 42.192 184.131 42.0427 183.416 41.744C182.701 41.4347 182.088 41.0187 181.576 40.496C181.064 39.9733 180.664 39.36 180.376 38.656C180.088 37.952 179.944 37.2053 179.944 36.416C179.944 35.6267 180.088 34.88 180.376 34.176C180.664 33.472 181.069 32.8587 181.592 32.336C182.115 31.8027 182.733 31.3813 183.448 31.072C184.163 30.7627 184.952 30.608 185.816 30.608C186.68 30.608 187.469 30.7627 188.184 31.072C188.899 31.3707 189.512 31.7813 190.024 32.304C190.536 32.8267 190.936 33.44 191.224 34.144C191.512 34.848 191.656 35.5947 191.656 36.384ZM189.592 36.416C189.592 35.872 189.496 35.36 189.304 34.88C189.123 34.3893 188.861 33.9627 188.52 33.6C188.189 33.2373 187.789 32.9493 187.32 32.736C186.851 32.5227 186.339 32.416 185.784 32.416C185.229 32.416 184.717 32.5227 184.248 32.736C183.789 32.9387 183.395 33.2213 183.064 33.584C182.733 33.936 182.472 34.3573 182.28 34.848C182.099 35.328 182.008 35.84 182.008 36.384C182.008 36.928 182.099 37.4453 182.28 37.936C182.472 38.416 182.733 38.8373 183.064 39.2C183.405 39.5627 183.811 39.8507 184.28 40.064C184.749 40.2773 185.261 40.384 185.816 40.384C186.371 40.384 186.877 40.2827 187.336 40.08C187.805 39.8667 188.205 39.584 188.536 39.232C188.867 38.8693 189.123 38.448 189.304 37.968C189.496 37.4773 189.592 36.96 189.592 36.416ZM195.62 33.728C195.62 33.952 195.657 34.144 195.732 34.304C195.806 34.464 195.94 34.6133 196.132 34.752C196.334 34.8907 196.606 35.0187 196.948 35.136C197.3 35.2533 197.742 35.376 198.276 35.504C198.862 35.6533 199.38 35.8187 199.828 36C200.286 36.1813 200.665 36.4053 200.964 36.672C201.262 36.928 201.486 37.232 201.636 37.584C201.796 37.9253 201.876 38.3307 201.876 38.8C201.876 39.3333 201.774 39.808 201.572 40.224C201.38 40.64 201.108 40.992 200.756 41.28C200.404 41.568 199.982 41.7867 199.492 41.936C199.001 42.0853 198.462 42.16 197.876 42.16C197.012 42.16 196.185 42.016 195.396 41.728C194.606 41.4293 193.876 40.976 193.204 40.368L194.388 38.96C194.932 39.4293 195.481 39.792 196.036 40.048C196.59 40.2933 197.22 40.416 197.924 40.416C198.532 40.416 199.012 40.288 199.364 40.032C199.726 39.776 199.908 39.4293 199.908 38.992C199.908 38.7893 199.87 38.608 199.796 38.448C199.732 38.288 199.604 38.144 199.412 38.016C199.23 37.8773 198.974 37.7493 198.644 37.632C198.324 37.5147 197.902 37.392 197.38 37.264C196.782 37.1253 196.249 36.9707 195.78 36.8C195.321 36.6293 194.932 36.416 194.612 36.16C194.302 35.904 194.062 35.5947 193.892 35.232C193.732 34.8693 193.652 34.4267 193.652 33.904C193.652 33.4133 193.748 32.9707 193.94 32.576C194.132 32.1707 194.393 31.824 194.724 31.536C195.065 31.248 195.47 31.0293 195.94 30.88C196.409 30.72 196.921 30.64 197.476 30.64C198.297 30.64 199.033 30.7627 199.684 31.008C200.345 31.2427 200.964 31.5893 201.54 32.048L200.484 33.536C199.972 33.1627 199.465 32.88 198.964 32.688C198.462 32.4853 197.956 32.384 197.444 32.384C196.868 32.384 196.42 32.5173 196.1 32.784C195.78 33.04 195.62 33.3547 195.62 33.728Z" fill="#203765"/>
<circle cx="29" cy="273" r="8" fill="#D23230" stroke="#2CD889" stroke-width="2"/>
<circle cx="51" cy="273" r="9" fill="black"/>
<circle cx="73" cy="273" r="9" fill="#709B4F"/>
<circle cx="95" cy="273" r="9" fill="#8C6C30"/>
<circle cx="117" cy="273" r="9" fill="#4523F4"/>
<circle cx="139" cy="273" r="9" fill="#F1D35B"/>
<g clip-path="url(#clip0_1182_321)">
<path d="M359.517 267.732L363.268 271.482L355.123 279.627L351.78 279.996C351.332 280.045 350.954 279.667 351.003 279.219L351.376 275.873L359.517 267.732ZM365.587 267.173L363.826 265.412C363.277 264.863 362.386 264.863 361.837 265.412L360.18 267.069L363.931 270.82L365.587 269.163C366.137 268.613 366.137 267.723 365.587 267.173Z" fill="#203765"/>
</g>
<path d="M25.558 311.2C26.0433 311.2 26.482 311.261 26.874 311.382C27.266 311.494 27.602 311.657 27.882 311.872C28.162 312.077 28.3767 312.334 28.526 312.642C28.6753 312.941 28.75 313.277 28.75 313.65C28.75 313.977 28.7033 314.261 28.61 314.504C28.526 314.747 28.4093 314.961 28.26 315.148C28.1107 315.335 27.9427 315.493 27.756 315.624C27.5787 315.745 27.392 315.848 27.196 315.932C27.4853 316.016 27.756 316.128 28.008 316.268C28.2693 316.399 28.4933 316.557 28.68 316.744C28.8667 316.931 29.016 317.155 29.128 317.416C29.24 317.677 29.296 317.976 29.296 318.312C29.296 318.732 29.212 319.11 29.044 319.446C28.876 319.782 28.6333 320.067 28.316 320.3C28.008 320.524 27.6347 320.697 27.196 320.818C26.7573 320.939 26.272 321 25.74 321H21.386V311.2H25.558ZM25.376 315.568C26.0387 315.568 26.58 315.419 27 315.12C27.42 314.821 27.63 314.383 27.63 313.804C27.63 313.309 27.4433 312.917 27.07 312.628C26.6967 312.339 26.16 312.194 25.46 312.194H22.478V315.568H25.376ZM25.768 320.006C26.5147 320.006 27.1027 319.852 27.532 319.544C27.9613 319.236 28.176 318.802 28.176 318.242C28.176 317.701 27.9567 317.285 27.518 316.996C27.0793 316.697 26.4307 316.548 25.572 316.548H22.478V320.006H25.768ZM32.3855 318.116V321H31.3075V313.762H32.3855V315.652C32.5162 315.353 32.6795 315.078 32.8755 314.826C33.0715 314.574 33.2955 314.359 33.5475 314.182C33.7995 313.995 34.0748 313.855 34.3735 313.762C34.6722 313.669 34.9942 313.627 35.3395 313.636V314.798H35.2555C34.8635 314.798 34.4902 314.868 34.1355 315.008C33.7902 315.148 33.4868 315.358 33.2255 315.638C32.9642 315.918 32.7588 316.268 32.6095 316.688C32.4602 317.099 32.3855 317.575 32.3855 318.116ZM42.1193 317.906V313.762H43.1833V321H42.1193V319.74C41.8767 320.132 41.5593 320.468 41.1673 320.748C40.7753 321.019 40.2667 321.154 39.6413 321.154C39.2027 321.154 38.8107 321.084 38.4653 320.944C38.1293 320.804 37.84 320.608 37.5973 320.356C37.364 320.095 37.182 319.787 37.0513 319.432C36.93 319.077 36.8693 318.685 36.8693 318.256V313.762H37.9473V317.99C37.9473 318.662 38.12 319.194 38.4653 319.586C38.8107 319.978 39.3053 320.174 39.9493 320.174C40.2573 320.174 40.542 320.123 40.8033 320.02C41.074 319.908 41.3027 319.754 41.4893 319.558C41.6853 319.353 41.8393 319.11 41.9513 318.83C42.0633 318.55 42.1193 318.242 42.1193 317.906ZM50.5783 318.97C50.5783 319.315 50.5083 319.623 50.3683 319.894C50.2376 320.155 50.0556 320.379 49.8223 320.566C49.5983 320.753 49.3276 320.897 49.0103 321C48.7023 321.093 48.3663 321.14 48.0023 321.14C47.4796 321.14 46.9523 321.047 46.4203 320.86C45.8883 320.664 45.417 320.403 45.0063 320.076L45.5523 319.306C45.9443 319.605 46.3503 319.833 46.7703 319.992C47.1996 320.151 47.629 320.23 48.0583 320.23C48.497 320.23 48.8563 320.127 49.1363 319.922C49.4163 319.717 49.5563 319.437 49.5563 319.082V319.054C49.5563 318.877 49.505 318.723 49.4023 318.592C49.309 318.461 49.1783 318.349 49.0103 318.256C48.8423 318.153 48.6463 318.065 48.4223 317.99C48.2076 317.915 47.9836 317.845 47.7503 317.78C47.4703 317.696 47.1856 317.607 46.8963 317.514C46.6163 317.411 46.3596 317.285 46.1263 317.136C45.9023 316.987 45.7156 316.8 45.5663 316.576C45.4263 316.352 45.3563 316.072 45.3563 315.736V315.708C45.3563 315.4 45.417 315.12 45.5383 314.868C45.6596 314.607 45.8276 314.387 46.0423 314.21C46.2663 314.023 46.5276 313.883 46.8263 313.79C47.1343 313.687 47.4656 313.636 47.8203 313.636C48.2683 313.636 48.721 313.711 49.1783 313.86C49.6356 314 50.051 314.191 50.4243 314.434L49.9343 315.246C49.5983 315.031 49.2436 314.863 48.8703 314.742C48.5063 314.611 48.147 314.546 47.7923 314.546C47.363 314.546 47.0223 314.649 46.7703 314.854C46.5183 315.05 46.3923 315.297 46.3923 315.596V315.624C46.3923 315.792 46.4436 315.941 46.5463 316.072C46.649 316.193 46.7843 316.301 46.9523 316.394C47.1296 316.487 47.3303 316.571 47.5543 316.646C47.7783 316.721 48.0116 316.795 48.2543 316.87C48.5343 316.954 48.8096 317.047 49.0803 317.15C49.3603 317.253 49.6123 317.383 49.8363 317.542C50.0603 317.701 50.2376 317.892 50.3683 318.116C50.5083 318.34 50.5783 318.615 50.5783 318.942V318.97ZM53.659 316.856V321H52.581V310.78H53.659V315.022C53.9016 314.63 54.219 314.299 54.611 314.028C55.003 313.748 55.5116 313.608 56.137 313.608C56.5756 313.608 56.963 313.678 57.299 313.818C57.6443 313.958 57.9336 314.159 58.167 314.42C58.4096 314.672 58.5916 314.975 58.713 315.33C58.8436 315.685 58.909 316.077 58.909 316.506V321H57.831V316.772C57.831 316.1 57.6583 315.568 57.313 315.176C56.9676 314.784 56.473 314.588 55.829 314.588C55.521 314.588 55.2316 314.644 54.961 314.756C54.6996 314.859 54.471 315.013 54.275 315.218C54.079 315.414 53.925 315.652 53.813 315.932C53.7103 316.212 53.659 316.52 53.659 316.856ZM66.4412 313.65C66.4412 313.883 66.4785 314.093 66.5532 314.28C66.6278 314.467 66.7632 314.639 66.9592 314.798C67.1552 314.947 67.4258 315.087 67.7712 315.218C68.1165 315.339 68.5598 315.456 69.1012 315.568C70.1932 315.811 70.9958 316.147 71.5092 316.576C72.0318 317.005 72.2932 317.598 72.2932 318.354C72.2932 318.774 72.2092 319.157 72.0412 319.502C71.8732 319.847 71.6398 320.141 71.3412 320.384C71.0518 320.627 70.7018 320.813 70.2912 320.944C69.8805 321.075 69.4325 321.14 68.9472 321.14C68.1632 321.14 67.4445 321.014 66.7912 320.762C66.1472 320.501 65.5312 320.104 64.9432 319.572L65.6292 318.76C66.1425 319.227 66.6605 319.577 67.1832 319.81C67.7058 320.034 68.3078 320.146 68.9892 320.146C69.6518 320.146 70.1792 319.992 70.5712 319.684C70.9725 319.376 71.1732 318.97 71.1732 318.466C71.1732 318.233 71.1358 318.027 71.0612 317.85C70.9865 317.663 70.8558 317.495 70.6692 317.346C70.4825 317.197 70.2212 317.061 69.8852 316.94C69.5585 316.819 69.1385 316.702 68.6252 316.59C68.0652 316.469 67.5752 316.329 67.1552 316.17C66.7445 316.011 66.4038 315.82 66.1332 315.596C65.8625 315.372 65.6618 315.111 65.5312 314.812C65.4005 314.513 65.3352 314.159 65.3352 313.748C65.3352 313.356 65.4145 312.997 65.5732 312.67C65.7318 312.343 65.9558 312.063 66.2452 311.83C66.5345 311.587 66.8752 311.401 67.2672 311.27C67.6592 311.13 68.0885 311.06 68.5552 311.06C69.2738 311.06 69.8992 311.163 70.4312 311.368C70.9725 311.564 71.4952 311.863 71.9992 312.264L71.3552 313.118C70.8978 312.745 70.4358 312.474 69.9692 312.306C69.5118 312.138 69.0312 312.054 68.5272 312.054C68.2098 312.054 67.9205 312.096 67.6592 312.18C67.4072 312.264 67.1878 312.376 67.0012 312.516C66.8238 312.656 66.6838 312.824 66.5812 313.02C66.4878 313.216 66.4412 313.426 66.4412 313.65ZM75.6203 312.18H74.3883V310.99H75.6203V312.18ZM75.5363 321H74.4583V313.762H75.5363V321ZM82.42 314.672H77.786V313.762H83.89V314.448L79.074 320.09H83.89V321H77.618V320.314L82.42 314.672ZM86.2562 317.78C86.2935 318.172 86.3869 318.522 86.5362 318.83C86.6855 319.129 86.8769 319.385 87.1102 319.6C87.3435 319.805 87.6049 319.964 87.8942 320.076C88.1835 320.179 88.4869 320.23 88.8042 320.23C89.3082 320.23 89.7375 320.137 90.0922 319.95C90.4562 319.763 90.7875 319.516 91.0862 319.208L91.7582 319.81C91.3942 320.221 90.9789 320.552 90.5122 320.804C90.0455 321.047 89.4669 321.168 88.7762 321.168C88.2815 321.168 87.8149 321.079 87.3762 320.902C86.9375 320.715 86.5549 320.459 86.2282 320.132C85.9015 319.796 85.6402 319.395 85.4442 318.928C85.2575 318.461 85.1642 317.948 85.1642 317.388C85.1642 316.865 85.2482 316.375 85.4162 315.918C85.5935 315.451 85.8362 315.05 86.1442 314.714C86.4522 314.369 86.8162 314.098 87.2362 313.902C87.6655 313.706 88.1322 313.608 88.6362 313.608C89.1682 313.608 89.6442 313.711 90.0642 313.916C90.4842 314.112 90.8389 314.383 91.1282 314.728C91.4175 315.073 91.6369 315.479 91.7862 315.946C91.9355 316.413 92.0102 316.912 92.0102 317.444C92.0102 317.491 92.0102 317.542 92.0102 317.598C92.0102 317.654 92.0055 317.715 91.9962 317.78H86.2562ZM86.2562 316.982H90.9182C90.8902 316.655 90.8202 316.343 90.7082 316.044C90.6055 315.745 90.4562 315.484 90.2602 315.26C90.0735 315.036 89.8402 314.859 89.5602 314.728C89.2895 314.588 88.9722 314.518 88.6082 314.518C88.2909 314.518 87.9969 314.583 87.7262 314.714C87.4555 314.835 87.2175 315.008 87.0122 315.232C86.8069 315.447 86.6389 315.703 86.5082 316.002C86.3775 316.301 86.2935 316.627 86.2562 316.982Z" fill="#203765"/>
<rect x="20" y="328" width="128" height="4" rx="2" fill="#D9D9D9"/>
<rect x="20" y="328" width="24" height="4" rx="2" fill="#4370C7"/>
<circle cx="44" cy="330" r="4" fill="#2CD889"/>
<rect x="214" y="306" width="72" height="32" rx="5" fill="#2CD889"/>
<rect x="296" y="306" width="70" height="32" rx="5" fill="#203765"/>
<path d="M239.576 326H237.546L235.138 322.584H232.982V326H231.26V316.2H235.628C236.188 316.2 236.692 316.275 237.14 316.424C237.597 316.564 237.98 316.769 238.288 317.04C238.605 317.301 238.848 317.628 239.016 318.02C239.184 318.403 239.268 318.832 239.268 319.308C239.268 319.719 239.207 320.087 239.086 320.414C238.974 320.731 238.815 321.016 238.61 321.268C238.405 321.511 238.157 321.721 237.868 321.898C237.588 322.066 237.275 322.197 236.93 322.29L239.576 326ZM237.518 319.406C237.518 318.865 237.341 318.459 236.986 318.188C236.631 317.908 236.132 317.768 235.488 317.768H232.982V321.058H235.502C236.118 321.058 236.608 320.909 236.972 320.61C237.336 320.311 237.518 319.91 237.518 319.406ZM242.332 322.906C242.435 323.513 242.678 323.979 243.06 324.306C243.443 324.623 243.91 324.782 244.46 324.782C244.88 324.782 245.244 324.707 245.552 324.558C245.86 324.409 246.164 324.189 246.462 323.9L247.456 324.782C247.102 325.202 246.677 325.538 246.182 325.79C245.697 326.042 245.114 326.168 244.432 326.168C243.9 326.168 243.401 326.075 242.934 325.888C242.477 325.701 242.076 325.44 241.73 325.104C241.394 324.768 241.128 324.367 240.932 323.9C240.736 323.424 240.638 322.897 240.638 322.318C240.638 321.786 240.727 321.287 240.904 320.82C241.082 320.353 241.329 319.947 241.646 319.602C241.973 319.247 242.356 318.967 242.794 318.762C243.233 318.557 243.718 318.454 244.25 318.454C244.838 318.454 245.352 318.561 245.79 318.776C246.238 318.991 246.607 319.28 246.896 319.644C247.195 320.008 247.419 320.433 247.568 320.918C247.718 321.403 247.792 321.912 247.792 322.444C247.792 322.519 247.788 322.593 247.778 322.668C247.778 322.743 247.774 322.822 247.764 322.906H242.332ZM242.318 321.786H246.112C246.084 321.515 246.024 321.263 245.93 321.03C245.837 320.787 245.711 320.582 245.552 320.414C245.394 320.237 245.202 320.097 244.978 319.994C244.764 319.891 244.516 319.84 244.236 319.84C243.714 319.84 243.28 320.022 242.934 320.386C242.598 320.741 242.393 321.207 242.318 321.786ZM254.772 323.816C254.772 324.208 254.702 324.549 254.562 324.838C254.422 325.127 254.226 325.37 253.974 325.566C253.731 325.753 253.442 325.897 253.106 326C252.77 326.093 252.41 326.14 252.028 326.14C251.496 326.14 250.954 326.047 250.404 325.86C249.862 325.673 249.358 325.398 248.892 325.034L249.648 323.886C250.049 324.185 250.455 324.413 250.866 324.572C251.286 324.721 251.687 324.796 252.07 324.796C252.434 324.796 252.714 324.726 252.91 324.586C253.115 324.437 253.218 324.241 253.218 323.998V323.97C253.218 323.83 253.171 323.709 253.078 323.606C252.994 323.503 252.872 323.415 252.714 323.34C252.564 323.256 252.387 323.186 252.182 323.13C251.986 323.065 251.78 322.999 251.566 322.934C251.295 322.85 251.02 322.757 250.74 322.654C250.469 322.551 250.222 322.421 249.998 322.262C249.783 322.094 249.606 321.893 249.466 321.66C249.326 321.417 249.256 321.119 249.256 320.764V320.736C249.256 320.391 249.321 320.078 249.452 319.798C249.592 319.518 249.778 319.28 250.012 319.084C250.254 318.888 250.534 318.739 250.852 318.636C251.178 318.533 251.524 318.482 251.888 318.482C252.354 318.482 252.826 318.557 253.302 318.706C253.778 318.855 254.212 319.061 254.604 319.322L253.932 320.526C253.577 320.311 253.218 320.143 252.854 320.022C252.49 319.891 252.154 319.826 251.846 319.826C251.519 319.826 251.262 319.896 251.076 320.036C250.898 320.176 250.81 320.353 250.81 320.568V320.596C250.81 320.727 250.856 320.843 250.95 320.946C251.043 321.039 251.164 321.128 251.314 321.212C251.472 321.287 251.65 321.361 251.846 321.436C252.051 321.501 252.261 321.567 252.476 321.632C252.746 321.716 253.017 321.814 253.288 321.926C253.558 322.038 253.801 322.178 254.016 322.346C254.24 322.505 254.422 322.701 254.562 322.934C254.702 323.167 254.772 323.452 254.772 323.788V323.816ZM257.782 322.906C257.884 323.513 258.127 323.979 258.51 324.306C258.892 324.623 259.359 324.782 259.91 324.782C260.33 324.782 260.694 324.707 261.002 324.558C261.31 324.409 261.613 324.189 261.912 323.9L262.906 324.782C262.551 325.202 262.126 325.538 261.632 325.79C261.146 326.042 260.563 326.168 259.882 326.168C259.35 326.168 258.85 326.075 258.384 325.888C257.926 325.701 257.525 325.44 257.18 325.104C256.844 324.768 256.578 324.367 256.382 323.9C256.186 323.424 256.088 322.897 256.088 322.318C256.088 321.786 256.176 321.287 256.354 320.82C256.531 320.353 256.778 319.947 257.096 319.602C257.422 319.247 257.805 318.967 258.244 318.762C258.682 318.557 259.168 318.454 259.7 318.454C260.288 318.454 260.801 318.561 261.24 318.776C261.688 318.991 262.056 319.28 262.346 319.644C262.644 320.008 262.868 320.433 263.018 320.918C263.167 321.403 263.242 321.912 263.242 322.444C263.242 322.519 263.237 322.593 263.228 322.668C263.228 322.743 263.223 322.822 263.214 322.906H257.782ZM257.768 321.786H261.562C261.534 321.515 261.473 321.263 261.38 321.03C261.286 320.787 261.16 320.582 261.002 320.414C260.843 320.237 260.652 320.097 260.428 319.994C260.213 319.891 259.966 319.84 259.686 319.84C259.163 319.84 258.729 320.022 258.384 320.386C258.048 320.741 257.842 321.207 257.768 321.786ZM266.987 320.064V323.69C266.987 324.017 267.066 324.255 267.225 324.404C267.384 324.544 267.608 324.614 267.897 324.614C268.261 324.614 268.611 324.53 268.947 324.362V325.748C268.732 325.869 268.504 325.963 268.261 326.028C268.018 326.093 267.738 326.126 267.421 326.126C267.113 326.126 266.828 326.089 266.567 326.014C266.306 325.939 266.077 325.818 265.881 325.65C265.694 325.482 265.55 325.263 265.447 324.992C265.344 324.712 265.293 324.367 265.293 323.956V320.064H264.355V318.608H265.293V316.578H266.987V318.608H268.975V320.064H266.987Z" fill="white"/>
<path d="M321.492 316.2V321.758C321.492 322.486 321.389 323.125 321.184 323.676C320.988 324.227 320.708 324.689 320.344 325.062C319.98 325.426 319.537 325.701 319.014 325.888C318.501 326.065 317.922 326.154 317.278 326.154C316.643 326.154 316.069 326.065 315.556 325.888C315.043 325.701 314.604 325.426 314.24 325.062C313.876 324.698 313.596 324.25 313.4 323.718C313.204 323.177 313.106 322.551 313.106 321.842V316.2H314.828V321.772C314.828 322.687 315.047 323.382 315.486 323.858C315.925 324.334 316.531 324.572 317.306 324.572C318.071 324.572 318.673 324.343 319.112 323.886C319.551 323.429 319.77 322.747 319.77 321.842V316.2H321.492ZM325.354 321.828V326H323.66V318.608H325.354V319.756C325.475 319.579 325.606 319.415 325.746 319.266C325.895 319.107 326.063 318.967 326.25 318.846C326.446 318.725 326.656 318.631 326.88 318.566C327.113 318.491 327.374 318.454 327.664 318.454C328.504 318.454 329.152 318.711 329.61 319.224C330.067 319.737 330.296 320.428 330.296 321.296V326H328.602V321.8C328.602 321.221 328.462 320.778 328.182 320.47C327.911 320.153 327.524 319.994 327.02 319.994C326.525 319.994 326.124 320.157 325.816 320.484C325.508 320.801 325.354 321.249 325.354 321.828ZM339.607 326H337.913V324.768C337.643 325.151 337.302 325.477 336.891 325.748C336.49 326.019 335.991 326.154 335.393 326.154C334.955 326.154 334.53 326.07 334.119 325.902C333.709 325.734 333.345 325.487 333.027 325.16C332.71 324.824 332.453 324.418 332.257 323.942C332.061 323.466 331.963 322.92 331.963 322.304C331.963 321.688 332.057 321.142 332.243 320.666C332.439 320.19 332.696 319.789 333.013 319.462C333.331 319.126 333.695 318.874 334.105 318.706C334.525 318.538 334.955 318.454 335.393 318.454C336 318.454 336.504 318.585 336.905 318.846C337.307 319.107 337.643 319.411 337.913 319.756V315.78H339.607V326ZM337.941 322.304C337.941 321.94 337.881 321.613 337.759 321.324C337.647 321.035 337.493 320.787 337.297 320.582C337.101 320.367 336.873 320.204 336.611 320.092C336.35 319.98 336.079 319.924 335.799 319.924C335.51 319.924 335.235 319.98 334.973 320.092C334.721 320.195 334.497 320.349 334.301 320.554C334.105 320.759 333.951 321.011 333.839 321.31C333.727 321.599 333.671 321.931 333.671 322.304C333.671 322.668 333.727 322.999 333.839 323.298C333.951 323.587 334.105 323.835 334.301 324.04C334.497 324.245 334.721 324.404 334.973 324.516C335.235 324.628 335.51 324.684 335.799 324.684C336.079 324.684 336.35 324.628 336.611 324.516C336.873 324.404 337.101 324.245 337.297 324.04C337.493 323.825 337.647 323.573 337.759 323.284C337.881 322.995 337.941 322.668 337.941 322.304ZM349.196 322.304C349.196 322.836 349.094 323.335 348.888 323.802C348.692 324.269 348.417 324.679 348.062 325.034C347.717 325.379 347.302 325.655 346.816 325.86C346.331 326.065 345.804 326.168 345.234 326.168C344.674 326.168 344.152 326.07 343.666 325.874C343.19 325.669 342.775 325.393 342.42 325.048C342.075 324.693 341.804 324.287 341.608 323.83C341.412 323.363 341.314 322.864 341.314 322.332C341.314 321.8 341.412 321.301 341.608 320.834C341.814 320.358 342.089 319.947 342.434 319.602C342.789 319.247 343.204 318.967 343.68 318.762C344.166 318.557 344.693 318.454 345.262 318.454C345.832 318.454 346.354 318.557 346.83 318.762C347.316 318.958 347.731 319.233 348.076 319.588C348.431 319.933 348.706 320.339 348.902 320.806C349.098 321.273 349.196 321.772 349.196 322.304ZM347.502 322.332C347.502 322.005 347.446 321.697 347.334 321.408C347.222 321.119 347.064 320.867 346.858 320.652C346.662 320.428 346.424 320.255 346.144 320.134C345.874 320.003 345.57 319.938 345.234 319.938C344.898 319.938 344.59 320.003 344.31 320.134C344.04 320.255 343.806 320.423 343.61 320.638C343.414 320.853 343.265 321.105 343.162 321.394C343.06 321.674 343.008 321.977 343.008 322.304C343.008 322.631 343.064 322.943 343.176 323.242C343.288 323.531 343.442 323.783 343.638 323.998C343.844 324.213 344.082 324.385 344.352 324.516C344.632 324.637 344.936 324.698 345.262 324.698C345.608 324.698 345.916 324.637 346.186 324.516C346.466 324.385 346.704 324.213 346.9 323.998C347.096 323.783 347.246 323.536 347.348 323.256C347.451 322.967 347.502 322.659 347.502 322.332Z" fill="white"/>
<line x1="20" y1="293.5" x2="366" y2="293.5" stroke="#A5B4CB" stroke-dasharray="4 4"/>
<defs>
<clipPath id="clip0_1182_321">
<rect width="15" height="15" fill="white" transform="translate(351 265)"/>
</clipPath>
</defs>
</svg>
