<svg width="386" height="333" viewBox="0 0 386 333" fill="none" xmlns="http://www.w3.org/2000/svg">
<rect x="0.5" y="0.5" width="385" height="332" rx="11.5" fill="white" stroke="#A5B4CB"/>
<path d="M193.656 36.384C193.656 37.1733 193.512 37.92 193.224 38.624C192.936 39.328 192.531 39.9467 192.008 40.48C191.485 41.0027 190.867 41.4187 190.152 41.728C189.437 42.0373 188.648 42.192 187.784 42.192C186.92 42.192 186.131 42.0427 185.416 41.744C184.701 41.4347 184.088 41.0187 183.576 40.496C183.064 39.9733 182.664 39.36 182.376 38.656C182.088 37.952 181.944 37.2053 181.944 36.416C181.944 35.6267 182.088 34.88 182.376 34.176C182.664 33.472 183.069 32.8587 183.592 32.336C184.115 31.8027 184.733 31.3813 185.448 31.072C186.163 30.7627 186.952 30.608 187.816 30.608C188.68 30.608 189.469 30.7627 190.184 31.072C190.899 31.3707 191.512 31.7813 192.024 32.304C192.536 32.8267 192.936 33.44 193.224 34.144C193.512 34.848 193.656 35.5947 193.656 36.384ZM191.592 36.416C191.592 35.872 191.496 35.36 191.304 34.88C191.123 34.3893 190.861 33.9627 190.52 33.6C190.189 33.2373 189.789 32.9493 189.32 32.736C188.851 32.5227 188.339 32.416 187.784 32.416C187.229 32.416 186.717 32.5227 186.248 32.736C185.789 32.9387 185.395 33.2213 185.064 33.584C184.733 33.936 184.472 34.3573 184.28 34.848C184.099 35.328 184.008 35.84 184.008 36.384C184.008 36.928 184.099 37.4453 184.28 37.936C184.472 38.416 184.733 38.8373 185.064 39.2C185.405 39.5627 185.811 39.8507 186.28 40.064C186.749 40.2773 187.261 40.384 187.816 40.384C188.371 40.384 188.877 40.2827 189.336 40.08C189.805 39.8667 190.205 39.584 190.536 39.232C190.867 38.8693 191.123 38.448 191.304 37.968C191.496 37.4773 191.592 36.96 191.592 36.416ZM197.62 33.728C197.62 33.952 197.657 34.144 197.732 34.304C197.806 34.464 197.94 34.6133 198.132 34.752C198.334 34.8907 198.606 35.0187 198.948 35.136C199.3 35.2533 199.742 35.376 200.276 35.504C200.862 35.6533 201.38 35.8187 201.828 36C202.286 36.1813 202.665 36.4053 202.964 36.672C203.262 36.928 203.486 37.232 203.636 37.584C203.796 37.9253 203.876 38.3307 203.876 38.8C203.876 39.3333 203.774 39.808 203.572 40.224C203.38 40.64 203.108 40.992 202.756 41.28C202.404 41.568 201.982 41.7867 201.492 41.936C201.001 42.0853 200.462 42.16 199.876 42.16C199.012 42.16 198.185 42.016 197.396 41.728C196.606 41.4293 195.876 40.976 195.204 40.368L196.388 38.96C196.932 39.4293 197.481 39.792 198.036 40.048C198.59 40.2933 199.22 40.416 199.924 40.416C200.532 40.416 201.012 40.288 201.364 40.032C201.726 39.776 201.908 39.4293 201.908 38.992C201.908 38.7893 201.87 38.608 201.796 38.448C201.732 38.288 201.604 38.144 201.412 38.016C201.23 37.8773 200.974 37.7493 200.644 37.632C200.324 37.5147 199.902 37.392 199.38 37.264C198.782 37.1253 198.249 36.9707 197.78 36.8C197.321 36.6293 196.932 36.416 196.612 36.16C196.302 35.904 196.062 35.5947 195.892 35.232C195.732 34.8693 195.652 34.4267 195.652 33.904C195.652 33.4133 195.748 32.9707 195.94 32.576C196.132 32.1707 196.393 31.824 196.724 31.536C197.065 31.248 197.47 31.0293 197.94 30.88C198.409 30.72 198.921 30.64 199.476 30.64C200.297 30.64 201.033 30.7627 201.684 31.008C202.345 31.2427 202.964 31.5893 203.54 32.048L202.484 33.536C201.972 33.1627 201.465 32.88 200.964 32.688C200.462 32.4853 199.956 32.384 199.444 32.384C198.868 32.384 198.42 32.5173 198.1 32.784C197.78 33.04 197.62 33.3547 197.62 33.728Z" fill="#203765"/>
<path d="M193.656 36.384C193.656 37.1733 193.512 37.92 193.224 38.624C192.936 39.328 192.531 39.9467 192.008 40.48C191.485 41.0027 190.867 41.4187 190.152 41.728C189.437 42.0373 188.648 42.192 187.784 42.192C186.92 42.192 186.131 42.0427 185.416 41.744C184.701 41.4347 184.088 41.0187 183.576 40.496C183.064 39.9733 182.664 39.36 182.376 38.656C182.088 37.952 181.944 37.2053 181.944 36.416C181.944 35.6267 182.088 34.88 182.376 34.176C182.664 33.472 183.069 32.8587 183.592 32.336C184.115 31.8027 184.733 31.3813 185.448 31.072C186.163 30.7627 186.952 30.608 187.816 30.608C188.68 30.608 189.469 30.7627 190.184 31.072C190.899 31.3707 191.512 31.7813 192.024 32.304C192.536 32.8267 192.936 33.44 193.224 34.144C193.512 34.848 193.656 35.5947 193.656 36.384ZM191.592 36.416C191.592 35.872 191.496 35.36 191.304 34.88C191.123 34.3893 190.861 33.9627 190.52 33.6C190.189 33.2373 189.789 32.9493 189.32 32.736C188.851 32.5227 188.339 32.416 187.784 32.416C187.229 32.416 186.717 32.5227 186.248 32.736C185.789 32.9387 185.395 33.2213 185.064 33.584C184.733 33.936 184.472 34.3573 184.28 34.848C184.099 35.328 184.008 35.84 184.008 36.384C184.008 36.928 184.099 37.4453 184.28 37.936C184.472 38.416 184.733 38.8373 185.064 39.2C185.405 39.5627 185.811 39.8507 186.28 40.064C186.749 40.2773 187.261 40.384 187.816 40.384C188.371 40.384 188.877 40.2827 189.336 40.08C189.805 39.8667 190.205 39.584 190.536 39.232C190.867 38.8693 191.123 38.448 191.304 37.968C191.496 37.4773 191.592 36.96 191.592 36.416ZM197.62 33.728C197.62 33.952 197.657 34.144 197.732 34.304C197.806 34.464 197.94 34.6133 198.132 34.752C198.334 34.8907 198.606 35.0187 198.948 35.136C199.3 35.2533 199.742 35.376 200.276 35.504C200.862 35.6533 201.38 35.8187 201.828 36C202.286 36.1813 202.665 36.4053 202.964 36.672C203.262 36.928 203.486 37.232 203.636 37.584C203.796 37.9253 203.876 38.3307 203.876 38.8C203.876 39.3333 203.774 39.808 203.572 40.224C203.38 40.64 203.108 40.992 202.756 41.28C202.404 41.568 201.982 41.7867 201.492 41.936C201.001 42.0853 200.462 42.16 199.876 42.16C199.012 42.16 198.185 42.016 197.396 41.728C196.606 41.4293 195.876 40.976 195.204 40.368L196.388 38.96C196.932 39.4293 197.481 39.792 198.036 40.048C198.59 40.2933 199.22 40.416 199.924 40.416C200.532 40.416 201.012 40.288 201.364 40.032C201.726 39.776 201.908 39.4293 201.908 38.992C201.908 38.7893 201.87 38.608 201.796 38.448C201.732 38.288 201.604 38.144 201.412 38.016C201.23 37.8773 200.974 37.7493 200.644 37.632C200.324 37.5147 199.902 37.392 199.38 37.264C198.782 37.1253 198.249 36.9707 197.78 36.8C197.321 36.6293 196.932 36.416 196.612 36.16C196.302 35.904 196.062 35.5947 195.892 35.232C195.732 34.8693 195.652 34.4267 195.652 33.904C195.652 33.4133 195.748 32.9707 195.94 32.576C196.132 32.1707 196.393 31.824 196.724 31.536C197.065 31.248 197.47 31.0293 197.94 30.88C198.409 30.72 198.921 30.64 199.476 30.64C200.297 30.64 201.033 30.7627 201.684 31.008C202.345 31.2427 202.964 31.5893 203.54 32.048L202.484 33.536C201.972 33.1627 201.465 32.88 200.964 32.688C200.462 32.4853 199.956 32.384 199.444 32.384C198.868 32.384 198.42 32.5173 198.1 32.784C197.78 33.04 197.62 33.3547 197.62 33.728Z" fill="#203765"/>
<path d="M196 136H192V241H196V136Z" fill="#B5B5B5"/>
<path d="M266 191V186H122V191H266Z" fill="#B5B5B5"/>
<path d="M266.091 246.728L269.066 242.87L121.851 129.335L118.876 133.193L266.091 246.728Z" fill="#B5B5B5"/>
<path d="M118.812 242.9L121.787 246.757L269.002 133.223L266.027 129.365L118.812 242.9Z" fill="#B5B5B5"/>
<path d="M319.945 171H283.055C275.845 171 270 176.884 270 184.142V189.858C270 197.116 275.845 203 283.055 203H319.945C327.155 203 333 197.116 333 189.858V184.142C333 176.884 327.155 171 319.945 171Z" fill="white" stroke="#B5B5B5" stroke-width="2" stroke-miterlimit="10"/>
<path d="M319.945 99H283.055C275.845 99 270 104.884 270 112.142V117.858C270 125.116 275.845 131 283.055 131H319.945C327.155 131 333 125.116 333 117.858V112.142C333 104.884 327.155 99 319.945 99Z" fill="white" stroke="#B5B5B5" stroke-width="2" stroke-miterlimit="10"/>
<path d="M319.945 246H283.055C275.845 246 270 251.884 270 259.142V264.858C270 272.116 275.845 278 283.055 278H319.945C327.155 278 333 272.116 333 264.858V259.142C333 251.884 327.155 246 319.945 246Z" fill="white" stroke="#B5B5B5" stroke-width="2" stroke-miterlimit="10"/>
<path d="M103.945 171H67.0547C59.8448 171 54 176.884 54 184.142V189.858C54 197.116 59.8448 203 67.0547 203H103.945C111.155 203 117 197.116 117 189.858V184.142C117 176.884 111.155 171 103.945 171Z" fill="white" stroke="#B5B5B5" stroke-width="2" stroke-miterlimit="10"/>
<path d="M103.945 99H67.0547C59.8448 99 54 104.884 54 112.142V117.858C54 125.116 59.8448 131 67.0547 131H103.945C111.155 131 117 125.116 117 117.858V112.142C117 104.884 111.155 99 103.945 99Z" fill="white" stroke="#B5B5B5" stroke-width="2" stroke-miterlimit="10"/>
<path d="M103.945 246H67.0547C59.8448 246 54 251.884 54 259.142V264.858C54 272.116 59.8448 278 67.0547 278H103.945C111.155 278 117 272.116 117 264.858V259.142C117 251.884 111.155 246 103.945 246Z" fill="white" stroke="#B5B5B5" stroke-width="2" stroke-miterlimit="10"/>
<path d="M211.152 99H174.848C167.752 99 162 104.884 162 112.142V117.858C162 125.116 167.752 131 174.848 131H211.152C218.248 131 224 125.116 224 117.858V112.142C224 104.884 218.248 99 211.152 99Z" fill="white" stroke="#B5B5B5" stroke-width="2" stroke-miterlimit="10"/>
<path d="M211.152 246H174.848C167.752 246 162 251.884 162 259.142V264.858C162 272.116 167.752 278 174.848 278H211.152C218.248 278 224 272.116 224 264.858V259.142C224 251.884 218.248 246 211.152 246Z" fill="white" stroke="#B5B5B5" stroke-width="2" stroke-miterlimit="10"/>
</svg>
