<svg width="386" height="333" viewBox="0 0 386 333" fill="none" xmlns="http://www.w3.org/2000/svg">
<rect x="0.5" y="0.5" width="385" height="332" rx="11.5" fill="white" stroke="#A5B4CB"/>
<path d="M193.656 36.384C193.656 37.1733 193.512 37.92 193.224 38.624C192.936 39.328 192.531 39.9467 192.008 40.48C191.485 41.0027 190.867 41.4187 190.152 41.728C189.437 42.0373 188.648 42.192 187.784 42.192C186.92 42.192 186.131 42.0427 185.416 41.744C184.701 41.4347 184.088 41.0187 183.576 40.496C183.064 39.9733 182.664 39.36 182.376 38.656C182.088 37.952 181.944 37.2053 181.944 36.416C181.944 35.6267 182.088 34.88 182.376 34.176C182.664 33.472 183.069 32.8587 183.592 32.336C184.115 31.8027 184.733 31.3813 185.448 31.072C186.163 30.7627 186.952 30.608 187.816 30.608C188.68 30.608 189.469 30.7627 190.184 31.072C190.899 31.3707 191.512 31.7813 192.024 32.304C192.536 32.8267 192.936 33.44 193.224 34.144C193.512 34.848 193.656 35.5947 193.656 36.384ZM191.592 36.416C191.592 35.872 191.496 35.36 191.304 34.88C191.123 34.3893 190.861 33.9627 190.52 33.6C190.189 33.2373 189.789 32.9493 189.32 32.736C188.851 32.5227 188.339 32.416 187.784 32.416C187.229 32.416 186.717 32.5227 186.248 32.736C185.789 32.9387 185.395 33.2213 185.064 33.584C184.733 33.936 184.472 34.3573 184.28 34.848C184.099 35.328 184.008 35.84 184.008 36.384C184.008 36.928 184.099 37.4453 184.28 37.936C184.472 38.416 184.733 38.8373 185.064 39.2C185.405 39.5627 185.811 39.8507 186.28 40.064C186.749 40.2773 187.261 40.384 187.816 40.384C188.371 40.384 188.877 40.2827 189.336 40.08C189.805 39.8667 190.205 39.584 190.536 39.232C190.867 38.8693 191.123 38.448 191.304 37.968C191.496 37.4773 191.592 36.96 191.592 36.416ZM197.62 33.728C197.62 33.952 197.657 34.144 197.732 34.304C197.806 34.464 197.94 34.6133 198.132 34.752C198.334 34.8907 198.606 35.0187 198.948 35.136C199.3 35.2533 199.742 35.376 200.276 35.504C200.862 35.6533 201.38 35.8187 201.828 36C202.286 36.1813 202.665 36.4053 202.964 36.672C203.262 36.928 203.486 37.232 203.636 37.584C203.796 37.9253 203.876 38.3307 203.876 38.8C203.876 39.3333 203.774 39.808 203.572 40.224C203.38 40.64 203.108 40.992 202.756 41.28C202.404 41.568 201.982 41.7867 201.492 41.936C201.001 42.0853 200.462 42.16 199.876 42.16C199.012 42.16 198.185 42.016 197.396 41.728C196.606 41.4293 195.876 40.976 195.204 40.368L196.388 38.96C196.932 39.4293 197.481 39.792 198.036 40.048C198.59 40.2933 199.22 40.416 199.924 40.416C200.532 40.416 201.012 40.288 201.364 40.032C201.726 39.776 201.908 39.4293 201.908 38.992C201.908 38.7893 201.87 38.608 201.796 38.448C201.732 38.288 201.604 38.144 201.412 38.016C201.23 37.8773 200.974 37.7493 200.644 37.632C200.324 37.5147 199.902 37.392 199.38 37.264C198.782 37.1253 198.249 36.9707 197.78 36.8C197.321 36.6293 196.932 36.416 196.612 36.16C196.302 35.904 196.062 35.5947 195.892 35.232C195.732 34.8693 195.652 34.4267 195.652 33.904C195.652 33.4133 195.748 32.9707 195.94 32.576C196.132 32.1707 196.393 31.824 196.724 31.536C197.065 31.248 197.47 31.0293 197.94 30.88C198.409 30.72 198.921 30.64 199.476 30.64C200.297 30.64 201.033 30.7627 201.684 31.008C202.345 31.2427 202.964 31.5893 203.54 32.048L202.484 33.536C201.972 33.1627 201.465 32.88 200.964 32.688C200.462 32.4853 199.956 32.384 199.444 32.384C198.868 32.384 198.42 32.5173 198.1 32.784C197.78 33.04 197.62 33.3547 197.62 33.728Z" fill="#203765"/>
<path d="M193.656 36.384C193.656 37.1733 193.512 37.92 193.224 38.624C192.936 39.328 192.531 39.9467 192.008 40.48C191.485 41.0027 190.867 41.4187 190.152 41.728C189.437 42.0373 188.648 42.192 187.784 42.192C186.92 42.192 186.131 42.0427 185.416 41.744C184.701 41.4347 184.088 41.0187 183.576 40.496C183.064 39.9733 182.664 39.36 182.376 38.656C182.088 37.952 181.944 37.2053 181.944 36.416C181.944 35.6267 182.088 34.88 182.376 34.176C182.664 33.472 183.069 32.8587 183.592 32.336C184.115 31.8027 184.733 31.3813 185.448 31.072C186.163 30.7627 186.952 30.608 187.816 30.608C188.68 30.608 189.469 30.7627 190.184 31.072C190.899 31.3707 191.512 31.7813 192.024 32.304C192.536 32.8267 192.936 33.44 193.224 34.144C193.512 34.848 193.656 35.5947 193.656 36.384ZM191.592 36.416C191.592 35.872 191.496 35.36 191.304 34.88C191.123 34.3893 190.861 33.9627 190.52 33.6C190.189 33.2373 189.789 32.9493 189.32 32.736C188.851 32.5227 188.339 32.416 187.784 32.416C187.229 32.416 186.717 32.5227 186.248 32.736C185.789 32.9387 185.395 33.2213 185.064 33.584C184.733 33.936 184.472 34.3573 184.28 34.848C184.099 35.328 184.008 35.84 184.008 36.384C184.008 36.928 184.099 37.4453 184.28 37.936C184.472 38.416 184.733 38.8373 185.064 39.2C185.405 39.5627 185.811 39.8507 186.28 40.064C186.749 40.2773 187.261 40.384 187.816 40.384C188.371 40.384 188.877 40.2827 189.336 40.08C189.805 39.8667 190.205 39.584 190.536 39.232C190.867 38.8693 191.123 38.448 191.304 37.968C191.496 37.4773 191.592 36.96 191.592 36.416ZM197.62 33.728C197.62 33.952 197.657 34.144 197.732 34.304C197.806 34.464 197.94 34.6133 198.132 34.752C198.334 34.8907 198.606 35.0187 198.948 35.136C199.3 35.2533 199.742 35.376 200.276 35.504C200.862 35.6533 201.38 35.8187 201.828 36C202.286 36.1813 202.665 36.4053 202.964 36.672C203.262 36.928 203.486 37.232 203.636 37.584C203.796 37.9253 203.876 38.3307 203.876 38.8C203.876 39.3333 203.774 39.808 203.572 40.224C203.38 40.64 203.108 40.992 202.756 41.28C202.404 41.568 201.982 41.7867 201.492 41.936C201.001 42.0853 200.462 42.16 199.876 42.16C199.012 42.16 198.185 42.016 197.396 41.728C196.606 41.4293 195.876 40.976 195.204 40.368L196.388 38.96C196.932 39.4293 197.481 39.792 198.036 40.048C198.59 40.2933 199.22 40.416 199.924 40.416C200.532 40.416 201.012 40.288 201.364 40.032C201.726 39.776 201.908 39.4293 201.908 38.992C201.908 38.7893 201.87 38.608 201.796 38.448C201.732 38.288 201.604 38.144 201.412 38.016C201.23 37.8773 200.974 37.7493 200.644 37.632C200.324 37.5147 199.902 37.392 199.38 37.264C198.782 37.1253 198.249 36.9707 197.78 36.8C197.321 36.6293 196.932 36.416 196.612 36.16C196.302 35.904 196.062 35.5947 195.892 35.232C195.732 34.8693 195.652 34.4267 195.652 33.904C195.652 33.4133 195.748 32.9707 195.94 32.576C196.132 32.1707 196.393 31.824 196.724 31.536C197.065 31.248 197.47 31.0293 197.94 30.88C198.409 30.72 198.921 30.64 199.476 30.64C200.297 30.64 201.033 30.7627 201.684 31.008C202.345 31.2427 202.964 31.5893 203.54 32.048L202.484 33.536C201.972 33.1627 201.465 32.88 200.964 32.688C200.462 32.4853 199.956 32.384 199.444 32.384C198.868 32.384 198.42 32.5173 198.1 32.784C197.78 33.04 197.62 33.3547 197.62 33.728Z" fill="#203765"/>
<path d="M193 283C248.228 283 293 238.228 293 183C293 127.772 248.228 83 193 83C137.772 83 93 127.772 93 183C93 238.228 137.772 283 193 283Z" fill="white" stroke="#B5B5B5" stroke-width="5" stroke-miterlimit="10"/>
<path d="M263.612 112.983L259.731 109.259L119.899 254.972L123.78 258.697L263.612 112.983Z" fill="#B5B5B5"/>
<path d="M262.688 255.937L266.583 251.878L120.87 112.047L116.975 116.105L262.688 255.937Z" fill="#B5B5B5"/>
<path d="M211.945 101H175.055C167.845 101 162 106.884 162 114.142V119.858C162 127.116 167.845 133 175.055 133H211.945C219.155 133 225 127.116 225 119.858V114.142C225 106.884 219.155 101 211.945 101Z" fill="white" stroke="#B5B5B5" stroke-width="3" stroke-miterlimit="10"/>
<path d="M174.104 113.728C174.104 113.952 174.141 114.144 174.216 114.304C174.291 114.464 174.424 114.613 174.616 114.752C174.819 114.891 175.091 115.019 175.432 115.136C175.784 115.253 176.227 115.376 176.76 115.504C177.347 115.653 177.864 115.819 178.312 116C178.771 116.181 179.149 116.405 179.448 116.672C179.747 116.928 179.971 117.232 180.12 117.584C180.28 117.925 180.36 118.331 180.36 118.8C180.36 119.333 180.259 119.808 180.056 120.224C179.864 120.64 179.592 120.992 179.24 121.28C178.888 121.568 178.467 121.787 177.976 121.936C177.485 122.085 176.947 122.16 176.36 122.16C175.496 122.16 174.669 122.016 173.88 121.728C173.091 121.429 172.36 120.976 171.688 120.368L172.872 118.96C173.416 119.429 173.965 119.792 174.52 120.048C175.075 120.293 175.704 120.416 176.408 120.416C177.016 120.416 177.496 120.288 177.848 120.032C178.211 119.776 178.392 119.429 178.392 118.992C178.392 118.789 178.355 118.608 178.28 118.448C178.216 118.288 178.088 118.144 177.896 118.016C177.715 117.877 177.459 117.749 177.128 117.632C176.808 117.515 176.387 117.392 175.864 117.264C175.267 117.125 174.733 116.971 174.264 116.8C173.805 116.629 173.416 116.416 173.096 116.16C172.787 115.904 172.547 115.595 172.376 115.232C172.216 114.869 172.136 114.427 172.136 113.904C172.136 113.413 172.232 112.971 172.424 112.576C172.616 112.171 172.877 111.824 173.208 111.536C173.549 111.248 173.955 111.029 174.424 110.88C174.893 110.72 175.405 110.64 175.96 110.64C176.781 110.64 177.517 110.763 178.168 111.008C178.829 111.243 179.448 111.589 180.024 112.048L178.968 113.536C178.456 113.163 177.949 112.88 177.448 112.688C176.947 112.485 176.44 112.384 175.928 112.384C175.352 112.384 174.904 112.517 174.584 112.784C174.264 113.04 174.104 113.355 174.104 113.728ZM182.674 122V110.8H184.642V120.208H190.53V122H182.674Z" fill="black"/>
<path d="M211.268 119.216L208.611 116.558C208.483 116.43 208.483 116.223 208.611 116.094L208.921 115.785C209.049 115.657 209.256 115.656 209.384 115.784L211.5 117.89L213.615 115.784C213.744 115.656 213.951 115.657 214.079 115.785L214.389 116.094C214.517 116.223 214.517 116.43 214.389 116.558L211.732 119.216C211.604 119.344 211.396 119.344 211.268 119.216Z" fill="black"/>
<path d="M152.945 167H116.055C108.845 167 103 172.884 103 180.142V185.858C103 193.116 108.845 199 116.055 199H152.945C160.155 199 166 193.116 166 185.858V180.142C166 172.884 160.155 167 152.945 167Z" fill="white" stroke="#B5B5B5" stroke-width="3" stroke-miterlimit="10"/>
<path d="M115.104 179.728C115.104 179.952 115.141 180.144 115.216 180.304C115.291 180.464 115.424 180.613 115.616 180.752C115.819 180.891 116.091 181.019 116.432 181.136C116.784 181.253 117.227 181.376 117.76 181.504C118.347 181.653 118.864 181.819 119.312 182C119.771 182.181 120.149 182.405 120.448 182.672C120.747 182.928 120.971 183.232 121.12 183.584C121.28 183.925 121.36 184.331 121.36 184.8C121.36 185.333 121.259 185.808 121.056 186.224C120.864 186.64 120.592 186.992 120.24 187.28C119.888 187.568 119.467 187.787 118.976 187.936C118.485 188.085 117.947 188.16 117.36 188.16C116.496 188.16 115.669 188.016 114.88 187.728C114.091 187.429 113.36 186.976 112.688 186.368L113.872 184.96C114.416 185.429 114.965 185.792 115.52 186.048C116.075 186.293 116.704 186.416 117.408 186.416C118.016 186.416 118.496 186.288 118.848 186.032C119.211 185.776 119.392 185.429 119.392 184.992C119.392 184.789 119.355 184.608 119.28 184.448C119.216 184.288 119.088 184.144 118.896 184.016C118.715 183.877 118.459 183.749 118.128 183.632C117.808 183.515 117.387 183.392 116.864 183.264C116.267 183.125 115.733 182.971 115.264 182.8C114.805 182.629 114.416 182.416 114.096 182.16C113.787 181.904 113.547 181.595 113.376 181.232C113.216 180.869 113.136 180.427 113.136 179.904C113.136 179.413 113.232 178.971 113.424 178.576C113.616 178.171 113.877 177.824 114.208 177.536C114.549 177.248 114.955 177.029 115.424 176.88C115.893 176.72 116.405 176.64 116.96 176.64C117.781 176.64 118.517 176.763 119.168 177.008C119.829 177.243 120.448 177.589 121.024 178.048L119.968 179.536C119.456 179.163 118.949 178.88 118.448 178.688C117.947 178.485 117.44 178.384 116.928 178.384C116.352 178.384 115.904 178.517 115.584 178.784C115.264 179.04 115.104 179.355 115.104 179.728ZM123.674 188V176.8H125.642V186.208H131.53V188H123.674Z" fill="black"/>
<path d="M152.268 185.216L149.611 182.558C149.483 182.43 149.483 182.223 149.611 182.094L149.921 181.785C150.049 181.657 150.256 181.656 150.384 181.784L152.5 183.89L154.615 181.784C154.744 181.656 154.951 181.657 155.079 181.785L155.389 182.094C155.517 182.223 155.517 182.43 155.389 182.558L152.732 185.216C152.604 185.344 152.396 185.344 152.268 185.216Z" fill="black"/>
<path d="M270.945 166H234.055C226.845 166 221 171.884 221 179.142V184.858C221 192.116 226.845 198 234.055 198H270.945C278.155 198 284 192.116 284 184.858V179.142C284 171.884 278.155 166 270.945 166Z" fill="white" stroke="#B5B5B5" stroke-width="3" stroke-miterlimit="10"/>
<path d="M233.104 178.728C233.104 178.952 233.141 179.144 233.216 179.304C233.291 179.464 233.424 179.613 233.616 179.752C233.819 179.891 234.091 180.019 234.432 180.136C234.784 180.253 235.227 180.376 235.76 180.504C236.347 180.653 236.864 180.819 237.312 181C237.771 181.181 238.149 181.405 238.448 181.672C238.747 181.928 238.971 182.232 239.12 182.584C239.28 182.925 239.36 183.331 239.36 183.8C239.36 184.333 239.259 184.808 239.056 185.224C238.864 185.64 238.592 185.992 238.24 186.28C237.888 186.568 237.467 186.787 236.976 186.936C236.485 187.085 235.947 187.16 235.36 187.16C234.496 187.16 233.669 187.016 232.88 186.728C232.091 186.429 231.36 185.976 230.688 185.368L231.872 183.96C232.416 184.429 232.965 184.792 233.52 185.048C234.075 185.293 234.704 185.416 235.408 185.416C236.016 185.416 236.496 185.288 236.848 185.032C237.211 184.776 237.392 184.429 237.392 183.992C237.392 183.789 237.355 183.608 237.28 183.448C237.216 183.288 237.088 183.144 236.896 183.016C236.715 182.877 236.459 182.749 236.128 182.632C235.808 182.515 235.387 182.392 234.864 182.264C234.267 182.125 233.733 181.971 233.264 181.8C232.805 181.629 232.416 181.416 232.096 181.16C231.787 180.904 231.547 180.595 231.376 180.232C231.216 179.869 231.136 179.427 231.136 178.904C231.136 178.413 231.232 177.971 231.424 177.576C231.616 177.171 231.877 176.824 232.208 176.536C232.549 176.248 232.955 176.029 233.424 175.88C233.893 175.72 234.405 175.64 234.96 175.64C235.781 175.64 236.517 175.763 237.168 176.008C237.829 176.243 238.448 176.589 239.024 177.048L237.968 178.536C237.456 178.163 236.949 177.88 236.448 177.688C235.947 177.485 235.44 177.384 234.928 177.384C234.352 177.384 233.904 177.517 233.584 177.784C233.264 178.04 233.104 178.355 233.104 178.728ZM241.674 187V175.8H243.642V185.208H249.53V187H241.674Z" fill="black"/>
<path d="M270.268 184.216L267.611 181.558C267.483 181.43 267.483 181.223 267.611 181.094L267.921 180.785C268.049 180.657 268.256 180.656 268.384 180.784L270.5 182.89L272.615 180.784C272.744 180.656 272.951 180.657 273.079 180.785L273.389 181.094C273.517 181.223 273.517 181.43 273.389 181.558L270.732 184.216C270.604 184.344 270.396 184.344 270.268 184.216Z" fill="black"/>
<path d="M211.945 230H175.055C167.845 230 162 235.884 162 243.142V248.858C162 256.116 167.845 262 175.055 262H211.945C219.155 262 225 256.116 225 248.858V243.142C225 235.884 219.155 230 211.945 230Z" fill="white" stroke="#B5B5B5" stroke-width="3" stroke-miterlimit="10"/>
<path d="M174.104 242.728C174.104 242.952 174.141 243.144 174.216 243.304C174.291 243.464 174.424 243.613 174.616 243.752C174.819 243.891 175.091 244.019 175.432 244.136C175.784 244.253 176.227 244.376 176.76 244.504C177.347 244.653 177.864 244.819 178.312 245C178.771 245.181 179.149 245.405 179.448 245.672C179.747 245.928 179.971 246.232 180.12 246.584C180.28 246.925 180.36 247.331 180.36 247.8C180.36 248.333 180.259 248.808 180.056 249.224C179.864 249.64 179.592 249.992 179.24 250.28C178.888 250.568 178.467 250.787 177.976 250.936C177.485 251.085 176.947 251.16 176.36 251.16C175.496 251.16 174.669 251.016 173.88 250.728C173.091 250.429 172.36 249.976 171.688 249.368L172.872 247.96C173.416 248.429 173.965 248.792 174.52 249.048C175.075 249.293 175.704 249.416 176.408 249.416C177.016 249.416 177.496 249.288 177.848 249.032C178.211 248.776 178.392 248.429 178.392 247.992C178.392 247.789 178.355 247.608 178.28 247.448C178.216 247.288 178.088 247.144 177.896 247.016C177.715 246.877 177.459 246.749 177.128 246.632C176.808 246.515 176.387 246.392 175.864 246.264C175.267 246.125 174.733 245.971 174.264 245.8C173.805 245.629 173.416 245.416 173.096 245.16C172.787 244.904 172.547 244.595 172.376 244.232C172.216 243.869 172.136 243.427 172.136 242.904C172.136 242.413 172.232 241.971 172.424 241.576C172.616 241.171 172.877 240.824 173.208 240.536C173.549 240.248 173.955 240.029 174.424 239.88C174.893 239.72 175.405 239.64 175.96 239.64C176.781 239.64 177.517 239.763 178.168 240.008C178.829 240.243 179.448 240.589 180.024 241.048L178.968 242.536C178.456 242.163 177.949 241.88 177.448 241.688C176.947 241.485 176.44 241.384 175.928 241.384C175.352 241.384 174.904 241.517 174.584 241.784C174.264 242.04 174.104 242.355 174.104 242.728ZM182.674 251V239.8H184.642V249.208H190.53V251H182.674Z" fill="black"/>
<path d="M211.268 248.216L208.611 245.558C208.483 245.43 208.483 245.223 208.611 245.094L208.921 244.785C209.049 244.657 209.256 244.656 209.384 244.784L211.5 246.89L213.615 244.784C213.744 244.656 213.951 244.657 214.079 244.785L214.389 245.094C214.517 245.223 214.517 245.43 214.389 245.558L211.732 248.216C211.604 248.344 211.396 248.344 211.268 248.216Z" fill="black"/>
</svg>
