<svg width="386" height="333" viewBox="0 0 386 333" fill="none" xmlns="http://www.w3.org/2000/svg">
<rect x="0.5" y="0.5" width="385" height="332" rx="11.5" fill="white" stroke="#A5B4CB"/>
<path d="M193.656 36.384C193.656 37.1733 193.512 37.92 193.224 38.624C192.936 39.328 192.531 39.9467 192.008 40.48C191.485 41.0027 190.867 41.4187 190.152 41.728C189.437 42.0373 188.648 42.192 187.784 42.192C186.92 42.192 186.131 42.0427 185.416 41.744C184.701 41.4347 184.088 41.0187 183.576 40.496C183.064 39.9733 182.664 39.36 182.376 38.656C182.088 37.952 181.944 37.2053 181.944 36.416C181.944 35.6267 182.088 34.88 182.376 34.176C182.664 33.472 183.069 32.8587 183.592 32.336C184.115 31.8027 184.733 31.3813 185.448 31.072C186.163 30.7627 186.952 30.608 187.816 30.608C188.68 30.608 189.469 30.7627 190.184 31.072C190.899 31.3707 191.512 31.7813 192.024 32.304C192.536 32.8267 192.936 33.44 193.224 34.144C193.512 34.848 193.656 35.5947 193.656 36.384ZM191.592 36.416C191.592 35.872 191.496 35.36 191.304 34.88C191.123 34.3893 190.861 33.9627 190.52 33.6C190.189 33.2373 189.789 32.9493 189.32 32.736C188.851 32.5227 188.339 32.416 187.784 32.416C187.229 32.416 186.717 32.5227 186.248 32.736C185.789 32.9387 185.395 33.2213 185.064 33.584C184.733 33.936 184.472 34.3573 184.28 34.848C184.099 35.328 184.008 35.84 184.008 36.384C184.008 36.928 184.099 37.4453 184.28 37.936C184.472 38.416 184.733 38.8373 185.064 39.2C185.405 39.5627 185.811 39.8507 186.28 40.064C186.749 40.2773 187.261 40.384 187.816 40.384C188.371 40.384 188.877 40.2827 189.336 40.08C189.805 39.8667 190.205 39.584 190.536 39.232C190.867 38.8693 191.123 38.448 191.304 37.968C191.496 37.4773 191.592 36.96 191.592 36.416ZM206.162 36.384C206.162 37.1733 206.018 37.9147 205.73 38.608C205.442 39.2907 205.031 39.8827 204.498 40.384C203.975 40.8853 203.346 41.28 202.61 41.568C201.884 41.856 201.084 42 200.21 42H196.034V30.8H200.21C201.084 30.8 201.884 30.944 202.61 31.232C203.346 31.5093 203.975 31.8987 204.498 32.4C205.031 32.9013 205.442 33.4933 205.73 34.176C206.018 34.8587 206.162 35.5947 206.162 36.384ZM204.098 36.416C204.098 35.8613 204.002 35.3547 203.81 34.896C203.628 34.4267 203.367 34.0213 203.026 33.68C202.695 33.3387 202.29 33.072 201.81 32.88C201.33 32.688 200.796 32.592 200.21 32.592H198.002V40.208H200.21C200.796 40.208 201.33 40.1173 201.81 39.936C202.29 39.744 202.695 39.4827 203.026 39.152C203.367 38.8107 203.628 38.4107 203.81 37.952C204.002 37.4827 204.098 36.9707 204.098 36.416Z" fill="#203765"/>
<path d="M193.656 36.384C193.656 37.1733 193.512 37.92 193.224 38.624C192.936 39.328 192.531 39.9467 192.008 40.48C191.485 41.0027 190.867 41.4187 190.152 41.728C189.437 42.0373 188.648 42.192 187.784 42.192C186.92 42.192 186.131 42.0427 185.416 41.744C184.701 41.4347 184.088 41.0187 183.576 40.496C183.064 39.9733 182.664 39.36 182.376 38.656C182.088 37.952 181.944 37.2053 181.944 36.416C181.944 35.6267 182.088 34.88 182.376 34.176C182.664 33.472 183.069 32.8587 183.592 32.336C184.115 31.8027 184.733 31.3813 185.448 31.072C186.163 30.7627 186.952 30.608 187.816 30.608C188.68 30.608 189.469 30.7627 190.184 31.072C190.899 31.3707 191.512 31.7813 192.024 32.304C192.536 32.8267 192.936 33.44 193.224 34.144C193.512 34.848 193.656 35.5947 193.656 36.384ZM191.592 36.416C191.592 35.872 191.496 35.36 191.304 34.88C191.123 34.3893 190.861 33.9627 190.52 33.6C190.189 33.2373 189.789 32.9493 189.32 32.736C188.851 32.5227 188.339 32.416 187.784 32.416C187.229 32.416 186.717 32.5227 186.248 32.736C185.789 32.9387 185.395 33.2213 185.064 33.584C184.733 33.936 184.472 34.3573 184.28 34.848C184.099 35.328 184.008 35.84 184.008 36.384C184.008 36.928 184.099 37.4453 184.28 37.936C184.472 38.416 184.733 38.8373 185.064 39.2C185.405 39.5627 185.811 39.8507 186.28 40.064C186.749 40.2773 187.261 40.384 187.816 40.384C188.371 40.384 188.877 40.2827 189.336 40.08C189.805 39.8667 190.205 39.584 190.536 39.232C190.867 38.8693 191.123 38.448 191.304 37.968C191.496 37.4773 191.592 36.96 191.592 36.416ZM206.162 36.384C206.162 37.1733 206.018 37.9147 205.73 38.608C205.442 39.2907 205.031 39.8827 204.498 40.384C203.975 40.8853 203.346 41.28 202.61 41.568C201.884 41.856 201.084 42 200.21 42H196.034V30.8H200.21C201.084 30.8 201.884 30.944 202.61 31.232C203.346 31.5093 203.975 31.8987 204.498 32.4C205.031 32.9013 205.442 33.4933 205.73 34.176C206.018 34.8587 206.162 35.5947 206.162 36.384ZM204.098 36.416C204.098 35.8613 204.002 35.3547 203.81 34.896C203.628 34.4267 203.367 34.0213 203.026 33.68C202.695 33.3387 202.29 33.072 201.81 32.88C201.33 32.688 200.796 32.592 200.21 32.592H198.002V40.208H200.21C200.796 40.208 201.33 40.1173 201.81 39.936C202.29 39.744 202.695 39.4827 203.026 39.152C203.367 38.8107 203.628 38.4107 203.81 37.952C204.002 37.4827 204.098 36.9707 204.098 36.416Z" fill="#203765"/>
<path d="M187 283C242.228 283 287 238.228 287 183C287 127.772 242.228 83 187 83C131.772 83 87 127.772 87 183C87 238.228 131.772 283 187 283Z" fill="white" stroke="#B5B5B5" stroke-width="5" stroke-miterlimit="10"/>
<path d="M257.612 112.983L253.731 109.259L113.899 254.972L117.78 258.697L257.612 112.983Z" fill="#B5B5B5"/>
<path d="M256.688 255.937L260.583 251.878L114.87 112.047L110.975 116.105L256.688 255.937Z" fill="#B5B5B5"/>
<path d="M205.945 101H169.055C161.845 101 156 106.884 156 114.142V119.858C156 127.116 161.845 133 169.055 133H205.945C213.155 133 219 127.116 219 119.858V114.142C219 106.884 213.155 101 205.945 101Z" fill="white" stroke="#B5B5B5" stroke-width="3" stroke-miterlimit="10"/>
<path d="M168.104 113.728C168.104 113.952 168.141 114.144 168.216 114.304C168.291 114.464 168.424 114.613 168.616 114.752C168.819 114.891 169.091 115.019 169.432 115.136C169.784 115.253 170.227 115.376 170.76 115.504C171.347 115.653 171.864 115.819 172.312 116C172.771 116.181 173.149 116.405 173.448 116.672C173.747 116.928 173.971 117.232 174.12 117.584C174.28 117.925 174.36 118.331 174.36 118.8C174.36 119.333 174.259 119.808 174.056 120.224C173.864 120.64 173.592 120.992 173.24 121.28C172.888 121.568 172.467 121.787 171.976 121.936C171.485 122.085 170.947 122.16 170.36 122.16C169.496 122.16 168.669 122.016 167.88 121.728C167.091 121.429 166.36 120.976 165.688 120.368L166.872 118.96C167.416 119.429 167.965 119.792 168.52 120.048C169.075 120.293 169.704 120.416 170.408 120.416C171.016 120.416 171.496 120.288 171.848 120.032C172.211 119.776 172.392 119.429 172.392 118.992C172.392 118.789 172.355 118.608 172.28 118.448C172.216 118.288 172.088 118.144 171.896 118.016C171.715 117.877 171.459 117.749 171.128 117.632C170.808 117.515 170.387 117.392 169.864 117.264C169.267 117.125 168.733 116.971 168.264 116.8C167.805 116.629 167.416 116.416 167.096 116.16C166.787 115.904 166.547 115.595 166.376 115.232C166.216 114.869 166.136 114.427 166.136 113.904C166.136 113.413 166.232 112.971 166.424 112.576C166.616 112.171 166.877 111.824 167.208 111.536C167.549 111.248 167.955 111.029 168.424 110.88C168.893 110.72 169.405 110.64 169.96 110.64C170.781 110.64 171.517 110.763 172.168 111.008C172.829 111.243 173.448 111.589 174.024 112.048L172.968 113.536C172.456 113.163 171.949 112.88 171.448 112.688C170.947 112.485 170.44 112.384 169.928 112.384C169.352 112.384 168.904 112.517 168.584 112.784C168.264 113.04 168.104 113.355 168.104 113.728ZM176.674 122V110.8H178.642V120.208H184.53V122H176.674Z" fill="black"/>
<path d="M205.268 119.216L202.611 116.558C202.483 116.43 202.483 116.223 202.611 116.094L202.921 115.785C203.049 115.657 203.256 115.656 203.384 115.784L205.5 117.89L207.615 115.784C207.744 115.656 207.951 115.657 208.079 115.785L208.389 116.094C208.517 116.223 208.517 116.43 208.389 116.558L205.732 119.216C205.604 119.344 205.396 119.344 205.268 119.216Z" fill="black"/>
<path d="M146.945 167H110.055C102.845 167 97 172.884 97 180.142V185.858C97 193.116 102.845 199 110.055 199H146.945C154.155 199 160 193.116 160 185.858V180.142C160 172.884 154.155 167 146.945 167Z" fill="white" stroke="#B5B5B5" stroke-width="3" stroke-miterlimit="10"/>
<path d="M109.104 179.728C109.104 179.952 109.141 180.144 109.216 180.304C109.291 180.464 109.424 180.613 109.616 180.752C109.819 180.891 110.091 181.019 110.432 181.136C110.784 181.253 111.227 181.376 111.76 181.504C112.347 181.653 112.864 181.819 113.312 182C113.771 182.181 114.149 182.405 114.448 182.672C114.747 182.928 114.971 183.232 115.12 183.584C115.28 183.925 115.36 184.331 115.36 184.8C115.36 185.333 115.259 185.808 115.056 186.224C114.864 186.64 114.592 186.992 114.24 187.28C113.888 187.568 113.467 187.787 112.976 187.936C112.485 188.085 111.947 188.16 111.36 188.16C110.496 188.16 109.669 188.016 108.88 187.728C108.091 187.429 107.36 186.976 106.688 186.368L107.872 184.96C108.416 185.429 108.965 185.792 109.52 186.048C110.075 186.293 110.704 186.416 111.408 186.416C112.016 186.416 112.496 186.288 112.848 186.032C113.211 185.776 113.392 185.429 113.392 184.992C113.392 184.789 113.355 184.608 113.28 184.448C113.216 184.288 113.088 184.144 112.896 184.016C112.715 183.877 112.459 183.749 112.128 183.632C111.808 183.515 111.387 183.392 110.864 183.264C110.267 183.125 109.733 182.971 109.264 182.8C108.805 182.629 108.416 182.416 108.096 182.16C107.787 181.904 107.547 181.595 107.376 181.232C107.216 180.869 107.136 180.427 107.136 179.904C107.136 179.413 107.232 178.971 107.424 178.576C107.616 178.171 107.877 177.824 108.208 177.536C108.549 177.248 108.955 177.029 109.424 176.88C109.893 176.72 110.405 176.64 110.96 176.64C111.781 176.64 112.517 176.763 113.168 177.008C113.829 177.243 114.448 177.589 115.024 178.048L113.968 179.536C113.456 179.163 112.949 178.88 112.448 178.688C111.947 178.485 111.44 178.384 110.928 178.384C110.352 178.384 109.904 178.517 109.584 178.784C109.264 179.04 109.104 179.355 109.104 179.728ZM117.674 188V176.8H119.642V186.208H125.53V188H117.674Z" fill="black"/>
<path d="M146.268 185.216L143.611 182.558C143.483 182.43 143.483 182.223 143.611 182.094L143.921 181.785C144.049 181.657 144.256 181.656 144.384 181.784L146.5 183.89L148.615 181.784C148.744 181.656 148.951 181.657 149.079 181.785L149.389 182.094C149.517 182.223 149.517 182.43 149.389 182.558L146.732 185.216C146.604 185.344 146.396 185.344 146.268 185.216Z" fill="black"/>
<path d="M264.945 166H228.055C220.845 166 215 171.884 215 179.142V184.858C215 192.116 220.845 198 228.055 198H264.945C272.155 198 278 192.116 278 184.858V179.142C278 171.884 272.155 166 264.945 166Z" fill="white" stroke="#B5B5B5" stroke-width="3" stroke-miterlimit="10"/>
<path d="M227.104 178.728C227.104 178.952 227.141 179.144 227.216 179.304C227.291 179.464 227.424 179.613 227.616 179.752C227.819 179.891 228.091 180.019 228.432 180.136C228.784 180.253 229.227 180.376 229.76 180.504C230.347 180.653 230.864 180.819 231.312 181C231.771 181.181 232.149 181.405 232.448 181.672C232.747 181.928 232.971 182.232 233.12 182.584C233.28 182.925 233.36 183.331 233.36 183.8C233.36 184.333 233.259 184.808 233.056 185.224C232.864 185.64 232.592 185.992 232.24 186.28C231.888 186.568 231.467 186.787 230.976 186.936C230.485 187.085 229.947 187.16 229.36 187.16C228.496 187.16 227.669 187.016 226.88 186.728C226.091 186.429 225.36 185.976 224.688 185.368L225.872 183.96C226.416 184.429 226.965 184.792 227.52 185.048C228.075 185.293 228.704 185.416 229.408 185.416C230.016 185.416 230.496 185.288 230.848 185.032C231.211 184.776 231.392 184.429 231.392 183.992C231.392 183.789 231.355 183.608 231.28 183.448C231.216 183.288 231.088 183.144 230.896 183.016C230.715 182.877 230.459 182.749 230.128 182.632C229.808 182.515 229.387 182.392 228.864 182.264C228.267 182.125 227.733 181.971 227.264 181.8C226.805 181.629 226.416 181.416 226.096 181.16C225.787 180.904 225.547 180.595 225.376 180.232C225.216 179.869 225.136 179.427 225.136 178.904C225.136 178.413 225.232 177.971 225.424 177.576C225.616 177.171 225.877 176.824 226.208 176.536C226.549 176.248 226.955 176.029 227.424 175.88C227.893 175.72 228.405 175.64 228.96 175.64C229.781 175.64 230.517 175.763 231.168 176.008C231.829 176.243 232.448 176.589 233.024 177.048L231.968 178.536C231.456 178.163 230.949 177.88 230.448 177.688C229.947 177.485 229.44 177.384 228.928 177.384C228.352 177.384 227.904 177.517 227.584 177.784C227.264 178.04 227.104 178.355 227.104 178.728ZM235.674 187V175.8H237.642V185.208H243.53V187H235.674Z" fill="black"/>
<path d="M264.268 184.216L261.611 181.558C261.483 181.43 261.483 181.223 261.611 181.094L261.921 180.785C262.049 180.657 262.256 180.656 262.384 180.784L264.5 182.89L266.615 180.784C266.744 180.656 266.951 180.657 267.079 180.785L267.389 181.094C267.517 181.223 267.517 181.43 267.389 181.558L264.732 184.216C264.604 184.344 264.396 184.344 264.268 184.216Z" fill="black"/>
<path d="M205.945 230H169.055C161.845 230 156 235.884 156 243.142V248.858C156 256.116 161.845 262 169.055 262H205.945C213.155 262 219 256.116 219 248.858V243.142C219 235.884 213.155 230 205.945 230Z" fill="white" stroke="#B5B5B5" stroke-width="3" stroke-miterlimit="10"/>
<path d="M168.104 242.728C168.104 242.952 168.141 243.144 168.216 243.304C168.291 243.464 168.424 243.613 168.616 243.752C168.819 243.891 169.091 244.019 169.432 244.136C169.784 244.253 170.227 244.376 170.76 244.504C171.347 244.653 171.864 244.819 172.312 245C172.771 245.181 173.149 245.405 173.448 245.672C173.747 245.928 173.971 246.232 174.12 246.584C174.28 246.925 174.36 247.331 174.36 247.8C174.36 248.333 174.259 248.808 174.056 249.224C173.864 249.64 173.592 249.992 173.24 250.28C172.888 250.568 172.467 250.787 171.976 250.936C171.485 251.085 170.947 251.16 170.36 251.16C169.496 251.16 168.669 251.016 167.88 250.728C167.091 250.429 166.36 249.976 165.688 249.368L166.872 247.96C167.416 248.429 167.965 248.792 168.52 249.048C169.075 249.293 169.704 249.416 170.408 249.416C171.016 249.416 171.496 249.288 171.848 249.032C172.211 248.776 172.392 248.429 172.392 247.992C172.392 247.789 172.355 247.608 172.28 247.448C172.216 247.288 172.088 247.144 171.896 247.016C171.715 246.877 171.459 246.749 171.128 246.632C170.808 246.515 170.387 246.392 169.864 246.264C169.267 246.125 168.733 245.971 168.264 245.8C167.805 245.629 167.416 245.416 167.096 245.16C166.787 244.904 166.547 244.595 166.376 244.232C166.216 243.869 166.136 243.427 166.136 242.904C166.136 242.413 166.232 241.971 166.424 241.576C166.616 241.171 166.877 240.824 167.208 240.536C167.549 240.248 167.955 240.029 168.424 239.88C168.893 239.72 169.405 239.64 169.96 239.64C170.781 239.64 171.517 239.763 172.168 240.008C172.829 240.243 173.448 240.589 174.024 241.048L172.968 242.536C172.456 242.163 171.949 241.88 171.448 241.688C170.947 241.485 170.44 241.384 169.928 241.384C169.352 241.384 168.904 241.517 168.584 241.784C168.264 242.04 168.104 242.355 168.104 242.728ZM176.674 251V239.8H178.642V249.208H184.53V251H176.674Z" fill="black"/>
<path d="M205.268 248.216L202.611 245.558C202.483 245.43 202.483 245.223 202.611 245.094L202.921 244.785C203.049 244.657 203.256 244.656 203.384 244.784L205.5 246.89L207.615 244.784C207.744 244.656 207.951 244.657 208.079 244.785L208.389 245.094C208.517 245.223 208.517 245.43 208.389 245.558L205.732 248.216C205.604 248.344 205.396 248.344 205.268 248.216Z" fill="black"/>
</svg>
