<svg width="386" height="359" viewBox="0 0 386 359" fill="none" xmlns="http://www.w3.org/2000/svg">
<rect x="0.5" y="0.5" width="385" height="358" rx="11.5" fill="white" stroke="#A5B4CB"/>
<path d="M179.632 97.2693C180.163 97.1592 180.717 97.2634 181.172 97.5591C181.627 97.8549 181.948 98.3184 182.063 98.8489C186.512 120.114 188.704 141.79 188.601 163.516C188.674 183.918 186.761 204.278 182.887 224.309C182.777 224.834 182.469 225.296 182.026 225.599C181.583 225.901 181.04 226.02 180.511 225.93C156.281 221.384 137.999 193.693 137.999 161.51C137.999 129.328 155.512 102.31 179.632 97.2693ZM176.981 220.793C177.265 220.893 177.567 220.931 177.866 220.904C178.166 220.876 178.456 220.785 178.717 220.634C178.978 220.484 179.204 220.28 179.378 220.035C179.552 219.789 179.672 219.509 179.728 219.213C182.977 200.827 184.586 182.187 184.535 163.516C184.626 143.556 182.786 123.633 179.041 104.027C178.98 103.735 178.857 103.46 178.681 103.219C178.504 102.979 178.278 102.779 178.018 102.633C177.757 102.487 177.469 102.399 177.171 102.374C176.874 102.349 176.575 102.388 176.294 102.489C156.57 109.357 142.175 133.765 142.175 161.552C142.12 189.778 156.844 214.31 177.008 220.793L176.981 220.793Z" fill="#B5B5B5"/>
<path d="M179.137 70.0311L180.744 70.4019C219.877 79.2614 248.31 117.625 248.31 161.633C248.31 203.472 222.734 240.407 186.101 251.477L184.618 251.917L183.753 250.653C180.906 245.803 178.413 240.754 176.294 235.544L179.041 234.336C193.493 227.895 205.699 217.296 214.105 203.892C222.51 190.487 226.734 174.883 226.237 159.069C225.74 143.255 220.546 127.947 211.317 115.096C202.087 102.245 189.24 92.4336 174.412 86.912L172.544 86.2115L173.19 84.3298C174.668 79.9485 176.397 75.6559 178.368 71.4733L179.137 70.0311ZM186.39 247.055C220.481 235.97 244.189 201.082 244.189 161.633C244.189 120.138 217.913 83.9177 181.472 74.811C180.168 77.6818 178.945 80.7036 177.819 83.849C193.011 89.9405 206.087 100.348 215.431 113.788C224.775 127.227 229.977 143.108 230.397 159.471C230.816 175.834 226.433 191.961 217.79 205.861C209.147 219.761 196.621 230.825 181.761 237.687C183.038 240.613 184.783 244.308 186.39 247.055Z" fill="#B5B5B5"/>
<path d="M193.966 36.384C193.966 37.1733 193.822 37.92 193.534 38.624C193.246 39.328 192.84 39.9467 192.318 40.48C191.795 41.0027 191.176 41.4187 190.462 41.728C189.747 42.0373 188.958 42.192 188.094 42.192C187.23 42.192 186.44 42.0427 185.726 41.744C185.011 41.4347 184.398 41.0187 183.886 40.496C183.374 39.9733 182.974 39.36 182.686 38.656C182.398 37.952 182.254 37.2053 182.254 36.416C182.254 35.6267 182.398 34.88 182.686 34.176C182.974 33.472 183.379 32.8587 183.902 32.336C184.424 31.8027 185.043 31.3813 185.758 31.072C186.472 30.7627 187.262 30.608 188.126 30.608C188.99 30.608 189.779 30.7627 190.494 31.072C191.208 31.3707 191.822 31.7813 192.334 32.304C192.846 32.8267 193.246 33.44 193.534 34.144C193.822 34.848 193.966 35.5947 193.966 36.384ZM191.902 36.416C191.902 35.872 191.806 35.36 191.614 34.88C191.432 34.3893 191.171 33.9627 190.83 33.6C190.499 33.2373 190.099 32.9493 189.63 32.736C189.16 32.5227 188.648 32.416 188.094 32.416C187.539 32.416 187.027 32.5227 186.558 32.736C186.099 32.9387 185.704 33.2213 185.374 33.584C185.043 33.936 184.782 34.3573 184.59 34.848C184.408 35.328 184.318 35.84 184.318 36.384C184.318 36.928 184.408 37.4453 184.59 37.936C184.782 38.416 185.043 38.8373 185.374 39.2C185.715 39.5627 186.12 39.8507 186.59 40.064C187.059 40.2773 187.571 40.384 188.126 40.384C188.68 40.384 189.187 40.2827 189.646 40.08C190.115 39.8667 190.515 39.584 190.846 39.232C191.176 38.8693 191.432 38.448 191.614 37.968C191.806 37.4773 191.902 36.96 191.902 36.416ZM197.929 33.728C197.929 33.952 197.967 34.144 198.041 34.304C198.116 34.464 198.249 34.6133 198.441 34.752C198.644 34.8907 198.916 35.0187 199.257 35.136C199.609 35.2533 200.052 35.376 200.585 35.504C201.172 35.6533 201.689 35.8187 202.137 36C202.596 36.1813 202.975 36.4053 203.273 36.672C203.572 36.928 203.796 37.232 203.945 37.584C204.105 37.9253 204.185 38.3307 204.185 38.8C204.185 39.3333 204.084 39.808 203.881 40.224C203.689 40.64 203.417 40.992 203.065 41.28C202.713 41.568 202.292 41.7867 201.801 41.936C201.311 42.0853 200.772 42.16 200.185 42.16C199.321 42.16 198.495 42.016 197.705 41.728C196.916 41.4293 196.185 40.976 195.513 40.368L196.697 38.96C197.241 39.4293 197.791 39.792 198.345 40.048C198.9 40.2933 199.529 40.416 200.233 40.416C200.841 40.416 201.321 40.288 201.673 40.032C202.036 39.776 202.217 39.4293 202.217 38.992C202.217 38.7893 202.18 38.608 202.105 38.448C202.041 38.288 201.913 38.144 201.721 38.016C201.54 37.8773 201.284 37.7493 200.953 37.632C200.633 37.5147 200.212 37.392 199.689 37.264C199.092 37.1253 198.559 36.9707 198.089 36.8C197.631 36.6293 197.241 36.416 196.921 36.16C196.612 35.904 196.372 35.5947 196.201 35.232C196.041 34.8693 195.961 34.4267 195.961 33.904C195.961 33.4133 196.057 32.9707 196.249 32.576C196.441 32.1707 196.703 31.824 197.033 31.536C197.375 31.248 197.78 31.0293 198.249 30.88C198.719 30.72 199.231 30.64 199.785 30.64C200.607 30.64 201.343 30.7627 201.993 31.008C202.655 31.2427 203.273 31.5893 203.849 32.048L202.793 33.536C202.281 33.1627 201.775 32.88 201.273 32.688C200.772 32.4853 200.265 32.384 199.753 32.384C199.177 32.384 198.729 32.5173 198.409 32.784C198.089 33.04 197.929 33.3547 197.929 33.728Z" fill="#203765"/>
<circle cx="29" cy="274" r="8" fill="#D23230" stroke="#2CD889" stroke-width="2"/>
<circle cx="51" cy="274" r="9" fill="black"/>
<circle cx="73" cy="274" r="9" fill="#709B4F"/>
<circle cx="95" cy="274" r="9" fill="#8C6C30"/>
<circle cx="117" cy="274" r="9" fill="#4523F4"/>
<circle cx="139" cy="274" r="9" fill="#F1D35B"/>
<g clip-path="url(#clip0_1182_323)">
<path d="M359.517 268.732L363.268 272.482L355.123 280.627L351.78 280.996C351.332 281.045 350.954 280.667 351.003 280.219L351.376 276.873L359.517 268.732ZM365.587 268.173L363.826 266.412C363.277 265.863 362.386 265.863 361.837 266.412L360.18 268.069L363.931 271.82L365.587 270.163C366.137 269.613 366.137 268.723 365.587 268.173Z" fill="#203765"/>
</g>
<path d="M25.558 312.2C26.0433 312.2 26.482 312.261 26.874 312.382C27.266 312.494 27.602 312.657 27.882 312.872C28.162 313.077 28.3767 313.334 28.526 313.642C28.6753 313.941 28.75 314.277 28.75 314.65C28.75 314.977 28.7033 315.261 28.61 315.504C28.526 315.747 28.4093 315.961 28.26 316.148C28.1107 316.335 27.9427 316.493 27.756 316.624C27.5787 316.745 27.392 316.848 27.196 316.932C27.4853 317.016 27.756 317.128 28.008 317.268C28.2693 317.399 28.4933 317.557 28.68 317.744C28.8667 317.931 29.016 318.155 29.128 318.416C29.24 318.677 29.296 318.976 29.296 319.312C29.296 319.732 29.212 320.11 29.044 320.446C28.876 320.782 28.6333 321.067 28.316 321.3C28.008 321.524 27.6347 321.697 27.196 321.818C26.7573 321.939 26.272 322 25.74 322H21.386V312.2H25.558ZM25.376 316.568C26.0387 316.568 26.58 316.419 27 316.12C27.42 315.821 27.63 315.383 27.63 314.804C27.63 314.309 27.4433 313.917 27.07 313.628C26.6967 313.339 26.16 313.194 25.46 313.194H22.478V316.568H25.376ZM25.768 321.006C26.5147 321.006 27.1027 320.852 27.532 320.544C27.9613 320.236 28.176 319.802 28.176 319.242C28.176 318.701 27.9567 318.285 27.518 317.996C27.0793 317.697 26.4307 317.548 25.572 317.548H22.478V321.006H25.768ZM32.3855 319.116V322H31.3075V314.762H32.3855V316.652C32.5162 316.353 32.6795 316.078 32.8755 315.826C33.0715 315.574 33.2955 315.359 33.5475 315.182C33.7995 314.995 34.0748 314.855 34.3735 314.762C34.6722 314.669 34.9942 314.627 35.3395 314.636V315.798H35.2555C34.8635 315.798 34.4902 315.868 34.1355 316.008C33.7902 316.148 33.4868 316.358 33.2255 316.638C32.9642 316.918 32.7588 317.268 32.6095 317.688C32.4602 318.099 32.3855 318.575 32.3855 319.116ZM42.1193 318.906V314.762H43.1833V322H42.1193V320.74C41.8767 321.132 41.5593 321.468 41.1673 321.748C40.7753 322.019 40.2667 322.154 39.6413 322.154C39.2027 322.154 38.8107 322.084 38.4653 321.944C38.1293 321.804 37.84 321.608 37.5973 321.356C37.364 321.095 37.182 320.787 37.0513 320.432C36.93 320.077 36.8693 319.685 36.8693 319.256V314.762H37.9473V318.99C37.9473 319.662 38.12 320.194 38.4653 320.586C38.8107 320.978 39.3053 321.174 39.9493 321.174C40.2573 321.174 40.542 321.123 40.8033 321.02C41.074 320.908 41.3027 320.754 41.4893 320.558C41.6853 320.353 41.8393 320.11 41.9513 319.83C42.0633 319.55 42.1193 319.242 42.1193 318.906ZM50.5783 319.97C50.5783 320.315 50.5083 320.623 50.3683 320.894C50.2376 321.155 50.0556 321.379 49.8223 321.566C49.5983 321.753 49.3276 321.897 49.0103 322C48.7023 322.093 48.3663 322.14 48.0023 322.14C47.4796 322.14 46.9523 322.047 46.4203 321.86C45.8883 321.664 45.417 321.403 45.0063 321.076L45.5523 320.306C45.9443 320.605 46.3503 320.833 46.7703 320.992C47.1996 321.151 47.629 321.23 48.0583 321.23C48.497 321.23 48.8563 321.127 49.1363 320.922C49.4163 320.717 49.5563 320.437 49.5563 320.082V320.054C49.5563 319.877 49.505 319.723 49.4023 319.592C49.309 319.461 49.1783 319.349 49.0103 319.256C48.8423 319.153 48.6463 319.065 48.4223 318.99C48.2076 318.915 47.9836 318.845 47.7503 318.78C47.4703 318.696 47.1856 318.607 46.8963 318.514C46.6163 318.411 46.3596 318.285 46.1263 318.136C45.9023 317.987 45.7156 317.8 45.5663 317.576C45.4263 317.352 45.3563 317.072 45.3563 316.736V316.708C45.3563 316.4 45.417 316.12 45.5383 315.868C45.6596 315.607 45.8276 315.387 46.0423 315.21C46.2663 315.023 46.5276 314.883 46.8263 314.79C47.1343 314.687 47.4656 314.636 47.8203 314.636C48.2683 314.636 48.721 314.711 49.1783 314.86C49.6356 315 50.051 315.191 50.4243 315.434L49.9343 316.246C49.5983 316.031 49.2436 315.863 48.8703 315.742C48.5063 315.611 48.147 315.546 47.7923 315.546C47.363 315.546 47.0223 315.649 46.7703 315.854C46.5183 316.05 46.3923 316.297 46.3923 316.596V316.624C46.3923 316.792 46.4436 316.941 46.5463 317.072C46.649 317.193 46.7843 317.301 46.9523 317.394C47.1296 317.487 47.3303 317.571 47.5543 317.646C47.7783 317.721 48.0116 317.795 48.2543 317.87C48.5343 317.954 48.8096 318.047 49.0803 318.15C49.3603 318.253 49.6123 318.383 49.8363 318.542C50.0603 318.701 50.2376 318.892 50.3683 319.116C50.5083 319.34 50.5783 319.615 50.5783 319.942V319.97ZM53.659 317.856V322H52.581V311.78H53.659V316.022C53.9016 315.63 54.219 315.299 54.611 315.028C55.003 314.748 55.5116 314.608 56.137 314.608C56.5756 314.608 56.963 314.678 57.299 314.818C57.6443 314.958 57.9336 315.159 58.167 315.42C58.4096 315.672 58.5916 315.975 58.713 316.33C58.8436 316.685 58.909 317.077 58.909 317.506V322H57.831V317.772C57.831 317.1 57.6583 316.568 57.313 316.176C56.9676 315.784 56.473 315.588 55.829 315.588C55.521 315.588 55.2316 315.644 54.961 315.756C54.6996 315.859 54.471 316.013 54.275 316.218C54.079 316.414 53.925 316.652 53.813 316.932C53.7103 317.212 53.659 317.52 53.659 317.856ZM66.4412 314.65C66.4412 314.883 66.4785 315.093 66.5532 315.28C66.6278 315.467 66.7632 315.639 66.9592 315.798C67.1552 315.947 67.4258 316.087 67.7712 316.218C68.1165 316.339 68.5598 316.456 69.1012 316.568C70.1932 316.811 70.9958 317.147 71.5092 317.576C72.0318 318.005 72.2932 318.598 72.2932 319.354C72.2932 319.774 72.2092 320.157 72.0412 320.502C71.8732 320.847 71.6398 321.141 71.3412 321.384C71.0518 321.627 70.7018 321.813 70.2912 321.944C69.8805 322.075 69.4325 322.14 68.9472 322.14C68.1632 322.14 67.4445 322.014 66.7912 321.762C66.1472 321.501 65.5312 321.104 64.9432 320.572L65.6292 319.76C66.1425 320.227 66.6605 320.577 67.1832 320.81C67.7058 321.034 68.3078 321.146 68.9892 321.146C69.6518 321.146 70.1792 320.992 70.5712 320.684C70.9725 320.376 71.1732 319.97 71.1732 319.466C71.1732 319.233 71.1358 319.027 71.0612 318.85C70.9865 318.663 70.8558 318.495 70.6692 318.346C70.4825 318.197 70.2212 318.061 69.8852 317.94C69.5585 317.819 69.1385 317.702 68.6252 317.59C68.0652 317.469 67.5752 317.329 67.1552 317.17C66.7445 317.011 66.4038 316.82 66.1332 316.596C65.8625 316.372 65.6618 316.111 65.5312 315.812C65.4005 315.513 65.3352 315.159 65.3352 314.748C65.3352 314.356 65.4145 313.997 65.5732 313.67C65.7318 313.343 65.9558 313.063 66.2452 312.83C66.5345 312.587 66.8752 312.401 67.2672 312.27C67.6592 312.13 68.0885 312.06 68.5552 312.06C69.2738 312.06 69.8992 312.163 70.4312 312.368C70.9725 312.564 71.4952 312.863 71.9992 313.264L71.3552 314.118C70.8978 313.745 70.4358 313.474 69.9692 313.306C69.5118 313.138 69.0312 313.054 68.5272 313.054C68.2098 313.054 67.9205 313.096 67.6592 313.18C67.4072 313.264 67.1878 313.376 67.0012 313.516C66.8238 313.656 66.6838 313.824 66.5812 314.02C66.4878 314.216 66.4412 314.426 66.4412 314.65ZM75.6203 313.18H74.3883V311.99H75.6203V313.18ZM75.5363 322H74.4583V314.762H75.5363V322ZM82.42 315.672H77.786V314.762H83.89V315.448L79.074 321.09H83.89V322H77.618V321.314L82.42 315.672ZM86.2562 318.78C86.2935 319.172 86.3869 319.522 86.5362 319.83C86.6855 320.129 86.8769 320.385 87.1102 320.6C87.3435 320.805 87.6049 320.964 87.8942 321.076C88.1835 321.179 88.4869 321.23 88.8042 321.23C89.3082 321.23 89.7375 321.137 90.0922 320.95C90.4562 320.763 90.7875 320.516 91.0862 320.208L91.7582 320.81C91.3942 321.221 90.9789 321.552 90.5122 321.804C90.0455 322.047 89.4669 322.168 88.7762 322.168C88.2815 322.168 87.8149 322.079 87.3762 321.902C86.9375 321.715 86.5549 321.459 86.2282 321.132C85.9015 320.796 85.6402 320.395 85.4442 319.928C85.2575 319.461 85.1642 318.948 85.1642 318.388C85.1642 317.865 85.2482 317.375 85.4162 316.918C85.5935 316.451 85.8362 316.05 86.1442 315.714C86.4522 315.369 86.8162 315.098 87.2362 314.902C87.6655 314.706 88.1322 314.608 88.6362 314.608C89.1682 314.608 89.6442 314.711 90.0642 314.916C90.4842 315.112 90.8389 315.383 91.1282 315.728C91.4175 316.073 91.6369 316.479 91.7862 316.946C91.9355 317.413 92.0102 317.912 92.0102 318.444C92.0102 318.491 92.0102 318.542 92.0102 318.598C92.0102 318.654 92.0055 318.715 91.9962 318.78H86.2562ZM86.2562 317.982H90.9182C90.8902 317.655 90.8202 317.343 90.7082 317.044C90.6055 316.745 90.4562 316.484 90.2602 316.26C90.0735 316.036 89.8402 315.859 89.5602 315.728C89.2895 315.588 88.9722 315.518 88.6082 315.518C88.2909 315.518 87.9969 315.583 87.7262 315.714C87.4555 315.835 87.2175 316.008 87.0122 316.232C86.8069 316.447 86.6389 316.703 86.5082 317.002C86.3775 317.301 86.2935 317.627 86.2562 317.982Z" fill="#203765"/>
<rect x="20" y="329" width="128" height="4" rx="2" fill="#D9D9D9"/>
<rect x="20" y="329" width="24" height="4" rx="2" fill="#4370C7"/>
<circle cx="44" cy="331" r="4" fill="#2CD889"/>
<rect x="214" y="307" width="72" height="32" rx="5" fill="#2CD889"/>
<rect x="296" y="307" width="70" height="32" rx="5" fill="#203765"/>
<path d="M239.576 327H237.546L235.138 323.584H232.982V327H231.26V317.2H235.628C236.188 317.2 236.692 317.275 237.14 317.424C237.597 317.564 237.98 317.769 238.288 318.04C238.605 318.301 238.848 318.628 239.016 319.02C239.184 319.403 239.268 319.832 239.268 320.308C239.268 320.719 239.207 321.087 239.086 321.414C238.974 321.731 238.815 322.016 238.61 322.268C238.405 322.511 238.157 322.721 237.868 322.898C237.588 323.066 237.275 323.197 236.93 323.29L239.576 327ZM237.518 320.406C237.518 319.865 237.341 319.459 236.986 319.188C236.631 318.908 236.132 318.768 235.488 318.768H232.982V322.058H235.502C236.118 322.058 236.608 321.909 236.972 321.61C237.336 321.311 237.518 320.91 237.518 320.406ZM242.332 323.906C242.435 324.513 242.678 324.979 243.06 325.306C243.443 325.623 243.91 325.782 244.46 325.782C244.88 325.782 245.244 325.707 245.552 325.558C245.86 325.409 246.164 325.189 246.462 324.9L247.456 325.782C247.102 326.202 246.677 326.538 246.182 326.79C245.697 327.042 245.114 327.168 244.432 327.168C243.9 327.168 243.401 327.075 242.934 326.888C242.477 326.701 242.076 326.44 241.73 326.104C241.394 325.768 241.128 325.367 240.932 324.9C240.736 324.424 240.638 323.897 240.638 323.318C240.638 322.786 240.727 322.287 240.904 321.82C241.082 321.353 241.329 320.947 241.646 320.602C241.973 320.247 242.356 319.967 242.794 319.762C243.233 319.557 243.718 319.454 244.25 319.454C244.838 319.454 245.352 319.561 245.79 319.776C246.238 319.991 246.607 320.28 246.896 320.644C247.195 321.008 247.419 321.433 247.568 321.918C247.718 322.403 247.792 322.912 247.792 323.444C247.792 323.519 247.788 323.593 247.778 323.668C247.778 323.743 247.774 323.822 247.764 323.906H242.332ZM242.318 322.786H246.112C246.084 322.515 246.024 322.263 245.93 322.03C245.837 321.787 245.711 321.582 245.552 321.414C245.394 321.237 245.202 321.097 244.978 320.994C244.764 320.891 244.516 320.84 244.236 320.84C243.714 320.84 243.28 321.022 242.934 321.386C242.598 321.741 242.393 322.207 242.318 322.786ZM254.772 324.816C254.772 325.208 254.702 325.549 254.562 325.838C254.422 326.127 254.226 326.37 253.974 326.566C253.731 326.753 253.442 326.897 253.106 327C252.77 327.093 252.41 327.14 252.028 327.14C251.496 327.14 250.954 327.047 250.404 326.86C249.862 326.673 249.358 326.398 248.892 326.034L249.648 324.886C250.049 325.185 250.455 325.413 250.866 325.572C251.286 325.721 251.687 325.796 252.07 325.796C252.434 325.796 252.714 325.726 252.91 325.586C253.115 325.437 253.218 325.241 253.218 324.998V324.97C253.218 324.83 253.171 324.709 253.078 324.606C252.994 324.503 252.872 324.415 252.714 324.34C252.564 324.256 252.387 324.186 252.182 324.13C251.986 324.065 251.78 323.999 251.566 323.934C251.295 323.85 251.02 323.757 250.74 323.654C250.469 323.551 250.222 323.421 249.998 323.262C249.783 323.094 249.606 322.893 249.466 322.66C249.326 322.417 249.256 322.119 249.256 321.764V321.736C249.256 321.391 249.321 321.078 249.452 320.798C249.592 320.518 249.778 320.28 250.012 320.084C250.254 319.888 250.534 319.739 250.852 319.636C251.178 319.533 251.524 319.482 251.888 319.482C252.354 319.482 252.826 319.557 253.302 319.706C253.778 319.855 254.212 320.061 254.604 320.322L253.932 321.526C253.577 321.311 253.218 321.143 252.854 321.022C252.49 320.891 252.154 320.826 251.846 320.826C251.519 320.826 251.262 320.896 251.076 321.036C250.898 321.176 250.81 321.353 250.81 321.568V321.596C250.81 321.727 250.856 321.843 250.95 321.946C251.043 322.039 251.164 322.128 251.314 322.212C251.472 322.287 251.65 322.361 251.846 322.436C252.051 322.501 252.261 322.567 252.476 322.632C252.746 322.716 253.017 322.814 253.288 322.926C253.558 323.038 253.801 323.178 254.016 323.346C254.24 323.505 254.422 323.701 254.562 323.934C254.702 324.167 254.772 324.452 254.772 324.788V324.816ZM257.782 323.906C257.884 324.513 258.127 324.979 258.51 325.306C258.892 325.623 259.359 325.782 259.91 325.782C260.33 325.782 260.694 325.707 261.002 325.558C261.31 325.409 261.613 325.189 261.912 324.9L262.906 325.782C262.551 326.202 262.126 326.538 261.632 326.79C261.146 327.042 260.563 327.168 259.882 327.168C259.35 327.168 258.85 327.075 258.384 326.888C257.926 326.701 257.525 326.44 257.18 326.104C256.844 325.768 256.578 325.367 256.382 324.9C256.186 324.424 256.088 323.897 256.088 323.318C256.088 322.786 256.176 322.287 256.354 321.82C256.531 321.353 256.778 320.947 257.096 320.602C257.422 320.247 257.805 319.967 258.244 319.762C258.682 319.557 259.168 319.454 259.7 319.454C260.288 319.454 260.801 319.561 261.24 319.776C261.688 319.991 262.056 320.28 262.346 320.644C262.644 321.008 262.868 321.433 263.018 321.918C263.167 322.403 263.242 322.912 263.242 323.444C263.242 323.519 263.237 323.593 263.228 323.668C263.228 323.743 263.223 323.822 263.214 323.906H257.782ZM257.768 322.786H261.562C261.534 322.515 261.473 322.263 261.38 322.03C261.286 321.787 261.16 321.582 261.002 321.414C260.843 321.237 260.652 321.097 260.428 320.994C260.213 320.891 259.966 320.84 259.686 320.84C259.163 320.84 258.729 321.022 258.384 321.386C258.048 321.741 257.842 322.207 257.768 322.786ZM266.987 321.064V324.69C266.987 325.017 267.066 325.255 267.225 325.404C267.384 325.544 267.608 325.614 267.897 325.614C268.261 325.614 268.611 325.53 268.947 325.362V326.748C268.732 326.869 268.504 326.963 268.261 327.028C268.018 327.093 267.738 327.126 267.421 327.126C267.113 327.126 266.828 327.089 266.567 327.014C266.306 326.939 266.077 326.818 265.881 326.65C265.694 326.482 265.55 326.263 265.447 325.992C265.344 325.712 265.293 325.367 265.293 324.956V321.064H264.355V319.608H265.293V317.578H266.987V319.608H268.975V321.064H266.987Z" fill="white"/>
<path d="M321.492 317.2V322.758C321.492 323.486 321.389 324.125 321.184 324.676C320.988 325.227 320.708 325.689 320.344 326.062C319.98 326.426 319.537 326.701 319.014 326.888C318.501 327.065 317.922 327.154 317.278 327.154C316.643 327.154 316.069 327.065 315.556 326.888C315.043 326.701 314.604 326.426 314.24 326.062C313.876 325.698 313.596 325.25 313.4 324.718C313.204 324.177 313.106 323.551 313.106 322.842V317.2H314.828V322.772C314.828 323.687 315.047 324.382 315.486 324.858C315.925 325.334 316.531 325.572 317.306 325.572C318.071 325.572 318.673 325.343 319.112 324.886C319.551 324.429 319.77 323.747 319.77 322.842V317.2H321.492ZM325.354 322.828V327H323.66V319.608H325.354V320.756C325.475 320.579 325.606 320.415 325.746 320.266C325.895 320.107 326.063 319.967 326.25 319.846C326.446 319.725 326.656 319.631 326.88 319.566C327.113 319.491 327.374 319.454 327.664 319.454C328.504 319.454 329.152 319.711 329.61 320.224C330.067 320.737 330.296 321.428 330.296 322.296V327H328.602V322.8C328.602 322.221 328.462 321.778 328.182 321.47C327.911 321.153 327.524 320.994 327.02 320.994C326.525 320.994 326.124 321.157 325.816 321.484C325.508 321.801 325.354 322.249 325.354 322.828ZM339.607 327H337.913V325.768C337.643 326.151 337.302 326.477 336.891 326.748C336.49 327.019 335.991 327.154 335.393 327.154C334.955 327.154 334.53 327.07 334.119 326.902C333.709 326.734 333.345 326.487 333.027 326.16C332.71 325.824 332.453 325.418 332.257 324.942C332.061 324.466 331.963 323.92 331.963 323.304C331.963 322.688 332.057 322.142 332.243 321.666C332.439 321.19 332.696 320.789 333.013 320.462C333.331 320.126 333.695 319.874 334.105 319.706C334.525 319.538 334.955 319.454 335.393 319.454C336 319.454 336.504 319.585 336.905 319.846C337.307 320.107 337.643 320.411 337.913 320.756V316.78H339.607V327ZM337.941 323.304C337.941 322.94 337.881 322.613 337.759 322.324C337.647 322.035 337.493 321.787 337.297 321.582C337.101 321.367 336.873 321.204 336.611 321.092C336.35 320.98 336.079 320.924 335.799 320.924C335.51 320.924 335.235 320.98 334.973 321.092C334.721 321.195 334.497 321.349 334.301 321.554C334.105 321.759 333.951 322.011 333.839 322.31C333.727 322.599 333.671 322.931 333.671 323.304C333.671 323.668 333.727 323.999 333.839 324.298C333.951 324.587 334.105 324.835 334.301 325.04C334.497 325.245 334.721 325.404 334.973 325.516C335.235 325.628 335.51 325.684 335.799 325.684C336.079 325.684 336.35 325.628 336.611 325.516C336.873 325.404 337.101 325.245 337.297 325.04C337.493 324.825 337.647 324.573 337.759 324.284C337.881 323.995 337.941 323.668 337.941 323.304ZM349.196 323.304C349.196 323.836 349.094 324.335 348.888 324.802C348.692 325.269 348.417 325.679 348.062 326.034C347.717 326.379 347.302 326.655 346.816 326.86C346.331 327.065 345.804 327.168 345.234 327.168C344.674 327.168 344.152 327.07 343.666 326.874C343.19 326.669 342.775 326.393 342.42 326.048C342.075 325.693 341.804 325.287 341.608 324.83C341.412 324.363 341.314 323.864 341.314 323.332C341.314 322.8 341.412 322.301 341.608 321.834C341.814 321.358 342.089 320.947 342.434 320.602C342.789 320.247 343.204 319.967 343.68 319.762C344.166 319.557 344.693 319.454 345.262 319.454C345.832 319.454 346.354 319.557 346.83 319.762C347.316 319.958 347.731 320.233 348.076 320.588C348.431 320.933 348.706 321.339 348.902 321.806C349.098 322.273 349.196 322.772 349.196 323.304ZM347.502 323.332C347.502 323.005 347.446 322.697 347.334 322.408C347.222 322.119 347.064 321.867 346.858 321.652C346.662 321.428 346.424 321.255 346.144 321.134C345.874 321.003 345.57 320.938 345.234 320.938C344.898 320.938 344.59 321.003 344.31 321.134C344.04 321.255 343.806 321.423 343.61 321.638C343.414 321.853 343.265 322.105 343.162 322.394C343.06 322.674 343.008 322.977 343.008 323.304C343.008 323.631 343.064 323.943 343.176 324.242C343.288 324.531 343.442 324.783 343.638 324.998C343.844 325.213 344.082 325.385 344.352 325.516C344.632 325.637 344.936 325.698 345.262 325.698C345.608 325.698 345.916 325.637 346.186 325.516C346.466 325.385 346.704 325.213 346.9 324.998C347.096 324.783 347.246 324.536 347.348 324.256C347.451 323.967 347.502 323.659 347.502 323.332Z" fill="white"/>
<line x1="20" y1="294.5" x2="366" y2="294.5" stroke="#A5B4CB" stroke-dasharray="4 4"/>
<defs>
<clipPath id="clip0_1182_323">
<rect width="15" height="15" fill="white" transform="translate(351 266)"/>
</clipPath>
</defs>
</svg>
