<svg width="386" height="333" viewBox="0 0 386 333" fill="none" xmlns="http://www.w3.org/2000/svg">
<rect x="0.5" y="0.5" width="385" height="332" rx="11.5" fill="white" stroke="#A5B4CB"/>
<path d="M192.656 36.384C192.656 37.1733 192.512 37.92 192.224 38.624C191.936 39.328 191.531 39.9467 191.008 40.48C190.485 41.0027 189.867 41.4187 189.152 41.728C188.437 42.0373 187.648 42.192 186.784 42.192C185.92 42.192 185.131 42.0427 184.416 41.744C183.701 41.4347 183.088 41.0187 182.576 40.496C182.064 39.9733 181.664 39.36 181.376 38.656C181.088 37.952 180.944 37.2053 180.944 36.416C180.944 35.6267 181.088 34.88 181.376 34.176C181.664 33.472 182.069 32.8587 182.592 32.336C183.115 31.8027 183.733 31.3813 184.448 31.072C185.163 30.7627 185.952 30.608 186.816 30.608C187.68 30.608 188.469 30.7627 189.184 31.072C189.899 31.3707 190.512 31.7813 191.024 32.304C191.536 32.8267 191.936 33.44 192.224 34.144C192.512 34.848 192.656 35.5947 192.656 36.384ZM190.592 36.416C190.592 35.872 190.496 35.36 190.304 34.88C190.123 34.3893 189.861 33.9627 189.52 33.6C189.189 33.2373 188.789 32.9493 188.32 32.736C187.851 32.5227 187.339 32.416 186.784 32.416C186.229 32.416 185.717 32.5227 185.248 32.736C184.789 32.9387 184.395 33.2213 184.064 33.584C183.733 33.936 183.472 34.3573 183.28 34.848C183.099 35.328 183.008 35.84 183.008 36.384C183.008 36.928 183.099 37.4453 183.28 37.936C183.472 38.416 183.733 38.8373 184.064 39.2C184.405 39.5627 184.811 39.8507 185.28 40.064C185.749 40.2773 186.261 40.384 186.816 40.384C187.371 40.384 187.877 40.2827 188.336 40.08C188.805 39.8667 189.205 39.584 189.536 39.232C189.867 38.8693 190.123 38.448 190.304 37.968C190.496 37.4773 190.592 36.96 190.592 36.416ZM205.162 36.384C205.162 37.1733 205.018 37.9147 204.73 38.608C204.442 39.2907 204.031 39.8827 203.498 40.384C202.975 40.8853 202.346 41.28 201.61 41.568C200.884 41.856 200.084 42 199.21 42H195.034V30.8H199.21C200.084 30.8 200.884 30.944 201.61 31.232C202.346 31.5093 202.975 31.8987 203.498 32.4C204.031 32.9013 204.442 33.4933 204.73 34.176C205.018 34.8587 205.162 35.5947 205.162 36.384ZM203.098 36.416C203.098 35.8613 203.002 35.3547 202.81 34.896C202.628 34.4267 202.367 34.0213 202.026 33.68C201.695 33.3387 201.29 33.072 200.81 32.88C200.33 32.688 199.796 32.592 199.21 32.592H197.002V40.208H199.21C199.796 40.208 200.33 40.1173 200.81 39.936C201.29 39.744 201.695 39.4827 202.026 39.152C202.367 38.8107 202.628 38.4107 202.81 37.952C203.002 37.4827 203.098 36.9707 203.098 36.416Z" fill="#203765"/>
<path d="M192.656 36.384C192.656 37.1733 192.512 37.92 192.224 38.624C191.936 39.328 191.531 39.9467 191.008 40.48C190.485 41.0027 189.867 41.4187 189.152 41.728C188.437 42.0373 187.648 42.192 186.784 42.192C185.92 42.192 185.131 42.0427 184.416 41.744C183.701 41.4347 183.088 41.0187 182.576 40.496C182.064 39.9733 181.664 39.36 181.376 38.656C181.088 37.952 180.944 37.2053 180.944 36.416C180.944 35.6267 181.088 34.88 181.376 34.176C181.664 33.472 182.069 32.8587 182.592 32.336C183.115 31.8027 183.733 31.3813 184.448 31.072C185.163 30.7627 185.952 30.608 186.816 30.608C187.68 30.608 188.469 30.7627 189.184 31.072C189.899 31.3707 190.512 31.7813 191.024 32.304C191.536 32.8267 191.936 33.44 192.224 34.144C192.512 34.848 192.656 35.5947 192.656 36.384ZM190.592 36.416C190.592 35.872 190.496 35.36 190.304 34.88C190.123 34.3893 189.861 33.9627 189.52 33.6C189.189 33.2373 188.789 32.9493 188.32 32.736C187.851 32.5227 187.339 32.416 186.784 32.416C186.229 32.416 185.717 32.5227 185.248 32.736C184.789 32.9387 184.395 33.2213 184.064 33.584C183.733 33.936 183.472 34.3573 183.28 34.848C183.099 35.328 183.008 35.84 183.008 36.384C183.008 36.928 183.099 37.4453 183.28 37.936C183.472 38.416 183.733 38.8373 184.064 39.2C184.405 39.5627 184.811 39.8507 185.28 40.064C185.749 40.2773 186.261 40.384 186.816 40.384C187.371 40.384 187.877 40.2827 188.336 40.08C188.805 39.8667 189.205 39.584 189.536 39.232C189.867 38.8693 190.123 38.448 190.304 37.968C190.496 37.4773 190.592 36.96 190.592 36.416ZM205.162 36.384C205.162 37.1733 205.018 37.9147 204.73 38.608C204.442 39.2907 204.031 39.8827 203.498 40.384C202.975 40.8853 202.346 41.28 201.61 41.568C200.884 41.856 200.084 42 199.21 42H195.034V30.8H199.21C200.084 30.8 200.884 30.944 201.61 31.232C202.346 31.5093 202.975 31.8987 203.498 32.4C204.031 32.9013 204.442 33.4933 204.73 34.176C205.018 34.8587 205.162 35.5947 205.162 36.384ZM203.098 36.416C203.098 35.8613 203.002 35.3547 202.81 34.896C202.628 34.4267 202.367 34.0213 202.026 33.68C201.695 33.3387 201.29 33.072 200.81 32.88C200.33 32.688 199.796 32.592 199.21 32.592H197.002V40.208H199.21C199.796 40.208 200.33 40.1173 200.81 39.936C201.29 39.744 201.695 39.4827 202.026 39.152C202.367 38.8107 202.628 38.4107 202.81 37.952C203.002 37.4827 203.098 36.9707 203.098 36.416Z" fill="#203765"/>
<path d="M193 292C252.094 292 300 244.094 300 185C300 125.906 252.094 78 193 78C133.906 78 86 125.906 86 185C86 244.094 133.906 292 193 292Z" fill="white" stroke="#B5B5B5" stroke-width="9" stroke-miterlimit="10"/>
<path d="M198 78H187V292H198V78Z" fill="#B5B5B5"/>
<path d="M301 192V181H85V192H301Z" fill="#B5B5B5"/>
</svg>
