<svg width="386" height="333" viewBox="0 0 386 333" fill="none" xmlns="http://www.w3.org/2000/svg">
<rect x="0.5" y="0.5" width="385" height="332" rx="11.5" fill="white" stroke="#A5B4CB"/>
<path d="M193.656 36.384C193.656 37.1733 193.512 37.92 193.224 38.624C192.936 39.328 192.531 39.9467 192.008 40.48C191.485 41.0027 190.867 41.4187 190.152 41.728C189.437 42.0373 188.648 42.192 187.784 42.192C186.92 42.192 186.131 42.0427 185.416 41.744C184.701 41.4347 184.088 41.0187 183.576 40.496C183.064 39.9733 182.664 39.36 182.376 38.656C182.088 37.952 181.944 37.2053 181.944 36.416C181.944 35.6267 182.088 34.88 182.376 34.176C182.664 33.472 183.069 32.8587 183.592 32.336C184.115 31.8027 184.733 31.3813 185.448 31.072C186.163 30.7627 186.952 30.608 187.816 30.608C188.68 30.608 189.469 30.7627 190.184 31.072C190.899 31.3707 191.512 31.7813 192.024 32.304C192.536 32.8267 192.936 33.44 193.224 34.144C193.512 34.848 193.656 35.5947 193.656 36.384ZM191.592 36.416C191.592 35.872 191.496 35.36 191.304 34.88C191.123 34.3893 190.861 33.9627 190.52 33.6C190.189 33.2373 189.789 32.9493 189.32 32.736C188.851 32.5227 188.339 32.416 187.784 32.416C187.229 32.416 186.717 32.5227 186.248 32.736C185.789 32.9387 185.395 33.2213 185.064 33.584C184.733 33.936 184.472 34.3573 184.28 34.848C184.099 35.328 184.008 35.84 184.008 36.384C184.008 36.928 184.099 37.4453 184.28 37.936C184.472 38.416 184.733 38.8373 185.064 39.2C185.405 39.5627 185.811 39.8507 186.28 40.064C186.749 40.2773 187.261 40.384 187.816 40.384C188.371 40.384 188.877 40.2827 189.336 40.08C189.805 39.8667 190.205 39.584 190.536 39.232C190.867 38.8693 191.123 38.448 191.304 37.968C191.496 37.4773 191.592 36.96 191.592 36.416ZM206.162 36.384C206.162 37.1733 206.018 37.9147 205.73 38.608C205.442 39.2907 205.031 39.8827 204.498 40.384C203.975 40.8853 203.346 41.28 202.61 41.568C201.884 41.856 201.084 42 200.21 42H196.034V30.8H200.21C201.084 30.8 201.884 30.944 202.61 31.232C203.346 31.5093 203.975 31.8987 204.498 32.4C205.031 32.9013 205.442 33.4933 205.73 34.176C206.018 34.8587 206.162 35.5947 206.162 36.384ZM204.098 36.416C204.098 35.8613 204.002 35.3547 203.81 34.896C203.628 34.4267 203.367 34.0213 203.026 33.68C202.695 33.3387 202.29 33.072 201.81 32.88C201.33 32.688 200.796 32.592 200.21 32.592H198.002V40.208H200.21C200.796 40.208 201.33 40.1173 201.81 39.936C202.29 39.744 202.695 39.4827 203.026 39.152C203.367 38.8107 203.628 38.4107 203.81 37.952C204.002 37.4827 204.098 36.9707 204.098 36.416Z" fill="#203765"/>
<path d="M193.656 36.384C193.656 37.1733 193.512 37.92 193.224 38.624C192.936 39.328 192.531 39.9467 192.008 40.48C191.485 41.0027 190.867 41.4187 190.152 41.728C189.437 42.0373 188.648 42.192 187.784 42.192C186.92 42.192 186.131 42.0427 185.416 41.744C184.701 41.4347 184.088 41.0187 183.576 40.496C183.064 39.9733 182.664 39.36 182.376 38.656C182.088 37.952 181.944 37.2053 181.944 36.416C181.944 35.6267 182.088 34.88 182.376 34.176C182.664 33.472 183.069 32.8587 183.592 32.336C184.115 31.8027 184.733 31.3813 185.448 31.072C186.163 30.7627 186.952 30.608 187.816 30.608C188.68 30.608 189.469 30.7627 190.184 31.072C190.899 31.3707 191.512 31.7813 192.024 32.304C192.536 32.8267 192.936 33.44 193.224 34.144C193.512 34.848 193.656 35.5947 193.656 36.384ZM191.592 36.416C191.592 35.872 191.496 35.36 191.304 34.88C191.123 34.3893 190.861 33.9627 190.52 33.6C190.189 33.2373 189.789 32.9493 189.32 32.736C188.851 32.5227 188.339 32.416 187.784 32.416C187.229 32.416 186.717 32.5227 186.248 32.736C185.789 32.9387 185.395 33.2213 185.064 33.584C184.733 33.936 184.472 34.3573 184.28 34.848C184.099 35.328 184.008 35.84 184.008 36.384C184.008 36.928 184.099 37.4453 184.28 37.936C184.472 38.416 184.733 38.8373 185.064 39.2C185.405 39.5627 185.811 39.8507 186.28 40.064C186.749 40.2773 187.261 40.384 187.816 40.384C188.371 40.384 188.877 40.2827 189.336 40.08C189.805 39.8667 190.205 39.584 190.536 39.232C190.867 38.8693 191.123 38.448 191.304 37.968C191.496 37.4773 191.592 36.96 191.592 36.416ZM206.162 36.384C206.162 37.1733 206.018 37.9147 205.73 38.608C205.442 39.2907 205.031 39.8827 204.498 40.384C203.975 40.8853 203.346 41.28 202.61 41.568C201.884 41.856 201.084 42 200.21 42H196.034V30.8H200.21C201.084 30.8 201.884 30.944 202.61 31.232C203.346 31.5093 203.975 31.8987 204.498 32.4C205.031 32.9013 205.442 33.4933 205.73 34.176C206.018 34.8587 206.162 35.5947 206.162 36.384ZM204.098 36.416C204.098 35.8613 204.002 35.3547 203.81 34.896C203.628 34.4267 203.367 34.0213 203.026 33.68C202.695 33.3387 202.29 33.072 201.81 32.88C201.33 32.688 200.796 32.592 200.21 32.592H198.002V40.208H200.21C200.796 40.208 201.33 40.1173 201.81 39.936C202.29 39.744 202.695 39.4827 203.026 39.152C203.367 38.8107 203.628 38.4107 203.81 37.952C204.002 37.4827 204.098 36.9707 204.098 36.416Z" fill="#203765"/>
<path d="M196 134H192V239H196V134Z" fill="#B5B5B5"/>
<path d="M266 189V184H122V189H266Z" fill="#B5B5B5"/>
<path d="M266.091 244.728L269.066 240.87L121.851 127.335L118.876 131.193L266.091 244.728Z" fill="#B5B5B5"/>
<path d="M118.812 240.9L121.787 244.757L269.002 131.223L266.027 127.365L118.812 240.9Z" fill="#B5B5B5"/>
<path d="M319.945 169H283.055C275.845 169 270 174.884 270 182.142V187.858C270 195.116 275.845 201 283.055 201H319.945C327.155 201 333 195.116 333 187.858V182.142C333 174.884 327.155 169 319.945 169Z" fill="white" stroke="#B5B5B5" stroke-width="2" stroke-miterlimit="10"/>
<path d="M319.945 97H283.055C275.845 97 270 102.884 270 110.142V115.858C270 123.116 275.845 129 283.055 129H319.945C327.155 129 333 123.116 333 115.858V110.142C333 102.884 327.155 97 319.945 97Z" fill="white" stroke="#B5B5B5" stroke-width="2" stroke-miterlimit="10"/>
<path d="M319.945 244H283.055C275.845 244 270 249.884 270 257.142V262.858C270 270.116 275.845 276 283.055 276H319.945C327.155 276 333 270.116 333 262.858V257.142C333 249.884 327.155 244 319.945 244Z" fill="white" stroke="#B5B5B5" stroke-width="2" stroke-miterlimit="10"/>
<path d="M103.945 169H67.0547C59.8448 169 54 174.884 54 182.142V187.858C54 195.116 59.8448 201 67.0547 201H103.945C111.155 201 117 195.116 117 187.858V182.142C117 174.884 111.155 169 103.945 169Z" fill="white" stroke="#B5B5B5" stroke-width="2" stroke-miterlimit="10"/>
<path d="M103.945 97H67.0547C59.8448 97 54 102.884 54 110.142V115.858C54 123.116 59.8448 129 67.0547 129H103.945C111.155 129 117 123.116 117 115.858V110.142C117 102.884 111.155 97 103.945 97Z" fill="white" stroke="#B5B5B5" stroke-width="2" stroke-miterlimit="10"/>
<path d="M103.945 244H67.0547C59.8448 244 54 249.884 54 257.142V262.858C54 270.116 59.8448 276 67.0547 276H103.945C111.155 276 117 270.116 117 262.858V257.142C117 249.884 111.155 244 103.945 244Z" fill="white" stroke="#B5B5B5" stroke-width="2" stroke-miterlimit="10"/>
<path d="M211.152 97H174.848C167.752 97 162 102.884 162 110.142V115.858C162 123.116 167.752 129 174.848 129H211.152C218.248 129 224 123.116 224 115.858V110.142C224 102.884 218.248 97 211.152 97Z" fill="white" stroke="#B5B5B5" stroke-width="2" stroke-miterlimit="10"/>
<path d="M211.152 244H174.848C167.752 244 162 249.884 162 257.142V262.858C162 270.116 167.752 276 174.848 276H211.152C218.248 276 224 270.116 224 262.858V257.142C224 249.884 218.248 244 211.152 244Z" fill="white" stroke="#B5B5B5" stroke-width="2" stroke-miterlimit="10"/>
</svg>
