<?xml version="1.0" encoding="utf-8"?>
<!-- Generator: Adobe Illustrator 25.2.0, SVG Export Plug-In . SVG Version: 6.00 Build 0)  -->
<svg version="1.1" id="Layer_1" xmlns="http://www.w3.org/2000/svg" xmlns:xlink="http://www.w3.org/1999/xlink" x="0px" y="0px"
	 viewBox="0 0 50 50" style="enable-background:new 0 0 50 50;" xml:space="preserve">
<style type="text/css">
	.st0{fill:#FFFFFF;fill-opacity:0.2;}
	.st1{fill:#C96811;}
	.st2{fill:none;}
</style>
<path class="st0" d="M5,0h40c2.8,0,5,2.2,5,5v40c0,2.8-2.2,5-5,5H5c-2.8,0-5-2.2-5-5V5C0,2.2,2.2,0,5,0z"/>
<polygon class="st1" points="31.8,37.6 28.8,34.7 27.2,36.2 31.8,40.7 40.8,31.7 39.2,30.2 "/>
<path class="st1" d="M35.1,12.6h-3.4v-1.1c0-1.2-1-2.2-2.2-2.2h-9c-1.2,0-2.2,1-2.2,2.2v1.1h-3.4c-1.2,0-2.2,1-2.2,2.2v23.6
	c0,1.2,1,2.2,2.2,2.2H25v-2.2H14.9V14.9h3.4v3.4h13.5v-3.4h3.4v12.4h2.2V14.9C37.4,13.6,36.4,12.6,35.1,12.6z M29.5,16h-9v-4.5h9V16
	z"/>
<rect id="_Transparent_Rectangle_" x="7" y="7" class="st2" width="36" height="36"/>
</svg>
