<?xml version="1.0" encoding="utf-8"?>
<!-- Generator: Adobe Illustrator 25.2.0, SVG Export Plug-In . SVG Version: 6.00 Build 0)  -->
<svg version="1.1" id="Layer_1" xmlns="http://www.w3.org/2000/svg" xmlns:xlink="http://www.w3.org/1999/xlink" x="0px" y="0px"
	 viewBox="0 0 50 50" style="enable-background:new 0 0 50 50;" xml:space="preserve">
<style type="text/css">
	.st0{fill:#FFFFFF;fill-opacity:0.2;}
	.st1{fill:#FF9900;}
</style>
<path class="st0" d="M5,0h40c2.8,0,5,2.2,5,5v40c0,2.8-2.2,5-5,5H5c-2.8,0-5-2.2-5-5V5C0,2.2,2.2,0,5,0z"/>
<path class="st1" d="M25,25c1.6,0,3.1-0.5,4.4-1.3c1.3-0.9,2.3-2.1,2.9-3.5c0.6-1.4,0.8-3,0.4-4.5c-0.3-1.5-1.1-2.9-2.2-4
	s-2.5-1.9-4-2.2C25,9.1,23.4,9.3,22,9.8c-1.4,0.6-2.7,1.6-3.5,2.9s-1.3,2.8-1.3,4.4c0,2.1,0.8,4.1,2.3,5.6C20.9,24.2,22.9,25,25,25z
	 M25,11.5c1.1,0,2.2,0.3,3.1,0.9c0.9,0.6,1.6,1.5,2.1,2.5c0.4,1,0.5,2.2,0.3,3.3c-0.2,1.1-0.8,2.1-1.5,2.9c-0.8,0.8-1.8,1.3-2.9,1.5
	s-2.2,0.1-3.2-0.3s-1.9-1.1-2.5-2.1c-0.6-0.9-0.9-2-0.9-3.1c0-1.5,0.6-2.9,1.6-4C22.1,12.1,23.5,11.5,25,11.5z"/>
<path class="st1" d="M26.1,27.2h-2.2c-3.3,0-6.4,1.3-8.8,3.6c-2.3,2.3-3.6,5.5-3.6,8.8c0,0.3,0.1,0.6,0.3,0.8s0.5,0.3,0.8,0.3h24.8
	c0.3,0,0.6-0.1,0.8-0.3s0.3-0.5,0.3-0.8c0-3.3-1.3-6.4-3.6-8.8C32.6,28.6,29.4,27.2,26.1,27.2z M13.8,38.5c0.3-2.5,1.5-4.8,3.3-6.4
	c1.9-1.7,4.3-2.6,6.7-2.6H26c2.5,0,4.9,0.9,6.7,2.6c1.9,1.7,3,3.9,3.3,6.4H13.8z"/>
</svg>
