<svg width="50" height="50" viewBox="0 0 50 50" fill="none" xmlns="http://www.w3.org/2000/svg">
<rect width="50" height="50" rx="5" fill="#275ADD" fill-opacity="0.2"/>
<g clip-path="url(#clip0_45_5)">
<path d="M30.625 40.75C28.845 40.75 27.1049 40.2222 25.6249 39.2332C24.1448 38.2443 22.9913 36.8387 22.3101 35.1942C21.6289 33.5496 21.4507 31.74 21.7979 29.9942C22.1452 28.2484 23.0024 26.6447 24.261 25.386C25.5197 24.1274 27.1234 23.2702 28.8692 22.9229C30.615 22.5757 32.4246 22.7539 34.0692 23.4351C35.7137 24.1163 37.1193 25.2698 38.1082 26.7499C39.0972 28.2299 39.625 29.97 39.625 31.75C39.625 34.137 38.6768 36.4261 36.989 38.114C35.3011 39.8018 33.012 40.75 30.625 40.75ZM30.625 25C29.29 25 27.9849 25.3959 26.8749 26.1376C25.7649 26.8793 24.8997 27.9335 24.3888 29.1669C23.8779 30.4003 23.7443 31.7575 24.0047 33.0669C24.2652 34.3762 24.908 35.579 25.852 36.523C26.796 37.467 27.9988 38.1099 29.3081 38.3703C30.6175 38.6308 31.9747 38.4971 33.2081 37.9862C34.4415 37.4753 35.4957 36.6101 36.2374 35.5001C36.9791 34.3901 37.375 33.085 37.375 31.75C37.375 29.9598 36.6638 28.2429 35.398 26.977C34.1321 25.7112 32.4152 25 30.625 25Z" fill="#275ADD"/>
<path d="M32.4138 35.125L29.5 32.2112V27.25H31.75V31.2888L34 33.5388L32.4138 35.125Z" fill="#275ADD"/>
<path d="M38.5 13.75C38.5 13.1533 38.2629 12.581 37.841 12.159C37.419 11.7371 36.8467 11.5 36.25 11.5H31.75V9.25H29.5V11.5H20.5V9.25H18.25V11.5H13.75C13.1533 11.5 12.581 11.7371 12.159 12.159C11.7371 12.581 11.5 13.1533 11.5 13.75V36.25C11.5 36.8467 11.7371 37.419 12.159 37.841C12.581 38.2629 13.1533 38.5 13.75 38.5H18.25V36.25H13.75V13.75H18.25V16H20.5V13.75H29.5V16H31.75V13.75H36.25V20.5H38.5V13.75Z" fill="#275ADD"/>
</g>
<defs>
<clipPath id="clip0_45_5">
<rect width="36" height="36" fill="white" transform="translate(7 7)"/>
</clipPath>
</defs>
</svg>
