<?xml version="1.0" encoding="utf-8"?>
<!-- Generator: Adobe Illustrator 25.2.0, SVG Export Plug-In . SVG Version: 6.00 Build 0)  -->
<svg version="1.1" id="Layer_1" xmlns="http://www.w3.org/2000/svg" xmlns:xlink="http://www.w3.org/1999/xlink" x="0px" y="0px"
	 viewBox="0 0 50 50" style="enable-background:new 0 0 50 50;" xml:space="preserve">
<style type="text/css">
	.st0{fill:#FFFFFF;fill-opacity:0.2;}
	.st1{fill:#9B9B9B;}
	.st2{fill:none;}
</style>
<path class="st0" d="M5,0h40c2.8,0,5,2.2,5,5v40c0,2.8-2.2,5-5,5H5c-2.8,0-5-2.2-5-5V5C0,2.2,2.2,0,5,0z"/>
<polygon class="st1" points="22.2,30.2 18.2,26.2 16.6,27.8 22.2,33.4 32.4,23.3 30.8,21.7 "/>
<path class="st1" d="M34.6,13.1h-3.4V12c0-1.2-1-2.2-2.2-2.2h-9c-1.2,0-2.2,1-2.2,2.2v1.1h-3.4c-1.2,0-2.2,1-2.2,2.2V39
	c0,1.2,1,2.2,2.2,2.2h20.2c1.2,0,2.2-1,2.2-2.2V15.4C36.9,14.1,35.9,13.1,34.6,13.1z M20,12h9v4.5h-9V12z M34.6,39H14.4V15.4h3.4
	v3.4h13.5v-3.4h3.4V39H34.6z"/>
<rect id="_Transparent_Rectangle_" x="7.5" y="7.5" class="st2" width="36" height="36"/>
</svg>
