<svg width="152" height="134" viewBox="0 0 152 134" fill="none" xmlns="http://www.w3.org/2000/svg">
<rect x="0.5" y="0.5" width="150.46" height="132.7" rx="5.5" fill="white" stroke="#B5B5B5"/>
<path d="M40.0476 90.5948C57.6056 90.5948 71.8392 82.7636 71.8392 73.1033C71.8392 63.443 57.6056 55.6118 40.0476 55.6118C22.4895 55.6118 8.25586 63.443 8.25586 73.1033C8.25586 82.7636 22.4895 90.5948 40.0476 90.5948Z" fill="white" stroke="#B5B5B5" stroke-width="2" stroke-miterlimit="10"/>
<path d="M40.0482 88.6085C47.6391 88.6085 53.7927 81.6666 53.7927 73.1033C53.7927 64.5401 47.6391 57.5981 40.0482 57.5981C32.4573 57.5981 26.3037 64.5401 26.3037 73.1033C26.3037 81.6666 32.4573 88.6085 40.0482 88.6085Z" fill="white" stroke="#B5B5B5" stroke-width="2" stroke-miterlimit="10"/>
<path d="M109.591 90.5948C127.149 90.5948 141.382 82.7636 141.382 73.1033C141.382 63.443 127.149 55.6118 109.591 55.6118C92.0325 55.6118 77.7988 63.443 77.7988 73.1033C77.7988 82.7636 92.0325 90.5948 109.591 90.5948Z" fill="white" stroke="#B5B5B5" stroke-width="2" stroke-miterlimit="10"/>
<path d="M109.59 88.6085C117.181 88.6085 123.335 81.6666 123.335 73.1033C123.335 64.5401 117.181 57.5981 109.59 57.5981C101.999 57.5981 95.8457 64.5401 95.8457 73.1033C95.8457 81.6666 101.999 88.6085 109.59 88.6085Z" fill="white" stroke="#B5B5B5" stroke-width="2" stroke-miterlimit="10"/>
<path d="M107.206 20.41C110.104 20.41 111.686 22.58 111.686 25.184C111.686 28.278 109.81 30.154 107.052 30.154C104.252 30.154 102.614 28.04 102.614 25.352C102.614 22.524 104.42 20.41 107.206 20.41ZM107.15 22.104C105.708 22.104 104.868 23.476 104.868 25.31C104.868 27.158 105.736 28.46 107.164 28.46C108.606 28.46 109.432 27.088 109.432 25.254C109.432 23.56 108.62 22.104 107.15 22.104ZM112.719 29.566L113.153 27.802C113.727 28.096 114.609 28.39 115.519 28.39C116.499 28.39 117.017 27.984 117.017 27.368C117.017 26.78 116.569 26.444 115.435 26.038C113.867 25.492 112.845 24.624 112.845 23.252C112.845 21.642 114.189 20.41 116.415 20.41C117.479 20.41 118.263 20.634 118.823 20.886L118.347 22.608C117.969 22.426 117.297 22.16 116.373 22.16C115.449 22.16 115.001 22.58 115.001 23.07C115.001 23.672 115.533 23.938 116.751 24.4C118.417 25.016 119.201 25.884 119.201 27.214C119.201 28.796 117.983 30.14 115.393 30.14C114.315 30.14 113.251 29.86 112.719 29.566Z" fill="black"/>
<path d="M37.5371 20.41C40.4351 20.41 42.0171 22.58 42.0171 25.184C42.0171 28.278 40.1411 30.154 37.3831 30.154C34.5831 30.154 32.9451 28.04 32.9451 25.352C32.9451 22.524 34.7511 20.41 37.5371 20.41ZM37.4811 22.104C36.0391 22.104 35.1991 23.476 35.1991 25.31C35.1991 27.158 36.0671 28.46 37.4951 28.46C38.9371 28.46 39.7631 27.088 39.7631 25.254C39.7631 23.56 38.9511 22.104 37.4811 22.104ZM43.4142 29.958V20.69C44.1982 20.564 45.2202 20.494 46.2982 20.494C48.0902 20.494 49.2522 20.816 50.1622 21.502C51.1422 22.23 51.7582 23.392 51.7582 25.058C51.7582 26.864 51.1002 28.11 50.1902 28.88C49.1962 29.706 47.6842 30.098 45.8362 30.098C44.7302 30.098 43.9462 30.028 43.4142 29.958ZM45.5562 22.216V28.39C45.7382 28.432 46.0322 28.432 46.2982 28.432C48.2302 28.446 49.4902 27.382 49.4902 25.128C49.5042 23.168 48.3562 22.132 46.5222 22.132C46.0462 22.132 45.7382 22.174 45.5562 22.216Z" fill="black"/>
</svg>
