<svg width="152" height="134" viewBox="0 0 152 134" fill="none" xmlns="http://www.w3.org/2000/svg">
<rect x="0.5" y="0.5" width="150.46" height="132.7" rx="5.5" fill="white" stroke="#B5B5B5"/>
<path d="M43.1916 101.985C43.0025 102.024 42.8056 101.987 42.6436 101.881C42.4817 101.775 42.3678 101.61 42.3268 101.42C40.7442 93.8215 39.9647 86.0761 40.0012 78.3129C39.9752 71.0226 40.6559 63.7472 42.0337 56.5895C42.0727 56.402 42.1825 56.2368 42.3401 56.1289C42.4977 56.0209 42.6908 55.9784 42.8789 56.0104C51.4972 57.635 58 67.5297 58 79.0294C58 90.5292 51.7708 100.183 43.1916 101.985ZM44.1345 57.846C44.0336 57.8102 43.9261 57.7967 43.8195 57.8065C43.7129 57.8162 43.6096 57.8491 43.5168 57.9027C43.424 57.9563 43.3438 58.0294 43.2818 58.1171C43.2198 58.2047 43.1773 58.3048 43.1574 58.4105C42.0017 64.9806 41.4295 71.6409 41.4474 78.3129C41.4153 85.4453 42.0698 92.5641 43.4016 99.5699C43.4234 99.6743 43.4671 99.7727 43.5299 99.8587C43.5927 99.9446 43.6731 100.016 43.7657 100.068C43.8583 100.12 43.9609 100.152 44.0667 100.161C44.1724 100.17 44.2789 100.156 44.3788 100.12C51.3946 97.6656 56.5148 88.9438 56.5148 79.0147C56.5343 68.9285 51.2969 60.1627 44.1247 57.846H44.1345Z" fill="#B5B5B5"/>
<path d="M43.6505 111L43.0778 110.87C29.1323 107.752 19 94.2533 19 78.768C19 64.0464 28.1142 51.0501 41.1688 47.1547L41.6974 47L42.0058 47.4446C43.0202 49.1513 43.9085 50.9281 44.6637 52.7611L43.6847 53.1864C38.5347 55.4527 34.1848 59.1819 31.1894 63.8986C28.1941 68.6152 26.6889 74.1057 26.8659 79.6702C27.0428 85.2347 28.8938 90.6212 32.183 95.143C35.4721 99.6648 40.0504 103.117 45.3343 105.06L46 105.307L45.7699 105.969C45.2432 107.51 44.6271 109.021 43.9246 110.493L43.6505 111ZM41.066 48.7109C28.917 52.6112 20.4685 64.8873 20.4685 78.768C20.4685 93.3688 29.8323 106.114 42.8183 109.318C43.2834 108.308 43.719 107.245 44.1204 106.138C38.7063 103.995 34.0466 100.332 30.7168 95.6034C27.387 90.8746 25.5329 85.2864 25.3835 79.5288C25.2341 73.7712 26.7959 68.0965 29.876 63.2055C32.9562 58.3145 37.4198 54.4215 42.7156 52.0071C42.2603 50.9776 41.6387 49.6775 41.066 48.7109Z" fill="#B5B5B5"/>
<path d="M103.808 56.0153C103.998 55.976 104.194 56.0132 104.356 56.1189C104.518 56.2246 104.632 56.3902 104.673 56.5797C106.256 64.1785 107.035 71.9239 106.999 79.6871C107.025 86.9774 106.344 94.2528 104.966 101.41C104.927 101.598 104.818 101.763 104.66 101.871C104.502 101.979 104.309 102.022 104.121 101.99C95.5028 100.365 89 90.4703 89 78.9706C89 67.4708 95.2292 57.8166 103.808 56.0153ZM102.866 100.154C102.966 100.19 103.074 100.203 103.181 100.194C103.287 100.184 103.39 100.151 103.483 100.097C103.576 100.044 103.656 99.9706 103.718 99.8829C103.78 99.7953 103.823 99.6952 103.843 99.5895C104.998 93.0194 105.571 86.3591 105.553 79.6871C105.585 72.5547 104.93 65.4359 103.598 58.4301C103.577 58.3257 103.533 58.2273 103.47 58.1413C103.407 58.0554 103.327 57.984 103.234 57.9319C103.142 57.8798 103.039 57.8482 102.933 57.8394C102.828 57.8305 102.721 57.8445 102.621 57.8804C95.6054 60.3344 90.4852 69.0562 90.4852 78.9853C90.4657 89.0715 95.7031 97.8373 102.875 100.154L102.866 100.154Z" fill="#B5B5B5"/>
<path d="M103.35 47L103.922 47.1305C117.868 50.2478 128 63.7467 128 79.232C128 93.9536 118.886 106.95 105.831 110.845L105.303 111L104.994 110.555C103.98 108.849 103.092 107.072 102.336 105.239L103.315 104.814C108.465 102.547 112.815 98.8181 115.811 94.1014C118.806 89.3848 120.311 83.8943 120.134 78.3298C119.957 72.7653 118.106 67.3788 114.817 62.857C111.528 58.3352 106.95 54.8828 101.666 52.9399L101 52.6934L101.23 52.0313C101.757 50.4896 102.373 48.9792 103.075 47.5075L103.35 47ZM105.934 109.289C118.083 105.389 126.532 93.1127 126.532 79.232C126.532 64.6312 117.168 51.8863 104.182 48.6819C103.717 49.692 103.281 50.7553 102.88 51.8621C108.294 54.0055 112.953 57.6677 116.283 62.3966C119.613 67.1254 121.467 72.7136 121.617 78.4712C121.766 84.2288 120.204 89.9035 117.124 94.7945C114.044 99.6855 109.58 103.579 104.284 105.993C104.74 107.022 105.361 108.322 105.934 109.289Z" fill="#B5B5B5"/>
<path d="M104.082 20.41C106.98 20.41 108.562 22.58 108.562 25.184C108.562 28.278 106.686 30.154 103.928 30.154C101.128 30.154 99.49 28.04 99.49 25.352C99.49 22.524 101.296 20.41 104.082 20.41ZM104.026 22.104C102.584 22.104 101.744 23.476 101.744 25.31C101.744 27.158 102.612 28.46 104.04 28.46C105.482 28.46 106.308 27.088 106.308 25.254C106.308 23.56 105.496 22.104 104.026 22.104ZM109.595 29.566L110.029 27.802C110.603 28.096 111.485 28.39 112.395 28.39C113.375 28.39 113.893 27.984 113.893 27.368C113.893 26.78 113.445 26.444 112.311 26.038C110.743 25.492 109.721 24.624 109.721 23.252C109.721 21.642 111.065 20.41 113.291 20.41C114.355 20.41 115.139 20.634 115.699 20.886L115.223 22.608C114.845 22.426 114.173 22.16 113.249 22.16C112.325 22.16 111.877 22.58 111.877 23.07C111.877 23.672 112.409 23.938 113.627 24.4C115.293 25.016 116.077 25.884 116.077 27.214C116.077 28.796 114.859 30.14 112.269 30.14C111.191 30.14 110.127 29.86 109.595 29.566Z" fill="black"/>
<path d="M32.082 20.41C34.98 20.41 36.562 22.58 36.562 25.184C36.562 28.278 34.686 30.154 31.928 30.154C29.128 30.154 27.49 28.04 27.49 25.352C27.49 22.524 29.296 20.41 32.082 20.41ZM32.026 22.104C30.584 22.104 29.744 23.476 29.744 25.31C29.744 27.158 30.612 28.46 32.04 28.46C33.482 28.46 34.308 27.088 34.308 25.254C34.308 23.56 33.496 22.104 32.026 22.104ZM37.9592 29.958V20.69C38.7432 20.564 39.7652 20.494 40.8432 20.494C42.6352 20.494 43.7972 20.816 44.7072 21.502C45.6872 22.23 46.3032 23.392 46.3032 25.058C46.3032 26.864 45.6452 28.11 44.7352 28.88C43.7412 29.706 42.2292 30.098 40.3812 30.098C39.2752 30.098 38.4912 30.028 37.9592 29.958ZM40.1012 22.216V28.39C40.2832 28.432 40.5772 28.432 40.8432 28.432C42.7752 28.446 44.0352 27.382 44.0352 25.128C44.0492 23.168 42.9012 22.132 41.0672 22.132C40.5912 22.132 40.2832 22.174 40.1012 22.216Z" fill="black"/>
</svg>
