<svg width="287" height="134" viewBox="0 0 287 134" fill="none" xmlns="http://www.w3.org/2000/svg">
<rect x="0.5" y="0.5" width="286" height="133" rx="5.5" fill="white" stroke="#B5B5B5"/>
<path d="M74.9687 58.4102H73.0527V99.9425H74.9687V58.4102Z" fill="black"/>
<path d="M102.214 79.9933V78.0774H45.8147V79.9933H102.214Z" fill="black"/>
<path d="M102.383 102.097L103.553 100.58L45.6567 55.9295L44.4866 57.4466L102.383 102.097Z" fill="black"/>
<path d="M44.4618 100.591L45.6318 102.109L103.528 57.4582L102.358 55.941L44.4618 100.591Z" fill="black"/>
<path d="M123.576 72.2742H109.106C106.278 72.2742 103.985 74.5667 103.985 77.3948V79.6222C103.985 82.4502 106.278 84.7428 109.106 84.7428H123.576C126.404 84.7428 128.697 82.4502 128.697 79.6222V77.3948C128.697 74.5667 126.404 72.2742 123.576 72.2742Z" fill="white" stroke="#B5B5B5" stroke-width="2" stroke-miterlimit="10"/>
<path d="M123.576 44H109.106C106.278 44 103.985 46.2926 103.985 49.1206V51.3481C103.985 54.1761 106.278 56.4687 109.106 56.4687H123.576C126.404 56.4687 128.697 54.1761 128.697 51.3481V49.1206C128.697 46.2926 126.404 44 123.576 44Z" fill="white" stroke="#B5B5B5" stroke-width="2" stroke-miterlimit="10"/>
<path d="M123.576 101.773H109.106C106.278 101.773 103.985 104.066 103.985 106.894V109.121C103.985 111.949 106.278 114.242 109.106 114.242H123.576C126.404 114.242 128.697 111.949 128.697 109.121V106.894C128.697 104.066 126.404 101.773 123.576 101.773Z" fill="white" stroke="#B5B5B5" stroke-width="2" stroke-miterlimit="10"/>
<path d="M38.5906 72.2742H24.1206C21.2926 72.2742 19 74.5667 19 77.3948V79.6222C19 82.4502 21.2926 84.7428 24.1206 84.7428H38.5906C41.4186 84.7428 43.7112 82.4502 43.7112 79.6222V77.3948C43.7112 74.5667 41.4186 72.2742 38.5906 72.2742Z" fill="white" stroke="#B5B5B5" stroke-width="2" stroke-miterlimit="10"/>
<path d="M38.5906 44H24.1206C21.2926 44 19 46.2926 19 49.1206V51.3481C19 54.1761 21.2926 56.4687 24.1206 56.4687H38.5906C41.4186 56.4687 43.7112 54.1761 43.7112 51.3481V49.1206C43.7112 46.2926 41.4186 44 38.5906 44Z" fill="white" stroke="#B5B5B5" stroke-width="2" stroke-miterlimit="10"/>
<path d="M38.5906 101.773H24.1206C21.2926 101.773 19 104.066 19 106.894V109.121C19 111.949 21.2926 114.242 24.1206 114.242H38.5906C41.4186 114.242 43.7112 111.949 43.7112 109.121V106.894C43.7112 104.066 41.4186 101.773 38.5906 101.773Z" fill="white" stroke="#B5B5B5" stroke-width="2" stroke-miterlimit="10"/>
<path d="M80.8699 44H66.3999C63.5719 44 61.2793 46.2926 61.2793 49.1206V51.3481C61.2793 54.1761 63.5719 56.4687 66.3999 56.4687H80.8699C83.6979 56.4687 85.9905 54.1761 85.9905 51.3481V49.1206C85.9905 46.2926 83.6979 44 80.8699 44Z" fill="white" stroke="#B5B5B5" stroke-width="2" stroke-miterlimit="10"/>
<path d="M80.8699 101.773H66.3999C63.5719 101.773 61.2793 104.066 61.2793 106.894V109.121C61.2793 111.949 63.5719 114.242 66.3999 114.242H80.8699C83.6979 114.242 85.9905 111.949 85.9905 109.121V106.894C85.9905 104.066 83.6979 101.773 80.8699 101.773Z" fill="white" stroke="#B5B5B5" stroke-width="2" stroke-miterlimit="10"/>
<path d="M204.969 58.4102H203.053V99.9425H204.969V58.4102Z" fill="black"/>
<path d="M232.214 79.9933V78.0774H175.815V79.9933H232.214Z" fill="black"/>
<path d="M232.383 102.097L233.553 100.58L175.657 55.9295L174.487 57.4466L232.383 102.097Z" fill="black"/>
<path d="M174.462 100.591L175.632 102.109L233.528 57.4582L232.358 55.941L174.462 100.591Z" fill="black"/>
<path d="M253.576 72.2742H239.106C236.278 72.2742 233.985 74.5667 233.985 77.3948V79.6222C233.985 82.4502 236.278 84.7428 239.106 84.7428H253.576C256.404 84.7428 258.697 82.4502 258.697 79.6222V77.3948C258.697 74.5667 256.404 72.2742 253.576 72.2742Z" fill="white" stroke="#B5B5B5" stroke-width="2" stroke-miterlimit="10"/>
<path d="M253.576 44H239.106C236.278 44 233.985 46.2926 233.985 49.1206V51.3481C233.985 54.1761 236.278 56.4687 239.106 56.4687H253.576C256.404 56.4687 258.697 54.1761 258.697 51.3481V49.1206C258.697 46.2926 256.404 44 253.576 44Z" fill="white" stroke="#B5B5B5" stroke-width="2" stroke-miterlimit="10"/>
<path d="M253.576 101.773H239.106C236.278 101.773 233.985 104.066 233.985 106.894V109.121C233.985 111.949 236.278 114.242 239.106 114.242H253.576C256.404 114.242 258.697 111.949 258.697 109.121V106.894C258.697 104.066 256.404 101.773 253.576 101.773Z" fill="white" stroke="#B5B5B5" stroke-width="2" stroke-miterlimit="10"/>
<path d="M168.591 72.2742H154.121C151.293 72.2742 149 74.5667 149 77.3948V79.6222C149 82.4502 151.293 84.7428 154.121 84.7428H168.591C171.419 84.7428 173.711 82.4502 173.711 79.6222V77.3948C173.711 74.5667 171.419 72.2742 168.591 72.2742Z" fill="white" stroke="#B5B5B5" stroke-width="2" stroke-miterlimit="10"/>
<path d="M168.591 44H154.121C151.293 44 149 46.2926 149 49.1206V51.3481C149 54.1761 151.293 56.4687 154.121 56.4687H168.591C171.419 56.4687 173.711 54.1761 173.711 51.3481V49.1206C173.711 46.2926 171.419 44 168.591 44Z" fill="white" stroke="#B5B5B5" stroke-width="2" stroke-miterlimit="10"/>
<path d="M168.591 101.773H154.121C151.293 101.773 149 104.066 149 106.894V109.121C149 111.949 151.293 114.242 154.121 114.242H168.591C171.419 114.242 173.711 111.949 173.711 109.121V106.894C173.711 104.066 171.419 101.773 168.591 101.773Z" fill="white" stroke="#B5B5B5" stroke-width="2" stroke-miterlimit="10"/>
<path d="M210.87 44H196.4C193.572 44 191.279 46.2926 191.279 49.1206V51.3481C191.279 54.1761 193.572 56.4687 196.4 56.4687H210.87C213.698 56.4687 215.99 54.1761 215.99 51.3481V49.1206C215.99 46.2926 213.698 44 210.87 44Z" fill="white" stroke="#B5B5B5" stroke-width="2" stroke-miterlimit="10"/>
<path d="M210.87 101.773H196.4C193.572 101.773 191.279 104.066 191.279 106.894V109.121C191.279 111.949 193.572 114.242 196.4 114.242H210.87C213.698 114.242 215.99 111.949 215.99 109.121V106.894C215.99 104.066 213.698 101.773 210.87 101.773Z" fill="white" stroke="#B5B5B5" stroke-width="2" stroke-miterlimit="10"/>
<path d="M64.082 20.41C66.98 20.41 68.562 22.58 68.562 25.184C68.562 28.278 66.686 30.154 63.928 30.154C61.128 30.154 59.49 28.04 59.49 25.352C59.49 22.524 61.296 20.41 64.082 20.41ZM64.026 22.104C62.584 22.104 61.744 23.476 61.744 25.31C61.744 27.158 62.612 28.46 64.04 28.46C65.482 28.46 66.308 27.088 66.308 25.254C66.308 23.56 65.496 22.104 64.026 22.104ZM69.9592 29.958V20.69C70.7432 20.564 71.7652 20.494 72.8432 20.494C74.6352 20.494 75.7972 20.816 76.7072 21.502C77.6872 22.23 78.3032 23.392 78.3032 25.058C78.3032 26.864 77.6452 28.11 76.7352 28.88C75.7412 29.706 74.2292 30.098 72.3812 30.098C71.2752 30.098 70.4912 30.028 69.9592 29.958ZM72.1012 22.216V28.39C72.2832 28.432 72.5772 28.432 72.8432 28.432C74.7752 28.446 76.0352 27.382 76.0352 25.128C76.0492 23.168 74.9012 22.132 73.0672 22.132C72.5912 22.132 72.2832 22.174 72.1012 22.216Z" fill="black"/>
<path d="M194.082 20.41C196.98 20.41 198.562 22.58 198.562 25.184C198.562 28.278 196.686 30.154 193.928 30.154C191.128 30.154 189.49 28.04 189.49 25.352C189.49 22.524 191.296 20.41 194.082 20.41ZM194.026 22.104C192.584 22.104 191.744 23.476 191.744 25.31C191.744 27.158 192.612 28.46 194.04 28.46C195.482 28.46 196.308 27.088 196.308 25.254C196.308 23.56 195.496 22.104 194.026 22.104ZM199.595 29.566L200.029 27.802C200.603 28.096 201.485 28.39 202.395 28.39C203.375 28.39 203.893 27.984 203.893 27.368C203.893 26.78 203.445 26.444 202.311 26.038C200.743 25.492 199.721 24.624 199.721 23.252C199.721 21.642 201.065 20.41 203.291 20.41C204.355 20.41 205.139 20.634 205.699 20.886L205.223 22.608C204.845 22.426 204.173 22.16 203.249 22.16C202.325 22.16 201.877 22.58 201.877 23.07C201.877 23.672 202.409 23.938 203.627 24.4C205.293 25.016 206.077 25.884 206.077 27.214C206.077 28.796 204.859 30.14 202.269 30.14C201.191 30.14 200.127 29.86 199.595 29.566Z" fill="black"/>
</svg>
