<svg width="152" height="134" viewBox="0 0 152 134" fill="none" xmlns="http://www.w3.org/2000/svg">
<rect x="0.5" y="0.5" width="150.46" height="132.7" rx="5.5" fill="white" stroke="#B5B5B5"/>
<path d="M100.082 21.3636C102.98 21.3636 104.562 23.5336 104.562 26.1376C104.562 29.2316 102.686 31.1076 99.928 31.1076C97.128 31.1076 95.49 28.9936 95.49 26.3056C95.49 23.4776 97.296 21.3636 100.082 21.3636ZM100.026 23.0576C98.584 23.0576 97.744 24.4296 97.744 26.2636C97.744 28.1116 98.612 29.4136 100.04 29.4136C101.482 29.4136 102.308 28.0416 102.308 26.2076C102.308 24.5136 101.496 23.0576 100.026 23.0576ZM105.595 30.5196L106.029 28.7556C106.603 29.0496 107.485 29.3436 108.395 29.3436C109.375 29.3436 109.893 28.9376 109.893 28.3216C109.893 27.7336 109.445 27.3976 108.311 26.9916C106.743 26.4456 105.721 25.5776 105.721 24.2056C105.721 22.5956 107.065 21.3636 109.291 21.3636C110.355 21.3636 111.139 21.5876 111.699 21.8396L111.223 23.5616C110.845 23.3796 110.173 23.1136 109.249 23.1136C108.325 23.1136 107.877 23.5336 107.877 24.0236C107.877 24.6256 108.409 24.8916 109.627 25.3536C111.293 25.9696 112.077 26.8376 112.077 28.1676C112.077 29.7496 110.859 31.0936 108.269 31.0936C107.191 31.0936 106.127 30.8136 105.595 30.5196Z" fill="black"/>
<path d="M38.082 21.3636C40.98 21.3636 42.562 23.5336 42.562 26.1376C42.562 29.2316 40.686 31.1076 37.928 31.1076C35.128 31.1076 33.49 28.9936 33.49 26.3056C33.49 23.4776 35.296 21.3636 38.082 21.3636ZM38.026 23.0576C36.584 23.0576 35.744 24.4296 35.744 26.2636C35.744 28.1116 36.612 29.4136 38.04 29.4136C39.482 29.4136 40.308 28.0416 40.308 26.2076C40.308 24.5136 39.496 23.0576 38.026 23.0576ZM43.9592 30.9116V21.6436C44.7432 21.5176 45.7652 21.4476 46.8432 21.4476C48.6352 21.4476 49.7972 21.7696 50.7072 22.4556C51.6872 23.1836 52.3032 24.3456 52.3032 26.0116C52.3032 27.8176 51.6452 29.0636 50.7352 29.8336C49.7412 30.6596 48.2292 31.0516 46.3812 31.0516C45.2752 31.0516 44.4912 30.9816 43.9592 30.9116ZM46.1012 23.1696V29.3436C46.2832 29.3856 46.5772 29.3856 46.8432 29.3856C48.7752 29.3996 50.0352 28.3356 50.0352 26.0816C50.0492 24.1216 48.9012 23.0856 47.0672 23.0856C46.5912 23.0856 46.2832 23.1276 46.1012 23.1696Z" fill="black"/>
<path d="M44.5 101C57.4787 101 68 90.4787 68 77.5C68 64.5213 57.4787 54 44.5 54C31.5213 54 21 64.5213 21 77.5C21 90.4787 31.5213 101 44.5 101Z" fill="white" stroke="#B5B5B5" stroke-width="2" stroke-miterlimit="10"/>
<path d="M58.9827 86L60 85.4727L59.9551 85.3738C59.8151 85.0427 59.6015 84.7559 59.3341 84.5398C59.0667 84.3238 58.7542 84.1855 58.4254 84.1379C57.8148 84.027 57.2384 83.7522 56.7472 83.3376C56.256 82.923 55.8651 82.3815 55.6091 81.7609L51.2181 70.0446C48.7683 63.6344 41.389 63.0412 41.0748 63L41 64.2359C41.0711 64.2359 48.0053 64.8291 50.1821 70.5225L54.5693 82.2346C54.6104 82.3417 55.6128 84.9783 58.2795 85.3656C58.4216 85.3855 58.5568 85.4446 58.6726 85.5375C58.7883 85.6305 58.8808 85.7541 58.9415 85.897L58.9827 86Z" fill="#B5B5B5"/>
<path d="M58.9291 70L60 70.5046L59.9528 70.5992C59.8048 70.9156 59.5798 71.1897 59.2984 71.3963C59.0171 71.6029 58.6884 71.7355 58.3425 71.7818C57.6993 71.8851 57.0918 72.1467 56.5744 72.5429C56.057 72.9392 55.6459 73.4578 55.378 74.0523L50.752 85.2672C48.1772 91.3929 40.4094 91.9685 40.0787 92L40 90.8174C40.0748 90.8174 47.374 90.2498 49.6654 84.802L54.2835 73.599C54.3268 73.4926 55.3819 70.9737 58.189 70.5992C58.338 70.5802 58.4799 70.524 58.6017 70.4359C58.7234 70.3477 58.8211 70.2304 58.8858 70.0946L58.9291 70Z" fill="#B5B5B5"/>
<path d="M42.5703 80H43.8762L44.3288 79.0948C44.5143 78.746 44.633 78.4863 44.774 78.1969H44.7888C44.8927 78.4863 45.0189 78.746 45.1747 79.0948L45.5902 80H46.8813L45.4344 77.4698L46.8293 74.9989H45.5308L45.0931 75.9116C44.9447 76.2158 44.8334 76.4607 44.7146 76.7426H44.6998C44.5811 76.4236 44.4846 76.201 44.3585 75.9116L43.9355 74.9989H42.6445L44.0543 77.4401L42.5703 80Z" fill="#B5B5B5"/>
<path d="M105.5 54C92.5213 54 82 64.5213 82 77.5C82 90.4787 92.5213 101 105.5 101C118.479 101 129 90.4787 129 77.5C129 64.5213 118.479 54 105.5 54Z" fill="white" stroke="#B5B5B5" stroke-width="2" stroke-miterlimit="10"/>
<path d="M91.0173 69L90 69.5273L90.0449 69.6262C90.1849 69.9573 90.3985 70.2441 90.6659 70.4602C90.9333 70.6762 91.2458 70.8145 91.5746 70.8621C92.1852 70.973 92.7616 71.2478 93.2528 71.6624C93.744 72.077 94.1349 72.6185 94.3909 73.2391L98.7819 84.9554C101.232 91.3656 108.611 91.9588 108.925 92L109 90.7641C108.929 90.7641 101.995 90.1709 99.8179 84.4775L95.4307 72.7654C95.3896 72.6583 94.3872 70.0217 91.7205 69.6344C91.5784 69.6145 91.4432 69.5554 91.3274 69.4625C91.2117 69.3695 91.1192 69.2459 91.0585 69.103L91.0173 69Z" fill="#B5B5B5"/>
<path d="M91.0709 85L90 84.4954L90.0472 84.4008C90.1952 84.0844 90.4202 83.8103 90.7016 83.6037C90.9829 83.3971 91.3116 83.2645 91.6575 83.2182C92.3007 83.1149 92.9082 82.8533 93.4256 82.4571C93.943 82.0608 94.3541 81.5422 94.622 80.9477L99.248 69.7328C101.823 63.6071 109.591 63.0315 109.921 63L110 64.1826C109.925 64.1826 102.626 64.7502 100.335 70.198L95.7165 81.401C95.6732 81.5074 94.6181 84.0263 91.811 84.4008C91.662 84.4198 91.5201 84.476 91.3983 84.5641C91.2766 84.6523 91.1789 84.7696 91.1142 84.9054L91.0709 85Z" fill="#B5B5B5"/>
<path d="M107.43 75L106.124 75L105.671 75.9052C105.486 76.254 105.367 76.5137 105.226 76.8031L105.211 76.8031C105.107 76.5137 104.981 76.254 104.825 75.9052L104.41 75L103.119 75L104.566 77.5302L103.171 80.0011L104.469 80.0011L104.907 79.0884C105.055 78.7842 105.167 78.5393 105.285 78.2574L105.3 78.2574C105.419 78.5764 105.515 78.799 105.642 79.0884L106.064 80.0011L107.356 80.0011L105.946 77.5599L107.43 75Z" fill="#B5B5B5"/>
</svg>
