<svg width="152" height="134" viewBox="0 0 152 134" fill="none" xmlns="http://www.w3.org/2000/svg">
<rect x="0.5" y="0.5" width="150.46" height="132.7" rx="5.5" fill="white" stroke="#B5B5B5"/>
<path d="M106.082 20.41C108.98 20.41 110.562 22.58 110.562 25.184C110.562 28.278 108.686 30.154 105.928 30.154C103.128 30.154 101.49 28.04 101.49 25.352C101.49 22.524 103.296 20.41 106.082 20.41ZM106.026 22.104C104.584 22.104 103.744 23.476 103.744 25.31C103.744 27.158 104.612 28.46 106.04 28.46C107.482 28.46 108.308 27.088 108.308 25.254C108.308 23.56 107.496 22.104 106.026 22.104ZM111.595 29.566L112.029 27.802C112.603 28.096 113.485 28.39 114.395 28.39C115.375 28.39 115.893 27.984 115.893 27.368C115.893 26.78 115.445 26.444 114.311 26.038C112.743 25.492 111.721 24.624 111.721 23.252C111.721 21.642 113.065 20.41 115.291 20.41C116.355 20.41 117.139 20.634 117.699 20.886L117.223 22.608C116.845 22.426 116.173 22.16 115.249 22.16C114.325 22.16 113.877 22.58 113.877 23.07C113.877 23.672 114.409 23.938 115.627 24.4C117.293 25.016 118.077 25.884 118.077 27.214C118.077 28.796 116.859 30.14 114.269 30.14C113.191 30.14 112.127 29.86 111.595 29.566Z" fill="black"/>
<path d="M34.082 20.41C36.98 20.41 38.562 22.58 38.562 25.184C38.562 28.278 36.686 30.154 33.928 30.154C31.128 30.154 29.49 28.04 29.49 25.352C29.49 22.524 31.296 20.41 34.082 20.41ZM34.026 22.104C32.584 22.104 31.744 23.476 31.744 25.31C31.744 27.158 32.612 28.46 34.04 28.46C35.482 28.46 36.308 27.088 36.308 25.254C36.308 23.56 35.496 22.104 34.026 22.104ZM39.9592 29.958V20.69C40.7432 20.564 41.7652 20.494 42.8432 20.494C44.6352 20.494 45.7972 20.816 46.7072 21.502C47.6872 22.23 48.3032 23.392 48.3032 25.058C48.3032 26.864 47.6452 28.11 46.7352 28.88C45.7412 29.706 44.2292 30.098 42.3812 30.098C41.2752 30.098 40.4912 30.028 39.9592 29.958ZM42.1012 22.216V28.39C42.2832 28.432 42.5772 28.432 42.8432 28.432C44.7752 28.446 46.0352 27.382 46.0352 25.128C46.0492 23.168 44.9012 22.132 43.0672 22.132C42.5912 22.132 42.2832 22.174 42.1012 22.216Z" fill="black"/>
<path d="M40.5 101C53.4787 101 64 90.4787 64 77.5C64 64.5213 53.4787 54 40.5 54C27.5213 54 17 64.5213 17 77.5C17 90.4787 27.5213 101 40.5 101Z" fill="white" stroke="#B5B5B5" stroke-width="2" stroke-miterlimit="10"/>
<path d="M41 54H39V100H41V54Z" fill="#B5B5B5"/>
<path d="M63 78V76H17V78H63Z" fill="#B5B5B5"/>
<path d="M110.5 101C123.479 101 134 90.4787 134 77.5C134 64.5213 123.479 54 110.5 54C97.5213 54 87 64.5213 87 77.5C87 90.4787 97.5213 101 110.5 101Z" fill="white" stroke="#B5B5B5" stroke-width="2" stroke-miterlimit="10"/>
<path d="M111 54H109V100H111V54Z" fill="#B5B5B5"/>
<path d="M133 78V76H87V78H133Z" fill="#B5B5B5"/>
</svg>
