<svg width="287" height="134" viewBox="0 0 287 134" fill="none" xmlns="http://www.w3.org/2000/svg">
<rect x="0.5" y="0.5" width="286" height="133" rx="5.5" fill="white" stroke="#B5B5B5"/>
<path d="M84 119C106.644 119 125 100.644 125 78C125 55.3563 106.644 37 84 37C61.3563 37 43 55.3563 43 78C43 100.644 61.3563 119 84 119Z" fill="white" stroke="#B5B5B5" stroke-width="2" stroke-miterlimit="10"/>
<path d="M113.106 49.2658L111.51 47.734L53.9977 107.665L55.594 109.197L113.106 49.2658Z" fill="#B5B5B5"/>
<path d="M112.726 108.062L114.328 106.393L54.397 48.8809L52.795 50.5503L112.726 108.062Z" fill="#B5B5B5"/>
<path d="M77.2446 52.6574L77.6166 51.1454C78.1086 51.3974 78.8646 51.6494 79.6446 51.6494C80.4846 51.6494 80.9286 51.3014 80.9286 50.7734C80.9286 50.2694 80.5446 49.9814 79.5726 49.6334C78.2286 49.1654 77.3526 48.4214 77.3526 47.2454C77.3526 45.8654 78.5046 44.8094 80.4126 44.8094C81.3246 44.8094 81.9966 45.0014 82.4766 45.2174L82.0686 46.6934C81.7446 46.5374 81.1686 46.3094 80.3766 46.3094C79.5846 46.3094 79.2006 46.6694 79.2006 47.0894C79.2006 47.6054 79.6566 47.8334 80.7006 48.2294C82.1286 48.7574 82.8006 49.5014 82.8006 50.6414C82.8006 51.9974 81.7566 53.1494 79.5366 53.1494C78.6126 53.1494 77.7006 52.9094 77.2446 52.6574ZM84.0371 53.0294V44.9414H85.8731V51.4934H89.0891V53.0294H84.0371Z" fill="black"/>
<path d="M77.2446 105.716L77.6166 104.204C78.1086 104.456 78.8646 104.708 79.6446 104.708C80.4846 104.708 80.9286 104.36 80.9286 103.832C80.9286 103.328 80.5446 103.04 79.5726 102.692C78.2286 102.224 77.3526 101.48 77.3526 100.304C77.3526 98.9243 78.5046 97.8683 80.4126 97.8683C81.3246 97.8683 81.9966 98.0603 82.4766 98.2763L82.0686 99.7523C81.7446 99.5963 81.1686 99.3683 80.3766 99.3683C79.5846 99.3683 79.2006 99.7283 79.2006 100.148C79.2006 100.664 79.6566 100.892 80.7006 101.288C82.1286 101.816 82.8006 102.56 82.8006 103.7C82.8006 105.056 81.7566 106.208 79.5366 106.208C78.6126 106.208 77.7006 105.968 77.2446 105.716ZM84.0371 106.088V98.0003H85.8731V104.552H89.0891V106.088H84.0371Z" fill="black"/>
<path d="M51.9214 80.3926L52.2934 78.8806C52.7854 79.1326 53.5414 79.3846 54.3214 79.3846C55.1614 79.3846 55.6054 79.0366 55.6054 78.5086C55.6054 78.0046 55.2214 77.7166 54.2494 77.3686C52.9054 76.9006 52.0294 76.1566 52.0294 74.9806C52.0294 73.6006 53.1814 72.5446 55.0894 72.5446C56.0014 72.5446 56.6734 72.7366 57.1534 72.9526L56.7454 74.4286C56.4214 74.2726 55.8454 74.0446 55.0534 74.0446C54.2614 74.0446 53.8774 74.4046 53.8774 74.8246C53.8774 75.3406 54.3334 75.5686 55.3774 75.9646C56.8054 76.4926 57.4774 77.2366 57.4774 78.3766C57.4774 79.7326 56.4334 80.8846 54.2134 80.8846C53.2894 80.8846 52.3774 80.6446 51.9214 80.3926ZM58.7139 80.7646V72.6766H60.5499V79.2286H63.7659V80.7646H58.7139Z" fill="black"/>
<path d="M101.363 80.3926L101.735 78.8806C102.227 79.1326 102.983 79.3846 103.763 79.3846C104.603 79.3846 105.047 79.0366 105.047 78.5086C105.047 78.0046 104.663 77.7166 103.691 77.3686C102.347 76.9006 101.471 76.1566 101.471 74.9806C101.471 73.6006 102.623 72.5446 104.531 72.5446C105.443 72.5446 106.115 72.7366 106.595 72.9526L106.187 74.4286C105.863 74.2726 105.287 74.0446 104.495 74.0446C103.703 74.0446 103.319 74.4046 103.319 74.8246C103.319 75.3406 103.775 75.5686 104.819 75.9646C106.247 76.4926 106.919 77.2366 106.919 78.3766C106.919 79.7326 105.875 80.8846 103.655 80.8846C102.731 80.8846 101.819 80.6446 101.363 80.3926ZM108.155 80.7646V72.6766H109.991V79.2286H113.207V80.7646H108.155Z" fill="black"/>
<path d="M203 119C225.644 119 244 100.644 244 78C244 55.3563 225.644 37 203 37C180.356 37 162 55.3563 162 78C162 100.644 180.356 119 203 119Z" fill="white" stroke="#B5B5B5" stroke-width="2" stroke-miterlimit="10"/>
<path d="M232.106 49.2655L230.51 47.7338L172.998 107.665L174.594 109.197L232.106 49.2655Z" fill="#B5B5B5"/>
<path d="M231.726 108.062L233.328 106.393L173.397 48.8809L171.795 50.5503L231.726 108.062Z" fill="#B5B5B5"/>
<path d="M196.245 52.6572L196.617 51.1452C197.109 51.3972 197.865 51.6492 198.645 51.6492C199.485 51.6492 199.929 51.3012 199.929 50.7732C199.929 50.2692 199.545 49.9812 198.573 49.6332C197.229 49.1652 196.353 48.4212 196.353 47.2452C196.353 45.8652 197.505 44.8092 199.413 44.8092C200.325 44.8092 200.997 45.0012 201.477 45.2172L201.069 46.6932C200.745 46.5372 200.169 46.3092 199.377 46.3092C198.585 46.3092 198.201 46.6692 198.201 47.0892C198.201 47.6052 198.657 47.8332 199.701 48.2292C201.129 48.7572 201.801 49.5012 201.801 50.6412C201.801 51.9972 200.757 53.1492 198.537 53.1492C197.613 53.1492 196.701 52.9092 196.245 52.6572ZM203.037 53.0292V44.9412H204.873V51.4932H208.089V53.0292H203.037Z" fill="black"/>
<path d="M196.245 105.716L196.617 104.204C197.109 104.456 197.865 104.708 198.645 104.708C199.485 104.708 199.929 104.36 199.929 103.832C199.929 103.328 199.545 103.04 198.573 102.692C197.229 102.224 196.353 101.48 196.353 100.304C196.353 98.9241 197.505 97.8681 199.413 97.8681C200.325 97.8681 200.997 98.0601 201.477 98.2761L201.069 99.7521C200.745 99.5961 200.169 99.3681 199.377 99.3681C198.585 99.3681 198.201 99.7281 198.201 100.148C198.201 100.664 198.657 100.892 199.701 101.288C201.129 101.816 201.801 102.56 201.801 103.7C201.801 105.056 200.757 106.208 198.537 106.208C197.613 106.208 196.701 105.968 196.245 105.716ZM203.037 106.088V98.0001H204.873V104.552H208.089V106.088H203.037Z" fill="black"/>
<path d="M170.921 80.3929L171.293 78.8809C171.785 79.1329 172.541 79.3849 173.321 79.3849C174.161 79.3849 174.605 79.0369 174.605 78.5089C174.605 78.0049 174.221 77.7169 173.249 77.3689C171.905 76.9009 171.029 76.1569 171.029 74.9809C171.029 73.6009 172.181 72.5449 174.089 72.5449C175.001 72.5449 175.673 72.7369 176.153 72.9529L175.745 74.4289C175.421 74.2729 174.845 74.0449 174.053 74.0449C173.261 74.0449 172.877 74.4049 172.877 74.8249C172.877 75.3409 173.333 75.5689 174.377 75.9649C175.805 76.4929 176.477 77.2369 176.477 78.3769C176.477 79.7329 175.433 80.8849 173.213 80.8849C172.289 80.8849 171.377 80.6449 170.921 80.3929ZM177.714 80.7649V72.6769H179.55V79.2289H182.766V80.7649H177.714Z" fill="black"/>
<path d="M220.362 80.3929L220.734 78.8809C221.226 79.1329 221.982 79.3849 222.762 79.3849C223.602 79.3849 224.046 79.0369 224.046 78.5089C224.046 78.0049 223.662 77.7169 222.69 77.3689C221.346 76.9009 220.47 76.1569 220.47 74.9809C220.47 73.6009 221.622 72.5449 223.53 72.5449C224.442 72.5449 225.114 72.7369 225.594 72.9529L225.186 74.4289C224.862 74.2729 224.286 74.0449 223.494 74.0449C222.702 74.0449 222.318 74.4049 222.318 74.8249C222.318 75.3409 222.774 75.5689 223.818 75.9649C225.246 76.4929 225.918 77.2369 225.918 78.3769C225.918 79.7329 224.874 80.8849 222.654 80.8849C221.73 80.8849 220.818 80.6449 220.362 80.3929ZM227.154 80.7649V72.6769H228.99V79.2289H232.206V80.7649H227.154Z" fill="black"/>
<path d="M80.082 20.41C82.98 20.41 84.562 22.58 84.562 25.184C84.562 28.278 82.686 30.154 79.928 30.154C77.128 30.154 75.49 28.04 75.49 25.352C75.49 22.524 77.296 20.41 80.082 20.41ZM80.026 22.104C78.584 22.104 77.744 23.476 77.744 25.31C77.744 27.158 78.612 28.46 80.04 28.46C81.482 28.46 82.308 27.088 82.308 25.254C82.308 23.56 81.496 22.104 80.026 22.104ZM85.9592 29.958V20.69C86.7432 20.564 87.7652 20.494 88.8432 20.494C90.6352 20.494 91.7972 20.816 92.7072 21.502C93.6872 22.23 94.3032 23.392 94.3032 25.058C94.3032 26.864 93.6452 28.11 92.7352 28.88C91.7412 29.706 90.2292 30.098 88.3812 30.098C87.2752 30.098 86.4912 30.028 85.9592 29.958ZM88.1012 22.216V28.39C88.2832 28.432 88.5772 28.432 88.8432 28.432C90.7752 28.446 92.0352 27.382 92.0352 25.128C92.0492 23.168 90.9012 22.132 89.0672 22.132C88.5912 22.132 88.2832 22.174 88.1012 22.216Z" fill="black"/>
<path d="M200.082 20.41C202.98 20.41 204.562 22.58 204.562 25.184C204.562 28.278 202.686 30.154 199.928 30.154C197.128 30.154 195.49 28.04 195.49 25.352C195.49 22.524 197.296 20.41 200.082 20.41ZM200.026 22.104C198.584 22.104 197.744 23.476 197.744 25.31C197.744 27.158 198.612 28.46 200.04 28.46C201.482 28.46 202.308 27.088 202.308 25.254C202.308 23.56 201.496 22.104 200.026 22.104ZM205.595 29.566L206.029 27.802C206.603 28.096 207.485 28.39 208.395 28.39C209.375 28.39 209.893 27.984 209.893 27.368C209.893 26.78 209.445 26.444 208.311 26.038C206.743 25.492 205.721 24.624 205.721 23.252C205.721 21.642 207.065 20.41 209.291 20.41C210.355 20.41 211.139 20.634 211.699 20.886L211.223 22.608C210.845 22.426 210.173 22.16 209.249 22.16C208.325 22.16 207.877 22.58 207.877 23.07C207.877 23.672 208.409 23.938 209.627 24.4C211.293 25.016 212.077 25.884 212.077 27.214C212.077 28.796 210.859 30.14 208.269 30.14C207.191 30.14 206.127 29.86 205.595 29.566Z" fill="black"/>
</svg>
