<svg width="182" height="57" viewBox="0 0 182 57" fill="none" xmlns="http://www.w3.org/2000/svg">
<g clip-path="url(#clip0_5_241)">
<path d="M26.5 2.82812C12.3215 2.82812 0.828125 14.3215 0.828125 28.5C0.828125 42.6785 12.3215 54.1719 26.5 54.1719C40.6785 54.1719 52.1719 42.6785 52.1719 28.5C52.1719 14.3215 40.6785 2.82812 26.5 2.82812ZM26.5 47.5469C15.9735 47.5469 7.45312 39.0286 7.45312 28.5C7.45312 17.9735 15.9714 9.45312 26.5 9.45312C37.0265 9.45312 45.5469 17.9714 45.5469 28.5C45.5469 39.0265 37.0286 47.5469 26.5 47.5469ZM26.5 15.25C19.1825 15.25 13.25 21.1825 13.25 28.5C13.25 35.8175 19.1825 41.75 26.5 41.75C33.8175 41.75 39.75 35.8175 39.75 28.5C39.75 21.1825 33.8175 15.25 26.5 15.25ZM26.5 35.125C22.8469 35.125 19.875 32.1531 19.875 28.5C19.875 24.8469 22.8469 21.875 26.5 21.875C30.1531 21.875 33.125 24.8469 33.125 28.5C33.125 32.1531 30.1531 35.125 26.5 35.125Z" fill="#2CD889"/>
</g>
<path d="M63.48 37V9H71.24V30.2H84.8V37H63.48ZM100.607 37.56C91.9669 37.56 85.5669 31.12 85.5669 23.08V23C85.5669 14.96 92.0469 8.44 100.687 8.44C109.327 8.44 115.727 14.88 115.727 22.92V23C115.727 31.04 109.247 37.56 100.607 37.56ZM100.687 30.56C104.967 30.56 107.807 27.12 107.807 23.08V23C107.807 18.96 104.887 15.44 100.607 15.44C96.3669 15.44 93.5269 18.88 93.5269 22.92V23C93.5269 27.04 96.4469 30.56 100.687 30.56ZM134.049 37.56C125.329 37.56 118.809 31.56 118.809 23.08V23C118.809 14.84 125.209 8.44 133.889 8.44C138.809 8.44 142.289 9.96 145.249 12.52L140.689 18C138.689 16.32 136.689 15.36 133.929 15.36C129.889 15.36 126.769 18.76 126.769 23.04V23.12C126.769 27.64 129.929 30.88 134.369 30.88C136.249 30.88 137.689 30.48 138.849 29.72V26.32H133.329V20.64H146.209V33.24C143.249 35.68 139.129 37.56 134.049 37.56ZM164.591 37.56C155.951 37.56 149.551 31.12 149.551 23.08V23C149.551 14.96 156.031 8.44 164.671 8.44C173.311 8.44 179.711 14.88 179.711 22.92V23C179.711 31.04 173.231 37.56 164.591 37.56ZM164.671 30.56C168.951 30.56 171.791 27.12 171.791 23.08V23C171.791 18.96 168.871 15.44 164.591 15.44C160.351 15.44 157.511 18.88 157.511 22.92V23C157.511 27.04 160.431 30.56 164.671 30.56Z" fill="black"/>
<path d="M68.096 45.222V54H66.976V45.222H63.686V44.2H71.386V45.222H68.096ZM74.1228 47.616C73.6934 47.616 73.3014 47.6673 72.9468 47.77C72.6014 47.8633 72.2608 47.9893 71.9248 48.148L71.6028 47.266C72.0041 47.0793 72.4101 46.9347 72.8208 46.832C73.2314 46.72 73.7028 46.664 74.2348 46.664C75.2241 46.664 75.9848 46.9113 76.5168 47.406C77.0488 47.8913 77.3148 48.6147 77.3148 49.576V54H76.2788V52.908C76.0268 53.2347 75.6861 53.524 75.2568 53.776C74.8368 54.028 74.3048 54.154 73.6608 54.154C73.3248 54.154 72.9934 54.1073 72.6668 54.014C72.3494 53.9207 72.0601 53.7807 71.7988 53.594C71.5468 53.398 71.3414 53.16 71.1828 52.88C71.0334 52.6 70.9588 52.2687 70.9588 51.886C70.9588 51.5033 71.0334 51.1673 71.1828 50.878C71.3321 50.5793 71.5421 50.332 71.8128 50.136C72.0928 49.94 72.4194 49.7907 72.7928 49.688C73.1754 49.5853 73.5954 49.534 74.0528 49.534C74.5194 49.534 74.9254 49.562 75.2708 49.618C75.6161 49.674 75.9521 49.7487 76.2788 49.842V49.59C76.2788 48.9367 76.0874 48.4467 75.7048 48.12C75.3314 47.784 74.8041 47.616 74.1228 47.616ZM74.1648 50.332C73.4834 50.332 72.9608 50.4673 72.5968 50.738C72.2328 51.0087 72.0508 51.3773 72.0508 51.844C72.0508 52.0773 72.0974 52.2827 72.1908 52.46C72.2934 52.6373 72.4288 52.7913 72.5968 52.922C72.7648 53.0433 72.9561 53.1367 73.1708 53.202C73.3948 53.2673 73.6281 53.3 73.8708 53.3C74.2068 53.3 74.5194 53.2533 74.8088 53.16C75.1074 53.0573 75.3641 52.922 75.5788 52.754C75.8028 52.5767 75.9754 52.3713 76.0968 52.138C76.2274 51.8953 76.2928 51.6293 76.2928 51.34V50.64C76.0221 50.5653 75.7094 50.4953 75.3548 50.43C75.0094 50.3647 74.6128 50.332 74.1648 50.332ZM86.5002 52.74C86.5002 53.328 86.4115 53.8413 86.2342 54.28C86.0662 54.7187 85.8189 55.0827 85.4922 55.372C85.1749 55.6707 84.7875 55.8947 84.3302 56.044C83.8822 56.1933 83.3782 56.268 82.8182 56.268C82.2115 56.268 81.6329 56.184 81.0822 56.016C80.5315 55.848 80.0135 55.596 79.5282 55.26L80.0182 54.42C80.4382 54.7187 80.8769 54.9473 81.3342 55.106C81.7915 55.2647 82.2815 55.344 82.8042 55.344C83.6069 55.344 84.2462 55.1247 84.7222 54.686C85.1982 54.2567 85.4362 53.6173 85.4362 52.768V51.914C85.1189 52.334 84.7315 52.6933 84.2742 52.992C83.8169 53.2907 83.2569 53.44 82.5942 53.44C82.1555 53.44 81.7309 53.3653 81.3202 53.216C80.9189 53.0573 80.5595 52.8333 80.2422 52.544C79.9249 52.2453 79.6682 51.886 79.4722 51.466C79.2855 51.046 79.1922 50.57 79.1922 50.038C79.1922 49.506 79.2855 49.03 79.4722 48.61C79.6682 48.1807 79.9249 47.8213 80.2422 47.532C80.5595 47.2333 80.9235 47.0047 81.3342 46.846C81.7449 46.6873 82.1649 46.608 82.5942 46.608C82.9302 46.608 83.2382 46.65 83.5182 46.734C83.8075 46.8087 84.0642 46.9113 84.2882 47.042C84.5215 47.1727 84.7315 47.3267 84.9182 47.504C85.1049 47.6813 85.2729 47.868 85.4222 48.064V46.762H86.5002V52.74ZM85.4642 50.024C85.4642 49.6507 85.3895 49.3147 85.2402 49.016C85.0909 48.708 84.8902 48.4467 84.6382 48.232C84.3955 48.0173 84.1155 47.854 83.7982 47.742C83.4809 47.6207 83.1495 47.56 82.8042 47.56C82.4589 47.56 82.1322 47.616 81.8242 47.728C81.5255 47.84 81.2595 48.0033 81.0262 48.218C80.8022 48.4327 80.6249 48.694 80.4942 49.002C80.3635 49.3007 80.2982 49.6367 80.2982 50.01C80.2982 50.3833 80.3635 50.724 80.4942 51.032C80.6342 51.3307 80.8162 51.592 81.0402 51.816C81.2735 52.0307 81.5395 52.1987 81.8382 52.32C82.1462 52.432 82.4682 52.488 82.8042 52.488C83.1495 52.488 83.4809 52.432 83.7982 52.32C84.1155 52.1987 84.3955 52.0307 84.6382 51.816C84.8902 51.6013 85.0909 51.3447 85.2402 51.046C85.3895 50.738 85.4642 50.3973 85.4642 50.024ZM90.0851 54H89.0071V43.78H90.0851V54ZM93.8468 45.18H92.6148V43.99H93.8468V45.18ZM93.7628 54H92.6848V46.762H93.7628V54ZM97.3425 49.856V54H96.2645V46.762H97.3425V48.022C97.5852 47.63 97.9025 47.2987 98.2945 47.028C98.6865 46.748 99.1952 46.608 99.8205 46.608C100.259 46.608 100.647 46.678 100.983 46.818C101.328 46.958 101.617 47.1587 101.851 47.42C102.093 47.672 102.275 47.9753 102.397 48.33C102.527 48.6847 102.593 49.0767 102.593 49.506V54H101.515V49.772C101.515 49.1 101.342 48.568 100.997 48.176C100.651 47.784 100.157 47.588 99.5125 47.588C99.2045 47.588 98.9152 47.644 98.6445 47.756C98.3832 47.8587 98.1545 48.0127 97.9585 48.218C97.7625 48.414 97.6085 48.652 97.4965 48.932C97.3939 49.212 97.3425 49.52 97.3425 49.856ZM105.535 50.78C105.573 51.172 105.666 51.522 105.816 51.83C105.965 52.1287 106.156 52.3853 106.39 52.6C106.623 52.8053 106.884 52.964 107.174 53.076C107.463 53.1787 107.766 53.23 108.084 53.23C108.588 53.23 109.017 53.1367 109.372 52.95C109.736 52.7633 110.067 52.516 110.366 52.208L111.038 52.81C110.674 53.2207 110.258 53.552 109.792 53.804C109.325 54.0467 108.746 54.168 108.056 54.168C107.561 54.168 107.094 54.0793 106.656 53.902C106.217 53.7153 105.834 53.4587 105.508 53.132C105.181 52.796 104.92 52.3947 104.724 51.928C104.537 51.4613 104.444 50.948 104.444 50.388C104.444 49.8653 104.528 49.3753 104.696 48.918C104.873 48.4513 105.116 48.05 105.424 47.714C105.732 47.3687 106.096 47.098 106.516 46.902C106.945 46.706 107.412 46.608 107.916 46.608C108.448 46.608 108.924 46.7107 109.344 46.916C109.764 47.112 110.118 47.3827 110.408 47.728C110.697 48.0733 110.916 48.4793 111.066 48.946C111.215 49.4127 111.29 49.912 111.29 50.444C111.29 50.4907 111.29 50.542 111.29 50.598C111.29 50.654 111.285 50.7147 111.276 50.78H105.535ZM105.535 49.982H110.198C110.17 49.6553 110.1 49.3427 109.988 49.044C109.885 48.7453 109.736 48.484 109.54 48.26C109.353 48.036 109.12 47.8587 108.84 47.728C108.569 47.588 108.252 47.518 107.888 47.518C107.57 47.518 107.276 47.5833 107.006 47.714C106.735 47.8353 106.497 48.008 106.292 48.232C106.086 48.4467 105.918 48.7033 105.788 49.002C105.657 49.3007 105.573 49.6273 105.535 49.982ZM124.318 49.59H118.662V54H117.556V44.2H118.662V48.554H124.318V44.2H125.424V54H124.318V49.59ZM128.655 50.78C128.692 51.172 128.785 51.522 128.935 51.83C129.084 52.1287 129.275 52.3853 129.509 52.6C129.742 52.8053 130.003 52.964 130.293 53.076C130.582 53.1787 130.885 53.23 131.203 53.23C131.707 53.23 132.136 53.1367 132.491 52.95C132.855 52.7633 133.186 52.516 133.485 52.208L134.157 52.81C133.793 53.2207 133.377 53.552 132.911 53.804C132.444 54.0467 131.865 54.168 131.175 54.168C130.68 54.168 130.213 54.0793 129.775 53.902C129.336 53.7153 128.953 53.4587 128.627 53.132C128.3 52.796 128.039 52.3947 127.843 51.928C127.656 51.4613 127.563 50.948 127.563 50.388C127.563 49.8653 127.647 49.3753 127.815 48.918C127.992 48.4513 128.235 48.05 128.543 47.714C128.851 47.3687 129.215 47.098 129.635 46.902C130.064 46.706 130.531 46.608 131.035 46.608C131.567 46.608 132.043 46.7107 132.463 46.916C132.883 47.112 133.237 47.3827 133.527 47.728C133.816 48.0733 134.035 48.4793 134.185 48.946C134.334 49.4127 134.409 49.912 134.409 50.444C134.409 50.4907 134.409 50.542 134.409 50.598C134.409 50.654 134.404 50.7147 134.395 50.78H128.655ZM128.655 49.982H133.317C133.289 49.6553 133.219 49.3427 133.107 49.044C133.004 48.7453 132.855 48.484 132.659 48.26C132.472 48.036 132.239 47.8587 131.959 47.728C131.688 47.588 131.371 47.518 131.007 47.518C130.689 47.518 130.395 47.5833 130.125 47.714C129.854 47.8353 129.616 48.008 129.411 48.232C129.205 48.4467 129.037 48.7033 128.907 49.002C128.776 49.3007 128.692 49.6273 128.655 49.982ZM137.374 51.116V54H136.296V46.762H137.374V48.652C137.504 48.3533 137.668 48.078 137.864 47.826C138.06 47.574 138.284 47.3593 138.536 47.182C138.788 46.9953 139.063 46.8553 139.362 46.762C139.66 46.6687 139.982 46.6267 140.328 46.636V47.798H140.244C139.852 47.798 139.478 47.868 139.124 48.008C138.778 48.148 138.475 48.358 138.214 48.638C137.952 48.918 137.747 49.268 137.598 49.688C137.448 50.0987 137.374 50.5747 137.374 51.116ZM142.299 50.78C142.337 51.172 142.43 51.522 142.579 51.83C142.729 52.1287 142.92 52.3853 143.153 52.6C143.387 52.8053 143.648 52.964 143.937 53.076C144.227 53.1787 144.53 53.23 144.847 53.23C145.351 53.23 145.781 53.1367 146.135 52.95C146.499 52.7633 146.831 52.516 147.129 52.208L147.801 52.81C147.437 53.2207 147.022 53.552 146.555 53.804C146.089 54.0467 145.51 54.168 144.819 54.168C144.325 54.168 143.858 54.0793 143.419 53.902C142.981 53.7153 142.598 53.4587 142.271 53.132C141.945 52.796 141.683 52.3947 141.487 51.928C141.301 51.4613 141.207 50.948 141.207 50.388C141.207 49.8653 141.291 49.3753 141.459 48.918C141.637 48.4513 141.879 48.05 142.187 47.714C142.495 47.3687 142.859 47.098 143.279 46.902C143.709 46.706 144.175 46.608 144.679 46.608C145.211 46.608 145.687 46.7107 146.107 46.916C146.527 47.112 146.882 47.3827 147.171 47.728C147.461 48.0733 147.68 48.4793 147.829 48.946C147.979 49.4127 148.053 49.912 148.053 50.444C148.053 50.4907 148.053 50.542 148.053 50.598C148.053 50.654 148.049 50.7147 148.039 50.78H142.299ZM142.299 49.982H146.961C146.933 49.6553 146.863 49.3427 146.751 49.044C146.649 48.7453 146.499 48.484 146.303 48.26C146.117 48.036 145.883 47.8587 145.603 47.728C145.333 47.588 145.015 47.518 144.651 47.518C144.334 47.518 144.04 47.5833 143.769 47.714C143.499 47.8353 143.261 48.008 143.055 48.232C142.85 48.4467 142.682 48.7033 142.551 49.002C142.421 49.3007 142.337 49.6273 142.299 49.982Z" fill="black"/>
<defs>
<clipPath id="clip0_5_241">
<rect width="53" height="53" fill="white" transform="translate(0 2)"/>
</clipPath>
</defs>
</svg>
