<?xml version="1.0" encoding="utf-8"?>
<!-- Generator: Adobe Illustrator 25.2.0, SVG Export Plug-In . SVG Version: 6.00 Build 0)  -->
<svg version="1.1" id="Layer_1" xmlns="http://www.w3.org/2000/svg" xmlns:xlink="http://www.w3.org/1999/xlink" x="0px" y="0px"
	 viewBox="0 0 50 50" style="enable-background:new 0 0 50 50;" xml:space="preserve">
<style type="text/css">
	.st0{fill:#FFFFFF;fill-opacity:0.2;enable-background:new    ;}
	.st1{clip-path:url(#SVGID_2_);}
	.st2{fill-rule:evenodd;clip-rule:evenodd;fill:#0058C0;}
	.st3{fill:#0058C0;}
</style>
<path class="st0" d="M5,0h40c2.8,0,5,2.2,5,5v40c0,2.8-2.2,5-5,5H5c-2.8,0-5-2.2-5-5V5C0,2.2,2.2,0,5,0z"/>
<g>
	<g>
		<defs>
			<rect id="SVGID_1_" x="6.8" y="6.8" width="36.4" height="36.4"/>
		</defs>
		<clipPath id="SVGID_2_">
			<use xlink:href="#SVGID_1_"  style="overflow:visible;"/>
		</clipPath>
		<g class="st1">
			<path class="st2" d="M14.9,10.3c0-0.4,0.3-0.7,0.7-0.7h1.3c0.4,0,0.7,0.3,0.7,0.7v3.3H31v-3.3c0-0.4,0.3-0.7,0.7-0.7H33
				c0.4,0,0.7,0.3,0.7,0.7v3.3h4c1.5,0,2.7,1.2,2.7,2.7v18.5c0-2.2-1-4.2-2.7-5.5V23H10.9v13.4c0,0.7,0.6,1.3,1.3,1.3H27
				c0.5,1.1,1.2,2,2.2,2.7H10.9c-1.5,0-2.7-1.2-2.7-2.7V16.3c0-1.5,1.2-2.7,2.7-2.7h4V10.3z M17.6,16.3H31v1.3
				c0,0.4,0.3,0.7,0.7,0.7H33c0.4,0,0.7-0.3,0.7-0.7v-1.3h2.7c0.7,0,1.3,0.6,1.3,1.3v2.7H10.9v-2.7c0-0.7,0.6-1.3,1.3-1.3h2.7v1.3
				c0,0.4,0.3,0.7,0.7,0.7h1.3c0.4,0,0.7-0.3,0.7-0.7V16.3z"/>
			<path class="st3" d="M37.6,40.4c1.7-1.3,2.8-3.3,2.8-5.6v2.9C40.4,39.2,39.2,40.4,37.6,40.4C37.7,40.4,37.6,40.4,37.6,40.4z"/>
			<path class="st2" d="M33.4,28.6c-3.4,0-6.2,2.8-6.2,6.2S30,41,33.4,41s6.2-2.8,6.2-6.2C39.6,31.4,36.8,28.6,33.4,28.6z M25,34.8
				c0-4.6,3.8-8.4,8.4-8.4s8.4,3.8,8.4,8.4s-3.8,8.4-8.4,8.4S25,39.4,25,34.8z"/>
			<path class="st3" d="M29.5,33.6c0.3-0.3,0.9-0.3,1.2,0l2.5,2.5c0.3,0.3,0.3,0.9,0,1.2s-0.9,0.3-1.2,0l-2.5-2.5
				C29.1,34.5,29.1,34,29.5,33.6z"/>
			<path class="st3" d="M37.4,32.2c-0.3-0.3-0.8-0.3-1.1,0l-4.1,4.1c-0.3,0.3-0.3,0.8,0,1.1s0.8,0.3,1.1,0l4.1-4.1
				C37.7,33,37.7,32.5,37.4,32.2z"/>
		</g>
	</g>
</g>
</svg>
