<svg width="50" height="50" viewBox="0 0 50 50" fill="none" xmlns="http://www.w3.org/2000/svg">
<rect width="50" height="50" rx="5" fill="white" fill-opacity="0.2"/>
<path d="M17.7169 29.0863C19.8479 29.0863 21.5754 27.3588 21.5754 25.2279C21.5754 23.0969 19.8479 21.3694 17.7169 21.3694C15.586 21.3694 13.8585 23.0969 13.8585 25.2279C13.8585 27.3588 15.586 29.0863 17.7169 29.0863Z" stroke="#BCFFBB" stroke-width="2" stroke-miterlimit="10" stroke-linecap="round"/>
<path d="M16.4022 29.0874H19.0314C20.7293 29.0873 22.3577 29.7617 23.5584 30.9622C24.7592 32.1626 25.4339 33.7909 25.4341 35.4888V38.9439C25.4341 39.224 25.3229 39.4926 25.1248 39.6906C24.9268 39.8887 24.6582 39.9999 24.3781 39.9999H11.0557C10.7757 39.9999 10.507 39.8887 10.309 39.6906C10.111 39.4926 9.99969 39.224 9.99969 38.9439V35.4888C9.99997 33.791 10.6746 32.1627 11.8753 30.9623C13.076 29.7618 14.7043 29.0874 16.4022 29.0874Z" stroke="#BCFFBB" stroke-width="2" stroke-miterlimit="10" stroke-linecap="round"/>
<path d="M27.8522 27.8257C29.5331 27.8257 30.8957 26.4631 30.8957 24.7823C30.8957 23.1014 29.5331 21.7388 27.8522 21.7388C26.1713 21.7388 24.8087 23.1014 24.8087 24.7823C24.8087 26.4631 26.1713 27.8257 27.8522 27.8257Z" stroke="#BCFFBB" stroke-width="2" stroke-miterlimit="10" stroke-linecap="round"/>
<path d="M27.547 36.435H32.9354C33.2016 36.4341 33.4567 36.3277 33.6447 36.1392C33.8327 35.9507 33.9384 35.6954 33.9386 35.4291V33.9137C33.9407 32.8051 33.6395 31.7171 33.0676 30.7674C32.4957 29.8177 31.6749 29.0426 30.6941 28.5259C29.7133 28.0093 28.6098 27.7708 27.5032 27.8363C26.3965 27.9018 25.3289 28.2688 24.4158 28.8976" stroke="#BCFFBB" stroke-width="2" stroke-miterlimit="10" stroke-linecap="round"/>
<path d="M34.3637 21.2724C37.4765 21.2724 40 18.7489 40 15.6361C40 12.5232 37.4765 9.99976 34.3637 9.99976C31.2508 9.99976 28.7274 12.5232 28.7274 15.6361C28.7274 18.7489 31.2508 21.2724 34.3637 21.2724Z" stroke="#BCFFBB" stroke-width="2" stroke-miterlimit="10" stroke-linecap="round"/>
<path d="M34.3637 13.0691V15.6358H37.7794" stroke="#BCFFBB" stroke-width="2" stroke-miterlimit="10" stroke-linecap="round"/>
</svg>
